<?xml version="1.0" encoding="UTF-8"?>
<!DOCTYPE svg PUBLIC "-//W3C//DTD SVG 1.1//EN" "http://www.w3.org/Graphics/SVG/1.1/DTD/svg11.dtd">
<svg xmlns="http://www.w3.org/2000/svg" version="1.1" width="360px" height="360px" style="shape-rendering:geometricPrecision; text-rendering:geometricPrecision; image-rendering:optimizeQuality; fill-rule:evenodd; clip-rule:evenodd" xmlns:xlink="http://www.w3.org/1999/xlink">
<g><path style="opacity:1" fill="#7b5100" d="M 204.5,39.5 C 186.5,39.5 168.5,39.5 150.5,39.5C 150.333,28.495 150.5,17.495 151,6.5C 151.833,5.66667 152.667,4.83333 153.5,4C 169.5,3.33333 185.5,3.33333 201.5,4C 202.333,4.83333 203.167,5.66667 204,6.5C 204.5,17.495 204.667,28.495 204.5,39.5 Z"/></g>
<g><path style="opacity:1" fill="#5c63b3" d="M 150.5,39.5 C 149.589,44.3671 150.922,48.3671 154.5,51.5C 145.161,51.3335 135.827,51.5002 126.5,52C 122.191,54.573 121.524,57.9063 124.5,62C 128.716,63.2036 133.049,63.8702 137.5,64C 138.126,64.7504 138.626,65.5838 139,66.5C 140.901,92.558 141.235,118.558 140,144.5C 138.741,150.854 135.574,156.021 130.5,160C 121.963,166.103 112.963,171.436 103.5,176C 100.532,179.147 97.1983,181.814 93.5,184C 89.311,188.221 85.4777,192.721 82,197.5C 80.7246,199.717 79.7246,202.051 79,204.5C 78.7623,212.569 77.929,220.569 76.5,228.5C 77.3068,246.142 77.8068,263.809 78,281.5C 80.5028,294.996 86.8361,306.329 97,315.5C 99.7851,320.619 103.618,324.786 108.5,328C 113.819,330.934 119.152,333.767 124.5,336.5C 132.381,344.115 141.714,347.782 152.5,347.5C 151.476,346.148 150.476,344.815 149.5,343.5C 168.492,345.5 187.492,345.667 206.5,344C 228.912,344.044 247.412,335.544 262,318.5C 265.75,311.998 269.75,305.665 274,299.5C 275.497,292.527 276.997,285.527 278.5,278.5C 278.449,262.306 277.949,245.973 277,229.5C 275.673,222.888 274.673,216.222 274,209.5C 269.513,201.197 264.513,193.197 259,185.5C 247.412,177.289 235.912,168.956 224.5,160.5C 221.421,157.107 219.588,153.107 219,148.5C 217.568,128.349 216.401,108.182 215.5,88C 215.809,79.7886 216.476,71.622 217.5,63.5C 223.621,63.9101 229.621,63.4101 235.5,62C 238.167,59 238.167,56 235.5,53C 224.269,51.5441 212.936,51.0441 201.5,51.5C 204.231,48.0725 205.231,44.0725 204.5,39.5C 218.504,39.3334 232.504,39.5001 246.5,40C 249.728,41.5629 251.895,44.0629 253,47.5C 255.629,55.4987 254.962,63.1653 251,70.5C 248.489,72.5628 245.656,74.0628 242.5,75C 236.631,75.9169 230.798,76.7502 225,77.5C 223.957,97.3238 225.291,116.99 229,136.5C 229.767,141.305 231.6,145.639 234.5,149.5C 243.36,156.194 252.36,162.694 261.5,169C 270.828,178.141 278.328,188.641 284,200.5C 289.88,226.154 291.88,252.154 290,278.5C 287.116,298.594 279.116,316.261 266,331.5C 259.624,337.6 252.79,343.1 245.5,348C 235.551,353.414 224.884,356.08 213.5,356C 190.5,356.667 167.5,356.667 144.5,356C 139.5,355 134.5,354 129.5,353C 122.646,349.742 115.646,346.742 108.5,344C 101.084,336.58 93.0842,329.913 84.5,324C 70.3204,306.878 63.487,287.044 64,264.5C 63.3333,248.833 63.3333,233.167 64,217.5C 64.8193,203.867 69.1526,191.534 77,180.5C 81.8333,177 86,172.833 89.5,168C 94.2155,165.973 98.2155,162.973 101.5,159C 109.857,155.739 117.69,151.573 125,146.5C 126.624,142.689 128.124,138.856 129.5,135C 129.084,115.89 128.751,96.7233 128.5,77.5C 114.418,78.2893 107.418,71.6227 107.5,57.5C 107.414,52.5105 108.581,47.8438 111,43.5C 112.579,41.9588 114.413,40.7922 116.5,40C 127.828,39.5001 139.162,39.3335 150.5,39.5 Z"/></g>
<g><path style="opacity:1" fill="#655e7d" d="M 150.5,39.5 C 168.5,39.5 186.5,39.5 204.5,39.5C 205.231,44.0725 204.231,48.0725 201.5,51.5C 200.167,51.5 198.833,51.5 197.5,51.5C 184.5,51.5 171.5,51.5 158.5,51.5C 157.167,51.5 155.833,51.5 154.5,51.5C 150.922,48.3671 149.589,44.3671 150.5,39.5 Z"/></g>
<g><path style="opacity:1" fill="#919ce2" d="M 154.5,51.5 C 155.833,51.5 157.167,51.5 158.5,51.5C 157.959,54.6516 158.959,57.1516 161.5,59C 172.5,59.6667 183.5,59.6667 194.5,59C 197.041,57.1516 198.041,54.6516 197.5,51.5C 198.833,51.5 200.167,51.5 201.5,51.5C 212.936,51.0441 224.269,51.5441 235.5,53C 238.167,56 238.167,59 235.5,62C 229.621,63.4101 223.621,63.9101 217.5,63.5C 216.476,71.622 215.809,79.7886 215.5,88C 216.401,108.182 217.568,128.349 219,148.5C 219.588,153.107 221.421,157.107 224.5,160.5C 235.912,168.956 247.412,177.289 259,185.5C 264.513,193.197 269.513,201.197 274,209.5C 274.673,216.222 275.673,222.888 277,229.5C 277.949,245.973 278.449,262.306 278.5,278.5C 276.997,285.527 275.497,292.527 274,299.5C 269.75,305.665 265.75,311.998 262,318.5C 247.412,335.544 228.912,344.044 206.5,344C 187.492,345.667 168.492,345.5 149.5,343.5C 144.167,340.167 139.833,335.833 136.5,330.5C 154.384,336.101 172.717,337.934 191.5,336C 203.584,335.327 215.584,333.993 227.5,332C 234.584,328.804 240.917,324.637 246.5,319.5C 247.167,319.5 247.5,319.167 247.5,318.5C 257.026,313.296 262.693,305.296 264.5,294.5C 265.013,290.771 265.846,287.104 267,283.5C 267.82,276.986 267.653,270.653 266.5,264.5C 266.667,250.496 266.5,236.496 266,222.5C 262.939,209.88 256.439,199.38 246.5,191C 234.132,183.626 222.632,175.126 212,165.5C 209.416,161.167 207.749,156.5 207,151.5C 204.301,122.204 203.468,92.8702 204.5,63.5C 201.167,63.5 197.833,63.5 194.5,63.5C 191.604,62.2248 188.604,62.2248 185.5,63.5C 174.148,63.3725 162.815,63.7059 151.5,64.5C 153.086,93.8443 153.253,123.178 152,152.5C 149.465,158.408 146.298,163.908 142.5,169C 134.062,175.434 124.728,180.101 114.5,183C 107.713,188.82 101.213,194.987 95,201.5C 91.5006,206.66 89.1672,212.326 88,218.5C 87.5002,228.494 87.3335,238.494 87.5,248.5C 85.7853,265.506 88.7853,281.506 96.5,296.5C 96.9272,300.617 98.4272,304.284 101,307.5C 103.833,309.667 106.333,312.167 108.5,315C 110.469,316.926 112.802,318.092 115.5,318.5C 117.735,324.865 120.735,330.865 124.5,336.5C 119.152,333.767 113.819,330.934 108.5,328C 103.618,324.786 99.7851,320.619 97,315.5C 86.8361,306.329 80.5028,294.996 78,281.5C 77.8068,263.809 77.3068,246.142 76.5,228.5C 77.929,220.569 78.7623,212.569 79,204.5C 79.7246,202.051 80.7246,199.717 82,197.5C 85.4777,192.721 89.311,188.221 93.5,184C 97.1983,181.814 100.532,179.147 103.5,176C 112.963,171.436 121.963,166.103 130.5,160C 135.574,156.021 138.741,150.854 140,144.5C 141.235,118.558 140.901,92.558 139,66.5C 138.626,65.5838 138.126,64.7504 137.5,64C 133.049,63.8702 128.716,63.2036 124.5,62C 121.524,57.9063 122.191,54.573 126.5,52C 135.827,51.5002 145.161,51.3335 154.5,51.5 Z"/></g>
<g><path style="opacity:1" fill="#8a869e" d="M 158.5,51.5 C 171.5,51.5 184.5,51.5 197.5,51.5C 198.041,54.6516 197.041,57.1516 194.5,59C 183.5,59.6667 172.5,59.6667 161.5,59C 158.959,57.1516 157.959,54.6516 158.5,51.5 Z"/></g>
<g><path style="opacity:1" fill="#dde3fb" d="M 194.5,63.5 C 193.656,66.5214 191.823,68.8547 189,70.5C 185.467,78.1022 183.8,86.1022 184,94.5C 182.749,99.313 181.249,103.98 179.5,108.5C 177.72,131.129 174.22,153.463 169,175.5C 166.608,178.228 164.608,181.228 163,184.5C 161.437,176.913 161.104,169.246 162,161.5C 162.183,130.582 166.517,100.248 175,70.5C 177.998,67.2623 181.498,64.9289 185.5,63.5C 188.604,62.2248 191.604,62.2248 194.5,63.5 Z"/></g>
<g><path style="opacity:1" fill="#bbc5fd" d="M 185.5,63.5 C 181.498,64.9289 177.998,67.2623 175,70.5C 166.517,100.248 162.183,130.582 162,161.5C 161.104,169.246 161.437,176.913 163,184.5C 164.608,181.228 166.608,178.228 169,175.5C 174.22,153.463 177.72,131.129 179.5,108.5C 181.249,103.98 182.749,99.313 184,94.5C 183.8,86.1022 185.467,78.1022 189,70.5C 191.823,68.8547 193.656,66.5214 194.5,63.5C 197.833,63.5 201.167,63.5 204.5,63.5C 203.468,92.8702 204.301,122.204 207,151.5C 207.749,156.5 209.416,161.167 212,165.5C 222.632,175.126 234.132,183.626 246.5,191C 256.439,199.38 262.939,209.88 266,222.5C 266.5,236.496 266.667,250.496 266.5,264.5C 257.33,268.043 247.996,268.377 238.5,265.5C 226.182,266.252 213.848,266.752 201.5,267C 194.708,269.814 187.708,270.314 180.5,268.5C 173.9,270.769 167.233,270.936 160.5,269C 159.833,268.333 159.167,267.667 158.5,267C 148.932,265.048 139.265,264.214 129.5,264.5C 133.65,254.192 139.316,244.859 146.5,236.5C 154.648,222.668 156.814,208.001 153,192.5C 150.694,196.776 148.027,200.776 145,204.5C 144.667,207.167 144.333,209.833 144,212.5C 141.704,215.05 140.37,218.05 140,221.5C 134.971,227.192 129.971,232.859 125,238.5C 121.299,244.706 117.799,251.04 114.5,257.5C 114.043,258.298 113.376,258.631 112.5,258.5C 109.813,258.664 107.146,258.497 104.5,258C 101.328,255.994 98.6617,253.494 96.5,250.5C 93.6727,249.068 90.6727,248.401 87.5,248.5C 87.3335,238.494 87.5002,228.494 88,218.5C 89.1672,212.326 91.5006,206.66 95,201.5C 101.213,194.987 107.713,188.82 114.5,183C 124.728,180.101 134.062,175.434 142.5,169C 146.298,163.908 149.465,158.408 152,152.5C 153.253,123.178 153.086,93.8443 151.5,64.5C 162.815,63.7059 174.148,63.3725 185.5,63.5 Z"/></g>
<g><path style="opacity:1" fill="#fc64c7" d="M 189.5,173.5 C 194.95,173.373 198.283,175.873 199.5,181C 198.892,184.568 196.725,186.401 193,186.5C 186.426,185.705 184.092,182.039 186,175.5C 187.302,174.915 188.469,174.249 189.5,173.5 Z"/></g>
<g><path style="opacity:1" fill="#dde2fb" d="M 129.5,264.5 C 125.558,276.547 124.224,288.881 125.5,301.5C 126.703,308.977 128.536,316.31 131,323.5C 131.967,326.621 133.8,328.954 136.5,330.5C 139.833,335.833 144.167,340.167 149.5,343.5C 150.476,344.815 151.476,346.148 152.5,347.5C 141.714,347.782 132.381,344.115 124.5,336.5C 120.735,330.865 117.735,324.865 115.5,318.5C 113.354,311.347 112.021,304.014 111.5,296.5C 109.971,283.741 110.304,271.074 112.5,258.5C 113.376,258.631 114.043,258.298 114.5,257.5C 117.799,251.04 121.299,244.706 125,238.5C 129.971,232.859 134.971,227.192 140,221.5C 140.37,218.05 141.704,215.05 144,212.5C 144.333,209.833 144.667,207.167 145,204.5C 148.027,200.776 150.694,196.776 153,192.5C 156.814,208.001 154.648,222.668 146.5,236.5C 139.316,244.859 133.65,254.192 129.5,264.5 Z"/></g>
<g><path style="opacity:1" fill="#fc64c7" d="M 207.5,206.5 C 213.027,205.196 215.693,207.362 215.5,213C 215.646,215.034 214.98,216.701 213.5,218C 205.492,219.655 202.659,216.488 205,208.5C 205.995,207.934 206.828,207.267 207.5,206.5 Z"/></g>
<g><path style="opacity:1" fill="#fc64c7" d="M 123.5,210.5 C 127.605,210.234 131.605,210.734 135.5,212C 137.746,216.047 137.08,219.714 133.5,223C 130.23,224.321 126.897,224.987 123.5,225C 119.565,220.17 119.565,215.337 123.5,210.5 Z"/></g>
<g><path style="opacity:1" fill="#fc64c7" d="M 168.5,220.5 C 176.804,220.278 179.137,223.778 175.5,231C 169.806,234.061 166.473,232.394 165.5,226C 166.124,223.915 167.124,222.082 168.5,220.5 Z"/></g>
<g><path style="opacity:1" fill="#fc64c7" d="M 242.5,220.5 C 248.026,220.38 249.693,222.88 247.5,228C 243.067,230.73 240.401,229.563 239.5,224.5C 239.787,222.557 240.787,221.223 242.5,220.5 Z"/></g>
<g><path style="opacity:1" fill="#fc64c7" d="M 101.5,241.5 C 107.643,242.026 108.976,244.86 105.5,250C 100,251.167 97.8333,249 99,243.5C 99.9947,242.934 100.828,242.267 101.5,241.5 Z"/></g>
<g><path style="opacity:1" fill="#fc64c7" d="M 87.5,248.5 C 90.6727,248.401 93.6727,249.068 96.5,250.5C 98.6617,253.494 101.328,255.994 104.5,258C 107.146,258.497 109.813,258.664 112.5,258.5C 110.304,271.074 109.971,283.741 111.5,296.5C 110.833,296.5 110.167,296.5 109.5,296.5C 107.833,296.5 106.167,296.5 104.5,296.5C 102.019,295.742 99.3519,295.742 96.5,296.5C 88.7853,281.506 85.7853,265.506 87.5,248.5 Z"/></g>
<g><path style="opacity:1" fill="#fc64c7" d="M 190.5,248.5 C 193.649,248.211 196.649,248.711 199.5,250C 201.652,254.873 199.985,257.54 194.5,258C 190.707,259.052 188.707,257.552 188.5,253.5C 188.902,251.7 189.569,250.033 190.5,248.5 Z"/></g>
<g><path style="opacity:1" fill="#fc64c7" d="M 233.5,248.5 C 241.361,248.149 243.694,251.316 240.5,258C 236.252,260.348 232.419,259.848 229,256.5C 228.533,252.785 230.033,250.119 233.5,248.5 Z"/></g>
<g><path style="opacity:1" fill="#fc64c7" d="M 147.5,253.5 C 153.704,253.314 155.037,255.814 151.5,261C 145.403,261.147 144.07,258.647 147.5,253.5 Z"/></g>
<g><path style="opacity:1" fill="#fc64c7" d="M 129.5,264.5 C 139.265,264.214 148.932,265.048 158.5,267C 159.167,267.667 159.833,268.333 160.5,269C 167.233,270.936 173.9,270.769 180.5,268.5C 187.708,270.314 194.708,269.814 201.5,267C 213.848,266.752 226.182,266.252 238.5,265.5C 247.996,268.377 257.33,268.043 266.5,264.5C 267.653,270.653 267.82,276.986 267,283.5C 265.846,287.104 265.013,290.771 264.5,294.5C 261.02,296.77 257.353,297.437 253.5,296.5C 252.596,295.791 252.263,294.791 252.5,293.5C 250.334,293.421 248.334,292.754 246.5,291.5C 242.888,292.812 239.221,293.812 235.5,294.5C 235.255,299.734 237.588,302.734 242.5,303.5C 241.317,304.504 239.984,305.338 238.5,306C 233.455,306.643 228.455,307.476 223.5,308.5C 221.91,306.179 219.577,305.179 216.5,305.5C 216.5,307.167 216.5,308.833 216.5,310.5C 214.05,310.298 211.717,310.631 209.5,311.5C 209.486,303.989 205.819,301.156 198.5,303C 197.449,304.385 196.116,305.385 194.5,306C 193.594,307.699 193.261,309.533 193.5,311.5C 173.975,312.184 154.975,309.851 136.5,304.5C 132.789,303.656 129.123,302.656 125.5,301.5C 124.224,288.881 125.558,276.547 129.5,264.5 Z"/></g>
<g><path style="opacity:1" fill="#fe99e1" d="M 98.5,267.5 C 100.167,267.5 101.833,267.5 103.5,267.5C 103.5,268.833 103.5,270.167 103.5,271.5C 101.833,271.5 100.167,271.5 98.5,271.5C 98.5,270.167 98.5,268.833 98.5,267.5 Z"/></g>
<g><path style="opacity:1" fill="#fe99e1" d="M 133.5,278.5 C 137.5,277.833 139.167,279.5 138.5,283.5C 134.5,284.167 132.833,282.5 133.5,278.5 Z"/></g>
<g><path style="opacity:1" fill="#fe99e1" d="M 212.5,278.5 C 213.873,278.343 215.207,278.51 216.5,279C 218.645,281.574 221.312,283.407 224.5,284.5C 225.429,285.689 225.762,287.022 225.5,288.5C 221.011,288.113 216.677,287.113 212.5,285.5C 212.5,283.167 212.5,280.833 212.5,278.5 Z"/></g>
<g><path style="opacity:1" fill="#fe99e1" d="M 245.5,278.5 C 247.857,278.337 250.19,278.503 252.5,279C 253.38,280.356 253.714,281.856 253.5,283.5C 250.794,283.425 248.127,283.092 245.5,282.5C 245.5,281.167 245.5,279.833 245.5,278.5 Z"/></g>
<g><path style="opacity:1" fill="#fe99e1" d="M 175.5,279.5 C 177.722,279.178 179.556,279.845 181,281.5C 181.615,283.116 182.615,284.449 184,285.5C 184.49,286.793 184.657,288.127 184.5,289.5C 178.734,288.731 175.734,285.397 175.5,279.5 Z"/></g>
<g><path style="opacity:1" fill="#fe99e1" d="M 136.5,304.5 C 136.207,300.563 136.54,296.73 137.5,293C 139.199,292.042 141.033,291.542 143,291.5C 146.804,292.205 150.637,292.538 154.5,292.5C 154.495,296.033 153.495,299.2 151.5,302C 146.41,302.427 141.41,303.26 136.5,304.5 Z"/></g>
<g><path style="opacity:1" fill="#fe99e1" d="M 253.5,296.5 C 253.739,298.467 253.406,300.301 252.5,302C 250.493,303.217 248.326,304.051 246,304.5C 244.615,304.486 243.449,304.152 242.5,303.5C 237.588,302.734 235.255,299.734 235.5,294.5C 239.221,293.812 242.888,292.812 246.5,291.5C 248.334,292.754 250.334,293.421 252.5,293.5C 252.263,294.791 252.596,295.791 253.5,296.5 Z"/></g>
<g><path style="opacity:1" fill="#e445ad" d="M 264.5,294.5 C 262.693,305.296 257.026,313.296 247.5,318.5C 247.5,317.167 247.5,315.833 247.5,314.5C 243.5,313.833 241.833,315.5 242.5,319.5C 243.833,319.5 245.167,319.5 246.5,319.5C 240.917,324.637 234.584,328.804 227.5,332C 215.584,333.993 203.584,335.327 191.5,336C 172.717,337.934 154.384,336.101 136.5,330.5C 133.8,328.954 131.967,326.621 131,323.5C 128.536,316.31 126.703,308.977 125.5,301.5C 129.123,302.656 132.789,303.656 136.5,304.5C 154.975,309.851 173.975,312.184 193.5,311.5C 194.468,313.607 194.802,315.941 194.5,318.5C 199.714,321.331 204.547,320.664 209,316.5C 209.494,314.866 209.66,313.199 209.5,311.5C 211.717,310.631 214.05,310.298 216.5,310.5C 217.404,311.209 217.737,312.209 217.5,313.5C 219.5,313.5 221.5,313.5 223.5,313.5C 223.5,311.833 223.5,310.167 223.5,308.5C 228.455,307.476 233.455,306.643 238.5,306C 239.984,305.338 241.317,304.504 242.5,303.5C 243.449,304.152 244.615,304.486 246,304.5C 248.326,304.051 250.493,303.217 252.5,302C 253.406,300.301 253.739,298.467 253.5,296.5C 257.353,297.437 261.02,296.77 264.5,294.5 Z"/></g>
<g><path style="opacity:1" fill="#e445ad" d="M 104.5,296.5 C 104.674,298.861 105.007,301.194 105.5,303.5C 107.167,303.5 108.833,303.5 110.5,303.5C 110.326,301.139 109.993,298.806 109.5,296.5C 110.167,296.5 110.833,296.5 111.5,296.5C 112.021,304.014 113.354,311.347 115.5,318.5C 112.802,318.092 110.469,316.926 108.5,315C 106.333,312.167 103.833,309.667 101,307.5C 98.4272,304.284 96.9272,300.617 96.5,296.5C 99.3519,295.742 102.019,295.742 104.5,296.5 Z"/></g>
<g><path style="opacity:1" fill="#fe99e1" d="M 164.5,295.5 C 165.833,295.5 167.167,295.5 168.5,295.5C 168.833,298.167 169.167,300.833 169.5,303.5C 167.833,303.5 166.167,303.5 164.5,303.5C 163.47,300.771 163.47,298.104 164.5,295.5 Z"/></g>
<g><path style="opacity:1" fill="#fe99e1" d="M 104.5,296.5 C 106.167,296.5 107.833,296.5 109.5,296.5C 109.993,298.806 110.326,301.139 110.5,303.5C 108.833,303.5 107.167,303.5 105.5,303.5C 105.007,301.194 104.674,298.861 104.5,296.5 Z"/></g>
<g><path style="opacity:1" fill="#fe99e1" d="M 209.5,311.5 C 209.66,313.199 209.494,314.866 209,316.5C 204.547,320.664 199.714,321.331 194.5,318.5C 194.802,315.941 194.468,313.607 193.5,311.5C 193.261,309.533 193.594,307.699 194.5,306C 196.116,305.385 197.449,304.385 198.5,303C 205.819,301.156 209.486,303.989 209.5,311.5 Z"/></g>
<g><path style="opacity:1" fill="#fe99e1" d="M 223.5,308.5 C 223.5,310.167 223.5,311.833 223.5,313.5C 221.5,313.5 219.5,313.5 217.5,313.5C 217.737,312.209 217.404,311.209 216.5,310.5C 216.5,308.833 216.5,307.167 216.5,305.5C 219.577,305.179 221.91,306.179 223.5,308.5 Z"/></g>
<g><path style="opacity:1" fill="#fe99e1" d="M 247.5,318.5 C 247.5,319.167 247.167,319.5 246.5,319.5C 245.167,319.5 243.833,319.5 242.5,319.5C 241.833,315.5 243.5,313.833 247.5,314.5C 247.5,315.833 247.5,317.167 247.5,318.5 Z"/></g>
<g><path style="opacity:1" fill="#fe99e1" d="M 146.5,316.5 C 148.5,316.5 150.5,316.5 152.5,316.5C 152.843,322.326 150.176,324.826 144.5,324C 142.84,320.777 143.506,318.277 146.5,316.5 Z"/></g>
<g><path style="opacity:1" fill="#fe99e1" d="M 174.5,320.5 C 177.167,320.5 179.833,320.5 182.5,320.5C 182.785,322.288 182.452,323.955 181.5,325.5C 178.242,326.417 174.909,326.751 171.5,326.5C 171.5,324.833 171.5,323.167 171.5,321.5C 172.791,321.737 173.791,321.404 174.5,320.5 Z"/></g>
<g><path style="opacity:1" fill="#fe99e1" d="M 213.5,325.5 C 215.167,325.5 216.833,325.5 218.5,325.5C 218.5,327.5 218.5,329.5 218.5,331.5C 214.515,331.56 212.848,329.56 213.5,325.5 Z"/></g>
</svg>
