<svg xmlns="http://www.w3.org/2000/svg" width="512" height="512" style="shape-rendering:geometricPrecision;text-rendering:geometricPrecision;image-rendering:optimizeQuality;fill-rule:evenodd;clip-rule:evenodd"><path style="opacity:1" fill="#5a29e4" d="M349.5 2.5c9.789-1.195 16.289 2.805 19.5 12 .5 101.999.667 203.999.5 306 37.997 1.13 75.997 2.296 114 3.5 11.407 4.879 14.574 13.046 9.5 24.5a34.706 34.706 0 0 1-7.5 6.5 16650.13 16650.13 0 0 0-186 92c-9.223 3.26-16.389.76-21.5-7.5a35921.344 35921.344 0 0 1-4-394c.964-3.968 3.131-7.135 6.5-9.5a5133.538 5133.538 0 0 0 69-33.5zM220.5 60.5c9.789-1.195 16.289 2.805 19.5 12a87715.548 87715.548 0 0 0 3.5 387c-.085 5.67-2.418 10.17-7 13.5l-69 33c-8.233 1.592-14.399-1.242-18.5-8.5a16022.153 16022.153 0 0 1-1.5-309c-37.997-1.13-75.997-2.296-114-3.5-11.407-4.879-14.574-13.046-9.5-24.5a34.692 34.692 0 0 1 7.5-6.5 38634.1 38634.1 0 0 0 189-93.5z"/></svg>