<svg xmlns="http://www.w3.org/2000/svg" width="512" height="512" style="shape-rendering:geometricPrecision;text-rendering:geometricPrecision;image-rendering:optimizeQuality;fill-rule:evenodd;clip-rule:evenodd"><path style="opacity:1" fill="#fedcab" d="M338.5 74.5a189.319 189.319 0 0 1-12 10.5 90.496 90.496 0 0 1-19 0c-5.873-3.687-7.54-8.854-5-15.5a326.675 326.675 0 0 1 14.5-18c7.5-6.167 14.333-13 20.5-20.5a226.5 226.5 0 0 0 21-13c5.271-3.205 10.937-4.539 17-4a9.84 9.84 0 0 1 1 4 60.029 60.029 0 0 1-5.5 15.5 1859.26 1859.26 0 0 0-32.5 41zM203.5 67.5c3.933 9.314 1.266 16.147-8 20.5-6 .667-12 .667-18 0a585.98 585.98 0 0 0-18-6.5c-19.482-6.156-35.649-17.156-48.5-33a226.726 226.726 0 0 1-11-17c-.747-9.548 3.42-12.715 12.5-9.5a73.872 73.872 0 0 0 15 8 94.117 94.117 0 0 1 13 10 21645.623 21645.623 0 0 1 34 18 980.617 980.617 0 0 0 29 9.5z"/><path style="opacity:1" fill="#fefffe" d="M302.5 69.5c-2.54 6.646-.873 11.813 5 15.5a90.496 90.496 0 0 0 19 0 189.319 189.319 0 0 0 12-10.5l14 3.5a44.69 44.69 0 0 0 14 6.5 263.362 263.362 0 0 0 29-10.5 340.905 340.905 0 0 1 59-2c14.249 2.21 26.749 8.043 37.5 17.5a22.574 22.574 0 0 1 4 8c3.673 11.958.173 20.792-10.5 26.5a48.727 48.727 0 0 0-15 6 175.173 175.173 0 0 1-18 4c-23.664.5-47.331.667-71 .5a301.795 301.795 0 0 1-6.5 28 923.83 923.83 0 0 1-24.5 66 70.512 70.512 0 0 1-17-4.5 227.928 227.928 0 0 0-21-3c-42.647-1.721-84.981.946-127 8a282.096 282.096 0 0 1-21 8 246.847 246.847 0 0 1-18 10.5c-3.029-1.872-5.195-4.539-6.5-8-6.339-14.677-12.672-29.343-19-44a552.925 552.925 0 0 1-2-43 370.895 370.895 0 0 0-54.5-8.5c-21.359-6.889-28.192-21.055-20.5-42.5C52.637 86.279 65.47 81.446 82.5 87c19.282 4.476 37.282 11.976 54 22.5a322.569 322.569 0 0 1 12.5-20c3.4-2.914 6.9-5.58 10.5-8a585.98 585.98 0 0 1 18 6.5c6 .667 12 .667 18 0 9.266-4.353 11.933-11.186 8-20.5a189.17 189.17 0 0 0 24-3 34.616 34.616 0 0 0 2.5-11 3.942 3.942 0 0 1 2-1c3.632 2.62 7.299 5.287 11 8a20.641 20.641 0 0 0 2-6 70.287 70.287 0 0 1 5.5-7 138.407 138.407 0 0 1 5.5 11c2.766-2.818 5.932-4.65 9.5-5.5a189.536 189.536 0 0 0 4 12.5c7.633.732 15.3 1.232 23 1.5 3.59.31 6.923 1.144 10 2.5z"/><path style="opacity:1" fill="#feaaa9" d="M431.5 88.5c15.377-.399 30.71.101 46 1.5 7.166 2.834 9.666 8 7.5 15.5a17.842 17.842 0 0 1-4.5 5.5 48.503 48.503 0 0 1-16 5c-16.156.84-32.323 1.34-48.5 1.5a221.267 221.267 0 0 1-28.5-1.5c-6.602-5.156-6.602-10.49 0-16l11-5a429.76 429.76 0 0 0 33-6.5zM64.5 101.5c14.057.08 27.39 3.247 40 9.5a149.394 149.394 0 0 0 15 3c9.657 4.014 11.324 10.014 5 18a16.08 16.08 0 0 1-7 1.5 372.75 372.75 0 0 1-46-8.5 81.58 81.58 0 0 0-11-5c-4.874-7.512-3.54-13.679 4-18.5z"/><path style="opacity:1" d="M286.5 112.5c29.112-1.065 37.612 11.602 25.5 38-7.388 10.969-17.221 14.135-29.5 9.5-3.126-4.65-4.96-9.817-5.5-15.5a121.19 121.19 0 0 1 0-22c2.022-4.52 5.189-7.853 9.5-10zM198.5 115.5c14.694-2.907 24.194 2.76 28.5 17 1.608 9.817.275 19.15-4 28a17.842 17.842 0 0 1-5.5 4.5c-9.561 1.792-18.061-.375-25.5-6.5-9.399-16.432-7.232-30.766 6.5-43z"/><path style="opacity:1" fill="#fefffe" d="M194.5 128.5c5.987-.523 7.987 1.977 6 7.5-5.601.241-7.601-2.259-6-7.5zM301.5 142.5c3.333-.667 5.333.667 6 4-2.209 3.066-5.043 3.732-8.5 2-.667-1-.667-2 0-3a10.515 10.515 0 0 0 2.5-3z"/><path style="opacity:1" fill="#feaaa9" d="M350.5 228.5c10.111 5.922 19.277 13.255 27.5 22 7.822 12.683 10.989 26.517 9.5 41.5l-.5 15.5c-1.411 2.15-2.245 4.484-2.5 7-4.791 10.982-11.791 20.482-21 28.5a72.4 72.4 0 0 1-14 8 184.958 184.958 0 0 1-23 7.5 981.74 981.74 0 0 1-139-1 318.306 318.306 0 0 0-23-5.5 118.483 118.483 0 0 1-24-12c-6.861-7.515-12.027-16.015-15.5-25.5-.708-.881-1.542-1.547-2.5-2-2.01-5.454-2.51-11.12-1.5-17 4.46-18.255 12.96-34.255 25.5-48a246.847 246.847 0 0 0 18-10.5 282.096 282.096 0 0 0 21-8c42.019-7.054 84.353-9.721 127-8a227.928 227.928 0 0 1 21 3 70.512 70.512 0 0 0 17 4.5z"/><path style="opacity:1" d="M281.5 266.5c5.344-.166 10.677.001 16 .5 3.163 1.48 4.996 3.98 5.5 7.5 1.506 9.493-2.328 15.66-11.5 18.5-16.403 4.601-22.903-1.566-19.5-18.5 2.325-3.735 5.491-6.401 9.5-8zM196.5 268.5c14.916-2.207 20.75 4.127 17.5 19-1.5 2.833-3.667 5-6.5 6.5-17.032 4.302-23.199-1.864-18.5-18.5 2.015-2.912 4.515-5.245 7.5-7z"/><path style="opacity:1" fill="#0f0" d="M122.5 312.5c.958.453 1.792 1.119 2.5 2 3.473 9.485 8.639 17.985 15.5 25.5a118.483 118.483 0 0 0 24 12 318.306 318.306 0 0 1 23 5.5 20.093 20.093 0 0 0-6 1.5 169.242 169.242 0 0 1-22 11 131.273 131.273 0 0 0-18 12c-1.612.72-3.112.554-4.5-.5-2.112 3.268-5.112 5.268-9 6-3.553-.393-5.053-2.393-4.5-6 .149-4.117 1.483-7.783 4-11l-1-1a177.315 177.315 0 0 1-39 1.5c-1.825-1.466-2.325-3.299-1.5-5.5a181.716 181.716 0 0 1 7.5-5c-2.521-1.76-3.355-4.093-2.5-7a155.953 155.953 0 0 1 23.5-12l-2-3a483.11 483.11 0 0 0-31-1.5c-4.292-4.18-3.626-7.513 2-10a82.2 82.2 0 0 0 12-4c-1.528-2.881-.862-5.214 2-7a751.22 751.22 0 0 0 25-3.5zM384.5 314.5c20.517 5.776 38.35 16.109 53.5 31 .72 1.612.554 3.112-.5 4.5a14.378 14.378 0 0 1-6.5 1.5 127.137 127.137 0 0 1-26.5-5 43.145 43.145 0 0 0-5 1.5 524.024 524.024 0 0 1 18.5 11.5c2.393 6.301.06 9.301-7 9a163.494 163.494 0 0 1-19-3l-1.5 1c2.705 3.971 3.538 8.304 2.5 13-.804 1.304-1.971 1.971-3.5 2a379.172 379.172 0 0 1-57-18.5c-2.247-1.277-4.247-2.777-6-4.5a184.958 184.958 0 0 0 23-7.5 72.4 72.4 0 0 0 14-8c9.209-8.018 16.209-17.518 21-28.5z"/><path style="opacity:1" fill="#fefffe" d="M35.5 368.5a145.05 145.05 0 0 1 17 .5 20.236 20.236 0 0 1 7.5 7.5c2.349 8.936.182 16.436-6.5 22.5 4.972 2.969 8.472 7.136 10.5 12.5 4.86 16.406-.307 28.24-15.5 35.5a25.238 25.238 0 0 1-10 0l-6.5-6.5a83.717 83.717 0 0 0-2 14c-1.726 1.076-3.56 1.243-5.5.5a4.94 4.94 0 0 1-1-2.5 2688.927 2688.927 0 0 0 10.5-81l1.5-3zm8 6c11.59 1.525 14.09 7.191 7.5 17-2.731 3.212-6.231 4.712-10.5 4.5-1.054 1.388-1.22 2.888-.5 4.5a60.889 60.889 0 0 0 11.5 5.5c6.682 6.064 8.849 13.564 6.5 22.5-3.046 6.044-7.712 10.378-14 13-4.94-3.235-8.44-7.569-10.5-13a2562.116 2562.116 0 0 1 6.5-50 20.656 20.656 0 0 1 3.5-4zM374.5 385.5c4.694-.137 6.861 2.197 6.5 7a285.756 285.756 0 0 0 3 42 23.162 23.162 0 0 0 4.5-6.5c3.067-1.164 4.733-.164 5 3-1.786 7.539-6.453 11.205-14 11a11.333 11.333 0 0 1-1.5-3.5 2450.755 2450.755 0 0 1-4.5-50 10.014 10.014 0 0 1 1-3zM339.5 387.5c11.711.048 17.377 6.048 17 18-.009 3.184-1.009 6.017-3 8.5 13.193 4.839 18.026 14.005 14.5 27.5-9.016 9.853-18.682 10.52-29 2-1.224 2.973-3.224 3.64-6 2 .5-18.672.5-37.339 0-56a96.578 96.578 0 0 0 6.5-2zm1 7c2.436-.183 4.603.484 6.5 2a147.393 147.393 0 0 1 3.5 9 32.285 32.285 0 0 1-7.5 9c-.667 1.333-.667 2.667 0 4 10.546.015 17.379 5.015 20.5 15-5.254 11.584-12.254 12.75-21 3.5a8.43 8.43 0 0 0-4-.5 206.832 206.832 0 0 0 0-38.5c1.323-.816 1.989-1.983 2-3.5zM462.5 391.5c1.644-.214 3.144.12 4.5 1l1 16a107.994 107.994 0 0 1 10.5-13.5c5.145-.398 6.312 1.769 3.5 6.5a311.238 311.238 0 0 0-9.5 13.5 369.492 369.492 0 0 1 13 19.5 4.933 4.933 0 0 1-1 2.5c-1.667.667-3.333.667-5 0a411.182 411.182 0 0 0-11.5-15.5l-2 2a226.44 226.44 0 0 0-2 18c-1.667 1.333-3.333 1.333-5 0l-.5-7a1132.361 1132.361 0 0 0 4-43zM238.5 402.5c1.644-.214 3.144.12 4.5 1 .531 3.977.031 7.81-1.5 11.5 5.137-.547 6.803 1.453 5 6a12.93 12.93 0 0 1-5 .5 81.549 81.549 0 0 0 3.5 16c1.509 2.419 3.675 3.419 6.5 3-.163-2.357.003-4.69.5-7 4.921-1.75 6.755.084 5.5 5.5.226 2.671-.441 5.004-2 7-7.864 3.319-13.697 1.152-17.5-6.5a112.272 112.272 0 0 1-2.5-17c-5.167 1.008-6.834-.825-5-5.5a12.93 12.93 0 0 1 5-.5c.058-4.894 1.058-9.561 3-14zM434.5 402.5c10.813-.689 13.813 3.811 9 13.5-3.338 1.206-5.171.04-5.5-3.5-.79 6.218.043 12.218 2.5 18 .502 1.021 1.168 1.188 2 .5l5-5c4.583-.934 6.083.9 4.5 5.5-3.665 5.088-8.498 7.255-14.5 6.5-2.394-1.952-3.894-4.452-4.5-7.5a71.621 71.621 0 0 1-1-22c.236-2.311 1.069-4.311 2.5-6zM129.5 403.5c5.57-1.084 10.07.583 13.5 5 1.167 4.167-.333 5.667-4.5 4.5a15.645 15.645 0 0 1-4-2.5c-1.688 1.529-3.021 3.363-4 5.5a39.819 39.819 0 0 0 9 5c7.122 6.545 8.789 14.212 5 23a49.226 49.226 0 0 1-14 0c-4.538-1.713-6.038-4.88-4.5-9.5a4.933 4.933 0 0 1 2.5-1c2.187.822 3.853 2.322 5 4.5 2.31.497 4.643.663 7 .5.241-3.294-.592-6.294-2.5-9a96.493 96.493 0 0 0-13-9c-1.425-6.472.075-12.138 4.5-17zM110.5 404.5c1.644-.214 3.144.12 4.5 1a64.974 64.974 0 0 1-1.5 17.5 67.011 67.011 0 0 0 2.5 12.5 32.79 32.79 0 0 1 3.5-5.5c2.737-1.08 4.404-.246 5 2.5-.733 3.966-2.4 7.466-5 10.5-4.281 1.458-7.447.292-9.5-3.5-3.369-11.746-3.202-23.413.5-35zM93.5 408.5c1.644-.214 3.144.12 4.5 1a65.015 65.015 0 0 1-1.5 17.5 67.02 67.02 0 0 0 2.5 12.5 32.803 32.803 0 0 1 3.5-5.5c2.737-1.08 4.404-.246 5 2.5-.733 3.966-2.4 7.466-5 10.5-4.28 1.458-7.447.292-9.5-3.5-3.369-11.746-3.202-23.413.5-35zM260.5 408.5c1.644-.214 3.144.12 4.5 1 .499 3.986.666 7.986.5 12 5.24-.962 9.407.705 12.5 5 1.517 5.58 1.851 11.247 1 17-1.667 1.333-3.333 1.333-5 0l-1-10c-1.074-5.185-3.074-5.852-6-2l-1 12c-1.667 1.333-3.333 1.333-5 0-1.405-11.721-1.572-23.387-.5-35zM407.5 408.5c14.516-.041 21.016 7.292 19.5 22-4.491 4.759-9.991 6.259-16.5 4.5-6.682-6.064-8.849-13.564-6.5-22.5.69-1.85 1.856-3.184 3.5-4zm3 6c6.144 1.314 9.811 5.147 11 11.5-3.656 4.733-6.989 4.566-10-.5-2.128-3.546-2.461-7.212-1-11zM192.5 412.5c14.077-1.914 20.744 4.086 20 18 .161 4.67-.505 9.17-2 13.5-1.612.72-3.112.554-4.5-.5a218.89 218.89 0 0 0 0-19c-1.283-3.685-3.617-5.019-7-4l-1 25c-1.667 1.333-3.333 1.333-5 0a535.13 535.13 0 0 0-1.5-29.5 10.98 10.98 0 0 1 1-3.5zM293.5 412.5c11.539-.627 16.039 4.707 13.5 16-1.637 2.31-3.804 3.81-6.5 4.5l-10 1a44.81 44.81 0 0 0 4 8c3.096.927 5.43-.073 7-3 4.6-1.583 6.434-.083 5.5 4.5-4.869 5.273-10.702 6.44-17.5 3.5-5.798-7.905-6.632-16.405-2.5-25.5.873-4.025 3.039-7.025 6.5-9zm3 7c6.158 1.651 6.491 4.151 1 7.5-2.141.884-3.807.384-5-1.5.861-2.411 2.194-4.411 4-6zM169.5 418.5c12.698.537 18.531 7.203 17.5 20-.883 2.602-2.383 4.769-4.5 6.5-4 .667-8 .667-12 0-5.004-6.675-6.837-14.175-5.5-22.5 1.397-1.57 2.897-2.904 4.5-4zm2 7c3.993-.255 6.826 1.411 8.5 5 1.989 5.633.156 8.633-5.5 9-1.867-3.754-3.2-7.754-4-12 .363-.683.696-1.35 1-2z"/><path style="opacity:1" fill="#fefffe" d="M68.5 420.5c1.644-.214 3.144.12 4.5 1a45.983 45.983 0 0 1-.5 12c.136 8.041 1.97 8.708 5.5 2a78.96 78.96 0 0 0 3-12c1.667-1.333 3.333-1.333 5 0l1 13c.343 2.693 1.676 4.693 4 6 .72 1.612.554 3.112-.5 4.5-3.975 1.379-6.809.213-8.5-3.5-3.705 4.482-8.038 5.149-13 2-3.131-8.255-3.298-16.589-.5-25z"/></svg>