<svg xmlns="http://www.w3.org/2000/svg" width="512" height="512" style="shape-rendering:geometricPrecision;text-rendering:geometricPrecision;image-rendering:optimizeQuality;fill-rule:evenodd;clip-rule:evenodd"><path style="opacity:.027" d="M237.5 8.5c1.333.667 1.333.667 0 0z"/><path style="opacity:.012" d="M239.5 8.5c1.333.667 1.333.667 0 0z"/><path style="opacity:.02" d="M245.5 8.5c1.333.667 1.333.667 0 0z"/><path style="opacity:.008" d="M248.5 9.5c.751-1.073 1.751-1.24 3-.5a4.932 4.932 0 0 1-3 .5z"/><path style="opacity:.012" d="M253.5 8.5c1.333.667 1.333.667 0 0zM258.5 8.5c1.333.667 1.333.667 0 0z"/><path style="opacity:1" fill="#040406" d="M327.5 33.5c-1.077-7.538-1.077-15.204 0-23h68c-.229 14.756.104 29.256 1 43.5-7.835 1.302-15.835 1.968-24 2 .468 71.407.468 146.241 0 224.5h-22v-112h-23v22h-22v-22h-45v-23h90v-67h-90v-45h-45v22h-23v-45h90c.368 7.759.368 15.425 0 23h45z"/><path style="opacity:.008" d="M285.5 31.5c1.333.667 1.333.667 0 0z"/><path style="opacity:.004" d="M295.5 31.5c1.333.667 1.333.667 0 0zM306.5 31.5c1.333.667 1.333.667 0 0zM309.5 31.5c1.333.667 1.333.667 0 0z"/><path style="opacity:1" fill="#ab3231" d="M260.5 55.5h-45v-22h45v22z"/><path style="opacity:1" fill="#663931" d="M327.5 33.5h23v21h-23v-21z"/><path style="opacity:1" fill="#8f563b" d="M350.5 33.5h22v21h-22v-21z"/><path style="opacity:1" fill="#837e86" d="M237.5 55.5h23v45h-45v-22h22v-23z"/><path style="opacity:1" fill="#050507" d="M215.5 55.5h22v23h-22v22h-23v-22c7.363.33 14.697-.003 22-1a127.744 127.744 0 0 0 1-22z"/><path style="opacity:1" fill="#9aadb6" d="M260.5 78.5h90v45h-113v67h-22v-22h-23v-45h23v-23h45v-22z"/><path style="opacity:1" fill="#050507" d="M192.5 100.5v90h23v113h22v22h-45v-112h-22c.325-7.852-.008-15.518-1-23v-22h-22v21h-22v-22c7.341.166 14.674 0 22-.5-1.027-6.871-1.027-14.038 0-21.5a133.155 133.155 0 0 1 23-1v-44h22z"/><path style="opacity:1" fill="#837e86" d="M192.5 100.5h23v23h-23v-23z"/><path style="opacity:.013" d="M168.5 122.5c1.098 1.101 1.265 2.434.5 4a8.43 8.43 0 0 1-.5-4z"/><path style="opacity:1" fill="#fefffe" d="M350.5 123.5v22h-90v23h45v22h-68v-67h113z"/><path style="opacity:.008" d="M168.5 127.5c1.333.667 1.333.667 0 0z"/><path style="opacity:.027" d="M168.5 130.5c1.333.667 1.333.667 0 0z"/><path style="opacity:.018" d="M168.5 132.5c1.025.397 1.192 1.063.5 2a2.428 2.428 0 0 1-.5-2z"/><path style="opacity:.035" d="M168.5 135.5c1.333.667 1.333.667 0 0z"/><path style="opacity:.02" d="M168.5 137.5c1.025.397 1.192 1.063.5 2a2.428 2.428 0 0 1-.5-2z"/><path style="opacity:.024" d="M168.5 140.5c1.025.397 1.192 1.063.5 2a2.428 2.428 0 0 1-.5-2z"/><path style="opacity:.027" d="M123.5 167.5c1.333.667 1.333.667 0 0z"/><path style="opacity:1" fill="#fefefe" d="M169.5 190.5h-22v67h-23v-68h23v-21h22v22z"/><path style="opacity:1" fill="#837e86" d="M192.5 168.5h23v22h-23v-22z"/><path style="opacity:1" fill="#fefffe" d="M350.5 190.5h-23v-22h23v22z"/><path style="opacity:.034" d="M123.5 169.5c1.073.751 1.24 1.751.5 3a4.934 4.934 0 0 1-.5-3z"/><path style="opacity:.067" d="M123.5 173.5c1.333.667 1.333.667 0 0z"/><path style="opacity:.031" d="M123.5 175.5c1.025.397 1.192 1.063.5 2a2.428 2.428 0 0 1-.5-2z"/><path style="opacity:.04" d="M123.5 178.5c1.098 1.101 1.265 2.434.5 4a8.43 8.43 0 0 1-.5-4z"/><path style="opacity:.031" d="M123.5 183.5c1.025.397 1.192 1.063.5 2a2.428 2.428 0 0 1-.5-2z"/><path style="opacity:.059" d="M123.5 186.5c1.025.397 1.192 1.063.5 2a2.428 2.428 0 0 1-.5-2z"/><path style="opacity:.998" fill="#010101" d="M124.5 189.5v68h23v22h-45v-90h22z"/><path style="opacity:1" fill="#cadafc" d="M169.5 190.5c.992 7.482 1.325 15.148 1 23h22v21h-45v-44h22z"/><path style="opacity:1" fill="#837e86" d="M215.5 190.5h45v23h-45v-23z"/><path style="opacity:1" fill="#ab3231" d="M260.5 190.5h45v23h-45v-23z"/><path style="opacity:1" fill="#de7125" d="M305.5 190.5h22v23h-22v-23z"/><path style="opacity:1" fill="#ab3231" d="M327.5 190.5h23v23h-23v-23zM215.5 213.5h45v22h-45v-22z"/><path style="opacity:1" fill="#837e86" d="M260.5 213.5h90v22h-90v-22z"/><path style="opacity:1" fill="#ab3231" d="M147.5 234.5h45v69h-22v-24h-23v-45z"/><path style="opacity:1" fill="#837e86" d="M215.5 235.5h45v45h-23v23h-22v-68z"/><path style="opacity:1" fill="#9aadb6" d="M260.5 235.5h90v23h-90v-23z"/><path style="opacity:1" fill="#050607" d="M260.5 258.5h67v22h-22v23h22v22h-45v-45h-22v-22z"/><path style="opacity:1" fill="#837e86" d="M327.5 258.5h23v22h-23v-22z"/><path style="opacity:1" fill="#050607" d="M260.5 280.5v23h-23v-23h23z"/><path style="opacity:1" fill="#ab3231" d="M260.5 280.5h22v23h-22v-23z"/><path style="opacity:1" fill="#837e86" d="M327.5 280.5v23h-22v-23h22z"/><path style="opacity:1" fill="#050607" d="M327.5 280.5h23v23h-23v-23z"/><path style="opacity:1" fill="#fefffe" d="M242.5 336.5c5.149.151 7.482 2.818 7 8 24.64-2.185 37.64 8.982 39 33.5.473 12.021-2.694 22.854-9.5 32.5a28.415 28.415 0 0 1-7.5 4.5 94.538 94.538 0 0 1-21 3.5c-.164 5.988-2.664 7.321-7.5 4l-1-6c-.185-25.357-.685-50.69-1.5-76 .252-1.573.918-2.906 2-4zm7 16c19.258-2.236 29.591 6.264 31 25.5a224.166 224.166 0 0 1-2.5 16.5 31.65 31.65 0 0 1-5.5 10.5c-7.355 3.594-15.021 4.761-23 3.5v-56zM24.5 339.5c8.466-1.843 14.966.823 19.5 8 1.33 4.998-.504 7.164-5.5 6.5-4.422-7.416-10.088-8.416-17-3-11.296 13.025-14.463 27.859-9.5 44.5 2.355 6.343 6.189 11.509 11.5 15.5 5.746 1.723 10.246.223 13.5-4.5 2.424-4.694 3.757-9.694 4-15 2.333-2.667 4.667-2.667 7 0 1.62 11.918-2.546 21.084-12.5 27.5-5 .667-10 .667-15 0-10.01-6.504-16.177-15.67-18.5-27.5-2.255-14.643.412-28.31 8-41 4.472-4.327 9.305-7.993 14.5-11zM60.5 365.5c2.222-.322 4.056.345 5.5 2a1807.26 1807.26 0 0 0 0 30 61.333 61.333 0 0 0 3 13c.637 1.803 1.803 3.136 3.5 4a506.013 506.013 0 0 1 7-4c3.647.986 4.814 3.319 3.5 7-10.4 8.292-18.067 6.292-23-6-2.996-14.584-3.33-29.251-1-44 .717-.544 1.217-1.211 1.5-2zM474.5 369.5c4.694-.137 6.861 2.197 6.5 7 9.687-4.322 17.687-2.322 24 6a127.607 127.607 0 0 1 2 36c-2.333 2.667-4.667 2.667-7 0a355.344 355.344 0 0 0-2-30c-2.92-6.246-7.42-7.58-13.5-4-.428 2.743-1.595 5.076-3.5 7l-1 26c-2.333 2.667-4.667 2.667-7 0a528.986 528.986 0 0 1 0-46c.717-.544 1.217-1.211 1.5-2zM369.5 373.5c4.935-.303 9.601.53 14 2.5 2.662 4.452 4.495 9.285 5.5 14.5 3.618 14.555 4.285 29.222 2 44-5.984 6.765-13.484 8.932-22.5 6.5-8.677-4.19-11.843-11.024-9.5-20.5 2.333-2.667 4.667-2.667 7 0-.688 10.648 4.145 14.815 14.5 12.5 2.038-1.236 3.205-3.069 3.5-5.5a92.805 92.805 0 0 0-2-29c-7.55 7.235-14.216 6.568-20-2-1.127-6.255-.46-12.255 2-18 2.191-1.333 4.024-3 5.5-5zm3 8c7.581 4.631 7.414 9.297-.5 14-3.386-4.795-3.22-9.462.5-14zM438.5 373.5c12.835-3.637 20.335 1.03 22.5 14a72.464 72.464 0 0 1 0 17c-3.402 9.952-10.235 13.452-20.5 10.5a48.247 48.247 0 0 0-6.5-4.5 89.2 89.2 0 0 1-2-27c1.178-4.005 3.345-7.338 6.5-10zm4 8c4.852-1.223 8.019.444 9.5 5 2 6 2 12 0 18-1.933 2.885-4.433 3.552-7.5 2a19.887 19.887 0 0 0-3.5-4 219.86 219.86 0 0 0-1.5-12c.243-3.329 1.243-6.329 3-9zM405.5 374.5c5.786-.076 9.953 2.59 12.5 8 3.571 11.213-.262 17.88-11.5 20 3.49 7.057 7.49 7.557 12 1.5 5.492-.486 7.325 2.014 5.5 7.5-5.71 6.943-12.21 7.776-19.5 2.5-7.773-8.319-10.939-18.152-9.5-29.5 2.738-4.24 6.238-7.574 10.5-10zm1 9c3.12.374 4.454 2.207 4 5.5-2.325 5.926-4.992 5.926-8 0a32.924 32.924 0 0 1 4-5.5zM179.5 375.5c2.222-.322 4.056.345 5.5 2 .497 2.646.664 5.313.5 8a98.432 98.432 0 0 1 14 .5c1.944 2.153 2.444 4.653 1.5 7.5a189.663 189.663 0 0 0-4.5 10 100.563 100.563 0 0 1 7 10.5c-.101 2.601-1.435 4.101-4 4.5-5.784-3.119-9.784-7.785-12-14a39.982 39.982 0 0 1 4-10.5 18.453 18.453 0 0 0-6-.5c.766 7.991.933 15.991.5 24-2.333 2.667-4.667 2.667-7 0a255.3 255.3 0 0 1-1-40c.717-.544 1.217-1.211 1.5-2zM337.5 376.5c6.862-.965 11.695 1.702 14.5 8a155.516 155.516 0 0 1 1 34c-2.333 2.667-4.667 2.667-7 0l-1-27a32.5 32.5 0 0 0-3-7c-4.442 1.26-6.776 4.26-7 9 .497 8.302.497 16.636 0 25-2.333 2.667-4.667 2.667-7 0a310.568 310.568 0 0 1-1-39c1.865-2.173 4.031-2.507 6.5-1 1.526-.494 2.859-1.161 4-2zM295.5 379.5c2.222-.322 4.056.345 5.5 2l1 26c1.807 4.75 4.14 5.083 7 1a32.5 32.5 0 0 0 3-7l1-20c2.333-2.667 4.667-2.667 7 0a51.825 51.825 0 0 1 1.5 10.5 79.793 79.793 0 0 0 0 24c-.405 3.739-2.405 5.073-6 4a6.978 6.978 0 0 1-2.5-3.5c-5.936 4.229-11.603 3.896-17-1-2.049-6.289-2.883-12.789-2.5-19.5l.5-14.5c.717-.544 1.217-1.211 1.5-2zM156.5 381.5c5.177-.797 9.677.536 13.5 4 .896 2.525.396 4.692-1.5 6.5a39.495 39.495 0 0 1-9-1.5c-1.579 7.136-1.079 14.136 1.5 21 4.118-2.37 8.118-2.37 12 0 .667 1.333.667 2.667 0 4-6.211 4.658-12.544 4.991-19 1l-2-4a77.487 77.487 0 0 1-1-23c1.273-3.097 3.107-5.764 5.5-8zM136.5 383.5c2.222-.322 4.056.345 5.5 2l1 22c7.41 2.468 8.243 6.302 2.5 11.5-1.667.667-3.333.667-5 0a19.887 19.887 0 0 0-4-3.5c-9.092 5.03-15.259 2.697-18.5-7-1.421-7.144-.421-13.811 3-20 3.794-3.957 8.294-4.957 13.5-3 1.022-.355 1.689-1.022 2-2zm-7 9c3.589 3.934 4.755 8.601 3.5 14-1.46 2.71-3.46 3.376-6 2-2.683-6.092-1.85-11.425 2.5-16zM93.5 385.5c8.668-2.366 14.501.634 17.5 9a64.218 64.218 0 0 1 0 16c-4.916 6.635-11.416 8.802-19.5 6.5a36.012 36.012 0 0 1-3.5-4.5 100.245 100.245 0 0 1 0-20 57.118 57.118 0 0 1 5.5-7zm3 8c3.308-.526 5.474.807 6.5 4 .824 3.382.657 6.716-.5 10-1.952 2.033-4.118 2.366-6.5 1a42.343 42.343 0 0 1 .5-15zM294.5 440.5c2.222-.322 4.056.345 5.5 2 .667 8.333.667 16.667 0 25a399.045 399.045 0 0 0-3 27c-4.744 3.296-7.411 1.962-8-4-8.068 6.388-13.735 4.721-17-5a50.365 50.365 0 0 1 1-17c3.962-8.123 10.462-11.789 19.5-11a112.97 112.97 0 0 1 .5-15c.717-.544 1.217-1.211 1.5-2zm-10 26c2.357-.163 4.69.003 7 .5-.967 4.401-1.3 8.901-1 13.5-3.703.362-6.703 2.029-9 5-2.506-6.817-1.506-13.151 3-19zM170.5 443.5c5.493-1.322 7.993.678 7.5 6a261.134 261.134 0 0 0-37.5 26.5 488.358 488.358 0 0 1 31.5 18.5c1.073 3.595-.261 5.595-4 6a215.561 215.561 0 0 1-38-22c-.667-1.667-.667-3.333 0-5a107.06 107.06 0 0 0 12.5-11.5 590.984 590.984 0 0 0 28-18.5zM208.5 446.5c9.539-.631 13.706 3.703 12.5 13-5.031 3.415-8.198 2.082-9.5-4-7.815 7.275-10.982 16.275-9.5 27 1.239 6.572 5.073 8.738 11.5 6.5a14.506 14.506 0 0 0 5-4c4.996-.664 6.83 1.502 5.5 6.5-1.938 2.606-4.438 4.439-7.5 5.5-11.529 3.654-19.029-.179-22.5-11.5-2.729-15.996 2.104-28.996 14.5-39zM246.5 448.5c16.58 1.444 23.08 10.444 19.5 27-2.529 13.84-10.695 19.673-24.5 17.5-5.697-5.756-8.031-12.756-7-21-.536-6.187.631-12.02 3.5-17.5 2.322-2.895 5.155-4.895 8.5-6zm0 9c7.824-.51 11.824 3.157 12 11a38.348 38.348 0 0 1-4.5 14c-2.904 1.727-6.07 2.393-9.5 2-3.201-9.379-2.535-18.379 2-27zM364.5 448.5c2.222-.322 4.056.345 5.5 2a58.85 58.85 0 0 1-2 11 616.27 616.27 0 0 0-15.5 36.5c-2.201.825-4.034.325-5.5-1.5a12.494 12.494 0 0 1 0-7 566.689 566.689 0 0 1 17.5-41zM311.5 451.5c3.35-.165 6.683.002 10 .5a109.442 109.442 0 0 0 6.5 7.5c3.525 14.578-2.309 21.911-17.5 22 1.083 8.935 5.749 11.769 14 8.5 1.255-2.705 3.255-4.538 6-5.5 4.278 1.839 5.111 4.839 2.5 9-5.669 5.712-12.503 7.545-20.5 5.5-5.583-3.335-9.083-8.168-10.5-14.5-2.587-12.783.58-23.783 9.5-33zm4 8c8.459 5.489 7.959 10.156-1.5 14-1.833-.5-3-1.667-3.5-3.5a41.685 41.685 0 0 1 5-10.5zM380.5 452.5a176.761 176.761 0 0 1 35 9.5c5.067 1.37 7.233 4.537 6.5 9.5-10.092 10.429-21.592 18.929-34.5 25.5-3.357 1.141-5.357-.025-6-3.5.719-2.228 2.052-4.061 4-5.5a139.577 139.577 0 0 0 26-18 363.429 363.429 0 0 0-31-10c-2.586-2.494-2.586-4.994 0-7.5z"/></svg>