<svg xmlns="http://www.w3.org/2000/svg" width="512" height="512" style="shape-rendering:geometricPrecision;text-rendering:geometricPrecision;image-rendering:optimizeQuality;fill-rule:evenodd;clip-rule:evenodd"><path style="opacity:1" fill="#fefffe" d="M167.5 195.5c-.252-2.82.248-5.486 1.5-8 1.113 1.211 2.28 1.211 3.5 0a42.857 42.857 0 0 0 4.5-15c.71-1.473 1.876-2.14 3.5-2a329.85 329.85 0 0 0 5-18c1.985-1.957 3.485-4.29 4.5-7 .789-7.233 1.956-14.4 3.5-21.5-.336-1.03-1.003-1.53-2-1.5 3.293-9.764 2.46-19.097-2.5-28a55.724 55.724 0 0 0-3-18 24.27 24.27 0 0 1-3.5-3.5 104.38 104.38 0 0 0-9.5-29.5c-6.011-6.58-12.844-12.08-20.5-16.5a13.923 13.923 0 0 0-3-4c-21.747-11.865-44.747-14.865-69-9a229.027 229.027 0 0 1-26 12c-1.714 5.216-5.048 9.05-10 11.5-.759 5.113-2.592 9.78-5.5 14-.104 5.645-1.438 10.978-4 16-2.813 16.31-2.813 32.643 0 49a82.301 82.301 0 0 0 15 22c3.787 19.446 1.454 38.113-7 56A119.132 119.132 0 0 0 30.5 208c-8.08 1.247-15.413 4.247-22 9a40.912 40.912 0 0 1-9 .5v-4a109.26 109.26 0 0 0 23-9.5c7.058-.044 11.559-3.544 13.5-10.5a518.113 518.113 0 0 1 9-24c2.48-9.897 1.814-19.564-2-29a134.033 134.033 0 0 1-14-34c-3.068-31.71 4.598-60.376 23-86C69.25 6.929 88.75 2.429 110.5 7c14.094 1.017 27.427 4.683 40 11a122.861 122.861 0 0 0 21 15c7.594 9.83 12.094 20.996 13.5 33.5a21.827 21.827 0 0 1 5 6c8.91 26.265 8.91 52.599 0 79-4.602 7.81-7.602 16.143-9 25a72.4 72.4 0 0 1-8 14 38.47 38.47 0 0 1-5.5 5zM490.5 174.5a19.372 19.372 0 0 0-8 1 22.012 22.012 0 0 0-6-7.5 31.337 31.337 0 0 0-12 .5 119.228 119.228 0 0 0-5.5-14 237.066 237.066 0 0 1-2-28 78.988 78.988 0 0 1 11-10c16.812-22.965 16.645-45.798-.5-68.5-.317-15.35-7.984-25.35-23-30a223.742 223.742 0 0 0-56-3 351.327 351.327 0 0 0-45 15c-3.539 1.907-6.039 4.74-7.5 8.5a263.527 263.527 0 0 1-3 17A264.866 264.866 0 0 0 321.5 82c.292 3.12 1.959 4.62 5 4.5a191.298 191.298 0 0 1-10.5 27c-1.992 5.837-.158 9.671 5.5 11.5-3.487 7.204-1.487 12.371 6 15.5a6.895 6.895 0 0 1 2 4 100.318 100.318 0 0 0-1.5 8c-2.754 3.008-4.587 6.508-5.5 10.5.799 2.412.632 4.912-.5 7.5-2.777 9.732-.277 17.566 7.5 23.5 4.561 2.925 9.561 4.091 15 3.5 6.198 1.229 11.198-.605 15-5.5 3.465-.65 6.465-2.15 9-4.5.73 1.841 1.397 3.675 2 5.5a17.842 17.842 0 0 0-5.5 4.5 198.473 198.473 0 0 0-8 17c-.996 4.729-.496 9.229 1.5 13.5a337.067 337.067 0 0 0 59-4 766.653 766.653 0 0 1 51-18 128.665 128.665 0 0 0 37-8c5.075-7.519 3.075-11.852-6-13-2.618-2.106-4.618-4.606-6-7.5 3.494 3.747 7.828 5.914 13 6.5 5.686 6.528 5.02 12.528-2 18a450.019 450.019 0 0 0-61 16l-2 3c-27.655 9.56-55.988 12.56-85 9-3.502-6.207-4.002-12.707-1.5-19.5 1.464-5.537 3.964-10.537 7.5-15l-1-1c-11.033 6.049-22.366 6.549-34 1.5l-7.5-7.5a70.64 70.64 0 0 1-1.5-9 190.147 190.147 0 0 0 2.5-21 214.763 214.763 0 0 1 5.5-12.5c-.704-4.373-3.204-7.207-7.5-8.5a61.981 61.981 0 0 1-2-13c-2.679-2.193-3.845-5.026-3.5-8.5a85.066 85.066 0 0 1 10-26.5c-2.862-4.233-3.695-8.9-2.5-14 3.35-7.364 6.683-14.697 10-22a72.645 72.645 0 0 1 0-11c1.904-8.904 7.071-15.07 15.5-18.5a360.875 360.875 0 0 1 35-12 303.302 303.302 0 0 1 47-1 90.275 90.275 0 0 1 28 8c5.333 4.322 9.499 9.488 12.5 15.5.746 4.396 1.746 8.73 3 13 16.443 25.74 14.943 50.24-4.5 73.5-3.777 1.29-6.277 3.79-7.5 7.5.111 9.014.778 18.014 2 27a19.15 19.15 0 0 0 3.5 8.5c3.75.26 7.416.927 11 2 4.39 3.612 9.056 6.445 14 8.5z"/><path style="opacity:1" d="M191.5 122.5a5.576 5.576 0 0 0-3 1 49.87 49.87 0 0 0-1 14c-1.175.219-2.175-.114-3-1 4.041-10.291.708-14.625-10-13h-12c-7.356.576-11.356-2.758-12-10 2.442-.146 3.109.687 2 2.5l4.5 4.5a38.064 38.064 0 0 0-.5-15c-1.412-1.306-3.079-2.14-5-2.5a51.727 51.727 0 0 1-9.5-1.5 11.333 11.333 0 0 1-3.5 1.5 1043.166 1043.166 0 0 0-3 19.5 172.406 172.406 0 0 1-22 1h-4l-6-1a20.69 20.69 0 0 0-5-1c-.709-.904-1.709-1.237-3-1-1.171-.845-2.505-1.511-4-2-1.086-.12-1.753-.787-2-2a93.267 93.267 0 0 0 1-18c-9.9.683-19.566-.484-29-3.5-4-.667-8-.667-12 0-5.186 3.951-5.186 7.951 0 12-1.373 1.479-2.873 1.312-4.5-.5-2.554-5.178-1.721-9.678 2.5-13.5 9.55-1.074 18.883-.074 28 3 4.989.5 9.989.666 15 .5a51.639 51.639 0 0 1 1-7c11.856.279 23.689.946 35.5 2a9.84 9.84 0 0 0 4-1 20.204 20.204 0 0 1 1.5-6c1.283 2.872 1.283 5.705 0 8.5 2.249 1.746 3.916 3.912 5 6.5a6.544 6.544 0 0 0 3-3c-1.145-1.391-1.145-2.724 0-4 2.033 1.951 2.366 4.118 1 6.5a146.994 146.994 0 0 1 15 3.5c.84-2.867 2.507-5.033 5-6.5 8.327-.5 16.66-.666 25-.5.452-5.88-.382-11.547-2.5-17a217.464 217.464 0 0 1-8.5-4.5c-1.921-1.24-2.254-2.74-1-4.5a25.501 25.501 0 0 1 4.5 4c.618-17.946-6.882-31.112-22.5-39.5a93.278 93.278 0 0 0-12-11c-20.122-9.913-41.122-12.246-63-7a143.845 143.845 0 0 1-25 12 28.409 28.409 0 0 0-4.5 7.5 32.371 32.371 0 0 0-5.5 4c-.759 5.113-2.592 9.78-5.5 14A308.176 308.176 0 0 0 34.5 82c.82 9.089 1.32 18.256 1.5 27.5a108.273 108.273 0 0 0 2 9l15 21c3.1 20.339.1 39.672-9 58L33.5 208a19.883 19.883 0 0 1 8 2.5c-5.26.152-10.593.319-16 .5a89.632 89.632 0 0 0-16 8c-3.317.498-6.65.665-10 .5v-2a40.912 40.912 0 0 0 9-.5c6.587-4.753 13.92-7.753 22-9A119.132 119.132 0 0 1 43 194.5c8.454-17.887 10.787-36.554 7-56a82.301 82.301 0 0 1-15-22c-2.813-16.357-2.813-32.69 0-49 2.563-5.022 3.896-10.355 4-16 2.908-4.22 4.741-8.887 5.5-14 4.952-2.45 8.286-6.284 10-11.5a229.027 229.027 0 0 0 26-12c24.253-5.865 47.253-2.865 69 9a13.923 13.923 0 0 1 3 4c7.656 4.42 14.489 9.92 20.5 16.5a104.38 104.38 0 0 1 9.5 29.5 24.27 24.27 0 0 0 3.5 3.5 55.724 55.724 0 0 1 3 18c4.96 8.903 5.793 18.236 2.5 28z"/><path style="opacity:1" fill="#fefefe" d="M91.5 118.5a1596.352 1596.352 0 0 0-5.5 39 264.02 264.02 0 0 1-5.5 14.5c.648 1.44.98 2.94 1 4.5-1.015 3.457-.181 3.79 2.5 1 .588 2.363 2.088 3.363 4.5 3 1.333 3.667 1.333 7.333 0 11 2.403.107 4.237-.893 5.5-3 .595 1.399.428 2.732-.5 4 1.155 1.45 2.655 2.45 4.5 3 .823 5.857 4.323 8.524 10.5 8a5.576 5.576 0 0 1-1 3 40.63 40.63 0 0 0 13 5.5 10.756 10.756 0 0 0 3 2.5c1.631-1.559 2.464-3.559 2.5-6a8.43 8.43 0 0 1 .5 4c1.89.203 3.39-.463 4.5-2a22.375 22.375 0 0 0 6.5 3c-.42-8.648.58-8.981 3-1 .825.886 1.825 1.219 3 1a8.43 8.43 0 0 1 .5-4c1.506 1.674 3.339 2.674 5.5 3-.29-4.054.377-4.554 2-1.5l21 1a348.949 348.949 0 0 0 26 3.5c.029-3.273-1.304-3.94-4-2a305.025 305.025 0 0 0-43-5.5 25.55 25.55 0 0 1 5.5-6.5c.055 2.385 1.222 3.719 3.5 4 1.213-.247 1.88-.914 2-2a211.236 211.236 0 0 0 38 4.5c4.309 2.573 4.976 5.906 2 10a587.673 587.673 0 0 0-50 5 256.918 256.918 0 0 1-17 6c-3.591.789-7.091.622-10.5-.5-6.178 5.562-13.344 7.395-21.5 5.5-17.64-10.053-36.806-16.219-57.5-18.5-12.412-.584-24.245 1.916-35.5 7.5-3.677 1.349-7.344 1.515-11 .5v-4c3.35.165 6.683-.002 10-.5a89.632 89.632 0 0 1 16-8c5.407-.181 10.74-.348 16-.5a19.883 19.883 0 0 0-8-2.5L44 197.5c9.1-18.328 12.1-37.661 9-58l-15-21a108.273 108.273 0 0 1-2-9c-.18-9.244-.68-18.411-1.5-27.5A308.176 308.176 0 0 1 41 53.5c2.908-4.22 4.741-8.887 5.5-14a32.371 32.371 0 0 1 5.5-4 28.409 28.409 0 0 1 4.5-7.5 143.845 143.845 0 0 0 25-12c21.878-5.246 42.878-2.913 63 7 4.3 3.298 8.3 6.965 12 11 15.618 8.388 23.118 21.554 22.5 39.5a25.501 25.501 0 0 0-4.5-4c-1.254 1.76-.921 3.26 1 4.5a217.464 217.464 0 0 0 8.5 4.5c2.118 5.453 2.952 11.12 2.5 17-8.34-.166-16.673 0-25 .5-2.493 1.467-4.16 3.633-5 6.5a146.994 146.994 0 0 0-15-3.5c1.366-2.382 1.033-4.549-1-6.5-1.145 1.276-1.145 2.609 0 4a6.544 6.544 0 0 1-3 3c-1.084-2.588-2.751-4.754-5-6.5 1.283-2.795 1.283-5.628 0-8.5a20.204 20.204 0 0 0-1.5 6 9.84 9.84 0 0 1-4 1 542.786 542.786 0 0 0-35.5-2 51.639 51.639 0 0 0-1 7c-5.011.166-10.011 0-15-.5-9.117-3.074-18.45-4.074-28-3-4.221 3.822-5.054 8.322-2.5 13.5 1.627 1.812 3.127 1.979 4.5.5-5.186-4.049-5.186-8.049 0-12 4-.667 8-.667 12 0 9.434 3.016 19.1 4.183 29 3.5a93.267 93.267 0 0 1-1 18c.247 1.213.914 1.88 2 2z"/><path style="opacity:1" fill="#020201" d="M490.5 174.5a6.547 6.547 0 0 1 3 3c1.382 2.894 3.382 5.394 6 7.5 9.075 1.148 11.075 5.481 6 13a128.665 128.665 0 0 1-37 8 766.653 766.653 0 0 0-51 18 337.067 337.067 0 0 1-59 4c-1.996-4.271-2.496-8.771-1.5-13.5a198.473 198.473 0 0 1 8-17 17.842 17.842 0 0 1 5.5-4.5 100.262 100.262 0 0 0-2-5.5c-2.535 2.35-5.535 3.85-9 4.5-3.802 4.895-8.802 6.729-15 5.5-5.439.591-10.439-.575-15-3.5-7.777-5.934-10.277-13.768-7.5-23.5 1.132-2.588 1.299-5.088.5-7.5.913-3.992 2.746-7.492 5.5-10.5.392-2.688.892-5.355 1.5-8a6.895 6.895 0 0 0-2-4c-7.487-3.129-9.487-8.296-6-15.5-5.658-1.829-7.492-5.663-5.5-11.5a191.298 191.298 0 0 0 10.5-27c-3.041.12-4.708-1.38-5-4.5A264.866 264.866 0 0 1 333 55.5a263.527 263.527 0 0 0 3-17c1.461-3.76 3.961-6.593 7.5-8.5a351.327 351.327 0 0 1 45-15 223.742 223.742 0 0 1 56 3c15.016 4.65 22.683 14.65 23 30 17.145 22.702 17.312 45.535.5 68.5a78.988 78.988 0 0 0-11 10c.112 9.346.778 18.679 2 28a119.228 119.228 0 0 1 5.5 14 31.337 31.337 0 0 1 12-.5 22.012 22.012 0 0 1 6 7.5 19.372 19.372 0 0 1 8-1z"/><path style="opacity:1" fill="#e3cc9d" d="M390.5 16.5a612.94 612.94 0 0 1 35 .5 10.255 10.255 0 0 0-4 1.5 147.378 147.378 0 0 0 29 14.5 169.555 169.555 0 0 0 10 14 28.854 28.854 0 0 0-4 1.5 51.054 51.054 0 0 0-4-5.5 91.775 91.775 0 0 1-9-3c-3-4.333-6.667-8-11-11a136.913 136.913 0 0 0-22-7 60.289 60.289 0 0 1-6.5-3.5c-1.257.35-1.591 1.017-1 2l5.5 3.5a164.023 164.023 0 0 1 21 6c4.967 3.966 9.634 8.3 14 13 3.624-.013 6.624 1.32 9 4-1.868.004-3.702-.496-5.5-1.5a3.942 3.942 0 0 0-2 1c-5.687-4.928-12.187-8.428-19.5-10.5a387.392 387.392 0 0 0-23-13c-5.295-1.608-10.629-1.775-16-.5a420.403 420.403 0 0 1 15 2.5 513.97 513.97 0 0 0 38 20l3 3c-2.18.419-4.346.252-6.5-.5-7.162 2.244-14.496 2.577-22 1l-4 2a25.834 25.834 0 0 0-6.5-5.5 1165.516 1165.516 0 0 0-41-20 195.212 195.212 0 0 0 28-8.5z"/><path style="opacity:1" fill="#e3cc9d" d="M427.5 19.5c.235-.597.735-.93 1.5-1a487.355 487.355 0 0 1 19.5 7.5c3.061 1.373 4.894 3.54 5.5 6.5a971.124 971.124 0 0 1-26.5-13zM450.5 23.5a22.39 22.39 0 0 1-8-2.5c3.146-.589 5.812.244 8 2.5zM450.5 23.5c1.696.185 3.029 1.019 4 2.5-1.912.28-3.246-.554-4-2.5z"/><path style="opacity:1" d="M371.5 24.5a194.081 194.081 0 0 0 28 8.5l14 8a72.801 72.801 0 0 1 16 5.5c-11.422-.534-21.755-4.367-31-11.5a107.99 107.99 0 0 1-26-8.5c-.798-.457-1.131-1.124-1-2z"/><path style="opacity:1" fill="#e3cc9d" d="M359.5 25.5a89644.485 89644.485 0 0 0 45 23.5 72.442 72.442 0 0 1-12 .5c.041 3.743-.626 3.91-2 .5-9.178-2.818-16.845-7.818-23-15a39.246 39.246 0 0 0-12-5.5l-2 1c7.187 2.43 13.187 6.596 18 12.5a162.056 162.056 0 0 0 15 8c-3.047.092-6.047-.408-9-1.5a28.712 28.712 0 0 1-1 5 55.454 55.454 0 0 0-7-5.5 576.51 576.51 0 0 1-24-12.5c-2.231.48-2.398 1.148-.5 2A319.777 319.777 0 0 0 370.5 53a80.738 80.738 0 0 1-11-1c-6.42-5.377-13.754-8.877-22-10.5 1.139-3.447 3.139-6.28 6-8.5a402.315 402.315 0 0 0 16-7.5zM455.5 27.5c5.158 3.325 7.991 7.992 8.5 14a60.498 60.498 0 0 1-8.5-14zM455.5 33.5c1.737 2.14 2.904 4.473 3.5 7-2.238-1.81-3.405-4.142-3.5-7zM337.5 44.5a52.56 52.56 0 0 1 7 1.5c8.077 3.611 14.91 8.778 20.5 15.5.667 1.333.667 2.667 0 4A138.215 138.215 0 0 0 336.5 46c.556-.383.889-.883 1-1.5z"/><path style="opacity:1" fill="#e3cc9d" d="M446.5 48.5a23.857 23.857 0 0 1 8.5 3c3.318-.181 6.651-.514 10-1 18.776 23.159 17.943 45.659-2.5 67.5a91.907 91.907 0 0 0-22.5 3.5c-8.948.755-17.948.755-27 0a12.494 12.494 0 0 1 0-7c3.898-4.761 5.398-10.261 4.5-16.5a57.333 57.333 0 0 0-2.5-18.5 6.977 6.977 0 0 0-3.5-2.5 25.249 25.249 0 0 0-10 0 198.66 198.66 0 0 0-10.5 5.5c-1.123 3.456-.29 6.29 2.5 8.5-2.027-.498-4.027-.331-6 .5l11 6.5c1.102 2.401 1.269 4.901.5 7.5a45.255 45.255 0 0 1-7.5-8.5c-.983-.59-1.65-.257-2 1l.5 1.5a85.851 85.851 0 0 1 10.5 11.5c-2.919.552-5.586-.115-8-2 .335-1.164.335-2.497 0-4-1.284-.684-2.451-.517-3.5.5a7.293 7.293 0 0 0-2-3l-1-20a38.575 38.575 0 0 0-6-13 65.443 65.443 0 0 1 1.5-16c2.472.442 4.972.775 7.5 1a45.655 45.655 0 0 0 10-3c3.163.366 6.33.7 9.5 1 9.188-.209 18.188-1.209 27-3 2.681.54 5.181 1.54 7.5 3 1.856-.702 3.023-2.036 3.5-4z"/><path style="opacity:1" d="M123.5 49.5c1.624-.14 2.79.527 3.5 2 2.275 7.18 2.942 14.513 2 22-.726 3.12-2.226 5.787-4.5 8l-1-1.5c5.139-10.164 5.139-20.33 0-30.5z"/><path style="opacity:1" fill="#ede1d8" d="M361.5 66.5a80.565 80.565 0 0 0-28 .5c-1.76.965-2.094 2.132-1 3.5 10-4 20-4 30 0 .798-.457 1.131-1.124 1-2h4c1.225-5.71-.441-10.21-5-13.5a47.924 47.924 0 0 1 16 2.5c-1.11 4.611-1.277 9.278-.5 14 5.957 8.781 7.957 18.448 6 29l-4 6c-1.113 1.211-2.28 1.211-3.5 0-.447 3.236-2.114 5.569-5 7-1.67 4.005-3.336 8.005-5 12a77.927 77.927 0 0 0-9-5.5 390.752 390.752 0 0 1-7-.5c.413 2.564-.254 5.064-2 7.5a14.093 14.093 0 0 1 1 3.5l-11-5.5a24.935 24.935 0 0 1 7-.5c1.643-8.694-1.691-11.694-10-9 5.25-.398 7.917 1.936 8 7a40.455 40.455 0 0 1-12-2l-4 1a20.2 20.2 0 0 0 6 1.5c-5.477.985-10.644.152-15.5-2.5-.667-1.667-.667-3.333 0-5a268.717 268.717 0 0 0 11.5-29c-3.128-2.6-4.295-5.934-3.5-10a151.372 151.372 0 0 0 11.5-26c9.381 3.401 17.381 8.735 24 16z"/><path style="opacity:1" d="M149.5 58.5c1.086.12 1.753.787 2 2-5.967 7.576-7.301 15.91-4 25l-1 2c-1.306-1.412-2.14-3.079-2.5-5-1.541-8.855.292-16.855 5.5-24zM361.5 66.5c0 .667.333 1 1 1 0 .667.333 1 1 1 .131.876-.202 1.543-1 2-10-4-20-4-30 0-1.094-1.368-.76-2.535 1-3.5a80.565 80.565 0 0 1 28-.5zM369.5 71.5c.997-.03 1.664.47 2 1.5 1.536 4.668 1.203 9.168-1 13.5.303-4.958-.031-9.958-1-15zM105.5 72.5c1.422.209 2.755.709 4 1.5 3.848 5.585 8.848 9.752 15 12.5-2.859 1.099-5.526.599-8-1.5-4.27-3.761-7.937-7.928-11-12.5zM169.5 77.5c1.725.343 2.225 1.343 1.5 3-4.445 5.358-9.945 7.358-16.5 6 6.3-.993 11.3-3.993 15-9z"/><path style="opacity:1" fill="#050404" d="M329.5 86.5a104.653 104.653 0 0 0-1-9c2.185.388 4.018 1.388 5.5 3 14.018-5.106 25.851-2.106 35.5 9l-1.5 1c-2.747-2.459-5.914-3.292-9.5-2.5 2.667 3 2.667 6 0 9-5.737 2.269-11.571 2.769-17.5 1.5a50.464 50.464 0 0 1-.5-10 109.073 109.073 0 0 1-11-2z"/><path style="opacity:1" fill="#ede1d8" d="M403.5 78.5c3.692-.529 6.858.471 9.5 3 2.708 8.966 3.041 17.966 1 27-2.346 3.679-5.346 6.679-9 9-.945-.405-1.612-1.072-2-2-1.547-6.645-1.713-13.311-.5-20a11.47 11.47 0 0 1 2.5-1 19.933 19.933 0 0 1 4.5 3 4.458 4.458 0 0 0 1.5-2c.762 3.832.262 7.498-1.5 11 .502 1.021 1.168 1.188 2 .5 1.48-2.247 2.147-4.747 2-7.5.989-10.513-3.678-15.013-14-13.5-1.493 1.156-1.326 1.99.5 2.5 4.742-1.419 8.242.081 10.5 4.5l-.5 1.5c-2.786-2.156-5.786-2.49-9-1-3.5-2.167-6.333-5-8.5-8.5.598-1.301 1.598-2.135 3-2.5.054 1.187.387 2.52 1 4 2.356-2.686 4.689-5.353 7-8z"/><path style="opacity:1" fill="#e3cc9d" d="M339.5 80.5c4.679-.166 9.345 0 14 .5a18.95 18.95 0 0 1 5 3c-3.678-.904-7.512-1.404-11.5-1.5-4.532-.319-8.698.681-12.5 3-1.5.047-2.5-.62-3-2 2.87-.757 5.536-1.757 8-3z"/><path style="opacity:1" fill="#ede1d8" d="M341.5 84.5c13.268.011 13.268.678 0 2l-2-.5c.916-.278 1.582-.778 2-1.5z"/><path style="opacity:1" d="M139.5 86.5c1.086.12 1.753.787 2 2l-1 2c-.929-1.189-1.262-2.522-1-4z"/><path style="opacity:1" fill="#93979c" d="M344.5 87.5c2.357-.163 4.69.003 7 .5a42.364 42.364 0 0 0-1.5 8.5c-2.381.935-4.881 1.268-7.5 1-.466-3.662.201-6.995 2-10z"/><path style="opacity:1" d="M149.5 88.5c1.193.47 1.86 1.47 2 3 .497 2.318.83 4.652 1 7-6.223.594-8.223-2.073-6-8a14.72 14.72 0 0 1 1.5 5c.718.95 1.551 1.117 2.5.5-.935-2.38-1.268-4.88-1-7.5z"/><path style="opacity:1" fill="#fefffe" d="M352.5 88.5c7.322 1.95 7.656 4.618 1 8a16.874 16.874 0 0 1-1-8z"/><path style="opacity:1" fill="#fefefe" d="M132.5 97.5c.617.11 1.117.444 1.5 1a181.77 181.77 0 0 1-.5 22 134.215 134.215 0 0 1-20 1c1.972-3.65 3.972-7.316 6-11 1.055-2.573 1.222-5.239.5-8a47.02 47.02 0 0 1-5.5-3.5 90.947 90.947 0 0 0-22-1.5c-.522-4.755 1.645-6.755 6.5-6a435.064 435.064 0 0 1 28.5 2.5c2.381.223 4.047 1.39 5 3.5z"/><path style="opacity:1" d="M333.5 91.5c.997-.03 1.664.47 2 1.5-1.539 4.815-3.539 9.315-6 13.5l-1-1.5a139.062 139.062 0 0 1 5-13.5zM343.5 91.5c1.478-.262 2.811.071 4 1-1.963 2.694-3.297 2.36-4-1zM361.5 91.5c3.564-.35 6.898.317 10 2-2.258.87-4.591.87-7 0-1.53-.14-2.53-.806-3-2zM132.5 97.5c-.885 3.158-3.052 4.825-6.5 5l-1.5-1c2.319-1.893 4.986-3.226 8-4z"/><path style="opacity:1" fill="#fefffe" d="M174.5 121.5c-.938-2.41-.938-4.744 0-7h3c.704-4.303-.63-7.803-4-10.5a135.76 135.76 0 0 1-13-3.5c.59-1.299 1.59-2.132 3-2.5a132.493 132.493 0 0 1 23 0 4.451 4.451 0 0 1 2 1.5c2.257 6.36 2.59 12.86 1 19.5-.405.945-1.072 1.612-2 2a84.902 84.902 0 0 1-13 .5z"/><path style="opacity:1" fill="#da807c" d="M93.5 99.5a32.437 32.437 0 0 1 8 .5c-.944 2.719-1.277 5.552-1 8.5-7.235.868-9.569-2.132-7-9zM110.5 100.5c2.842.672 5.342 2.006 7.5 4 .781 1.444.614 2.777-.5 4-2.132 1.617-4.465 2.117-7 1.5 1.2-3.131 1.2-6.298 0-9.5z"/><path style="opacity:1" fill="#fefefe" d="M162.5 123.5a374.828 374.828 0 0 0 3.5 36c3.028 6.319 4.195 12.986 3.5 20a235.768 235.768 0 0 1-6.5 13c-.857-4.677-3.357-6.01-7.5-4 3.367 5.003 2.367 8.836-3 11.5a32.462 32.462 0 0 1-8 .5 8.43 8.43 0 0 1-.5 4c-1.562-5.128-2.895-5.128-4 0a10.098 10.098 0 0 1-1.5-6h-3a32.462 32.462 0 0 1-.5 8c-2.778-11.791-5.112-11.457-7 1a37.143 37.143 0 0 0-2.5-8c-.825-.886-1.825-1.219-3-1a60.931 60.931 0 0 1-.5 11 67.101 67.101 0 0 1-4.5-10 34.251 34.251 0 0 0-1.5 8l-2.5-12-2-1a94.146 94.146 0 0 1-3 9v-2l-1-16c1.098-1.101 1.265-2.434.5-4-1.292-1.291-2.458-1.291-3.5 0-3.079-2.757-5.412-6.09-7-10 1.835-.622 3.002-1.956 3.5-4-.199-5.599 1.968-9.933 6.5-13 3.286-8.109 7.952-15.275 14-21.5-.35-1.257-1.017-1.591-2-1-6.703 5.905-11.536 13.072-14.5 21.5-2.598 1.18-4.264 3.18-5 6a32.074 32.074 0 0 1-2.5 10c-4.591-8.754-3.758-17.087 2.5-25a43.073 43.073 0 0 0 2-9c5.407-2.572 9.24-6.572 11.5-12 7.362.135 14.696-.198 22-1 .944-6.545 1.944-13.045 3-19.5a11.333 11.333 0 0 0 3.5-1.5 51.727 51.727 0 0 0 9.5 1.5c1.921.36 3.588 1.194 5 2.5a38.064 38.064 0 0 1 .5 15l-4.5-4.5c1.109-1.813.442-2.646-2-2.5.644 7.242 4.644 10.576 12 10z"/><path style="opacity:1" fill="#da807c" d="M162.5 103.5c3.213.425 3.88 1.925 2 4.5-.061 1.711.606 3.044 2 4-6.418 1.607-8.751-.893-7-7.5 1.291.237 2.291-.096 3-1z"/><path style="opacity:1" fill="#e3cc9d" d="M396.5 167.5c-3.593 2.145-7.593 3.479-12 4a20.2 20.2 0 0 0 6 1.5 97.35 97.35 0 0 0-12 5.5c-1.912-1.656-3.912-1.989-6-1 2.356 1.154 2.523 2.487.5 4a67.746 67.746 0 0 0-10-12 25.653 25.653 0 0 0-4-11 34.24 34.24 0 0 1-6.5-9c-.949 3.643.051 6.81 3 9.5-1.907.132-3.407-.702-4.5-2.5l-1.5 1a14.972 14.972 0 0 0 3 3.5c-2.993.427-3.493 1.594-1.5 3.5-1.287 7.877 1.046 14.21 7 19l1.5-1a22.106 22.106 0 0 0-5.5-7 42.479 42.479 0 0 1 0-13c2.579 4.298 4.245 8.965 5 14 1.672 2.837 3.839 5.17 6.5 7l1-1.5c-3.579-2.66-5.412-6.16-5.5-10.5l10.5 10.5-6.5 4.5c-4.051-2.933-4.884-2.433-2.5 1.5-.608.87-1.441 1.37-2.5 1.5l-5-3-1.5 1c4.032 3.477 3.365 5.31-2 5.5-2.384-3.358-3.551-3.191-3.5.5a9.454 9.454 0 0 0 2.5 1.5c-4.328 1.2-7.828.033-10.5-3.5l-2 4c-3.016-1.517-5.182-3.85-6.5-7a4.457 4.457 0 0 0-1.5 2l-3.5-3.5a6.802 6.802 0 0 0 3-1.5c-1.45-1.35-2.117-3.016-2-5-2.987-.078-3.653 1.089-2 3.5-.111 1.722-.611 1.888-1.5.5-.667-4-.667-8 0-12 2.155 5.508 5.155 6.175 9 2 1.356.88 2.856 1.214 4.5 1a18.453 18.453 0 0 0 .5 6c.893 1.211 1.726 1.211 2.5 0-2.861-5.057-2.028-9.057 2.5-12 4.386-8.531 5.552-17.198 3.5-26 .719 2.017 1.886 3.683 3.5 5 1.479-1.373 1.312-2.873-.5-4.5 4.522-.049 8.856-.882 13-2.5a12.403 12.403 0 0 0 2.5-4l2 2a78.39 78.39 0 0 1 2 13c1.183 1.231 2.349 1.231 3.5 0-1.469-1.692-2.135-3.692-2-6 1.1-2.964 1.6-5.964 1.5-9-1.079-1.894-2.413-2.227-4-1-.87-.608-1.37-1.441-1.5-2.5l4.5-13.5c-.587 8.753 2.247 16.086 8.5 22l1-1.5c-6.619-7.711-8.619-16.544-6-26.5 3.193 7.197 8.193 12.863 15 17l1-1c-3.333-4-7-7.667-11-11a18.353 18.353 0 0 1-2-9c1.322-.17 2.489.163 3.5 1 1.145 1.751 1.645 3.584 1.5 5.5 2.945-.726 5.612.107 8 2.5 1.083-.865 1.249-1.865.5-3-3.924-1.757-7.091-4.423-9.5-8 1.392-3.396 3.225-4.063 5.5-2-.487 1.544-.987 3.21-1.5 5 1.624.14 2.79-.527 3.5-2 3.181 3.172 7.014 4.506 11.5 4 .315 1.726.481 3.393.5 5-1.808-2.343-3.974-3.01-6.5-2a36.504 36.504 0 0 1 10 11.5 4.934 4.934 0 0 0 3 .5 12.93 12.93 0 0 1-.5 5c-1.814-1.26-3.647-1.26-5.5 0a29.825 29.825 0 0 0 5 2c1.157 3.284 1.324 6.618.5 10-2.194-3.195-5.027-4.195-8.5-3a75.78 75.78 0 0 1 8.5 6c.894 7.89-2.606 11.89-10.5 12 8.459.951 8.459 3.285 0 7z"/><path style="opacity:1" fill="#da807c" d="M174.5 108.5c1.282 1.208 1.282 2.542 0 4-.792-1.2-.792-2.533 0-4z"/><path style="opacity:1" fill="#7da9c9" d="M119.5 110.5c-2.028 3.684-4.028 7.35-6 11h-4a14.828 14.828 0 0 1 2-6.5 6.978 6.978 0 0 1-3.5-2.5 785.54 785.54 0 0 1-4.5 7c-1.599.268-2.932-.066-4-1l2-4a54.554 54.554 0 0 0-4.5-2 12.935 12.935 0 0 0-.5 5 42.504 42.504 0 0 1-5-1.5c.906-1.699 1.24-3.533 1-5.5a86.108 86.108 0 0 1 20 2 29.862 29.862 0 0 0 7-2z"/><path style="opacity:1" fill="#fefffe" d="M99.5 118.5a5.727 5.727 0 0 1-3-1c-.16-1.699.007-3.366.5-5 1.51.59 3.009 1.256 4.5 2l-2 4zM109.5 121.5c-2.198-.375-4.198-1.042-6-2a785.54 785.54 0 0 0 4.5-7 6.978 6.978 0 0 0 3.5 2.5 14.828 14.828 0 0 0-2 6.5zM160.5 114.5a54.283 54.283 0 0 0 2 7h-3c-.302-2.559.032-4.893 1-7z"/><path style="opacity:1" fill="#7ca8c8" d="M160.5 114.5h14c-.938 2.256-.938 4.59 0 7h-4a69.385 69.385 0 0 0-2.5-6 11.38 11.38 0 0 0-2.5 2 6.846 6.846 0 0 1 1 4h-4a54.283 54.283 0 0 1-2-7z"/><path style="opacity:1" fill="#fefffe" d="M170.5 121.5h-4a6.846 6.846 0 0 0-1-4 11.38 11.38 0 0 1 2.5-2 69.385 69.385 0 0 1 2.5 6z"/><path style="opacity:1" fill="#ede1d8" d="M409.5 117.5c.574 2.288 1.574 4.455 3 6.5 7.616.944 15.116.444 22.5-1.5a54.49 54.49 0 0 1 4.5 1 71.77 71.77 0 0 1 18-2.5c-2.23 2.566-3.564 5.566-4 9a196.88 196.88 0 0 1 3.5 26.5 47.604 47.604 0 0 0 5.5 10.5c-5.03.448-10.03 1.114-15 2a262.98 262.98 0 0 0-33 18 133.02 133.02 0 0 1-40 12.5 409.204 409.204 0 0 0-4-13.5 137.847 137.847 0 0 1 20.5-10.5c2.677-3.594 6.177-6.094 10.5-7.5a27.425 27.425 0 0 0 6.5-10.5 119.816 119.816 0 0 0 1-30 26.852 26.852 0 0 0-3.5-6c1.367-1.34 2.7-2.673 4-4z"/><path style="opacity:1" fill="#7ca8c8" d="M91.5 118.5c1.495.489 2.829 1.155 4 2a508.927 508.927 0 0 1-4.5 31 31.303 31.303 0 0 1 5-8 177.557 177.557 0 0 0 2.5-22 20.69 20.69 0 0 1 5 1c-1.037 2.238-1.203 4.571-.5 7 2.757-1.445 4.924-3.445 6.5-6h4c-2.26 5.428-6.093 9.428-11.5 12a43.073 43.073 0 0 1-2 9c-6.258 7.913-7.091 16.246-2.5 25v2c1.588 3.91 3.921 7.243 7 10 1.042-1.291 2.208-1.291 3.5 0 .765 1.566.598 2.899-.5 4l1 16h-3c.295-2.235-.039-4.235-1-6a46.052 46.052 0 0 1-1.5-8c-7.207-7.932-11.54-17.266-13-28a115.148 115.148 0 0 0-4.5 13 10.022 10.022 0 0 0 1 3c-1.791-.134-3.458.199-5 1-.02-1.56-.352-3.06-1-4.5a264.02 264.02 0 0 0 5.5-14.5 1596.352 1596.352 0 0 1 5.5-39z"/><path style="opacity:1" d="M83.5 119.5c.997-.03 1.664.47 2 1.5a136.432 136.432 0 0 0-6 9.5c1.264 3.653 1.264 7.32 0 11-3.75-8.322-2.416-15.655 4-22z"/><path style="opacity:1" fill="#fefffe" d="M95.5 120.5c1.291-.237 2.291.096 3 1a177.557 177.557 0 0 1-2.5 22 31.303 31.303 0 0 0-5 8 508.927 508.927 0 0 0 4.5-31z"/><path style="opacity:1" d="M161.5 163.5c.836-5.103-.498-9.437-4-13-.886.825-1.219 1.825-1 3-3.096.593-5.429-.407-7-3 1.759-1.254 3.259-.921 4.5 1 .99-3.965 2.49-7.632 4.5-11-2.17-4.683-5.337-8.683-9.5-12-.818-2.727-.652-5.394.5-8 1.294 5.818 4.46 10.485 9.5 14 2.329 4.863 1.829 9.363-1.5 13.5 3.042.555 4.875 2.388 5.5 5.5a36.95 36.95 0 0 0 3.5 15c-.502 1.021-1.168 1.188-2 .5a86.818 86.818 0 0 1-3-5.5z"/><path style="opacity:1" fill="#e3cc9d" d="M356.5 126.5c-1.208-.734-2.541-1.067-4-1a4.934 4.934 0 0 1-.5 3c-.667-1.333-.667-2.667 0-4a6.547 6.547 0 0 0 3-3 11.333 11.333 0 0 0 3.5 1.5c-1.473.71-2.14 1.876-2 3.5z"/><path style="opacity:1" d="M387.5 121.5c1.89-.203 3.39.463 4.5 2 1.352 6.41 4.852 11.076 10.5 14-3.695 1.686-6.529.686-8.5-3-1.335-4.898-3.502-9.231-6.5-13z"/><path style="opacity:1" fill="#fefffe" d="m103.5 122.5 6 1c-1.576 2.555-3.743 4.555-6.5 6-.703-2.429-.537-4.762.5-7zM191.5 122.5a320.161 320.161 0 0 1-4 20 111.644 111.644 0 0 1-8 15c-3.991-10.963-5.658-22.297-5-34 10.708-1.625 14.041 2.709 10 13 .825.886 1.825 1.219 3 1a49.87 49.87 0 0 1 1-14 5.576 5.576 0 0 1 3-1z"/><path style="opacity:1" fill="#010101" d="M191.5 122.5c.997-.03 1.664.47 2 1.5a206.477 206.477 0 0 0-3.5 21.5c-1.015 2.71-2.515 5.043-4.5 7a329.85 329.85 0 0 1-5 18c-1.624-.14-2.79.527-3.5 2a42.857 42.857 0 0 1-4.5 15c-1.22 1.211-2.387 1.211-3.5 0-1.252 2.514-1.752 5.18-1.5 8h-6a20.69 20.69 0 0 0 1 5v3c-.12 1.086-.787 1.753-2 2-2.278-.281-3.445-1.615-3.5-4a25.55 25.55 0 0 0-5.5 6.5 305.025 305.025 0 0 1 43 5.5c2.696-1.94 4.029-1.273 4 2a348.949 348.949 0 0 1-26-3.5l-21-1c-1.623-3.054-2.29-2.554-2 1.5-2.161-.326-3.994-1.326-5.5-3a8.43 8.43 0 0 0-.5 4c-1.175.219-2.175-.114-3-1-2.42-7.981-3.42-7.648-3 1a22.375 22.375 0 0 1-6.5-3c-1.11 1.537-2.61 2.203-4.5 2a8.43 8.43 0 0 0-.5-4c-.036 2.441-.869 4.441-2.5 6a10.756 10.756 0 0 1-3-2.5 40.63 40.63 0 0 1-13-5.5 5.576 5.576 0 0 0 1-3 94.146 94.146 0 0 0 3-9l2 1 2.5 12a34.251 34.251 0 0 1 1.5-8 67.101 67.101 0 0 0 4.5 10c.499-3.652.665-7.318.5-11 1.175-.219 2.175.114 3 1a37.143 37.143 0 0 1 2.5 8c1.888-12.457 4.222-12.791 7-1 .497-2.646.664-5.313.5-8h3a10.098 10.098 0 0 0 1.5 6c1.105-5.128 2.438-5.128 4 0a8.43 8.43 0 0 0 .5-4 32.462 32.462 0 0 0 8-.5c5.367-2.664 6.367-6.497 3-11.5 4.143-2.01 6.643-.677 7.5 4a235.768 235.768 0 0 0 6.5-13c.996.086 1.829-.248 2.5-1 .436-2.347.936-4.681 1.5-7a21.336 21.336 0 0 1-1-7c1.431.381 2.264 1.381 2.5 3a12.93 12.93 0 0 0 .5-5c1.705-2.787 2.872-2.454 3.5 1 .495-1.973.662-3.973.5-6a111.644 111.644 0 0 0 8-15 320.161 320.161 0 0 0 4-20z"/><path style="opacity:1" fill="#7ca8c8" d="M162.5 123.5h5a168.485 168.485 0 0 0 2.5 35c.566 2.223 1.4 4.223 2.5 6a21.336 21.336 0 0 0 1 7 130.406 130.406 0 0 0-1.5 7c-.671.752-1.504 1.086-2.5 1 .695-7.014-.472-13.681-3.5-20a374.828 374.828 0 0 1-3.5-36z"/><path style="opacity:1" fill="#fefffe" d="M167.5 123.5h3c-.166 5.676.001 11.343.5 17a258.182 258.182 0 0 1 4.5 22 12.93 12.93 0 0 1-.5 5c-.236-1.619-1.069-2.619-2.5-3-1.1-1.777-1.934-3.777-2.5-6a168.485 168.485 0 0 1-2.5-35z"/><path style="opacity:1" fill="#7ca8c8" d="M170.5 123.5h4c-.658 11.703 1.009 23.037 5 34a18.453 18.453 0 0 1-.5 6c-.628-3.454-1.795-3.787-3.5-1a258.182 258.182 0 0 0-4.5-22 145.053 145.053 0 0 1-.5-17z"/><path style="opacity:1" fill="#e3cc9d" d="M323.5 127.5c.111-.617.444-1.117 1-1.5a31.41 31.41 0 0 1 13 1 121.345 121.345 0 0 1 13 7c3.393 1.168 6.059.334 8-2.5.169.897.502 1.897 1 3 3-1.258 4-3.258 3-6a3.647 3.647 0 0 0-1.5 1c-.788-1.665-1.122-3.331-1-5a13.271 13.271 0 0 1 5.5 5 11.988 11.988 0 0 0-1 6 9.86 9.86 0 0 0-6 1 10.258 10.258 0 0 0 4 1.5l-5 3.5c-.829-4.819-3.496-6.152-8-4 1.545.952 3.212 1.285 5 1v3c-2.884-.883-5.717-.883-8.5 0l-10.5-3.5c-.482-1.008-.648-2.175-.5-3.5-3.029-1.529-5.195-3.862-6.5-7-.831 1.973-.998 3.973-.5 6a88.762 88.762 0 0 0-4.5-6z"/><path style="opacity:1" d="M396.5 124.5c2.861.737 3.861 2.404 3 5-2.256-.921-3.256-2.588-3-5zM56.5 126.5c2.6 1.419 5.1 3.085 7.5 5 .572-3.207 2.405-4.874 5.5-5a58.74 58.74 0 0 0 2 10.5 14.443 14.443 0 0 1-1 5l4.5 8.5a562.765 562.765 0 0 0 3.5 17.5c-.18 2.241-1.013 2.741-2.5 1.5a61.988 61.988 0 0 1-2 13c-1.356.88-2.856 1.214-4.5 1-.146-2.442.687-3.109 2.5-2a121.024 121.024 0 0 1 3.5-17.5c-1.868-5.069-4.868-6.069-9-3-1.444.781-2.777.614-4-.5l5-3.5c2.495-.157 4.828-.324 7-.5a39.433 39.433 0 0 0-3.5-8c-3.43 3.191-4.596 2.691-3.5-1.5-1.049-.492-2.049-.326-3 .5-.853-2.98.48-4.313 4-4 .864-2.395.864-4.729 0-7a45.818 45.818 0 0 1-11-6.5c-.837-1.011-1.17-2.178-1-3.5z"/><path style="opacity:1" fill="#ede1d8" d="M356.5 126.5c1.265 2.813.265 4.813-3 6-1.671-.168-3.004-.835-4-2 3.423.376 5.756-.957 7-4z"/><path style="opacity:1" d="M376.5 126.5c3.415.864 4.748 2.864 4 6-2.333-1.332-3.666-3.332-4-6z"/><path style="opacity:1" fill="#e3cc9d" d="M323.5 127.5c-.708 4.941 1.292 7.941 6 9-4.651.891-7.318-1.275-8-6.5.139-1.301.805-2.134 2-2.5z"/><path style="opacity:1" d="M333.5 127.5a68.49 68.49 0 0 1 8 6.5 22.226 22.226 0 0 1 6 2.5c-7.214 1.055-11.881-1.945-14-9zM97.5 171.5v-2a32.074 32.074 0 0 0 2.5-10c.736-2.82 2.402-4.82 5-6 2.964-8.428 7.797-15.595 14.5-21.5.983-.591 1.65-.257 2 1-6.048 6.225-10.714 13.391-14 21.5-4.532 3.067-6.699 7.401-6.5 13-.498 2.044-1.665 3.378-3.5 4z"/><path style="opacity:1" fill="#e3cc9d" d="M329.5 136.5c-.131-.876.202-1.543 1-2 3.855 1.507 3.521 2.174-1 2z"/><path style="opacity:1" d="M389.5 145.5c-.009 1.808.491 3.475 1.5 5a38.427 38.427 0 0 0 6.5 5c-3.369.931-6.202-.069-8.5-3a78.855 78.855 0 0 0-7.5-15c.502-1.021 1.168-1.188 2-.5 2.391 2.637 4.391 5.47 6 8.5z"/><path style="opacity:1" d="M389.5 145.5c.781-3.108 1.114-6.108 1-9l4 5a6.802 6.802 0 0 1-3 1.5 9.454 9.454 0 0 1 1.5 2.5 72.428 72.428 0 0 1 11.5 8c-1.687 1.068-3.354.901-5-.5a79.853 79.853 0 0 1-10-7.5zM128.5 138.5c1.175-.219 2.175.114 3 1-1.72 1.434-3.72 2.267-6 2.5a4.933 4.933 0 0 0-1 2.5c1.511 3.422 4.177 5.422 8 6-5.872 1.504-9.538-.83-11-7 1.308-3.179 3.641-4.846 7-5z"/><path style="opacity:1" fill="#e6cddc" d="M331.5 138.5c2.769 1.707 5.769 3.04 9 4 1.021.502 1.188 1.168.5 2a24.853 24.853 0 0 1-8 3c-1.257-.35-1.591-1.017-1-2 6.016-1.589 5.85-2.756-.5-3.5-1.184-1.145-1.184-2.312 0-3.5z"/><path style="opacity:1" d="M360.5 143.5c1.965.448 2.298 1.448 1 3-.886-.825-1.219-1.825-1-3zM374.5 143.5c1.72 2.158 2.553 4.825 2.5 8 4.054 3.775 6.221 8.442 6.5 14-.825.886-1.825 1.219-3 1 .369-5.263-1.464-9.596-5.5-13a50.464 50.464 0 0 1-.5-10zM355.5 145.5c1.517.011 2.684.677 3.5 2l5.5 11-1.5 1a127.618 127.618 0 0 1-7.5-14z"/><path style="opacity:1" fill="#e3cc9d" d="M341.5 146.5c3.275.519 4.608 2.519 4 6-.024 7.919-2.858 14.586-8.5 20-1-2.667-2-2.667-3 0l-1.5-1.5c.663-7.292-.003-7.292-2 0a3.943 3.943 0 0 0 1 2c-1.167.5-2 1.333-2.5 2.5a69.2 69.2 0 0 0-4.5-6.5c3.345-2.189 3.679-4.689 1-7.5a12.403 12.403 0 0 1 2.5-4 42.769 42.769 0 0 0 1.5 9 94.396 94.396 0 0 1 3-12.5c-1.207-1.3-1.874-2.8-2-4.5 2.42.208 4.753-.126 7-1l2 3a31.283 31.283 0 0 0 2-5z"/><path style="opacity:1" d="M136.5 147.5c2.357-.163 4.69.003 7 .5.457.414.791.914 1 1.5-2.447.058-4.947.392-7.5 1-1.683-.676-1.85-1.676-.5-3zM378.5 147.5c4.828.799 6.828 3.466 6 8-2.434-2.421-4.434-5.088-6-8z"/><path style="opacity:1" fill="#030302" d="M362.5 149.5c6.563 2.75 9.729 7.75 9.5 15l3 5c3.774 2.697 4.274 2.197 1.5-1.5l1-1.5a25.658 25.658 0 0 1 6 6c-1.151 1.231-2.317 1.231-3.5 0-.388.928-1.055 1.595-2 2-6.297-2.975-9.297-7.975-9-15a82.358 82.358 0 0 1-6.5-10z"/><path style="opacity:1" d="M333.5 150.5c2.222.059 3.222 1.225 3 3.5a89.578 89.578 0 0 1-3 8.5 128.407 128.407 0 0 1 0-12zM110.5 153.5c1.788-.285 3.455.048 5 1a14.748 14.748 0 0 0-4.5 3 35.633 35.633 0 0 0 .5 13c-.02 3.754-1.687 4.754-5 3a9.425 9.425 0 0 0 3-3c-1.543-5.835-1.209-11.502 1-17zM338.5 153.5c1.175-.219 2.175.114 3 1-.76 1.904-.76 3.904 0 6-.286 3.239-1.619 5.906-4 8-.637-2.807.029-5.473 2-8a15.418 15.418 0 0 1-1-7zM161.5 163.5c1.496 16.848-5.837 27.681-22 32.5-4.729.996-9.229.496-13.5-1.5-4.651-6.466-7.485-13.633-8.5-21.5.189-9.06 4.522-15.06 13-18 8.509-.584 16.842.416 25 3 2.523 1.36 4.523 3.193 6 5.5z"/><path style="opacity:1" fill="#fefffe" d="M132.5 156.5c1.225.652 1.892 1.819 2 3.5.407 3.759-1.26 5.259-5 4.5v-7c1.291.237 2.291-.096 3-1zM136.5 157.5c4.67 1.013 5.837 3.68 3.5 8-1.011-.837-2.178-1.17-3.5-1v-7z"/><path style="opacity:1" d="M372.5 157.5c3.415.864 4.748 2.864 4 6-2.571-1.228-3.905-3.228-4-6z"/><path style="opacity:1" fill="#fefffe" d="M143.5 158.5h3v7a8.43 8.43 0 0 1-4-.5c.923-2.041 1.256-4.208 1-6.5z"/><path style="opacity:1" d="M396.5 167.5c-5.307-.95-7.307-3.95-6-9 1.684 3.325 3.684 6.325 6 9z"/><path style="opacity:1" fill="#fefffe" d="M104.5 195.5c-1.545.73-2.378 2.063-2.5 4-1.839-4.342-3.672-8.676-5.5-13h-3v-4h-3v-5c-1.983.343-3.317-.324-4-2a10.022 10.022 0 0 1-1-3 115.148 115.148 0 0 1 4.5-13c1.46 10.734 5.793 20.068 13 28a46.052 46.052 0 0 0 1.5 8zM148.5 159.5c4.192-.097 5.525 1.736 4 5.5a8.43 8.43 0 0 1-4 .5v-6zM124.5 160.5h3c.525 4.618-.808 5.618-4 3a5.576 5.576 0 0 0 1-3z"/><path style="opacity:1" fill="#e3cc9d" d="M356.5 160.5c2.208 1.418 3.042 3.418 2.5 6a23.423 23.423 0 0 1-2.5-6z"/><path style="opacity:1" d="M345.5 168.5c1.248.834 1.915 2.167 2 4-2.544 5.393-2.544 10.726 0 16-.825.886-1.825 1.219-3 1a81.83 81.83 0 0 1-1-9c.679-4.024 1.346-8.024 2-12zM367.5 168.5c2.621.621 4.288 2.288 5 5-1 1.333-2 1.333-3 0a16.076 16.076 0 0 1-2-5z"/><path style="opacity:1" fill="#262726" d="M455.5 169.5a50.69 50.69 0 0 0 17 0c3.72.555 6.053 2.721 7 6.5-5.344 2.005-10.344 4.505-15 7.5l1.5 1a133.599 133.599 0 0 1 21-8 32.258 32.258 0 0 1 9.5 9.5 1594.39 1594.39 0 0 1-55 11 36.16 36.16 0 0 1-7 4c-10.679 1.06-20.679 4.226-30 9.5-1.333 1-1.333 2 0 3 9.742-6.192 20.408-9.692 32-10.5l6-4a854.254 854.254 0 0 0 57-11.5c8.435 1.682 9.102 4.849 2 9.5a140.203 140.203 0 0 1-34 7 392.949 392.949 0 0 0-47 17 316.677 316.677 0 0 1-59.5 5.5c-2.45-2.878-3.116-6.212-2-10 2.328-8.015 6.328-15.015 12-21a10.098 10.098 0 0 1 1.5 6c20.083-1.764 38.416-8.264 55-19.5a169.242 169.242 0 0 0 22-11c2.208-.191 4.208-.691 6-1.5z"/><path style="opacity:1" d="M86.5 175.5c.683 1.676 2.017 2.343 4 2v5h3v4h3c1.828 4.324 3.661 8.658 5.5 13 .122-1.937.955-3.27 2.5-4 .961 1.765 1.295 3.765 1 6h3v2c-6.177.524-9.677-2.143-10.5-8-1.845-.55-3.345-1.55-4.5-3 .928-1.268 1.095-2.601.5-4-1.263 2.107-3.097 3.107-5.5 3 1.333-3.667 1.333-7.333 0-11-2.412.363-3.912-.637-4.5-3-2.681 2.79-3.515 2.457-2.5-1 1.542-.801 3.209-1.134 5-1zM346.5 178.5c.996-.086 1.829.248 2.5 1a65.765 65.765 0 0 1 2.5 9c-.825.886-1.825 1.219-3 1a27.43 27.43 0 0 0-2-11zM332.5 179.5a153.323 153.323 0 0 0 6 10c-1.759 1.254-3.259.921-4.5-1a30.465 30.465 0 0 1-1.5-9zM107.5 185.5zM458.5 180.5c2.049.206 2.383 1.039 1 2.5a92401.796 92401.796 0 0 0-32 12 87.45 87.45 0 0 0-11 6l-11 1c-11.828 5.463-24.162 8.296-37 8.5a3.647 3.647 0 0 1 1-1.5c12.252-.98 23.918-3.98 35-9l11-1a37.885 37.885 0 0 1 10-6c11.149-4.1 22.149-8.267 33-12.5zM379.5 182.5c2.604 4.275 2.27 8.608-1 13l-1-1.5a25.687 25.687 0 0 0 2-11.5z"/><path style="opacity:1" fill="#fefffe" d="M161.5 195.5c-1.725-.343-2.225-1.343-1.5-3 1.039.744 1.539 1.744 1.5 3z"/><path style="opacity:1" d="M69.5 194.5c9.125.278 9.125 1.445 0 3.5a69.216 69.216 0 0 0-9 13c-2.638 2.108-4.972 1.941-7-.5 1.701.31 3.368-.19 5-1.5a168.656 168.656 0 0 0 6.5-10.5c1.397-1.57 2.897-2.904 4.5-4z"/><path style="opacity:1" fill="#fefffe" d="M161.5 195.5h6c-1.333 2-3 3.667-5 5a20.69 20.69 0 0 1-1-5zM148.5 202.5c1.832.64 2.165 1.64 1 3-.886-.825-1.219-1.825-1-3z"/><path style="opacity:1" d="M90.5 218.5a32.462 32.462 0 0 1 8 .5 25.583 25.583 0 0 1 7 7c1.601.273 3.101.773 4.5 1.5a44.168 44.168 0 0 0 6.5-6c4.165-.868 8.165-.868 12 0a3.647 3.647 0 0 1-1 1.5c-3.145.111-6.145.278-9 .5-1.9.947-3.233 2.447-4 4.5-3.589 1.537-7.256 1.537-11 0-3.235-6.284-8.235-8.784-15-7.5a31.12 31.12 0 0 0 2-2z"/><path style="opacity:1" fill="#fefffe" d="M278.5 244.5c9.886.075 13.72 5.075 11.5 15-5.18 6.611-10.18 6.611-15 0-1.539-5.807-.372-10.807 3.5-15zM247.5 250.5c12.159.649 19.659 6.982 22.5 19 1.149 8.207.482 16.207-2 24-6.011 8.928-14.177 12.095-24.5 9.5-5.772-3.465-8.605-8.632-8.5-15.5a93.664 93.664 0 0 1 1-26c2.437-5.274 6.271-8.94 11.5-11zm3 8c8.57 3.79 12.57 10.457 12 20 .472 9.073-3.528 15.073-12 18-2.253-.753-4.087-2.086-5.5-4-3.643-10.53-3.31-20.863 1-31 1.409-1.281 2.909-2.281 4.5-3zM299.5 250.5c4.994-.171 6.828 2.162 5.5 7a473.67 473.67 0 0 0-17 45c-3.521 4.237-6.355 3.903-8.5-1 5.121-17.712 11.787-34.712 20-51zM300.5 286.5c10.477-.351 14.644 4.649 12.5 15-6 6.667-12 6.667-18 0-2.042-6.627-.208-11.627 5.5-15zm2 10c.997-1.213 1.997-1.046 3 .5-1.219 1.795-2.219 1.628-3-.5zM342.5 325.5c8.558.906 12.892 5.739 13 14.5l-.5 5.5c-1.388 1.054-2.888 1.22-4.5.5-.18-4.772-1.846-8.939-5-12.5-1.55 3.799-2.217 7.799-2 12l1 9c4.798-2.215 9.798-3.048 15-2.5 1.333 1.667 1.333 3.333 0 5a69.276 69.276 0 0 1-16 3.5 791.72 791.72 0 0 1 1.5 32c-2 1.333-4 1.333-6 0a4888.523 4888.523 0 0 1-1.5-31 24.935 24.935 0 0 1-7-.5c-1.333-1.667-1.333-3.333 0-5a24.935 24.935 0 0 1 7-.5c-.166-7.341 0-14.674.5-22 .738-3.148 2.238-5.815 4.5-8zM468.5 331.5a40.914 40.914 0 0 1 9 .5c1.054 1.388 1.22 2.888.5 4.5-5.753.736-10.253 3.57-13.5 8.5a96.652 96.652 0 0 1 22 7c4.711 4.14 6.211 9.306 4.5 15.5-3.934 5.709-9.434 8.042-16.5 7a38.555 38.555 0 0 1-8.5-1c-.72-1.612-.554-3.112.5-4.5l13-1c6.836-2.646 7.503-6.313 2-11a121.176 121.176 0 0 0-21-6c-3.716-3.542-3.882-7.375-.5-11.5a94.334 94.334 0 0 1 8.5-8zM431.5 339.5c5.892-1.427 10.059.573 12.5 6 3.321 9.888.155 16.221-9.5 19 2.489 7.615 6.155 8.448 11 2.5 4.167-1.167 5.667.333 4.5 4.5-9.555 9.129-16.888 7.462-22-5-2.716-9.573-1.549-18.573 3.5-27zm3 7c3.754 1.328 4.921 3.994 3.5 8-.928 2.535-2.762 3.535-5.5 3l2-11zM403.5 352.5c7.327-1.171 10.494 1.829 9.5 9-2.267 1.435-4.267 1.102-6-1-3.778 6.307-3.111 11.973 2 17a12.14 12.14 0 0 0 4.5-3.5c5.145-.398 6.312 1.769 3.5 6.5-4.478 3.349-9.312 3.849-14.5 1.5-5.478-9.978-5.145-19.812 1-29.5zM32.5 357.5c9.922-1.953 17.422 1.38 22.5 10 1.512 5.156-.154 6.823-5 5-2.175-5.016-6.008-8.016-11.5-9-4.878 4.095-7.378 9.428-7.5 16-3.117 13.641.383 25.141 10.5 34.5 8.074-2.089 12.741-7.422 14-16 1.612-.72 3.112-.554 4.5.5.887 4.572.22 8.905-2 13L47.5 420c-3.795.837-7.461.504-11-1-5.467-4.793-9.3-10.626-11.5-17.5a116.45 116.45 0 0 1 2-35 82.844 82.844 0 0 1 5.5-9zM373.5 359.5c2.222-.322 4.056.345 5.5 2 2.464 7.594 5.964 14.594 10.5 21-.074 2.239-1.241 3.239-3.5 3-2.175-.334-4.008-1.334-5.5-3a19.887 19.887 0 0 0-4 3.5c-3.695.318-7.362.818-11 1.5-1.529-.029-2.696-.696-3.5-2-1.57-5.553-1.903-11.219-1-17 2.819-3.993 6.653-5.66 11.5-5-.067-1.459.266-2.792 1-4zm-4 10c4.578 1.343 6.078 4.343 4.5 9-2.173 2.14-4.673 2.474-7.5 1-.643-3.933.357-7.266 3-10zM267.5 363.5c12.103-1.407 16.269 3.593 12.5 15-3.746 4.623-8.579 6.623-14.5 6 .187 4.521 2.52 7.188 7 8 4.189-1.015 8.022-2.682 11.5-5 4.469 1.832 4.636 4.332.5 7.5-8.336 5.069-16.169 4.569-23.5-1.5-4.156-11.377-1.989-21.377 6.5-30zm3 6c6.018 1.289 6.351 3.789 1 7.5-1.525 1.009-3.192 1.509-5 1.5.523-3.378 1.856-6.378 4-9zM227.5 368.5c9.347-.158 16.014 4.009 20 12.5-.267 3.164-1.933 4.164-5 3-2.765-1.097-4.431-3.097-5-6a15.83 15.83 0 0 1-5.5-3.5 152.589 152.589 0 0 0 3.5 21c-.22 3.853-2.053 4.853-5.5 3a374.864 374.864 0 0 0-6.5-22.5 27.094 27.094 0 0 1 4-7.5zM163.5 371.5c2.357-.163 4.69.003 7 .5 7.328 4.987 10.161 11.82 8.5 20.5-4.484 4.596-9.984 6.263-16.5 5a180.339 180.339 0 0 1-2.5 21c-1.667 1.333-3.333 1.333-5 0a90.998 90.998 0 0 1 1.5-21.5 80.741 80.741 0 0 0-3-16 6.293 6.293 0 0 1 1-3 14.72 14.72 0 0 0 5-1.5c.66-2.315 1.993-3.981 4-5zm2 7c4.199 1.712 6.866 4.879 8 9.5-.976 2.142-2.643 3.308-5 3.5-2.077-1.437-4.41-2.104-7-2a508.575 508.575 0 0 1 4-11zM204.5 372.5c2.825-.419 4.991.581 6.5 3a8058.734 8058.734 0 0 1 8.5 15.5c5.64-.371 7.307 1.963 5 7-6.182 1.275-10.682-.892-13.5-6.5-3.636 5.677-8.803 7.51-15.5 5.5-7.537-4.032-10.037-10.198-7.5-18.5a11.532 11.532 0 0 1 4.5-3.5l11-1c.556-.383.889-.883 1-1.5zm-8 8c6.051.539 8.385 3.706 7 9.5-2.927 1.661-5.593 1.161-8-1.5-2.996-3.281-2.663-5.948 1-8zM127.5 379.5c3.35-.165 6.683.002 10 .5a11.532 11.532 0 0 1 3.5 4.5c.981 7.326.481 14.493-1.5 21.5-1.612.72-3.112.554-4.5-.5.373-6.371.207-12.704-.5-19-1.865-1.166-3.532-.833-5 1a84.51 84.51 0 0 0-6.5 15c-1.667 1.333-3.333 1.333-5 0l-1-13c-1.049-1.607-2.549-2.273-4.5-2-.143 2.597-.977 4.931-2.5 7l-1 15c-1.733 2.102-3.733 2.435-6 1a134 134 0 0 0-.5-19c-.726-3.458.607-5.125 4-5-.203-1.89.463-3.39 2-4.5 4-.667 8-.667 12 0l2.5 2.5c1.059-2.159 2.559-3.826 4.5-5zM72.5 384.5c15.652-3.513 21.819 2.487 18.5 18-4.388 13.253-12.055 15.587-23 7-2.345-6.143-3.011-12.476-2-19 1.494-2.814 3.66-4.814 6.5-6zm3 6c9.048-1.254 11.881 2.412 8.5 11-.782 2.576-2.282 4.576-4.5 6a656.79 656.79 0 0 0-7.5-7c-1.419-4.418-.252-7.751 3.5-10zM353.5 438.5c4.241-.591 5.907 1.242 5 5.5a748.192 748.192 0 0 1-8.5 53.5c-4.137 1.994-5.97.66-5.5-4a7481.948 7481.948 0 0 0 9-55zM270.5 451.5c2.222-.322 4.056.345 5.5 2a1194.11 1194.11 0 0 1 1 43 26.67 26.67 0 0 1-6.5 1.5l-2 2a25.238 25.238 0 0 1-10 0 15.83 15.83 0 0 1-3.5-5.5 69.1 69.1 0 0 1 1-20c.948-2.07 2.448-3.57 4.5-4.5 3.26-.784 6.427-.617 9.5.5.175-6.429.342-12.762.5-19zm-7 24c2.695.433 4.862 1.766 6.5 4a55.582 55.582 0 0 0 1.5 9 1915.709 1915.709 0 0 0-8 6c-1.849-1.689-2.849-3.856-3-6.5.404-4.368 1.404-8.535 3-12.5zM294.5 452.5c19.075-1.462 24.075 6.038 15 22.5-5.037 3.677-10.704 5.344-17 5 6.609 10.622 13.276 10.956 20 1 4.6-1.583 6.434-.083 5.5 4.5-5.031 9.089-12.531 11.589-22.5 7.5-8.678-5.501-11.512-13.334-8.5-23.5 1.063-6.377 3.563-12.044 7.5-17zm4 6c9.299.12 11.299 3.953 6 11.5a42.638 42.638 0 0 1-8 3.5c-1.667-.333-2.667-1.333-3-3 1.069-4.31 2.736-8.31 5-12zM369.5 453.5c7.693.285 15.027 2.118 22 5.5a190.987 190.987 0 0 0 19 4c2.572 3.819 2.405 7.652-.5 11.5a45.255 45.255 0 0 1-8.5 7.5 456.961 456.961 0 0 0-22 11c-4.167 1.167-5.667-.333-4.5-4.5l3.5-3.5a379.695 379.695 0 0 0 20-9 55.05 55.05 0 0 0 6-6.5 301.568 301.568 0 0 1-35-10.5c-1.252-1.828-1.252-3.661 0-5.5zM192.5 454.5c7.144-1.508 12.977.492 17.5 6 .667 2 .667 4 0 6-1.667 1.333-3.333 1.333-5 0-3.501-7.381-7.501-7.715-12-1-6.357 13.392-4.024 25.059 7 35 3.949-3.274 7.116-7.107 9.5-11.5 1.941-.743 3.774-.576 5.5.5.484 2.413.15 4.746-1 7l-9.5 9.5c-5.657 1.718-10.157.218-13.5-4.5-7.554-10.648-9.554-22.315-6-35 1.933-4.417 4.433-8.417 7.5-12zM147.5 456.5a18.453 18.453 0 0 1 6 .5c1.054 1.388 1.22 2.888.5 4.5a223.458 223.458 0 0 0-34.5 32c12.6 2.969 25.267 5.803 38 8.5 4.45.776 5.95 3.276 4.5 7.5a4.933 4.933 0 0 1-2.5 1 85.823 85.823 0 0 0-12-4.5 662.658 662.658 0 0 1-33-6c-3.604-1.334-4.771-3.834-3.5-7.5a371.757 371.757 0 0 1 36.5-36zM224.5 459.5c9.612-2.195 16.446 1.138 20.5 10a83.602 83.602 0 0 1 1 24c-3.097 6.632-8.264 8.799-15.5 6.5-4.945-3.945-8.778-8.779-11.5-14.5-.667-6-.667-12 0-18 1.273-3.097 3.107-5.764 5.5-8zm4 6c5.365.196 8.865 2.862 10.5 8 1.883 6.358 1.883 12.691 0 19-1.396 2.027-3.062 2.36-5 1 0-4-2-6-6-6-4.809-7.525-4.643-14.858.5-22z"/></svg>