<svg xmlns="http://www.w3.org/2000/svg" width="512" height="512" style="shape-rendering:geometricPrecision;text-rendering:geometricPrecision;image-rendering:optimizeQuality;fill-rule:evenodd;clip-rule:evenodd"><path style="opacity:1" fill="#092e1f" d="M234.5 1.5c37.071-2.343 73.405 1.49 109 11.5a125.575 125.575 0 0 1 23 12 138.588 138.588 0 0 1 39 15c14.629 10.96 26.796 24.126 36.5 39.5 19.48 17.95 33.146 39.617 41 65 13.299 22.563 20.966 46.897 23 73 .667 28.333.667 56.667 0 85a202.02 202.02 0 0 1-6 21 804.638 804.638 0 0 1-8 39 1453.118 1453.118 0 0 1-28 61 256.285 256.285 0 0 1-35.5 30.5 182.324 182.324 0 0 1-36 28 571.503 571.503 0 0 1-56.5 20.5c-22.328 6.684-45.162 8.851-68.5 6.5a937.694 937.694 0 0 1-115-20c-22.531-6.714-42.864-17.381-61-32A276.987 276.987 0 0 1 54 415.5c-4.366-7.687-8.7-15.353-13-23l-7-9-18-38a287.76 287.76 0 0 1-8-33 1835.52 1835.52 0 0 1-1-118c8.558-35.689 22.558-69.023 42-100A820.002 820.002 0 0 1 81.5 59c20.578-14.455 42.911-25.455 67-33 16.693-9.344 34.359-16.344 53-21 11.28-.136 22.28-1.303 33-3.5z"/><path style="opacity:1" fill="#fefffe" d="M238.5 76.5c17.106-1.042 27.939 6.625 32.5 23a3837.26 3837.26 0 0 1 1 145l-2 10a1786.084 1786.084 0 0 0-3.5 64 144.823 144.823 0 0 1 .5 38c-3.542 14.374-12.709 22.041-27.5 23a588.499 588.499 0 0 0-48-4.5 227.567 227.567 0 0 1-58-14 105.983 105.983 0 0 1-24.5-17.5c-12.792-20.335-18.292-42.502-16.5-66.5-2.044-27.347 5.123-51.847 21.5-73.5 3.251-3.922 7.084-7.088 11.5-9.5a313.169 313.169 0 0 0 21-11 79.054 79.054 0 0 1 12-3 590.466 590.466 0 0 1 58 .5 1890.589 1890.589 0 0 0-2-43c.167-12.68.667-25.346 1.5-38 3.015-12.18 10.515-19.847 22.5-23zM329.5 102.5c17.106-1.042 27.939 6.625 32.5 23 1.525 17.124-5.975 27.957-22.5 32.5-17.124 1.525-27.957-5.975-32.5-22.5-1.409-17.208 6.091-28.208 22.5-33z"/><path style="opacity:1" fill="#fefffe" d="M330.5 188.5c17.106-1.042 27.939 6.625 32.5 23a556.2 556.2 0 0 1-5 84l-1 83a469.841 469.841 0 0 1-10 41c-11.91 28.894-33.41 45.727-64.5 50.5a233.481 233.481 0 0 1-42-1c-15.418-4.573-24.085-14.74-26-30.5 1.667-17 11-26.333 28-28a36.136 36.136 0 0 1 14 3.5c7 .667 14 .667 21 0a87.45 87.45 0 0 0 11-6c2.606-1.938 4.439-4.438 5.5-7.5a267.13 267.13 0 0 1 7-27 1025.54 1025.54 0 0 1 6-134l1-28c3.015-12.181 10.515-19.847 22.5-23z"/><path style="opacity:1" fill="#092e1f" d="M166.5 235.5c14.004-.167 28.004 0 42 .5 2.595.226 5.095.726 7.5 1.5a1032.195 1032.195 0 0 0-5.5 82c-19.21-.366-37.71-4.032-55.5-11l-6-12c-.667-13-.667-26 0-39a144.625 144.625 0 0 1 6-15c4.147-1.982 7.98-4.316 11.5-7z"/></svg>