<svg xmlns="http://www.w3.org/2000/svg" width="512" height="512" style="shape-rendering:geometricPrecision;text-rendering:geometricPrecision;image-rendering:optimizeQuality;fill-rule:evenodd;clip-rule:evenodd"><path style="opacity:1" fill="#4396f9" d="M190.5 53.5c13.469 1 17.969 8 13.5 21a773.989 773.989 0 0 0-48 78 1165.711 1165.711 0 0 0-43 71 603.105 603.105 0 0 1-28 38c-4.88 6.294-11.046 8.128-18.5 5.5-5.775-4.327-7.275-9.827-4.5-16.5l28-36a3480.222 3480.222 0 0 1 40-69l5-5A535.633 535.633 0 0 1 168.5 84a4005.57 4005.57 0 0 1-117 18.5 210.675 210.675 0 0 0-9.5 43 980.36 980.36 0 0 0-5 73 227.353 227.353 0 0 1 20-30 113.162 113.162 0 0 0 13-29c7-8 14-8 21 0 1.405 3.572 1.738 7.239 1 11a81.06 81.06 0 0 1-7 19 1615.738 1615.738 0 0 0-41 64l-5 5a165.62 165.62 0 0 0-10 23c-7 8-14 8-21 0a23.814 23.814 0 0 1-1.5-8 2304.1 2304.1 0 0 0 10.5-122c1.67-22.027 6.336-43.361 14-64 4.219-5.36 9.719-8.527 16.5-9.5a1399.921 1399.921 0 0 0 143-24.5zM446.5 98.5c6.891-.769 10.891 2.231 12 9a45.443 45.443 0 0 0-.5 15c4.158 8.912 9.158 9.246 15 1a97.754 97.754 0 0 0 2-16c4.53-7.088 9.863-7.755 16-2 11.86 32.616 16.194 66.283 13 101-4.561 18.703-16.395 26.537-35.5 23.5-10.429-7.321-17.596-17.154-21.5-29.5a60.682 60.682 0 0 1-1-20c4.53-7.088 9.863-7.755 16-2 .407 12.634 4.574 23.801 12.5 33.5 5.422 1.035 8.922-1.131 10.5-6.5a211.556 211.556 0 0 0 0-48 57.332 57.332 0 0 0-3.5-17c-17.851 12.471-31.351 8.805-40.5-11a72.173 72.173 0 0 1-1-23c1.305-3.461 3.471-6.128 6.5-8zM385.5 103.5c15.533-1.985 26.7 4.015 33.5 18 1.875 8.259-1.292 13.259-9.5 15-6.535-1.211-9.869-5.211-10-12-2.472-1.751-5.139-2.585-8-2.5-4.489 6.945-6.823 14.611-7 23a18.091 18.091 0 0 0 2.5 6.5c9.786.738 19.619 1.571 29.5 2.5 9.576 4.628 15.743 12.128 18.5 22.5 5.378 21.857-.122 40.357-16.5 55.5-19.284 6.405-32.118-.095-38.5-19.5a88.079 88.079 0 0 1-2-24c3.04-5.868 7.54-7.368 13.5-4.5a11.532 11.532 0 0 1 3.5 4.5 104.262 104.262 0 0 0 6 26c3.087 2.235 6.253 2.401 9.5.5 9.081-12.81 10.248-26.31 3.5-40.5-3.011-2.441-6.511-3.607-10.5-3.5-18.69 5.079-30.856-1.421-36.5-19.5-2.076-15.054 1.257-28.721 10-41a111.781 111.781 0 0 0 8.5-7zM210.5 109.5a18.453 18.453 0 0 1 6 .5 31.25 31.25 0 0 0 6 3.5 86.95 86.95 0 0 1 22-.5c5.225 1.279 9.891 3.612 14 7 19.791 21.722 27.291 47.222 22.5 76.5-.642 18.625-7.809 34.125-21.5 46.5-11.475 6.341-23.642 8.175-36.5 5.5a371.14 371.14 0 0 0-3 13c-5 5.333-10 5.333-15 0a26.609 26.609 0 0 1-1.5-9.5c-.4-45.491.1-90.991 1.5-136.5 1.36-2.523 3.193-4.523 5.5-6zm19 21c8.237-1.533 15.07.801 20.5 7 12.03 16.457 16.363 34.79 13 55-1.095 12.199-4.928 23.366-11.5 33.5-7.241 5.05-15.241 6.717-24 5a18.117 18.117 0 0 1-5.5-4.5c-.766-27.175-.599-54.342.5-81.5l1-7.5c2.708-1.766 4.708-4.099 6-7zM307.5 115.5c7.588-1.05 14.588.45 21 4.5 9.786 6.779 16.953 15.612 21.5 26.5 8.003 23.028 10.67 46.695 8 71-8.228 25.035-24.395 32.535-48.5 22.5-7.244-4.243-12.744-10.076-16.5-17.5-.789-3.591-.622-7.091.5-10.5-7.88-22.5-10.713-45.667-8.5-69.5 1.995-13.811 9.495-22.811 22.5-27zm4 18c6.597 1.388 12.097 4.721 16.5 10 10.754 21.735 14.754 44.735 12 69a81.58 81.58 0 0 1-5 11c-6.134 4.252-11.967 3.919-17.5-1-7.979-16.439-12.812-33.772-14.5-52-.667-8-.667-16 0-24a177.608 177.608 0 0 1 3.5-10 31.642 31.642 0 0 1 5-3z"/><path style="opacity:1" fill="#fefffe" d="M403.5 286.5c6.986-.169 8.653 2.664 5 8.5-3.169.978-6.003.478-8.5-1.5-.824-3.34.343-5.673 3.5-7zM490.5 296.5c2.222-.322 4.056.345 5.5 2 .497 2.646.664 5.313.5 8 5.168.839 6.168 3.339 3 7.5-2.227.121-4.06.954-5.5 2.5-.667 4-.667 8 0 12 1.974.126 4.141.292 6.5.5 2.765 2.966 2.432 5.633-1 8a25.238 25.238 0 0 1-10 0 15.83 15.83 0 0 1-3.5-5.5c-.17-5.696-.67-11.362-1.5-17-3.484-2.099-3.818-4.599-1-7.5a8.43 8.43 0 0 1 4-.5c.083-3.676 1.083-7.009 3-10zM406.5 299.5c5.177.023 7.344 2.69 6.5 8 5.654 9.743 6.987 20.077 4 31-5.192 6.509-11.692 8.342-19.5 5.5-4.282-2.739-4.948-6.073-2-10 1.333-.667 2.667-.667 4 0 4.144 3.67 7.644 3.17 10.5-1.5a25.238 25.238 0 0 0 0-10 48.01 48.01 0 0 1-5.5-16.5c-.162-2.502.505-4.669 2-6.5zM466.5 301.5c5.106-.575 9.606.759 13.5 4 1.33 4.998-.504 7.164-5.5 6.5a29.517 29.517 0 0 1-4.5-2.5c-4.671 6.36-6.005 13.36-4 21 .414.457.914.791 1.5 1a813.564 813.564 0 0 1 8-5c2.565.399 3.899 1.899 4 4.5-3.368 7.181-9.035 9.848-17 8-4.343-3.987-6.343-8.987-6-15-.401-9.343 2.932-16.843 10-22.5zM432.5 304.5c13.087-1.733 17.92 3.933 14.5 17l-2.5 2.5a222.15 222.15 0 0 1-12 2.5c.825 7.994 5.159 11.161 13 9.5 1.602-2.111 3.602-3.611 6-4.5 4.207 1.476 5.04 4.142 2.5 8l-4.5 4.5c-10.613 3.225-18.447.058-23.5-9.5-1.544-6.584-1.877-13.251-1-20 1.306-4.301 3.806-7.634 7.5-10zm4 8c1.752-.082 2.752.751 3 2.5-1.667 3.333-3.333 3.333-5 0 .556-1.011 1.222-1.844 2-2.5zM355.5 306.5c2.222-.322 4.056.345 5.5 2a127.89 127.89 0 0 1 2.5 12c16.251-2.243 24.085 4.757 23.5 21-2.346 4.757-6.179 6.757-11.5 6-3.92.386-7.42-.614-10.5-3-2.267 1.435-4.267 1.102-6-1a3113.038 3113.038 0 0 1-5.5-31.5c-.105-2.178.561-4.012 2-5.5zm12 22c6.947-.865 10.947 2.135 12 9-3.637 2.365-7.304 2.199-11-.5-3.647-2.442-3.981-5.276-1-8.5zM328.5 310.5c11.219-1.478 18.386 3.189 21.5 14 .877 6.749.544 13.416-1 20-5.158 5.844-11.658 7.677-19.5 5.5-4.246-1.198-7.413-3.698-9.5-7.5a156.422 156.422 0 0 1 0-25c1.851-3.657 4.684-5.99 8.5-7zm3 8c5.002-.166 8.168 2.167 9.5 7 2.429 5.87 1.929 11.37-1.5 16.5-4.534 1.044-8.367-.123-11.5-3.5-.667-6-.667-12 0-18a19.602 19.602 0 0 0 3.5-2zM190.5 311.5c6.741-.11 8.908 2.89 6.5 9-4.586 4.476-8.086 3.809-10.5-2a36.316 36.316 0 0 1 4-7zM255.5 313.5c14.206.04 21.206 7.207 21 21.5a139.809 139.809 0 0 1-1.5 15.5c-2.333 2.667-4.667 2.667-7 0-.22-6.678-.22-13.345 0-20-.962-4.794-3.795-7.794-8.5-9a10.94 10.94 0 0 0-4.5 3l-1 28c-2.333 2.667-4.667 2.667-7 0a509.615 509.615 0 0 1-1-36 155.726 155.726 0 0 1 9.5-3zM162.5 317.5c2.222-.322 4.056.345 5.5 2 .498 2.982.665 5.982.5 9 5.988.164 7.321 2.664 4 7.5a12.93 12.93 0 0 1-5 .5 46.166 46.166 0 0 0 3.5 17c3.332 1.362 6.499 1.029 9.5-1 3.647.986 4.814 3.319 3.5 7a6.978 6.978 0 0 1-3.5 2.5c-10.109 2.846-16.609-.654-19.5-10.5a66.755 66.755 0 0 1-1.5-14c-1.967.239-3.801-.094-5.5-1-.804 1.304-1.971 1.971-3.5 2-7.387-4.841-11.387-2.674-12 6.5a39.176 39.176 0 0 0 4 12.5c1.574 1.131 3.241 1.298 5 .5a45.223 45.223 0 0 1 7-4.5c3.647.986 4.814 3.319 3.5 7-5.319 5.667-11.819 7.501-19.5 5.5-8.741-10.25-10.241-21.417-4.5-33.5 5.854-5.912 12.354-6.579 19.5-2a32.444 32.444 0 0 1 6-1.5c.458-4.041 1.458-7.874 3-11.5zM214.5 319.5c9.455-2.465 16.288.535 20.5 9 5.751 19.081-1.082 27.581-20.5 25.5-9.318-6.951-12.485-16.118-9.5-27.5 2.529-3.385 5.696-5.718 9.5-7zm4 8c2.292-.256 4.459.077 6.5 1 3.707 5.265 4.207 10.765 1.5 16.5-2.177 1.202-4.511 1.702-7 1.5-.333-3.667-2.333-5.667-6-6a23.788 23.788 0 0 1-.5-10c1.719-1.369 3.552-2.369 5.5-3zM33.5 321.5c2.222-.322 4.056.345 5.5 2a292.149 292.149 0 0 1-2 50c-2.459 2.6-4.959 2.6-7.5 0-9.198 4.459-16.032 2.125-20.5-7-1.08-6.554-.414-12.888 2-19l3.5-3.5c4-.667 8-.667 12 0 1.829.273 3.329 1.107 4.5 2.5l1-23c.717-.544 1.217-1.211 1.5-2zm-15 30c9.958.6 13.458 5.6 10.5 15a4.932 4.932 0 0 0-2.5-1c-6.68 3.525-10.014 1.358-10-6.5a22.573 22.573 0 0 1 2-7.5zM79.5 324.5c2.222-.322 4.056.345 5.5 2 .497 2.31.663 4.643.5 7a18.452 18.452 0 0 1 6 .5c2.667 2.333 2.667 4.667 0 7-2.31.497-4.643.663-7 .5a51.29 51.29 0 0 0 1.5 16c3.357 4.395 7.857 6.228 13.5 5.5 2.96 5.433 1.127 8.266-5.5 8.5-7.939-1.262-13.606-5.596-17-13-.5-5.657-.666-11.324-.5-17-6.504.362-8.17-2.138-5-7.5a18.452 18.452 0 0 1 6-.5c-.435-3.338.232-6.338 2-9zM192.5 326.5c2.222-.322 4.056.345 5.5 2 .667 9.667.667 19.333 0 29-3.803 3.075-6.636 2.408-8.5-2a435.18 435.18 0 0 0 1.5-27c.717-.544 1.217-1.211 1.5-2zM109.5 328.5c11.48-.781 15.646 4.552 12.5 16-2.487 5.327-6.653 7.66-12.5 7 .097 5.582 2.764 8.748 8 9.5a45.223 45.223 0 0 1 7-4.5c3.647.986 4.814 3.319 3.5 7-9.059 8.594-17.393 7.928-25-2-3.332-9.345-3.332-18.679 0-28 1.805-2.326 3.972-3.992 6.5-5zm3 8c2.541 1.94 2.541 4.107 0 6.5-1.333.667-2.667.667-4 0 .395-2.86 1.728-5.027 4-6.5zM54.5 337.5c3.35-.165 6.683.002 10 .5 9.48 13.729 6.146 22.229-10 25.5 5.549 4.42 10.549 3.92 15-1.5 4.5-.833 6.333 1 5.5 5.5-1.5 2.833-3.667 5-6.5 6.5-18.339 1.993-26.172-6.173-23.5-24.5 1.194-5.681 4.36-9.681 9.5-12zm3 8c.996-.086 1.83.248 2.5 1 2.554 4.763 1.054 7.43-4.5 8-2.69-3.587-2.023-6.587 2-9zM276.5 362.5c2.222-.322 4.056.345 5.5 2 .498 2.982.665 5.982.5 9a23.788 23.788 0 0 1 10-.5c2.667 2.333 2.667 4.667 0 7a21.341 21.341 0 0 1-9 1.5c-1.155 6.471.511 11.971 5 16.5 1 .667 2 .667 3 0a28.834 28.834 0 0 1 4-6c2.201-.825 4.034-.325 5.5 1.5.017 10.302-5.15 14.468-15.5 12.5-8.655-5.442-11.989-13.275-10-23.5-5.988-.164-7.321-2.664-4-7.5a4.934 4.934 0 0 1 3-.5c-.51-4.313.157-8.313 2-12zM310.5 363.5a60.931 60.931 0 0 1 11 .5 6.978 6.978 0 0 1 2.5 3.5c3.811 11.154-.022 17.32-11.5 18.5 1.542 5.058 4.875 7.558 10 7.5.839-5.168 3.339-6.168 7.5-3 1.378 4.398.212 7.898-3.5 10.5-12.973 2.223-20.64-3.277-23-16.5-2.834-1.941-3.668-4.607-2.5-8a73.718 73.718 0 0 1 9.5-13zm4 8c1.756 1.052 2.423 2.719 2 5-1.478.262-2.811-.071-4-1l2-4zM364.5 363.5c4.947-.872 9.113.461 12.5 4 5.048 6.531 6.715 13.865 5 22-2.333 2.667-4.667 2.667-7 0 .481-7.064-1.685-13.064-6.5-18-2.517 2.01-4.017 4.677-4.5 8l-1 10c-2.333 2.667-4.667 2.667-7 0a190.728 190.728 0 0 0-2-11c-.782-2.576-2.282-4.576-4.5-6-1.697.864-2.863 2.197-3.5 4-.3 5.686-.3 11.353 0 17-4.095 3.137-6.762 2.137-8-3-.877-6.749-.544-13.416 1-20 5.871-7.17 12.371-7.837 19.5-2a835.698 835.698 0 0 1 6-5zM250.5 372.5c5.265-.929 9.765.404 13.5 4 .825 2.201.325 4.034-1.5 5.5-2.687.537-5.187.037-7.5-1.5a15.256 15.256 0 0 1-1.5 4.5c11.62 1.288 17.12 7.788 16.5 19.5-1.167 2.5-3 4.333-5.5 5.5-7.087 2.962-13.253 1.796-18.5-3.5-.5-4.833 1.667-7 6.5-6.5 2.95 4.247 5.95 4.247 9 0-1.493-4.821-4.826-6.821-10-6a15.83 15.83 0 0 1-5.5-3.5c-1.559-6.852-.059-12.852 4.5-18zM185.5 374.5a40.914 40.914 0 0 1 9 .5c4.259 3.835 3.926 7.001-1 9.5-1.529-.029-2.696-.696-3.5-2a26.852 26.852 0 0 0-3.5 6c15.521 1.673 21.355 10.007 17.5 25-1.952 2.394-4.452 3.894-7.5 4.5-12.338 4.277-18.505.11-18.5-12.5 5.195-3.029 8.028-1.363 8.5 5 10.422 1.689 13.089-1.811 8-10.5a114.24 114.24 0 0 0-12-3 6.978 6.978 0 0 1-3.5-2.5c-1.72-8.007.447-14.673 6.5-20zM221.5 376.5c3.152-.541 5.652.459 7.5 3a5704.986 5704.986 0 0 0 7 15 34.611 34.611 0 0 1 1 14c-1.637 2.31-3.804 3.81-6.5 4.5a64.218 64.218 0 0 1-16 0c-2.667-2.667-2.667-5.333 0-8a31.291 31.291 0 0 1 8 .5 20.702 20.702 0 0 0 7-1.5 32.17 32.17 0 0 0-5-12.5c-11.801 5.329-17.635 1.662-17.5-11 1.466-1.825 3.299-2.325 5.5-1.5a86.653 86.653 0 0 1 4 6.5 78.4 78.4 0 0 0 5-9zM349.5 439.5c2.222-.322 4.056.345 5.5 2-2.968 18.904-9.135 36.737-18.5 53.5-3.595 1.073-5.595-.261-6-4a91.567 91.567 0 0 1 1.5-6.5 412.703 412.703 0 0 0 17.5-45zM268.5 440.5c3.308-.526 5.474.807 6.5 4a1418.905 1418.905 0 0 1 3 46c-5.272 6.685-12.106 8.852-20.5 6.5a11.532 11.532 0 0 1-3.5-4.5c-1.102-8.179-.435-16.179 2-24 2.527-5.11 6.693-7.443 12.5-7a385.44 385.44 0 0 1-2-16c-.063-2.014.603-3.681 2-5zm-4 30c4.684 4.281 6.184 9.615 4.5 16a9.454 9.454 0 0 1-1.5 2.5 18.453 18.453 0 0 1-6 .5c-.59-6.63.41-12.964 3-19zM223.5 445.5c8.308-2.041 14.474.626 18.5 8 6.283 13.151 5.949 26.151-1 39-4.091 3.805-8.924 4.972-14.5 3.5-3.069-1.846-6.402-2.846-10-3a11.532 11.532 0 0 1-3.5-4.5c-2-10.667-2-21.333 0-32 1.711-5.541 5.211-9.208 10.5-11zm4 8a8.43 8.43 0 0 1 4 .5c8.254 10.614 9.087 21.781 2.5 33.5-4.33 1.213-7.496-.287-9.5-4.5a8.43 8.43 0 0 0-4-.5c-1.647-8.463-1.147-16.796 1.5-25 1.5-1.969 3.333-3.302 5.5-4zM296.5 447.5c11.173-1.665 17.173 3.169 18 14.5-1.635 11.506-8.302 16.173-20 14a44.81 44.81 0 0 0 4 8 67.445 67.445 0 0 0 15 2c2.667 2.333 2.667 4.667 0 7-13.49 4.007-22.324-.493-26.5-13.5-1.439-9.412-.106-18.412 4-27a81.338 81.338 0 0 1 5.5-5zm3 8c4.363-.14 6.696 2.026 7 6.5-1.391 5.259-4.558 6.759-9.5 4.5-.514-3.962.32-7.629 2.5-11zM179.5 448.5c8.4-1.856 15.233.478 20.5 7 .978 3.169.478 6.003-1.5 8.5-1.333.667-2.667.667-4 0-1.268-4.268-4.101-6.768-8.5-7.5-1.711-.061-3.044.606-4 2-3.655 10.516-3.321 20.849 1 31 1.389 1.727 3.056 3.061 5 4 2.927-1.217 5.427-3.05 7.5-5.5 4.996-.664 6.83 1.502 5.5 6.5-8.408 9.284-16.742 9.284-25 0l-4-8a156.422 156.422 0 0 1 0-25c.964-5.267 3.464-9.601 7.5-13zM362.5 451.5a195.793 195.793 0 0 0 35 10.5c2.79 2.21 3.623 5.044 2.5 8.5a34.706 34.706 0 0 1-7.5 6.5 314.513 314.513 0 0 1-30 15c-7.405.381-8.739-2.286-4-8a157.71 157.71 0 0 0 30-15c-8.666-1.922-16.999-4.922-25-9-3.514-2.532-3.847-5.365-1-8.5zM152.5 453.5c4.994-.171 6.828 2.162 5.5 7L137.5 485l25 9c3.08 1.711 4.246 4.211 3.5 7.5-.804 1.304-1.971 1.971-3.5 2a23742.195 23742.195 0 0 1-31-11.5c-2.226-1.62-3.56-3.786-4-6.5 3.473-6.986 8.306-12.986 14.5-18a221.62 221.62 0 0 1 10.5-14z"/></svg>