<svg xmlns="http://www.w3.org/2000/svg" width="512" height="512" style="shape-rendering:geometricPrecision;text-rendering:geometricPrecision;image-rendering:optimizeQuality;fill-rule:evenodd;clip-rule:evenodd"><path style="opacity:1" fill="#cd1200" d="M248.5-.5h63c9.414 2.123 19.08 3.623 29 4.5 19.776 2.867 34.776 12.7 45 29.5 10.461 31.108 14.961 63.108 13.5 96-1.294 17.816-5.628 34.816-13 51a407.306 407.306 0 0 1-21.5 26.5 889.6 889.6 0 0 1-62 30.5c-9.413-12.744-21.08-15.244-35-7.5-13.333 13-13.333 26 0 39 7.566 4.857 15.566 5.69 24 2.5a649.85 649.85 0 0 0 1 36v2c-.134 1.792.199 3.458 1 5v12a630.32 630.32 0 0 1-31 4.5 1065.892 1065.892 0 0 0-63 4.5v-27a663.668 663.668 0 0 1 1-43c14.707 9.743 27.207 7.41 37.5-7 5.792-16.974.292-28.474-16.5-34.5-8.445-1.349-15.778.817-22 6.5v-8c6.25-3.071 12.917-5.237 20-6.5 3.25-4.48 2.083-6.98-3.5-7.5a221.897 221.897 0 0 0-17.5 4l1-2c1.296-5.133 4.296-8.967 9-11.5a866.488 866.488 0 0 0 74-15 278.863 278.863 0 0 0 17-8 85.365 85.365 0 0 1 10.5-11.5c2.365-7.502 3.032-15.169 2-23-.608-1.566-1.442-2.9-2.5-4-.676-3.687-2.176-7.02-4.5-10-7.32-9-16.487-15.167-27.5-18.5-32.105-5.074-64.105-4.408-96 2a205.566 205.566 0 0 0-15 6c-5.755 4.011-8.422 9.511-8 16.5-2.336-1.504-4.169-3.504-5.5-6a530.146 530.146 0 0 0-40-71c-3.057-8.161-1.223-14.995 5.5-20.5 22.877-12.93 47.21-22.264 73-28a736.178 736.178 0 0 0 57-8.5z"/><path style="opacity:1" fill="#a70f00" d="M385.5 33.5c2.866 2.046 5.033 4.713 6.5 8 9.532 17.929 15.865 36.929 19 57a728.218 728.218 0 0 1 2 86c-.382 7.148-2.382 13.814-6 20-6.122 9.789-13.955 17.956-23.5 24.5-24.711 11.642-50.711 18.142-78 19.5a34.512 34.512 0 0 0-3-11 889.6 889.6 0 0 0 62-30.5 407.306 407.306 0 0 0 21.5-26.5c7.372-16.184 11.706-33.184 13-51 1.461-32.892-3.039-64.892-13.5-96z"/><path style="opacity:1" fill="#a80f00" d="M309.5 137.5c-8.008-6.395-17.174-8.728-27.5-7l-15.5.5a22.981 22.981 0 0 1-5 2 778.954 778.954 0 0 0-32 3 52.949 52.949 0 0 0-15 5 61.407 61.407 0 0 1-16 8.5c-6.964 9.624-15.631 11.457-26 5.5-6.926-5.747-11.592-12.914-14-21.5-.422-6.989 2.245-12.489 8-16.5 4.92-2.196 9.92-4.196 15-6 31.895-6.408 63.895-7.074 96-2 11.013 3.333 20.18 9.5 27.5 18.5 2.324 2.98 3.824 6.313 4.5 10z"/><path style="opacity:1" d="M199.5 222.5a20.608 20.608 0 0 0-8 3c-4.408-1.864-5.075-4.697-2-8.5l9-4.5a221.897 221.897 0 0 1 17.5-4c5.583.52 6.75 3.02 3.5 7.5-7.083 1.263-13.75 3.429-20 6.5z"/><path style="opacity:1" fill="#fefffe" d="m199.5 210.5-1 2-9 4.5c-3.075 3.803-2.408 6.636 2 8.5a20.608 20.608 0 0 1 8-3v2c-3.519 2.779-7.519 3.612-12 2.5-4.029-4.425-3.696-8.591 1-12.5a28.509 28.509 0 0 1 11-4z"/><path style="opacity:1" d="M276.5 211.5c8.393-.33 16.727.17 25 1.5a31.65 31.65 0 0 1 10.5 5.5c1.073 3.595-.261 5.595-4 6-10.053-4.148-20.553-5.981-31.5-5.5-2.586-2.494-2.586-4.994 0-7.5z"/><path style="opacity:1" fill="#fefffe" d="M200.5 265.5c-10.239-11.39-10.573-23.057-1-35 6.222-5.683 13.555-7.849 22-6.5 16.792 6.026 22.292 17.526 16.5 34.5-10.293 14.41-22.793 16.743-37.5 7zM302.5 237.5a34.512 34.512 0 0 1 3 11c-.324 10.315-4.99 17.981-14 23-8.434 3.19-16.434 2.357-24-2.5-13.333-13-13.333-26 0-39 13.92-7.744 25.587-5.244 35 7.5zM199.5 308.5v2c-9.823-1.373-19.49-3.873-29-7.5-14.727-8.606-23.06-21.44-25-38.5-1.14-8.262 1.693-14.596 8.5-19 .825-2.201.325-4.034-1.5-5.5-3.808-.619-6.974.547-9.5 3.5l-5 8a32.462 32.462 0 0 0-.5 8c-17.389-.255-27.222-8.922-29.5-26-7.642-4.212-11.476-1.879-11.5 7 2.829 12.006 10.162 20.172 22 24.5 5.447 2.04 11.114 3.04 17 3-8.281 5.094-17.281 6.761-27 5-8.764-3.425-15.764-9.092-21-17-7.59-.729-10.423 2.771-8.5 10.5 2.079 5.747 5.912 9.914 11.5 12.5a32.476 32.476 0 0 0 10 4c7.667.667 15.333.667 23 0a40.87 40.87 0 0 0 10.5-3.5l.5 1c-1.957 1.985-4.29 3.485-7 4.5-11.528 5.589-23.528 6.922-36 4a33.837 33.837 0 0 1-5-6c-2.808-.92-4.975-.087-6.5 2.5-.989 9.366 3.178 15.199 12.5 17.5 12.023 1.484 23.69.151 35-4a82.194 82.194 0 0 0 11.5-9.5c3.455 5.789 7.955 10.622 13.5 14.5a205.993 205.993 0 0 1 17 9 140.57 140.57 0 0 0 20.5 4.5c3.469-.318 6.636-1.318 9.5-3v2c-3.6 2.408-7.6 3.408-12 3-13.926-.478-26.593-4.645-38-12.5a73.83 73.83 0 0 1-9-10.5 149.103 149.103 0 0 1-21 9.5 153.84 153.84 0 0 1-33-1c-8.851-3.535-12.685-10.035-11.5-19.5 1.945-3.89 5.112-5.557 9.5-5a4.932 4.932 0 0 0-.5-3 40.652 40.652 0 0 1-8-7c-3.635-8.586-1.468-15.086 6.5-19.5l11-1a9.465 9.465 0 0 1-1.5-2.5 42.498 42.498 0 0 1 0-13c5.532-8.374 11.866-9.04 19-2 2.065 7.643 6.232 13.81 12.5 18.5 2.965 1.498 5.965 1.665 9 .5 2.747-6.913 7.413-12.079 14-15.5 10.07-1.267 13.57 2.899 10.5 12.5-4.749 3.729-7.249 8.562-7.5 14.5a144.046 144.046 0 0 0 6.5 22.5c4.092 6.636 9.592 11.802 16.5 15.5a822.712 822.712 0 0 0 27 7.5z"/><path style="opacity:1" d="M199.5 310.5v4c-2.864 1.682-6.031 2.682-9.5 3a140.57 140.57 0 0 1-20.5-4.5 205.993 205.993 0 0 0-17-9c-5.545-3.878-10.045-8.711-13.5-14.5a82.194 82.194 0 0 1-11.5 9.5c-11.31 4.151-22.977 5.484-35 4-9.322-2.301-13.489-8.134-12.5-17.5 1.525-2.587 3.692-3.42 6.5-2.5a33.837 33.837 0 0 0 5 6c12.472 2.922 24.472 1.589 36-4 2.71-1.015 5.043-2.515 7-4.5l-.5-1a40.87 40.87 0 0 1-10.5 3.5c-7.667.667-15.333.667-23 0a32.476 32.476 0 0 1-10-4c-5.588-2.586-9.421-6.753-11.5-12.5-1.923-7.729.91-11.229 8.5-10.5 5.236 7.908 12.236 13.575 21 17 9.719 1.761 18.719.094 27-5-5.886.04-11.553-.96-17-3-11.838-4.328-19.171-12.494-22-24.5.024-8.879 3.858-11.212 11.5-7 2.278 17.078 12.111 25.745 29.5 26a32.462 32.462 0 0 1 .5-8l5-8c2.526-2.953 5.692-4.119 9.5-3.5 1.825 1.466 2.325 3.299 1.5 5.5-6.807 4.404-9.64 10.738-8.5 19 1.94 17.06 10.273 29.894 25 38.5 9.51 3.627 19.177 6.127 29 7.5zM213.5 243.5c5.988.164 7.321 2.664 4 7.5-6.097.147-7.43-2.353-4-7.5zM279.5 245.5c5.988.164 7.321 2.664 4 7.5-6.097.147-7.43-2.353-4-7.5z"/><path style="opacity:1" fill="#fefffe" d="M293.5 317.5v-3c18.439.875 35.772-3.292 52-12.5l9.5-7.5c2.148 1.477 3.482 3.477 4 6 5.84 5.048 12.673 7.881 20.5 8.5 12.954 2.684 23.454-1.149 31.5-11.5.863-11.045-2.971-12.878-11.5-5.5-8.675 5.13-18.008 6.796-28 5a18.924 18.924 0 0 1-5-3c20.81 4.607 33.476-3.393 38-24 .167-3.833-1.667-5.667-5.5-5.5-2.034-.146-3.701.52-5 2-2.118 6.749-5.618 12.582-10.5 17.5-5.58 1.517-11.247 1.851-17 1 10.761-1.773 18.261-7.607 22.5-17.5.667-4 .667-8 0-12-2.667-2.667-5.333-2.667-8 0-1.558 13.392-9.058 21.059-22.5 23-.12-7.747-3.453-13.58-10-17.5-5.5-1.167-7.667 1-6.5 6.5a28.675 28.675 0 0 1 7 5 12.494 12.494 0 0 1 0 7c-6.344 10.015-14.844 17.515-25.5 22.5a629.977 629.977 0 0 0-31 7.5v-2a27.241 27.241 0 0 1 5-3.5c11.99-1.163 23.324-4.497 34-10 6.081-4.864 10.414-10.864 13-18a37.865 37.865 0 0 1-6-11.5c2.167-9.317 7.5-11.484 16-6.5a144.435 144.435 0 0 1 7 14.5 128.436 128.436 0 0 0 9.5-5 326.481 326.481 0 0 1 7.5-15.5c10.164-3.836 15.331-.336 15.5 10.5 11.193-3.149 15.86 1.184 14 13a133.668 133.668 0 0 0-5.5 9.5c12.296-.6 16.129 4.9 11.5 16.5-4.462 5.649-10.296 8.815-17.5 9.5a129.09 129.09 0 0 1-28 1 57.56 57.56 0 0 1-8-3 46.607 46.607 0 0 0-6-5.5c-9.845 7.12-20.845 11.62-33 13.5a148.273 148.273 0 0 1-19 2.5c-3.237.154-6.237-.513-9-2z"/><path style="opacity:1" d="M293.5 314.5c-.801-1.542-1.134-3.208-1-5a629.977 629.977 0 0 1 31-7.5c10.656-4.985 19.156-12.485 25.5-22.5a12.494 12.494 0 0 0 0-7 28.675 28.675 0 0 0-7-5c-1.167-5.5 1-7.667 6.5-6.5 6.547 3.92 9.88 9.753 10 17.5 13.442-1.941 20.942-9.608 22.5-23 2.667-2.667 5.333-2.667 8 0 .667 4 .667 8 0 12-4.239 9.893-11.739 15.727-22.5 17.5 5.753.851 11.42.517 17-1 4.882-4.918 8.382-10.751 10.5-17.5 1.299-1.48 2.966-2.146 5-2 3.833-.167 5.667 1.667 5.5 5.5-4.524 20.607-17.19 28.607-38 24a18.924 18.924 0 0 0 5 3c9.992 1.796 19.325.13 28-5 8.529-7.378 12.363-5.545 11.5 5.5-8.046 10.351-18.546 14.184-31.5 11.5-7.827-.619-14.66-3.452-20.5-8.5-.518-2.523-1.852-4.523-4-6l-9.5 7.5c-16.228 9.208-33.561 13.375-52 12.5zM246.5 292.5c13.036-3.13 23.536.536 31.5 11 1.33 4.998-.504 7.164-5.5 6.5a63.726 63.726 0 0 0-10-9c-13.679-2.806-24.679 1.194-33 12-4.996.664-6.83-1.502-5.5-6.5 5.847-7.657 13.347-12.323 22.5-14z"/><path style="opacity:1" fill="#a70f00" d="M293.5 326.5c1.389 9.002-1.277 16.502-8 22.5-1.525 1.009-3.192 1.509-5 1.5-8.006-11.666-19.006-16.166-33-13.5a256.918 256.918 0 0 0-17 6c-4.37 1.549-8.037 4.049-11 7.5-10.653.35-17.319-4.65-20-15a1065.892 1065.892 0 0 1 63-4.5 630.32 630.32 0 0 0 31-4.5z"/><path style="opacity:1" fill="#cd1200" d="M280.5 350.5c4.482 10.546 3.982 20.879-1.5 31a139.804 139.804 0 0 1-13.5 14.5c-21.827 8.023-37.993 1.856-48.5-18.5-2.596-9.445-1.763-18.445 2.5-27 2.963-3.451 6.63-5.951 11-7.5a256.918 256.918 0 0 1 17-6c13.994-2.666 24.994 1.834 33 13.5z"/><path style="opacity:1" fill="#fefffe" d="M76.5 367.5c11.743-.436 23.41.064 35 1.5 2.667 2.333 2.667 4.667 0 7a41.047 41.047 0 0 1-13 1.5c-.333 21.011 0 42.011 1 63 4.695.637 9.362 1.47 14 2.5 3.171 4.143 2.171 6.643-3 7.5a354.616 354.616 0 0 0-34-3.5c-2.667-2.333-2.667-4.667 0-7a98.433 98.433 0 0 1 14-.5v-62a84.9 84.9 0 0 1-13-.5c-3.544-2.873-3.877-6.04-1-9.5zM339.5 371.5c12.612-2.944 21.445 1.39 26.5 13 .667 4.161.167 8.161-1.5 12 8.368 2.193 14.534 7.193 18.5 15 4.499 13.811 1.333 25.311-9.5 34.5-8.667.667-17.333.667-26 0-3.868-2.162-5.368-5.328-4.5-9.5 2.901-2.818 5.401-2.484 7.5 1 19.065 6.418 27.565-.249 25.5-20-4.562-9.215-12.062-14.381-22.5-15.5-2.707-1.864-3.541-4.364-2.5-7.5 9.504-4.256 9.671-9.089.5-14.5-3.817-1.023-7.317-.523-10.5 1.5a1688.75 1688.75 0 0 0-1 65c-2.367 3.432-5.034 3.765-8 1-.138-23.334.195-46.667 1-70a53.864 53.864 0 0 1 6.5-6zM438.5 378.5c5.833.432 7.499 3.432 5 9a86.578 86.578 0 0 0 13 1.5c3.432 2.367 3.765 5.034 1 8a31.291 31.291 0 0 1-8-.5c-2.706-.019-5.206.648-7.5 2-.667 9-.667 18 0 27a45.892 45.892 0 0 0 4 10c2.367 3.432 5.034 3.765 8 1 1.751-1.99 2.751-4.323 3-7 2.333-2.667 4.667-2.667 7 0a12.494 12.494 0 0 1 0 7 57.217 57.217 0 0 1-8.5 9.5c-6.914 2.059-12.414.225-16.5-5.5a47.223 47.223 0 0 1-5-12 481.165 481.165 0 0 1-.5-31 40.914 40.914 0 0 1-9-.5c-2.667-2.333-2.667-4.667 0-7a52.141 52.141 0 0 0 10-1.5c.76-3.624 2.093-6.958 4-10z"/><path style="opacity:1" fill="#fefffe" d="M125.5 390.5c2.222-.322 4.056.345 5.5 2a23.788 23.788 0 0 1-.5 10c3.35-.165 6.683.002 10 .5 2.667 2.333 2.667 4.667 0 7a72.367 72.367 0 0 1-12 .5c-1.04 9.963.793 19.297 5.5 28 1.337 1.265 2.837 1.765 4.5 1.5a20.924 20.924 0 0 0 4.5-8.5c4.143-3.171 6.643-2.171 7.5 3-4.124 15.483-12.291 18.149-24.5 8-4.984-10.415-6.818-21.415-5.5-33a50.464 50.464 0 0 1-10-.5c-2.667-2.333-2.667-4.667 0-7a72.367 72.367 0 0 1 12-.5c-.377-4.107.623-7.774 3-11zM281.5 397.5a40.914 40.914 0 0 1 9 .5c3.432 2.367 3.765 5.034 1 8-2.068.687-4.068.52-6-.5-2.71 2.715-2.377 5.215 1 7.5 6.357 3.018 10.523 7.851 12.5 14.5.755 7.615-2.412 13.115-9.5 16.5a42.479 42.479 0 0 1-13 0c-3.51-3.048-3.843-6.381-1-10 1.333-.667 2.667-.667 4 0 3.987 3.299 7.487 2.799 10.5-1.5.667-2 .667-4 0-6a25.568 25.568 0 0 0-8.5-6.5c-5.671-4.53-7.504-10.363-5.5-17.5a37.84 37.84 0 0 1 5.5-5z"/><path style="opacity:.11" fill="#fefffe" d="M211.5 400.5c-.667-1.333-.667-1.333 0 0z"/><path style="opacity:1" fill="#fefffe" d="M402.5 399.5c11.762-2.399 19.928 1.935 24.5 13 3.969 12.157 1.469 22.657-7.5 31.5a66.398 66.398 0 0 1-22 1c-2.933-2.264-5.1-5.098-6.5-8.5a252.103 252.103 0 0 1 0-24c1.617-6.442 5.45-10.775 11.5-13zm3 8c7.242-1.128 11.742 1.872 13.5 9 2.259 6.307 1.592 12.307-2 18a6.978 6.978 0 0 1-3.5 2.5 30.485 30.485 0 0 1-11 0c-4.586-8.735-4.919-17.568-1-26.5a173.55 173.55 0 0 0 4-3z"/><path style="opacity:.078" fill="#fefffe" d="M211.5 400.5c.667 0 1 .333 1 1l-1-1z"/><path style="opacity:.055" fill="#fefffe" d="M212.5 401.5c1.333.667 1.333.667 0 0z"/><path style="opacity:1" fill="#fefffe" d="M222.5 403.5c3.698-.82 6.031.513 7 4a1185.957 1185.957 0 0 1-8.5 26 54.73 54.73 0 0 1-9.5 12.5c-5.969 1.71-9.803-.457-11.5-6.5a54.628 54.628 0 0 0-2-7 154.002 154.002 0 0 0-7 15c-1.525 2.587-3.692 3.42-6.5 2.5a480.347 480.347 0 0 1-13.5-32.5c-.852-6.499 1.481-8.166 7-5a157.702 157.702 0 0 1 9 22 196.284 196.284 0 0 1 9.5-20.5c3.666-1.271 6.166-.104 7.5 3.5a103.074 103.074 0 0 0 4.5 19c2.218-1.424 3.718-3.424 4.5-6a184.617 184.617 0 0 1 9.5-27zM258.5 408.5c2.825-.419 4.991.581 6.5 3a398.108 398.108 0 0 0 2 22 8.905 8.905 0 0 0 3 4c.664 4.996-1.502 6.83-6.5 5.5a18.778 18.778 0 0 1-4.5-5.5 17.842 17.842 0 0 1-5.5 4.5c-24.281 4.695-30.781-4.138-19.5-26.5 5.319-5.667 11.819-7.501 19.5-5.5a6.978 6.978 0 0 1 2.5 3.5c.366-1.952 1.199-3.618 2.5-5zm-14 9c5.17.664 8.337 3.664 9.5 9-.527 7.159-4.361 9.659-11.5 7.5-2.127-1.051-3.793-2.551-5-4.5.833-5.017 3.167-9.017 7-12zM336.5 457.5c5.656.367 7.489 3.367 5.5 9a248.97 248.97 0 0 0-13 42c-2.333 2.667-4.667 2.667-7 0 .241-9.974 2.241-19.641 6-29a287.325 287.325 0 0 1 8.5-22zM267.5 459.5c2.222-.322 4.056.345 5.5 2 .088 13.638.088 27.305 0 41l-1.5 1.5a100.601 100.601 0 0 1-20 1c-2.268-1.558-3.434-3.724-3.5-6.5-1.141-6.584-.474-12.917 2-19a6.978 6.978 0 0 1 3.5-2.5 60.931 60.931 0 0 1 11-.5c-.504-6.038.496-11.705 3-17zm-11 25c8.054-.638 10.72 2.862 8 10.5a82.5 82.5 0 0 1-7.5 2.5c-1.746-4.291-1.913-8.625-.5-13zM347.5 466.5c12.284 2.729 22.784 8.729 31.5 18 .896 2.525.396 4.692-1.5 6.5a447.947 447.947 0 0 1-30.5 16.5c-3.739-.405-5.073-2.405-4-6a204.14 204.14 0 0 0 24.5-16 98.733 98.733 0 0 0-20-11.5c-2.586-2.494-2.586-4.994 0-7.5zM151.5 467.5c4.5-.336 6.333 1.664 5.5 6a36.548 36.548 0 0 1-7.5 6.5 98.66 98.66 0 0 0-16 10c9.313 4 18.98 7 29 9 2.667 2.333 2.667 4.667 0 7-13.798-.599-26.631-4.433-38.5-11.5-.196-5.516 1.971-10.016 6.5-13.5 7.712-3.575 14.712-8.075 21-13.5zM187.5 467.5c9.495-1.33 13.995 2.67 13.5 12-4.687 3.204-7.52 1.87-8.5-4-3.609 1.857-5.775 4.857-6.5 9-.879 4.787-.545 9.453 1 14a13.92 13.92 0 0 0 4 3 165.051 165.051 0 0 0 10.5-7c2.333.333 3.667 1.667 4 4-2.99 6.164-7.823 9.83-14.5 11-5.936-.59-10.269-3.59-13-9a74.602 74.602 0 0 1 1-23c1.978-4.138 4.811-7.471 8.5-10zM290.5 467.5c7.371-1.452 13.538.548 18.5 6 3.447 14.402-2.386 21.068-17.5 20 1 7.152 5 9.652 12 7.5 1.558-3.06 3.891-5.226 7-6.5 2.565.399 3.899 1.899 4 4.5-3.943 10.113-11.276 13.446-22 10-5.051-2.72-8.218-6.887-9.5-12.5-1.247-8.325-.247-16.325 3-24a31.447 31.447 0 0 0 4.5-5zm4 8c2.975-.193 5.475.807 7.5 3 .536 2.067.036 3.901-1.5 5.5-3.238 1.368-6.572 1.701-10 1 .534-3.527 1.868-6.694 4-9.5zM215.5 472.5c11.168-1.689 18.335 2.977 21.5 14 1.688 7.789-.478 14.289-6.5 19.5-3.432 2.072-7.098 2.738-11 2-1.526-1.887-3.526-2.887-6-3a20.924 20.924 0 0 1-4.5-8.5c-.667-5-.667-10 0-15a28.87 28.87 0 0 1 6.5-9zm3 8c4.885-.644 8.052 1.356 9.5 6 2.273 4.749 1.439 8.915-2.5 12.5-1 .667-2 .667-3 0-6.43-4.973-7.763-11.14-4-18.5z"/></svg>