<svg xmlns="http://www.w3.org/2000/svg" width="256" height="256" style="shape-rendering:geometricPrecision;text-rendering:geometricPrecision;image-rendering:optimizeQuality;fill-rule:evenodd;clip-rule:evenodd"><path style="opacity:1" fill="#3c78a9" d="M40.5 9.5c32.335-.167 64.668 0 97 .5 10.279.2 20.279 1.867 30 5 2.606 1.938 4.439 4.438 5.5 7.5a1060.566 1060.566 0 0 1 1 88c-1.5 2.833-3.667 5-6.5 6.5-17.67.193-35.337.193-53 0a1476.904 1476.904 0 0 0-44 5A37.417 37.417 0 0 0 59 132.5a724.953 724.953 0 0 0-2 47l-2.5 2.5a240.38 240.38 0 0 1-31 0c-4.685-1.35-8.185-4.183-10.5-8.5a61.392 61.392 0 0 1-4-15l-2-2a524.139 524.139 0 0 1 2-68c2.32-7.652 7.487-11.485 15.5-11.5a1785.11 1785.11 0 0 1 78 0c4.309-4.562 3.976-8.728-1-12.5a3364.032 3364.032 0 0 0-82-1.5 27.071 27.071 0 0 1-4.5-8.5c-.667-11-.667-22 0-33 1.5-2.833 3.667-5 6.5-6.5a368.267 368.267 0 0 1 19-5.5z"/><path style="opacity:1" fill="#fefffe" d="M37.5 24.5c12.602-3.216 18.102 1.45 16.5 14-2.075 4.038-5.408 5.704-10 5-7.393.772-10.56-2.561-9.5-10-.36-3.51.64-6.51 3-9z"/><path style="opacity:1" fill="#fee05d" d="M197.5 66.5a840.9 840.9 0 0 1 41 .5 15.83 15.83 0 0 1 5.5 3.5c2.867 4.602 4.534 9.602 5 15a282.981 282.981 0 0 1-1 66 65.37 65.37 0 0 1-11.5 15.5 80.918 80.918 0 0 0-16 6 2825.7 2825.7 0 0 1-103 2c-7.264 9.954-4.764 14.788 7.5 14.5 26.18-.587 52.347-.754 78.5-.5a6.978 6.978 0 0 1 3.5 2.5c6.599 22.641-.901 38.141-22.5 46.5-31.4 6.478-63.066 8.478-95 6-8.363.401-14.863-2.766-19.5-9.5a178.17 178.17 0 0 1-7.5-27.5 1376.736 1376.736 0 0 0 2.5-64.5c1.064-7.745 5.23-13.245 12.5-16.5a1635.878 1635.878 0 0 1 98-3c6.064-4.297 9.397-10.13 10-17.5a144.216 144.216 0 0 1-.5-29 6.977 6.977 0 0 1 2.5-3.5 76.77 76.77 0 0 0 10-6.5z"/><path style="opacity:1" fill="#fefffe" d="M172.5 199.5a84.902 84.902 0 0 1 13 .5 4.457 4.457 0 0 1 2 1.5c5.304 14.936.304 20.769-15 17.5-2.389-3.042-3.389-6.542-3-10.5-.477-3.64.523-6.64 3-9z"/></svg>