<svg xmlns="http://www.w3.org/2000/svg" width="512" height="512" style="shape-rendering:geometricPrecision;text-rendering:geometricPrecision;image-rendering:optimizeQuality;fill-rule:evenodd;clip-rule:evenodd"><path style="opacity:1" fill="#7549bb" d="M250.5 25.5c23.725-2.64 46.058 1.527 67 12.5A517.667 517.667 0 0 1 345 64.5c6.282 9.903 10.949 20.57 14 32 2.857 4.91 5.524 9.91 8 15a8.43 8.43 0 0 1 .5 4 1699.418 1699.418 0 0 0-50-21.5 140.567 140.567 0 0 0-18-22c-7.29-4.663-15.29-7.33-24-8a216.362 216.362 0 0 0-56 6 233.381 233.381 0 0 0-25 10c-17.108 15.762-30.275 34.262-39.5 55.5a1064.758 1064.758 0 0 0-8.5 51.5 722.119 722.119 0 0 1 4.5 50.5 207.548 207.548 0 0 0 3 16 865.228 865.228 0 0 0 23.5 64c27.34 4.152 39.173 19.819 35.5 47-8.115 20.309-22.949 28.475-44.5 24.5-18.752-6.997-27.252-20.497-25.5-40.5a37.356 37.356 0 0 1 4.5-12 28.945 28.945 0 0 1-6.5-9 189.618 189.618 0 0 0-10-25 408.672 408.672 0 0 1-17-53 7357.916 7357.916 0 0 0-5.5-62.5c.116-5.867.616-11.7 1.5-17.5a3182.99 3182.99 0 0 0 8-45c11.995-29 29.828-53.833 53.5-74.5 24.71-13.739 51.044-21.906 79-24.5z"/><path style="opacity:1" fill="#7549bb" d="M215.5 165.5c14.731-1.134 26.731 4.033 36 15.5 8.467-.435 16.967-.935 25.5-1.5a517.023 517.023 0 0 1 30.5 2.5 177.825 177.825 0 0 0 26 5 505.778 505.778 0 0 0 49 18c28.394 15.729 53.894 35.229 76.5 58.5a36.16 36.16 0 0 0 4 7 143.082 143.082 0 0 1 21 28 257.577 257.577 0 0 1 15 52c6.25 37.893-3.25 71.06-28.5 99.5a82.111 82.111 0 0 1-18 12c-13.432 12.386-28.765 21.719-46 28-31.421.691-62.421-2.642-93-10 12.232-9.226 23.565-19.56 34-31a190.665 190.665 0 0 1 30 3c7.667.667 15.333.667 23 0a98.288 98.288 0 0 0 22-15 593.348 593.348 0 0 0 24-16.5 160.214 160.214 0 0 0 13.5-26 185.011 185.011 0 0 0-1-53 743.374 743.374 0 0 1-10-29l-26-32-25.5-21.5a14976.555 14976.555 0 0 0-32-20 152.3 152.3 0 0 1-38-14 190.76 190.76 0 0 1-25-5c-8.664-.863-17.33-1.697-26-2.5a671.83 671.83 0 0 0-23 2.5c-14.634 18.409-32.3 22.076-53 11-16.502-14.522-19.336-31.355-8.5-50.5 6.231-7.688 14.065-12.688 23.5-15z"/><path style="opacity:1" fill="#7549bb" d="M50.5 263.5a271.98 271.98 0 0 1 7.5 20l10.5 21c-9.052 17.99-15.218 36.99-18.5 57-2.68 27.691 6.153 50.858 26.5 69.5a134.573 134.573 0 0 0 32 13 500.857 500.857 0 0 0 58 1 519.972 519.972 0 0 0 25-6 604.371 604.371 0 0 1 42-20 1144.865 1144.865 0 0 0 52-38l8.5-8.5a41.348 41.348 0 0 1 7-10 537.859 537.859 0 0 0 13.5-28c-11.457-19.728-8.79-37.228 8-52.5 19.145-10.836 35.978-8.002 50.5 8.5 10.836 19.145 8.002 35.978-8.5 50.5a93.786 93.786 0 0 1-14.5 6.5 445.16 445.16 0 0 1-17 36 247.757 247.757 0 0 1-24.5 28.5 109.41 109.41 0 0 0-25 19 868.914 868.914 0 0 1-33 22 546.413 546.413 0 0 0-40 19 422.673 422.673 0 0 1-32 10 490.53 490.53 0 0 1-75 0 209.085 209.085 0 0 0-27-8 210.128 210.128 0 0 1-29-17c-13.59-14.339-23.757-30.839-30.5-49.5a153.792 153.792 0 0 1-5.5-38 228.797 228.797 0 0 1 6.5-39 164.586 164.586 0 0 0 7-24 771.665 771.665 0 0 0 17-33c2.669-3.5 5.502-6.833 8.5-10z"/></svg>