<svg xmlns="http://www.w3.org/2000/svg" width="346" height="108" style="shape-rendering:geometricPrecision;text-rendering:geometricPrecision;image-rendering:optimizeQuality;fill-rule:evenodd;clip-rule:evenodd"><path style="opacity:1" fill="#d67bb9" d="M115.5 32.5a37.096 37.096 0 0 1 12 1.5c3.802 1.176 4.468 3.01 2 5.5-8.033-5.55-12.7-3.55-14 6a9.2 9.2 0 0 0 2 4.5c6.512 1.646 11.012 5.479 13.5 11.5 4.214 19.455-2.953 25.621-21.5 18.5-4.514-3.418-6.514-7.752-6-13 .667-.667 1.333-.667 2 0 4.074 10.353 11.241 13.52 21.5 9.5.851-5.753.517-11.42-1-17a282.291 282.291 0 0 0-13.5-8c-1.688-6.827-.688-13.16 3-19zM216.5 43.5c.996-.086 1.829.248 2.5 1a490.66 490.66 0 0 1 2 39l-2.5 2.5a25.249 25.249 0 0 1-10 0c-3.584-1.664-5.251-4.497-5-8.5.201-4.772 1.867-8.939 5-12.5a24.939 24.939 0 0 1 7-.5 116.803 116.803 0 0 1 1-21zm-5 25c4.828.263 6.828 2.93 6 8 .023 5.5-2.644 7.333-8 5.5-2.429-4.904-1.762-9.404 2-13.5z"/><path style="opacity:1" fill="#639bff" d="M49.5 45.5a109.208 109.208 0 0 0 8 3.5 385.314 385.314 0 0 1 22 5c4.45.776 5.95 3.276 4.5 7.5A210.53 210.53 0 0 1 57.5 77c-4.726.963-5.726-.37-3-4a442.88 442.88 0 0 1 25-13 38.83 38.83 0 0 0-9-4 109.767 109.767 0 0 1-20-5c-2.135-1.556-2.468-3.39-1-5.5zM261.5 46.5c2.576.222 3.41 1.555 2.5 4-5.478 4.97-8.812 10.97-10 18a466.304 466.304 0 0 0 18.5 8.5c2.787 1.907 2.62 3.407-.5 4.5a114.02 114.02 0 0 1-21.5-9.5c-1.399-1.062-2.399-2.395-3-4a92.833 92.833 0 0 1 14-21.5z"/><path style="opacity:1" fill="#d67bb9" d="M172.5 50.5c.996-.086 1.829.248 2.5 1-.101 7.942 2.066 8.776 6.5 2.5 6.913-2.087 11.08.413 12.5 7.5a102.19 102.19 0 0 1-.5 24.5c-.949.617-1.782.45-2.5-.5l-1-22c-2.025-7.072-5.358-7.738-10-2l-3 6-1 18c-1 1.333-2 1.333-3 0a723.198 723.198 0 0 0-1.5-29c.073-2.09.406-4.09 1-6z"/><path style="opacity:1" fill="#639bff" d="M9.5 54.5a552.79 552.79 0 0 0 42 4.5c2.441.036 4.441.87 6 2.5-.848 1.491-2.181 2.158-4 2a405.38 405.38 0 0 1-44-5.5c-1.184-1.145-1.184-2.312 0-3.5z"/><path style="opacity:1" fill="#d67bb9" d="M143.5 54.5c12.578-1.591 17.745 3.742 15.5 16-3.659 3.615-7.659 3.948-12 1-2.088-2.324-1.921-4.324.5-6 1.345.847 2.345 2.013 3 3.5 3.318.833 4.985-.5 5-4-.808-5.205-3.808-6.872-9-5l-2.5 2.5c-1.766 7.366.067 13.533 5.5 18.5 1.865 1.301 3.865 1.635 6 1 2.44-1.774 4.106-4.108 5-7 .949-.617 1.782-.45 2.5.5 1.035 5.422-1.131 8.922-6.5 10.5-3.134.79-6.134.457-9-1-7.736-6.373-10.236-14.54-7.5-24.5.564-2.387 1.73-4.387 3.5-6z"/><path style="opacity:1" fill="#639bff" d="M309.5 54.5c2.889.499 3.556 1.999 2 4.5a601.902 601.902 0 0 0-43 8.5c-1.5.047-2.5-.62-3-2 1.018-1.352 2.351-2.352 4-3 13.467-2.707 26.8-5.373 40-8z"/></svg>