<svg xmlns="http://www.w3.org/2000/svg" width="512" height="512" style="shape-rendering:geometricPrecision;text-rendering:geometricPrecision;image-rendering:optimizeQuality;fill-rule:evenodd;clip-rule:evenodd"><path style="opacity:1" fill="#fefffe" d="M300.5.5c20.669-.167 41.336 0 62 .5a407.829 407.829 0 0 0 40 5 481.85 481.85 0 0 1 21 5c20.18 6.526 27.014 20.026 20.5 40.5-3.24 12.703-11.073 16.536-23.5 11.5a650.706 650.706 0 0 1-43-14.5 201.025 201.025 0 0 0-6.5 11 277.697 277.697 0 0 0-6.5 34 1363.964 1363.964 0 0 1 4.5 52 2870.442 2870.442 0 0 0 4.5 181c.565 8.605-.602 16.939-3.5 25a30.563 30.563 0 0 0-6 12 113.414 113.414 0 0 1-8.5 5.5 357.48 357.48 0 0 1-34 11 870.912 870.912 0 0 0-31 5 3971.212 3971.212 0 0 1-167 6 57.217 57.217 0 0 1-9.5-8.5 118.206 118.206 0 0 1-16-34c-.667-9-.667-18 0-27 2.032-3.908 4.866-7.075 8.5-9.5a276.641 276.641 0 0 1 25-2.5c-.245-63.5-.578-127-1-190.5-.159-30.25.341-60.417 1.5-90.5l5-8c9.328-6.965 19.828-11.131 31.5-12.5 16.643-1.65 33.31-2.983 50-4 27.53-.276 54.863-1.443 82-3.5zm5 16a416.884 416.884 0 0 1 72 3.5c-8.246 7.306-14.413 16.14-18.5 26.5a65.391 65.391 0 0 1-6 14c-4.206 15.386-5.539 31.053-4 47a315.31 315.31 0 0 1 4 43 2652.666 2652.666 0 0 0 4.5 175.5 86.808 86.808 0 0 1-4.5 21.5c-5.213 5.525-11.713 8.858-19.5 10a20.2 20.2 0 0 1-6-1.5L310 338.5a109.342 109.342 0 0 1-8-25c-.786-3.083-2.619-5.249-5.5-6.5a226.79 226.79 0 0 0-39 2 4167.306 4167.306 0 0 1-110 1.5c-.566-89.201-.899-178.368-1-267.5.364-9.034 5.031-14.368 14-16a493.923 493.923 0 0 0 22-4c41.132-2.534 82.132-4.7 123-6.5zm102 11c5.934-.913 10.1 1.42 12.5 7 .439 3.711.106 7.378-1 11A243.764 243.764 0 0 1 388.5 34c6.164-2.887 12.497-5.054 19-6.5zm-123 295h3c1.705 16.8 9.371 30.133 23 40 .886.825 1.219 1.825 1 3a1252.36 1252.36 0 0 0-35 4.5 2454.495 2454.495 0 0 1-148 3.5c-6.697-9.062-11.531-19.062-14.5-30-1.138-5.845-.305-11.345 2.5-16.5 48.278-.265 96.612-.931 145-2a1073.89 1073.89 0 0 1 23-2.5z"/><path style="opacity:1" fill="#fefffe" d="M254.5 24.5c.996-.086 1.829.248 2.5 1a346.37 346.37 0 0 0 2.5 23c.158 1.819-.509 3.152-2 4a41.078 41.078 0 0 1-4.5-8c-.87.608-1.37 1.441-1.5 2.5 4.311 3.709 3.645 5.376-2 5-2.493-3.308-2.659-6.808-.5-10.5 1.491-1.504 3.324-2.337 5.5-2.5-1.308-4.833-1.308-9.666 0-14.5zM220.5 30.5c5.42-.013 6.087 1.487 2 4.5a108.273 108.273 0 0 1-9 2 107.631 107.631 0 0 1 2 11.5c.312 3.208-.855 4.208-3.5 3a78.384 78.384 0 0 1-2-13c-1.881-.854-3.714-.521-5.5 1-1-.333-1.667-1-2-2 2.49-2.725 5.49-4.725 9-6 3.217 1.106 6.217.772 9-1zM271.5 30.5c2.619-.268 5.119.065 7.5 1 4.146 6.404 5.313 13.237 3.5 20.5-3.104.127-6.104.293-9 .5a7.248 7.248 0 0 1-2.5-2c-2.183-5.495-2.849-11.161-2-17a10.526 10.526 0 0 0 2.5-3zM231.5 35.5a32.438 32.438 0 0 1 8 .5c2.79 4.064 3.623 8.564 2.5 13.5-1.501 2.084-3.501 3.417-6 4-2.355-1.523-4.688-2.19-7-2a42.479 42.479 0 0 1 0-13 10.526 10.526 0 0 0 2.5-3z"/><path style="opacity:1" fill="#0f0" d="M194.5 74.5a1081.6 1081.6 0 0 0-3.5 23c-3.258 1.055-5.924.055-8-3a121.223 121.223 0 0 1-8.5-19 13.021 13.021 0 0 1-2-5.5c-.112-1.662.554-2.83 2-3.5a114.094 114.094 0 0 0 5 9 60.473 60.473 0 0 0 7.5 17 69.859 69.859 0 0 0 2.5-17 306.011 306.011 0 0 0 2.5-11c1.687-3.949 3.187-3.949 4.5 0a53.469 53.469 0 0 0-2 10z"/><path style="opacity:1" fill="#fefffe" d="M174.5 75.5a121.223 121.223 0 0 0 8.5 19c2.076 3.055 4.742 4.055 8 3a1081.6 1081.6 0 0 1 3.5-23c5.259-.502 10.426-.502 15.5 0 2.633 12.257 3.133 24.59 1.5 37a3.647 3.647 0 0 1-1 1.5l-31 1c-5.459 3.076-8.626 1.576-9.5-4.5a293.945 293.945 0 0 0-3.5-30.5c1.763-2.94 4.43-4.107 8-3.5z"/><path style="opacity:1" fill="#fefffe" d="M179.5 75.5h10a69.859 69.859 0 0 1-2.5 17 60.473 60.473 0 0 1-7.5-17zM323.5 80.5a8.435 8.435 0 0 1 4 .5c.951.718 1.117 1.55.5 2.5a122.289 122.289 0 0 0-15.5 8.5 16.25 16.25 0 0 1-8 0 18.097 18.097 0 0 0-6.5-2.5c-6.06 1.35-11.56 3.85-16.5 7.5a25.249 25.249 0 0 1-10 0 64.717 64.717 0 0 1-9-6 75.811 75.811 0 0 0-21.5 1.5l-6.5-.5c-1.333-1-1.333-2 0-3a455.716 455.716 0 0 0 23-2.5c5.666-.666 10.332 1.168 14 5.5a10.413 10.413 0 0 0 5 1.5 216.905 216.905 0 0 1 18-7.5c5.561-.355 10.894.312 16 2a203.764 203.764 0 0 0 13-7.5zM241.5 100.5c4.727-.773 7.227 1.227 7.5 6a3.943 3.943 0 0 0 2 1c2.478-1.388 5.145-2.054 8-2 6.278 1.77 12.278 1.103 18-2a59.176 59.176 0 0 0 7.5 1.5c.457.414.791.914 1 1.5-2.54 3.349-5.373 3.682-8.5 1-5.816 3.212-11.983 3.878-18.5 2-3.442 1.753-7.109 2.253-11 1.5-2.268-1.558-3.434-3.724-3.5-6.5a44.844 44.844 0 0 1-8 4c-2.748-.694-3.582-2.194-2.5-4.5 3.099-.387 5.766-1.554 8-3.5z"/><path style="opacity:1" fill="#0f0" d="M203.5 135.5a210.037 210.037 0 0 0-7.5 31c-1.938 1.36-3.604 1.027-5-1-5.059-9.605-8.893-19.605-11.5-30 1.224-6.581 2.891-6.581 5 0a142.993 142.993 0 0 0 8.5 25 676.732 676.732 0 0 1 5.5-25c1.433-2.782 2.6-5.782 3.5-9 1.907-2.787 3.407-2.62 4.5.5a126.79 126.79 0 0 1-3 8.5z"/><path style="opacity:1" fill="#fefffe" d="M329.5 129.5a18.453 18.453 0 0 1 6 .5c1.333 1 1.333 2 0 3a132.424 132.424 0 0 0-22 7c-4.016.186-8.016.186-12 0a22.728 22.728 0 0 1-10 4.5c-3.846-1.031-7.346-2.698-10.5-5a233.483 233.483 0 0 0-13.5 5.5c-3 .667-6 .667-9 0a132.249 132.249 0 0 0-8-8.5 54.314 54.314 0 0 0-11 4c-2.096-1.12-2.43-2.62-1-4.5 4.745-2.438 9.745-3.438 15-3a62.744 62.744 0 0 1 7 8l2.5.5a138.336 138.336 0 0 1 18.5-6l4 .5c1.626 2.295 3.793 3.795 6.5 4.5a34.624 34.624 0 0 0 8.5-4.5 20.435 20.435 0 0 1 10 .5 146.801 146.801 0 0 1 19-7zM179.5 135.5c2.607 10.395 6.441 20.395 11.5 30 1.396 2.027 3.062 2.36 5 1a210.037 210.037 0 0 1 7.5-31 52.417 52.417 0 0 0 8.5-2c1.261.259 2.261.926 3 2a208.945 208.945 0 0 1 1 38 11.333 11.333 0 0 1-1.5 3.5c-12.15 2.424-24.316 2.924-36.5 1.5a5556.265 5556.265 0 0 0-4.5-39c1.228-2.571 3.228-3.905 6-4z"/><path style="opacity:1" fill="#fefffe" d="M184.5 135.5h14a676.732 676.732 0 0 0-5.5 25 142.993 142.993 0 0 1-8.5-25zM318.5 150.5c4.152.131 4.818 1.631 2 4.5a45.984 45.984 0 0 1-10 2c-3.563 4.334-7.396 4.501-11.5.5a50.613 50.613 0 0 1-10.5 5 25.962 25.962 0 0 1-7-5c-5.239 2.571-10.406 2.571-15.5 0-4.541 2.588-9.374 3.421-14.5 2.5-1.621-3.15-3.954-3.984-7-2.5-2.579-1.388-2.579-2.888 0-4.5 3.959-1.362 6.959-.362 9 3l2.5.5a59.776 59.776 0 0 1 10-3c2.504.193 4.837.859 7 2 4.048-1.626 8.215-2.126 12.5-1.5a12.14 12.14 0 0 0 3.5 4.5 31.08 31.08 0 0 1 10.5-5c1.937.76 3.77 1.76 5.5 3l3.5-3.5c3.633-.149 6.966-.982 10-2.5z"/><path style="opacity:1" fill="#dc3c3c" d="M212.5 200.5a75.573 75.573 0 0 1-7 19c4.164 3.586 8.831 6.419 14 8.5 1.537 1.11 2.203 2.61 2 4.5-.709.904-1.709 1.237-3 1a2596.672 2596.672 0 0 0-13-8.5 4.934 4.934 0 0 0-3-.5 29.417 29.417 0 0 1-2 7c-.667 0-1 .333-1 1l-1 4c-1.333 1.333-2.667 1.333-4 0a66.1 66.1 0 0 1 5-15 214.633 214.633 0 0 0-12.5-12 30.137 30.137 0 0 1-3.5-6c.473-1.406 1.473-2.073 3-2 3.827 6.098 8.827 11.098 15 15a43.017 43.017 0 0 0 7-16c1.333-4 2.667-4 4 0z"/><path style="opacity:1" fill="#fefffe" d="M221.5 232.5c.203-1.89-.463-3.39-2-4.5-5.169-2.081-9.836-4.914-14-8.5a75.573 75.573 0 0 0 7-19c1.56-.019 3.06-.352 4.5-1 1.653.32 2.653 1.32 3 3 1.894 10.114 2.394 20.114 1.5 30zM281.5 199.5a32.462 32.462 0 0 1 8 .5 11.821 11.821 0 0 0 3.5 4.5c6.871-2.827 13.537-2.493 20 1a32.892 32.892 0 0 0 10.5-6c1 .333 1.667 1 2 2-2.729 4.892-6.895 7.559-12.5 8a35.774 35.774 0 0 1-11-3c-4.048 1.626-8.215 2.126-12.5 1.5-.898-2.4-2.564-3.9-5-4.5a54.982 54.982 0 0 0-11 8.5c-6.432 3.078-11.432 1.578-15-4.5a254.503 254.503 0 0 1-17-2.5c-1.351-2.125-.685-3.292 2-3.5a198.502 198.502 0 0 0 17 1.5c1.609 3.281 4.109 5.447 7.5 6.5a103.828 103.828 0 0 0 13.5-10zM208.5 200.5a43.017 43.017 0 0 1-7 16c-6.173-3.902-11.173-8.902-15-15a172.406 172.406 0 0 1 22-1zM183.5 203.5a30.137 30.137 0 0 0 3.5 6 214.633 214.633 0 0 1 12.5 12 66.1 66.1 0 0 0-5 15c-3.277.284-6.443-.049-9.5-1-2.062-10.768-2.562-21.435-1.5-32zM322.5 214.5a8.43 8.43 0 0 1 4 .5c.951.718 1.117 1.551.5 2.5l-10.5 8.5c-3.584.846-6.917.346-10-1.5-2.415 1.716-5.082 2.216-8 1.5a47.02 47.02 0 0 0-3.5-5.5 1109.215 1109.215 0 0 0-9.5 5.5c-2.525.896-4.692.396-6.5-1.5-3.116 3.41-6.782 4.41-11 3a8.43 8.43 0 0 1-.5-4c-5.002.365-9.668 1.532-14 3.5-.951-.718-1.117-1.551-.5-2.5 4.695-4.216 10.195-6.05 16.5-5.5.829 1.816 1.663 3.649 2.5 5.5 3.314-4.232 7.147-4.898 11.5-2 3.961-3.82 8.628-5.654 14-5.5a25.513 25.513 0 0 1 4 4.5c4.366-1.532 8.532-1.199 12.5 1a32.37 32.37 0 0 0 8.5-8zM218.5 233.5a153.555 153.555 0 0 1-20 3l1-4c.667 0 1-.333 1-1a29.417 29.417 0 0 0 2-7 4.934 4.934 0 0 1 3 .5c4.398 2.857 8.732 5.691 13 8.5zM325.5 230.5a12.93 12.93 0 0 1 5 .5c.951.718 1.117 1.551.5 2.5a156.473 156.473 0 0 1-14 9c-2.522-.518-4.522-1.851-6-4-4.88 2.607-9.714 2.607-14.5 0a103.59 103.59 0 0 0-11.5 5c-3.318-1.674-6.318-3.674-9-6-2.664.249-4.831 1.415-6.5 3.5 1.49 2.2 1.157 4.034-1 5.5-4.213-4.135-3.879-7.969 1-11.5 6.678-3.166 11.844-1.666 15.5 4.5 5.664-5.332 11.997-6.332 19-3 3.314-1.807 6.814-2.307 10.5-1.5a6.978 6.978 0 0 1 2.5 3.5 120.453 120.453 0 0 0 8.5-8zM365.5 394.5c2.222-.322 4.056.345 5.5 2 .112 7.66-.054 15.327-.5 23a32.462 32.462 0 0 1 8 .5c2.667 2.333 2.667 4.667 0 7a34.041 34.041 0 0 0-7.5 1.5 48.675 48.675 0 0 0 2 18c3.933 2.929 7.433 2.429 10.5-1.5 5.492-.486 7.325 2.014 5.5 7.5-1.319 1.987-3.152 3.154-5.5 3.5-9.292 3.005-15.792.172-19.5-8.5a99.676 99.676 0 0 1-1.5-19c-5.988-.164-7.321-2.664-4-7.5a8.43 8.43 0 0 1 4-.5c-.166-5.344.001-10.677.5-16 .026-3.639.86-6.972 2.5-10zM301.5 401.5c8.377-.226 10.044 2.941 5 9.5-6.002.993-8.168-1.507-6.5-7.5.717-.544 1.217-1.211 1.5-2zM111.5 402.5c6.578.806 7.578 3.639 3 8.5a84.902 84.902 0 0 1-13 .5 278.683 278.683 0 0 1 1.5 50c-3.521 4.237-6.355 3.903-8.5-1a171.75 171.75 0 0 0-1.5-47c-4.531-1.747-9.365-2.58-14.5-2.5-2.667-2.333-2.667-4.667 0-7a538.88 538.88 0 0 0 33-1.5zM257.5 405.5c2.222-.322 4.056.345 5.5 2a218.276 218.276 0 0 1 .5 45 61.522 61.522 0 0 0 17-1.5c.993-3.193 2.993-5.359 6-6.5 2.802.471 4.136 2.138 4 5-.292 4.779-2.626 7.946-7 9.5a93.664 93.664 0 0 1-26 1l-1.5-1.5c.367-14.174.201-28.34-.5-42.5-.253-3.797.414-7.297 2-10.5zM340.5 408.5c5.349-1.039 9.849.295 13.5 4 1.33 4.998-.504 7.164-5.5 6.5-3.02-3.318-5.52-2.818-7.5 1.5a736.747 736.747 0 0 0-4.5 8.5c7.535 2.202 12.368 7.035 14.5 14.5 2.223 6.981.057 11.815-6.5 14.5-7.368 1.6-14.035.266-20-4-3.075-3.803-2.408-6.636 2-8.5 3.591 2.576 7.591 4.242 12 5 2.225.195 3.891-.639 5-2.5-.986-6.32-4.653-9.986-11-11-4.453-4.416-5.287-9.583-2.5-15.5a75.841 75.841 0 0 1 10.5-13zM174.5 416.5c5.261.453 7.761 3.453 7.5 9 .667 10 .667 20 0 30-1.865 2.173-4.031 2.507-6.5 1-4.926 4.826-10.093 5.159-15.5 1a64.218 64.218 0 0 1 0-16 71.306 71.306 0 0 1 4.5-8.5c3.774-1.183 6.941-.349 9.5 2.5a45.684 45.684 0 0 0-1.5-14c-.063-2.014.603-3.681 2-5zm-6 26c2.034 1.048 3.367 2.714 4 5a25.513 25.513 0 0 0-4.5 4c-.634-3.055-.468-6.055.5-9zM304.5 418.5c3.308-.526 5.474.807 6.5 4a399.181 399.181 0 0 1 2 34c-2.333 2.667-4.667 2.667-7 0a692.005 692.005 0 0 1-3.5-33c-.063-2.014.603-3.681 2-5zM203.5 426.5c9.254-2.505 15.754.495 19.5 9 3.916 15.198-1.584 24.531-16.5 28-6.387-2.56-10.554-7.227-12.5-14a64.218 64.218 0 0 1 0-16c2.529-3.385 5.696-5.718 9.5-7zm3 8c3.99-.884 6.823.449 8.5 4 2.268 7.289.101 12.623-6.5 16a13.271 13.271 0 0 0-5.5-5c-1.325-3.928-1.658-7.928-1-12 1.409-1.281 2.909-2.281 4.5-3zM124.5 430.5c16.811-2.538 23.644 4.462 20.5 21l-5.5 5.5a72.464 72.464 0 0 1-17 0c-5.292-6.22-7.125-13.387-5.5-21.5 2.426-1.952 4.926-3.619 7.5-5zm4 8c8.297-1.043 10.963 2.29 8 10-6.955 2.71-10.955.376-12-7 1.124-1.359 2.458-2.359 4-3zM349.5 511.5h-11c-7.21-3.264-8.877-8.431-5-15.5 4.612-.562 6.946 1.605 7 6.5 3.556 1.623 6.556.956 9-2a18.08 18.08 0 0 0-2-3.5c-15.001-3.615-19.834-12.782-14.5-27.5 2.219-2.495 5.052-3.495 8.5-3 9.116.257 11.783 4.423 8 12.5-3.848.987-5.848-.513-6-4.5h-3c-1.207 3.446-1.04 6.779.5 10a82.218 82.218 0 0 0 10.5 4.5c8.647 8.651 7.981 16.151-2 22.5zM318.5 511.5h-16a46.081 46.081 0 0 0-5.5-6c-.833-4.5 1-6.333 5.5-5.5 2.929 3.156 6.596 4.656 11 4.5a82.989 82.989 0 0 0 2-10l-3-18c-6.504.362-8.171-2.138-5-7.5a39.081 39.081 0 0 1 16-1c4.554 4.777 3.554 7.777-3 9 3.179 9.341 3.679 18.841 1.5 28.5a26.523 26.523 0 0 1-3.5 6zM148.5 468.5c3.599-.562 5.599.938 6 4.5a359.537 359.537 0 0 1-3.5 29.5c-1.029 3.375-3.196 4.542-6.5 3.5-3.807-3.733-6.307-8.233-7.5-13.5-.886 4.97-1.552 9.97-2 15-2.333 2.667-4.667 2.667-7 0a114.682 114.682 0 0 1 3-32c1.808-1.896 3.975-2.396 6.5-1.5a44.632 44.632 0 0 1 6.5 12.5c1.274-4.485 1.941-9.152 2-14a16.58 16.58 0 0 1 2.5-4zM208.5 511.5h-12c-4.459-4.713-6.126-10.379-5-17-3.364.627-5.364-.706-6-4a22.106 22.106 0 0 1 6-7 111.598 111.598 0 0 0 1.5-11c2.333-2.667 4.667-2.667 7 0 .499 3.986.666 7.986.5 12 2.357-.163 4.69.003 7 .5 2.667 2.333 2.667 4.667 0 7a32.462 32.462 0 0 1-8 .5 40.914 40.914 0 0 0 .5 9 4.457 4.457 0 0 0 1.5 2c7.117-4.744 9.951-2.744 8.5 6-.717.544-1.217 1.211-1.5 2zM215.5 475.5c6.143.526 7.476 3.36 4 8.5-4.996.664-6.83-1.502-5.5-6.5.717-.544 1.217-1.211 1.5-2zM276.5 511.5h-14c-5.591-6.664-7.424-14.331-5.5-23 2.151-10.647 8.317-14.481 18.5-11.5 6.59 6.634 6.59 13.301 0 20 3.326-.166 5.326 1.334 6 4.5-.917 3.779-2.584 7.112-5 10zm-8-28c5.084 1.871 5.251 4.204.5 7a6.201 6.201 0 0 1-3.5-2 18.67 18.67 0 0 1 3-5zm6 15c-1.812 1.961-2.812 4.294-3 7-4.073-.446-6.073-2.78-6-7h9zM243.5 476.5c3.698-.82 6.031.513 7 4a263.416 263.416 0 0 1-5.5 25c-1.117 1.624-2.617 2.624-4.5 3-2.941-1.106-5.108-3.106-6.5-6a177.408 177.408 0 0 0-7.5-16c.163-4 2.163-5.5 6-4.5a168.466 168.466 0 0 1 6.5 10.5c.815-5.615 2.315-10.949 4.5-16zM185.5 511.5h-9a27.241 27.241 0 0 1-3.5-5c-13.074 4.603-18.741-.063-17-14l4.5-4.5a114.948 114.948 0 0 0 13-3.5c1.529.029 2.696.696 3.5 2a463.022 463.022 0 0 1 4 17c4.818.955 6.318 3.621 4.5 8zm-20-17c1.431 1.28 2.098 2.947 2 5-4.24-.393-4.907-2.059-2-5zM221.5 511.5h-4c-.283-.789-.783-1.456-1.5-2a233.49 233.49 0 0 1-1-20c4.095-3.137 6.762-2.137 8 3a72.464 72.464 0 0 1 0 17c-.717.544-1.217 1.211-1.5 2z"/></svg>