<svg xmlns="http://www.w3.org/2000/svg" width="512" height="512" style="shape-rendering:geometricPrecision;text-rendering:geometricPrecision;image-rendering:optimizeQuality;fill-rule:evenodd;clip-rule:evenodd"><path style="opacity:1" fill="#60c0ff" d="M312.5 5.5c9.396-.435 15.23 3.899 17.5 13a5397.454 5397.454 0 0 0 17-10c6.77-3.38 12.436-2.046 17 4a969.657 969.657 0 0 0 1.5 44 61.392 61.392 0 0 0 17 12.5A615.085 615.085 0 0 1 399 88.5c.667 9.667.667 19.333 0 29a332.457 332.457 0 0 0-4.5 39 485.04 485.04 0 0 1 .5 50 196.02 196.02 0 0 1 15 18 36.928 36.928 0 0 1 5.5 12.5 25.716 25.716 0 0 1-1.5 5.5 993.733 993.733 0 0 1-53 53 297.138 297.138 0 0 1-14 24c-3.585 9.5-7.919 18.5-13 27a3289.727 3289.727 0 0 0-10 14L293.5 387a20.64 20.64 0 0 1-6 2 141.542 141.542 0 0 1-24 16 16.242 16.242 0 0 1-8 0 9743.63 9743.63 0 0 0-30-13.5 170.153 170.153 0 0 0-21-13.5 221.903 221.903 0 0 1-26-24 1679.163 1679.163 0 0 0-16-12 138.677 138.677 0 0 1-12.5-15.5 3469.036 3469.036 0 0 0-9-47 215.545 215.545 0 0 0-21-38 170.713 170.713 0 0 0-8-21c.973-17.367.306-34.7-2-52a756.122 756.122 0 0 1 0-55c2.252-17.465 7.585-33.799 16-49A141.835 141.835 0 0 1 145.5 44a20.625 20.625 0 0 0 6-2c5.648-5.137 11.982-9.304 19-12.5l27-10.5a308.082 308.082 0 0 0 23-5c26.921-2.66 53.921-4.66 81-6 3.965-.108 7.632-.941 11-2.5zm-7 22c1.699-.16 3.366.006 5 .5 1.529 6.631 5.195 11.631 11 15a12.5 12.5 0 0 0 7 0 433.997 433.997 0 0 1 15-9.5 131.258 131.258 0 0 1 .5 28A298.925 298.925 0 0 1 304.5 79a319.478 319.478 0 0 0-15 9c-9.161 3.583-17.827 8.25-26 14-1.902 1.301-3.902 1.968-6 2A7139.137 7139.137 0 0 1 294 34.5l1-5a379.145 379.145 0 0 0 10.5-2zm-35 2h9c-7.787 18.573-16.954 36.573-27.5 54a141.76 141.76 0 0 0-8 19 40.943 40.943 0 0 1-5 7A1324.433 1324.433 0 0 0 205.5 88l-4-4a420.316 420.316 0 0 0-30-17 86.333 86.333 0 0 1-10-7.5c18.976-13.058 39.976-21.558 63-25.5a8660.756 8660.756 0 0 1 46-4.5zm-122 39c7.992 4.147 15.325 9.314 22 15.5a645.194 645.194 0 0 0-39 29.5c1.233-16.544 6.9-31.544 17-45zm203 4a6249.554 6249.554 0 0 0 18 12 135.17 135.17 0 0 1 9.5 10 48.73 48.73 0 0 1-.5 17c-13.759-6.061-28.093-10.561-43-13.5a196.709 196.709 0 0 1-18-9c12.048-4.191 23.381-9.691 34-16.5zm-167 18a920.594 920.594 0 0 1 46 30.5c-25.798 17.764-53.465 32.097-83 43a401.382 401.382 0 0 0-16.5 9.5 193.647 193.647 0 0 1-.5-41c1.951-2.122 4.285-3.622 7-4.5 7.349-8.567 16.016-15.401 26-20.5a258.575 258.575 0 0 0 21-17zm118 5c.597.235.93.735 1 1.5a687.214 687.214 0 0 1-13.5 64.5c-1.529 6.827-1.695 13.66-.5 20.5a311.033 311.033 0 0 0-15.5 41.5 39.819 39.819 0 0 1-5 9 200.074 200.074 0 0 1-17.5-14.5 95.855 95.855 0 0 0-14-14.5 972.94 972.94 0 0 0 12.5-63 67.434 67.434 0 0 0 4.5-16.5 468.388 468.388 0 0 1 31-19.5c5.304-1.657 10.304-3.823 15-6.5.881-.708 1.547-1.542 2-2.5zm13 9a290.452 290.452 0 0 0 48 15.5 88.803 88.803 0 0 0 14 6 169.412 169.412 0 0 0-3 24.5c-8.908 1.421-17.575 3.921-26 7.5a1505.451 1505.451 0 0 0-37 10 32.462 32.462 0 0 1-8 .5 390.602 390.602 0 0 1 10.5-46c.359-6.023.859-12.023 1.5-18zm-79 29c.597.235.93.735 1 1.5a5932.968 5932.968 0 0 1-11.5 54.5 7.293 7.293 0 0 1-2 3c-10.31-11.979-22.143-22.146-35.5-30.5 2.957-2.312 6.291-3.812 10-4.5a361.35 361.35 0 0 0 19-12.5 20.64 20.64 0 0 1 6-2c4.363-3.176 8.696-6.343 13-9.5zm136 30c1.737 2.508 2.57 5.508 2.5 9 .5 7.659.666 15.326.5 23a10.098 10.098 0 0 0-6 1.5 113.816 113.816 0 0 0-19 15 330.915 330.915 0 0 1-16.5 21.5 1211.076 1211.076 0 0 1-26.5-50.5 1422.541 1422.541 0 0 0 42-11 142.802 142.802 0 0 0 23-8.5zm-203 5a18.453 18.453 0 0 1 6 .5 151.21 151.21 0 0 0 17 12l27 27a1764.033 1764.033 0 0 0-26.5 34.5c-1.8-1.817-3.966-2.984-6.5-3.5a440.94 440.94 0 0 1-50-11.5c-2.917-7.7-4.25-15.7-4-24l.5-15a184.626 184.626 0 0 1 35.5-18c.798-.457 1.131-1.124 1-2zm129 30a325.386 325.386 0 0 1 5 6c5.522 11.708 11.022 23.374 16.5 35 2.786 2.072 4.12 4.739 4 8a51.394 51.394 0 0 0-10 14c-13.391 14.498-25.558 29.831-36.5 46-8.657 4.087-17.657 5.754-27 5a28.931 28.931 0 0 0 1.5-4c9.815-16.305 17.482-33.638 23-52a2147.23 2147.23 0 0 0 23.5-58zm75 13a599.147 599.147 0 0 1 18.5 23c-1.817 5.327-5.317 9.327-10.5 12a518.14 518.14 0 0 0-36-6c8.063-11.06 17.396-20.727 28-29zm-144 5a570.089 570.089 0 0 1 28 25.5 60.631 60.631 0 0 1 6.5 3.5 1064.918 1064.918 0 0 1-9.5 29 350.2 350.2 0 0 1-72 1.5c17.192-18.507 32.858-38.34 47-59.5zm-82 29a234.163 234.163 0 0 1 35 8 232.899 232.899 0 0 1-20.5 24 18471.342 18471.342 0 0 0-14.5-32zm151 58c.345-2.874 1.845-4.874 4.5-6a230.826 230.826 0 0 1 12-17c7.849-7.873 14.682-16.707 20.5-26.5 11.701.122 23.034 1.956 34 5.5a188.004 188.004 0 0 0-24.5 24 84.883 84.883 0 0 1-10.5 16.5 197.234 197.234 0 0 1-36 3.5zm-129-14a722.68 722.68 0 0 0 76 0 503.538 503.538 0 0 1-34 68 299.74 299.74 0 0 1-19-18.5 147.693 147.693 0 0 1-22.5-18.5 229.968 229.968 0 0 1-5.5-25.5 38.88 38.88 0 0 0 5-5.5zm157 26c-1.391 2.421-2.225 5.088-2.5 8a25.099 25.099 0 0 0-5 8c-.956 1.394-2.289 2.061-4 2a137.558 137.558 0 0 1-26.5-12.5 1146.64 1146.64 0 0 1 27-5 60.931 60.931 0 0 1 11-.5zm-97 40a982.933 982.933 0 0 0 14-26.5 738.355 738.355 0 0 1 29-5.5c3.918 6.742 9.585 11.575 17 14.5a85.235 85.235 0 0 0-16 7 374.609 374.609 0 0 0-44 10.5zm75-11a20.69 20.69 0 0 0 5 1v3a4.934 4.934 0 0 0-3 .5 392.25 392.25 0 0 1-21 19 146.878 146.878 0 0 0-25 15c-1.667.667-3.333.667-5 0a9252.639 9252.639 0 0 1-24-12c-1.134-1.016-.801-1.683 1-2a598.96 598.96 0 0 1 48-11c5.345-3.844 11.345-6.177 18-7 3.233-1.099 5.233-3.265 6-6.5z"/><path style="opacity:1" fill="#fefffe" d="M-.5 501.5v-5c1.808-2.936 3.641-5.936 5.5-9a790.438 790.438 0 0 1 28-70c1.62-3.991 4.454-5.824 8.5-5.5l1.5 1.5 4 16a8385.151 8385.151 0 0 1 10.5 74c-.179 5.99-2.679 7.323-7.5 4a953.23 953.23 0 0 1-5.5-35 153.947 153.947 0 0 1-24.5-1 51.77 51.77 0 0 0-6 17l-7 13c-2.494 2.586-4.994 2.586-7.5 0zm38-72c3.826 10.96 5.492 22.293 5 34a69.67 69.67 0 0 1-20 .5 2066.589 2066.589 0 0 1 15-34.5zM185.5 411.5c2.222-.322 4.056.345 5.5 2a772.491 772.491 0 0 0-1 61 51.614 51.614 0 0 0 5 15c3.067 4.13 6.9 4.963 11.5 2.5 6.33-3.136 9.83-8.303 10.5-15.5 1.711-3.08 4.211-4.246 7.5-3.5 1.304.804 1.971 1.971 2 3.5-3.397 19.52-14.73 27.353-34 23.5-4.598-5.028-7.765-10.861-9.5-17.5a335.217 335.217 0 0 1 1-69c.717-.544 1.217-1.211 1.5-2zM90.5 412.5a619.169 619.169 0 0 0 29 1.5c2.667 2.333 2.667 4.667 0 7-7.326.5-14.659.666-22 .5a3394.783 3394.783 0 0 0 4 75c6.675-.166 13.342 0 20 .5 2.667 2.333 2.667 4.667 0 7a400.05 400.05 0 0 1-40 0 52.762 52.762 0 0 1-13-2c-2.667-2.333-2.667-4.667 0-7 8.312.331 16.646.831 25 1.5a1543.752 1543.752 0 0 1-4-75 98.433 98.433 0 0 1-14-.5c-2.667-2.333-2.667-4.667 0-7 5.183-.174 10.183-.674 15-1.5zM358.5 417.5c2.825-.419 4.991.581 6.5 3a118.353 118.353 0 0 1 3 15 1012.2 1012.2 0 0 0 3.5 57.5l-.5 8.5c-3.082 2.697-5.915 2.364-8.5-1-11.852 6.755-19.019 3.422-21.5-10-3.053-13.461-.22-25.295 8.5-35.5 4.005-1.098 7.505-.265 10.5 2.5 1.225-12.238.058-24.238-3.5-36 .252-1.573.918-2.906 2-4zm-6 47c2.478.695 4.478 2.195 6 4.5a4.934 4.934 0 0 0 3 .5c.308 6.388.974 12.721 2 19a46.607 46.607 0 0 0-6 5.5c-1.544 1.187-3.211 1.52-5 1-5.277-10.252-5.277-20.418 0-30.5zM385.5 426.5c8.304-.222 10.637 3.278 7 10.5-9.582.949-11.916-2.551-7-10.5zM511.5 467.5v6a56.525 56.525 0 0 1-10 3.5c1.702 17.293-6.298 24.96-24 23-10.642-7.731-14.976-18.231-13-31.5-1.642-11.632 1.692-21.465 10-29.5 4.333-3.333 8.667-3.333 13 0 5.22 3.947 8.22 9.114 9 15.5.327 4.51-1.673 6.343-6 5.5-1.349-5.358-4.015-10.024-8-14-2.403-.63-4.237.203-5.5 2.5-4.806 10.934-5.806 22.267-3 34 3.408 10.387 9.408 12.387 18 6a23.597 23.597 0 0 0 2.5-6c-.132-2.101-1.132-3.601-3-4.5l-12-1c-2.765-2.966-2.432-5.633 1-8a31.7 31.7 0 0 1 12.5.5 177.796 177.796 0 0 0 15-3 10.98 10.98 0 0 1 3.5 1zM306.5 438.5c12.851-2.158 22.351 2.509 28.5 14a149.188 149.188 0 0 1 1.5 23.5l-.5 20.5c-2.333 2.667-4.667 2.667-7 0a471.835 471.835 0 0 0-2-41c-2.556-5.453-6.889-8.453-13-9-2.034-.146-3.701.52-5 2-.351 4.841-1.184 9.508-2.5 14a2666.393 2666.393 0 0 1 3.5 37c-2.333 2.667-4.667 2.667-7 0a572.236 572.236 0 0 1-6.5-54c.029-1.529.696-2.696 2-3.5l6-1c.881-.708 1.547-1.542 2-2.5zM268.5 441.5c2.222-.322 4.056.345 5.5 2a406.099 406.099 0 0 0 3 42c.687 2.055 1.854 3.721 3.5 5 1.664-3.536 4.331-5.036 8-4.5 2.729 4.964 1.729 9.297-3 13a12.494 12.494 0 0 1-7 0 52.108 52.108 0 0 1-8-5.5 26.091 26.091 0 0 1-5 3.5c-6 .667-12 .667-18 0a113.414 113.414 0 0 1-8.5-5.5c-4.196-10.58-4.53-21.246-1-32 8.587-7.263 17.754-7.93 27.5-2a100.292 100.292 0 0 0 1.5-14c.717-.544 1.217-1.211 1.5-2zm-20 20c6.481.16 12.315 2.16 17.5 6a39.081 39.081 0 0 1 1 16 14.705 14.705 0 0 1-4 5c-9.832 3.771-16.165.771-19-9a42.479 42.479 0 0 1 0-13c1.059-2.159 2.559-3.826 4.5-5zM388.5 442.5c2.222-.322 4.056.345 5.5 2l1 36c.067 5.541.9 10.875 2.5 16 .071 3.096-1.429 4.762-4.5 5-1.711.061-3.044-.606-4-2a76.404 76.404 0 0 1-2-15 400.05 400.05 0 0 1 0-40c.717-.544 1.217-1.211 1.5-2zM424.5 442.5c18.648-2.188 28.148 6.145 28.5 25a535.13 535.13 0 0 0 1.5 29.5c-.405 3.739-2.405 5.073-6 4a6.978 6.978 0 0 1-2.5-3.5l-1-27c-.215-6.367-2.049-12.2-5.5-17.5-3.677-2.31-7.511-2.81-11.5-1.5-3.097 4.731-4.43 9.731-4 15a10.756 10.756 0 0 0-2.5 3 164.492 164.492 0 0 1 .5 31c-2.333 2.667-4.667 2.667-7 0a1066.177 1066.177 0 0 0-2.5-51c1.641-4.411 4.308-5.077 8-2 1.357-1.686 2.69-3.352 4-5z"/></svg>