<svg xmlns="http://www.w3.org/2000/svg" width="512" height="512" style="shape-rendering:geometricPrecision;text-rendering:geometricPrecision;image-rendering:optimizeQuality;fill-rule:evenodd;clip-rule:evenodd"><path style="opacity:1" fill="#323332" d="M226.5 40.5c36.082-.86 72.082.307 108 3.5 10.927 3.927 18.094 11.427 21.5 22.5a645.393 645.393 0 0 1 1.5 49c-2.667 71.33-2 142.663 2 214a139.91 139.91 0 0 1-5.5 30c-4.411 7.624-10.911 12.457-19.5 14.5a1303.709 1303.709 0 0 1-168 1 354.146 354.146 0 0 1-20-7 84.853 84.853 0 0 0-8-7.5 103.856 103.856 0 0 0-6.5-12 1542.365 1542.365 0 0 1-2-81 11.333 11.333 0 0 1 1.5-3.5c.649-41.452-.017-82.952-2-124.5a1806.829 1806.829 0 0 1 2.5-69c6.167-12.833 15.667-22.333 28.5-28.5 22.17-.168 44.17-.668 66-1.5z"/><path style="opacity:1" fill="#eff0ef" d="M162.5 55.5c55.668-.167 111.334 0 167 .5 3.5.833 5.667 3 6.5 6.5a186.344 186.344 0 0 1-1 37 29.517 29.517 0 0 1-2.5 4.5 86.558 86.558 0 0 1-22 3 3186.797 3186.797 0 0 1-152 1 15.645 15.645 0 0 1-4-2.5 267.196 267.196 0 0 1-.5-40c1.261-4.755 4.095-8.088 8.5-10z"/><path style="opacity:1" d="M323.5 64.5c1.322-.17 2.489.163 3.5 1a240.38 240.38 0 0 1 0 31c-1 1.333-2 1.333-3 0-.168-8.02-.668-16.02-1.5-24-1-.333-1.667-1-2-2l3-6zM263.5 65.5c4.93-.302 9.763.03 14.5 1 .617.95.451 1.782-.5 2.5a60.94 60.94 0 0 1-11 .5v8c9.45 1.756 12.95 7.423 10.5 17-4.791 4.811-9.791 5.144-15 1-.72-1.612-.554-3.112.5-4.5.667-.667 1.333-.667 2 0 1.8 3.784 4.467 4.45 8 2 2.005-5.163.505-8.997-4.5-11.5-1.243 2.333-2.909 3-5 2-.788-6.082-.621-12.082.5-18zM313.5 65.5c1.322-.17 2.489.163 3.5 1a240.38 240.38 0 0 1 0 31c-1 1.333-2 1.333-3 0-.168-8.02-.668-16.02-1.5-24-1.22-.387-1.887-1.22-2-2.5a44.01 44.01 0 0 0 3-5.5zM239.5 67.5c9.65-2.133 13.817 1.534 12.5 11l-6.5 15a42.717 42.717 0 0 0 9 1.5c1.333 1 1.333 2 0 3-4.919.802-9.752.635-14.5-.5-.667-1-.667-2 0-3a504.916 504.916 0 0 0 8.5-19.5c-1.281-3.044-3.615-4.21-7-3.5.324 3.194-.842 4.194-3.5 3-.833-2.671-.333-5.004 1.5-7zM293.5 72.5c.996-.086 1.829.248 2.5 1 .495 1.973.662 3.973.5 6a40.939 40.939 0 0 1 9 .5c1.333 1 1.333 2 0 3a40.939 40.939 0 0 1-9 .5 60.93 60.93 0 0 1-.5 11c-1 1.333-2 1.333-3 0a60.93 60.93 0 0 1-.5-11 24.939 24.939 0 0 1-7-.5c-1.333-1-1.333-2 0-3a24.939 24.939 0 0 1 7-.5c-.202-2.45.131-4.783 1-7z"/><path style="opacity:1" fill="#eff0ef" d="M252.5 130.5c9.339-.166 18.673 0 28 .5l1.5 1.5c.667 9.333.667 18.667 0 28l-1.5 1.5c-9.333.667-18.667.667-28 0l-1.5-1.5a196.152 196.152 0 0 1 0-28c.717-.544 1.217-1.211 1.5-2z"/><path style="opacity:1" fill="#fefa00" d="M300.5 130.5c9.339-.166 18.673 0 28 .5l1.5 1.5c.667 9.333.667 18.667 0 28l-1.5 1.5c-9.333.667-18.667.667-28 0l-1.5-1.5a196.152 196.152 0 0 1 0-28c.717-.544 1.217-1.211 1.5-2z"/><path style="opacity:1" fill="#eff0ef" d="M162.5 131.5c9.339-.166 18.673 0 28 .5l1.5 1.5c.667 9.333.667 18.667 0 28l-1.5 1.5c-9.333.667-18.667.667-28 0l-1.5-1.5a196.152 196.152 0 0 1 0-28c.717-.544 1.217-1.211 1.5-2zM206.5 131.5c9.339-.166 18.673 0 28 .5l1.5 1.5c.667 9.333.667 18.667 0 28l-1.5 1.5c-9.333.667-18.667.667-28 0l-1.5-1.5a196.152 196.152 0 0 1 0-28c.717-.544 1.217-1.211 1.5-2z"/><path style="opacity:1" d="M220.5 134.5c1.984-.016 2.984.984 3 3-4.335 7.779-4.002 15.279 1 22.5-.113 1.28-.78 2.113-2 2.5-4.571-3.312-6.571-7.812-6-13.5-.184-5.278 1.15-10.112 4-14.5zM322.5 135.5c2.576.222 3.41 1.555 2.5 4L310.5 156c-2.811 2.331-4.311 1.831-4.5-1.5 6.456-5.614 11.956-11.948 16.5-19zM169.5 136.5c3.35-.165 6.683.002 10 .5 3.203 1.172 4.703 3.339 4.5 6.5-2.291.811-4.125-.023-5.5-2.5-9.23-1.09-12.063 2.743-8.5 11.5 2.817 5.799 6.317 5.966 10.5.5 2.634-.925 3.801-.091 3.5 2.5-6.644 8.217-12.644 7.884-18-1-2.949-6.981-1.782-12.981 3.5-18zM263.5 136.5c2.591.754 4.424 2.421 5.5 5 .826 5.089.492 10.089-1 15-.637 1.803-1.803 3.136-3.5 4-1.22-.387-1.887-1.22-2-2.5 3.932-6.362 3.932-12.695 0-19 .243-.902.577-1.735 1-2.5z"/><path style="opacity:1" fill="#fefa00" d="M300.5 173.5c9.339-.166 18.673 0 28 .5l1.5 1.5c.667 9.333.667 18.667 0 28l-1.5 1.5c-9.333.667-18.667.667-28 0l-1.5-1.5a196.152 196.152 0 0 1 0-28c.717-.544 1.217-1.211 1.5-2z"/><path style="opacity:1" fill="#eff0ef" d="M162.5 174.5c9.339-.166 18.673 0 28 .5l1.5 1.5c.667 9.333.667 18.667 0 28l-1.5 1.5c-9.333.667-18.667.667-28 0l-1.5-1.5a196.152 196.152 0 0 1 0-28c.717-.544 1.217-1.211 1.5-2zM210.5 174.5c9.339-.166 18.673 0 28 .5l1.5 1.5c.667 9.333.667 18.667 0 28l-1.5 1.5c-9.333.667-18.667.667-28 0l-1.5-1.5a196.152 196.152 0 0 1 0-28c.717-.544 1.217-1.211 1.5-2zM251.5 174.5c9.339-.166 18.673 0 28 .5l1.5 1.5c.667 9.333.667 18.667 0 28l-1.5 1.5c-9.333.667-18.667.667-28 0l-1.5-1.5a196.152 196.152 0 0 1 0-28c.717-.544 1.217-1.211 1.5-2z"/><path style="opacity:1" d="M169.5 178.5a60.931 60.931 0 0 1 11 .5c.916.374 1.75.874 2.5 1.5.728 2.73.562 5.397-.5 8 4.191 3.299 3.524 4.965-2 5a30.173 30.173 0 0 1-2.5 9c-1 1.333-2 1.333-3 0-.46-2.804.04-5.471 1.5-8-5.474-3.411-4.807-5.078 2-5 .198-2.075.365-4.075.5-6a51.727 51.727 0 0 0-9.5-1.5c-1.184-1.145-1.184-2.312 0-3.5zM222.5 178.5c10.982-.694 13.649 3.64 8 13 5.971 6.746 4.471 11.079-4.5 13-8.507-2.528-9.674-7.028-3.5-13.5-6.652-4.357-6.652-8.523 0-12.5zM260.5 178.5a60.931 60.931 0 0 1 11 .5l1.5 1.5a90.455 90.455 0 0 1 0 19c-3.396 3.703-7.563 4.869-12.5 3.5-2.886-2.12-3.219-4.287-1-6.5 2.844 3.504 6.011 3.837 9.5 1 1.137-4.283-.197-5.617-4-4-7.152-.971-9.486-4.971-7-12a10.515 10.515 0 0 0 2.5-3z"/><path style="opacity:1" fill="#eff0ef" d="M223.5 182.5c6.18-.583 7.347 1.417 3.5 6a17.842 17.842 0 0 1-5.5-4.5c.916-.278 1.582-.778 2-1.5zM262.5 182.5h7c.048 5.381-2.452 7.047-7.5 5-.64-1.765-.473-3.432.5-5z"/><path style="opacity:1" d="M322.5 182.5c1.752-.082 2.752.751 3 2.5a29.768 29.768 0 0 1-6 7c2.454 1.74 3.954 3.907 4.5 6.5-1.049 1.017-2.216 1.184-3.5.5l-3.5-3.5c-1.858 2.912-4.358 4.412-7.5 4.5-.951-.718-1.117-1.551-.5-2.5a31.84 31.84 0 0 0 4.5-5 31.84 31.84 0 0 0-4.5-5c-.301-2.591.866-3.425 3.5-2.5.619 1.757 1.786 2.924 3.5 3.5a18.702 18.702 0 0 0 6.5-6z"/><path style="opacity:1" fill="#eff0ef" d="M225.5 193.5c5.948 1.871 6.281 4.205 1 7-4.569-1.52-4.902-3.853-1-7zM163.5 214.5c9.339-.166 18.673 0 28 .5l1.5 1.5c.667 9.333.667 18.667 0 28l-1.5 1.5c-9.333.667-18.667.667-28 0l-1.5-1.5a196.152 196.152 0 0 1 0-28c.717-.544 1.217-1.211 1.5-2z"/><path style="opacity:1" fill="#fefa00" d="M300.5 216.5c9.339-.166 18.673 0 28 .5l1.5 1.5c.667 9.333.667 18.667 0 28l-1.5 1.5c-9.333.667-18.667.667-28 0l-1.5-1.5a196.152 196.152 0 0 1 0-28c.717-.544 1.217-1.211 1.5-2z"/><path style="opacity:1" d="M177.5 218.5c1.89-.203 3.39.463 4.5 2l1 11a4.457 4.457 0 0 1 1.5 2c-1.641 3.058-2.474 6.392-2.5 10-1 1.333-2 1.333-3 0a32.462 32.462 0 0 1-.5-8c-3.642-.58-7.309-1.08-11-1.5a3.647 3.647 0 0 1-1-1.5 56.142 56.142 0 0 1 11-14z"/><path style="opacity:1" fill="#eff0ef" d="M209.5 218.5c9.339-.166 18.673 0 28 .5l1.5 1.5c.667 9.333.667 18.667 0 28l-1.5 1.5c-9.333.667-18.667.667-28 0l-1.5-1.5a196.152 196.152 0 0 1 0-28c.717-.544 1.217-1.211 1.5-2zM252.5 218.5c9.339-.166 18.673 0 28 .5l1.5 1.5c.667 9.333.667 18.667 0 28l-1.5 1.5c-9.333.667-18.667.667-28 0l-1.5-1.5a196.152 196.152 0 0 1 0-28c.717-.544 1.217-1.211 1.5-2z"/><path style="opacity:1" d="M263.5 221.5a32.462 32.462 0 0 1 8 .5c3.802 1.176 4.468 3.009 2 5.5-8.034-3.697-11.534-1.03-10.5 8 7.928-2.725 11.262-.058 10 8a6.978 6.978 0 0 1-2.5 3.5c-4.072.956-7.905.456-11.5-1.5-1.273-4.906-1.273-9.906 0-15 .454-3.575 1.954-6.575 4.5-9zM217.5 222.5c4.267-.297 8.434.036 12.5 1 .617.949.451 1.782-.5 2.5a40.914 40.914 0 0 1-9 .5v4c8.932.445 12.432 5.112 10.5 14-1.529 3.016-4.029 4.349-7.5 4-4.352.144-6.519-1.856-6.5-6a3.647 3.647 0 0 1 1.5-1c2.092 2.652 4.758 3.486 8 2.5 1.37-2.833 1.036-5.5-1-8-2.795-1.143-5.628-1.643-8.5-1.5-.762-4.087-.596-8.087.5-12z"/><path style="opacity:1" fill="#eff0ef" d="M177.5 224.5c1.129 2.128 1.296 4.461.5 7a54.628 54.628 0 0 1-4.5-2c1.357-1.686 2.69-3.352 4-5z"/><path style="opacity:1" d="M308.5 230.5a98.432 98.432 0 0 1 14 .5c1.333 1 1.333 2 0 3a49.226 49.226 0 0 1-14 0c-1.184-1.145-1.184-2.312 0-3.5z"/><path style="opacity:1" fill="#eff0ef" d="M265.5 238.5c5.163 1.037 5.329 2.703.5 5-4.447-1.135-4.614-2.802-.5-5zM163.5 256.5c9.339-.166 18.673 0 28 .5l1.5 1.5c.667 9.333.667 18.667 0 28l-1.5 1.5c-9.333.667-18.667.667-28 0l-1.5-1.5a196.152 196.152 0 0 1 0-28c.717-.544 1.217-1.211 1.5-2zM210.5 259.5c9.339-.166 18.673 0 28 .5l1.5 1.5c.667 9.333.667 18.667 0 28l-1.5 1.5c-9.333.667-18.667.667-28 0l-1.5-1.5a196.152 196.152 0 0 1 0-28c.717-.544 1.217-1.211 1.5-2z"/><path style="opacity:1" d="M176.5 261.5c.996-.086 1.829.248 2.5 1 .667 7.667.667 15.333 0 23-1 1.333-2 1.333-3 0-.17-5.696-.67-11.362-1.5-17-1-.333-1.667-1-2-2 1.357-1.686 2.69-3.352 4-5z"/><path style="opacity:1" fill="#eff0ef" d="M255.5 261.5c9.339-.166 18.673 0 28 .5l1.5 1.5c.667 9.333.667 18.667 0 28l-1.5 1.5c-9.333.667-18.667.667-28 0l-1.5-1.5a196.152 196.152 0 0 1 0-28c.717-.544 1.217-1.211 1.5-2z"/><path style="opacity:1" fill="#fefa00" d="M300.5 261.5c9.339-.166 18.673 0 28 .5l1.5 1.5c.667 9.333.667 18.667 0 28l-1.5 1.5c-9.333.667-18.667.667-28 0l-1.5-1.5a196.152 196.152 0 0 1 0-28c.717-.544 1.217-1.211 1.5-2z"/><path style="opacity:1" d="M219.5 265.5c8.329-.836 11.495 2.83 9.5 11l-4.5 6.5c2.057.305 4.057.305 6 0 1.333 1.333 1.333 2.667 0 4-4.055.354-7.888.187-11.5-.5-.667-1-.667-2 0-3a45.89 45.89 0 0 0 6.5-11c-1.473-4.048-2.807-3.881-4 .5-2.377.033-3.71-1.3-4-4a11.803 11.803 0 0 1 2-3.5zM264.5 266.5c8.909-2.256 12.242.911 10 9.5 4.864 4.035 5.198 8.368 1 13-4.867 1.407-8.867.24-12-3.5a3.647 3.647 0 0 1 1-1.5c2.257-.112 4.424.388 6.5 1.5 3.935-.811 4.435-2.644 1.5-5.5-7.275-.708-7.775-2.874-1.5-6.5a4.934 4.934 0 0 0 .5-3c-2.932-.046-5.598.454-8 1.5-1.257-2.076-.924-3.91 1-5.5zM313.5 268.5c.996-.086 1.829.248 2.5 1a12.93 12.93 0 0 1 .5 5 32.462 32.462 0 0 1 8 .5c1.333 1 1.333 2 0 3a32.462 32.462 0 0 1-8 .5 24.935 24.935 0 0 1-.5 7c-1 1.333-2 1.333-3 0a24.935 24.935 0 0 1-.5-7 18.453 18.453 0 0 1-6-.5c-1.333-1-1.333-2 0-3a18.453 18.453 0 0 1 6-.5c-.175-2.121.159-4.121 1-6z"/><path style="opacity:1" fill="#eff0ef" d="M176.5 301.5a427.347 427.347 0 0 1 58 2.5l1.5 1.5c.667 9.333.667 18.667 0 28l-1.5 1.5c-23.34.405-46.673.072-70-1a143.147 143.147 0 0 1-1.5-29.5l1.5-1.5c4.188-.176 8.188-.676 12-1.5z"/><path style="opacity:1" fill="#fefa00" d="M300.5 302.5c9.339-.166 18.673 0 28 .5l1.5 1.5c.667 9.333.667 18.667 0 28l-1.5 1.5c-9.333.667-18.667.667-28 0l-1.5-1.5a196.152 196.152 0 0 1 0-28c.717-.544 1.217-1.211 1.5-2z"/><path style="opacity:1" fill="#eff0ef" d="M255.5 303.5c9.339-.166 18.673 0 28 .5l1.5 1.5c.667 9.333.667 18.667 0 28l-1.5 1.5c-9.333.667-18.667.667-28 0l-1.5-1.5a196.152 196.152 0 0 1 0-28c.717-.544 1.217-1.211 1.5-2z"/><path style="opacity:1" d="M197.5 306.5c5.135-1.074 8.968.593 11.5 5a42.479 42.479 0 0 1 0 13c-.346 2.348-1.513 4.181-3.5 5.5-4.409 1.262-8.243.428-11.5-2.5a64.218 64.218 0 0 1 0-16 27.241 27.241 0 0 1 3.5-5z"/><path style="opacity:1" fill="#eff0ef" d="M199.5 310.5c2.493-.171 4.326.829 5.5 3 .886 4.366.386 8.533-1.5 12.5a18.453 18.453 0 0 1-6 .5c-.499-5.558.167-10.892 2-16z"/><path style="opacity:1" d="M305.5 313.5c6.675-.166 13.342 0 20 .5 1.333 1 1.333 2 0 3a100.2 100.2 0 0 1-20 0c-1.184-1.145-1.184-2.312 0-3.5zM306.5 321.5c6.675-.166 13.342 0 20 .5 1.333 1 1.333 2 0 3a100.2 100.2 0 0 1-20 0c-1.184-1.145-1.184-2.312 0-3.5zM267.5 325.5c4.623-1.092 6.456.575 5.5 5-5.58 2.252-7.413.585-5.5-5z"/><path style="opacity:1" fill="#fefffe" d="M19.5 395.5c13.814-2.511 23.647 2.489 29.5 15 2.636 16.54-4.197 26.873-20.5 31a402.354 402.354 0 0 0 13.5 33c1.25 2.577 1.584 5.243 1 8-2.333 2.667-4.667 2.667-7 0a1211.747 1211.747 0 0 1-18-43 813.403 813.403 0 0 1-3 46c-4.48 3.25-6.98 2.083-7.5-3.5a1351.772 1351.772 0 0 0 2.5-68.5c-1.256-8.493 1.91-14.493 9.5-18zm3 8c14.597-1.142 20.764 5.524 18.5 20-3.16 4.166-7.16 7.166-12 9a40.79 40.79 0 0 1-5.5-2.5 19.376 19.376 0 0 0-5.5-7.5c-.003-4.987.33-9.987 1-15 .69-1.85 1.856-3.184 3.5-4zM224.5 410.5c6.175-.857 11.842.31 17 3.5 2.765 2.995 3.598 6.495 2.5 10.5-1.845 4.295-4.512 4.962-8 2 .801-6.999-2.033-9.333-8.5-7-7.436 12.071-9.936 25.071-7.5 39 2.863 6.913 7.697 9.08 14.5 6.5a218.394 218.394 0 0 1 5-12c2.201-.825 4.034-.325 5.5 1.5 1.107 15.559-6.06 22.059-21.5 19.5-6.865-3.871-11.031-9.704-12.5-17.5-1.435-14.156 1.231-27.49 8-40a46.081 46.081 0 0 0 5.5-6zM439.5 423.5c3.364-.627 5.364.706 6 4l-6 12c2.266.814 4.6 1.314 7 1.5 2.667 2.333 2.667 4.667 0 7-2.31.497-4.643.663-7 .5.427 4.356 2.094 8.189 5 11.5 2.18.419 4.346.252 6.5-.5 4.755 1.187 5.589 3.687 2.5 7.5-6.108 2.61-11.608 1.776-16.5-2.5-3.816-4.636-5.649-9.969-5.5-16-5.168-.839-6.168-3.339-3-7.5a4.934 4.934 0 0 1 3-.5c.253-6.837 2.919-12.504 8-17zM164.5 425.5c2.222-.322 4.056.345 5.5 2 .357 4.01.19 8.01-.5 12 5.988.164 7.321 2.664 4 7.5a8.43 8.43 0 0 1-4 .5c.002 6.023.335 12.023 1 18 5.168.839 6.168 3.339 3 7.5-7.992 2.014-11.826-1.152-11.5-9.5a128.507 128.507 0 0 1-.5-16c-2.544.396-4.711-.271-6.5-2-.946 4.739-3.613 6.072-8 4-7.635 3.928-11.135 10.262-10.5 19 3.417-.296 6.584-1.296 9.5-3 2.601.101 4.101 1.435 4.5 4-1.106 2.941-3.106 5.108-6 6.5-14.18 2.478-19.347-3.355-15.5-17.5 3.126-11.828 10.626-17.328 22.5-16.5l2.5 2.5c.743-4.236 3.243-5.903 7.5-5-.457-5.068.543-9.735 3-14zM373.5 425.5c2.222-.322 4.056.345 5.5 2 .622 8.345.456 16.679-.5 25a38.51 38.51 0 0 0 1.5 10c1.645.193 3.479.36 5.5.5 3.039 3.805 2.372 6.805-2 9-7.665 1.021-11.832-2.479-12.5-10.5a260.665 260.665 0 0 1 1-34c.717-.544 1.217-1.211 1.5-2zM493.5 428.5a40.914 40.914 0 0 1 9 .5 34.706 34.706 0 0 0 7.5 6.5c.923 4.081-.744 6.081-5 6-3.417-.075-5.75-1.741-7-5a7.293 7.293 0 0 1-2 3l-1 23c-2.333 2.667-4.667 2.667-7 0a516.656 516.656 0 0 0-1.5-28c-.11-1.874.556-3.374 2-4.5 1.882-.198 3.548-.698 5-1.5zM457.5 434.5a60.931 60.931 0 0 1 11 .5c7.992 5.481 11.492 12.981 10.5 22.5a11.532 11.532 0 0 1-3.5 4.5c-9.48 3.914-16.647 1.414-21.5-7.5a64.218 64.218 0 0 1 0-16 19.552 19.552 0 0 0 3.5-4zm4 8c6.628 1.77 9.295 5.937 8 12.5-2.195.712-3.862.045-5-2a35.332 35.332 0 0 1-3-10.5zM291.5 435.5c2.222-.322 4.056.345 5.5 2-.079 8.713.088 17.38.5 26l1 1c6.588-4.922 9.421-3.256 8.5 5-3.681 2.86-7.848 3.693-12.5 2.5-2.5-1.167-4.333-3-5.5-5.5a152.086 152.086 0 0 1 1-29c.717-.544 1.217-1.211 1.5-2zM318.5 436.5c5.995-1.174 9.995.992 12 6.5.061 1.711-.606 3.044-2 4-2.573.428-4.906.094-7-1-4.709 5.834-5.042 11.834-1 18 1.99-.138 3.99-.638 6-1.5 5.397 3.352 5.063 6.519-1 9.5-8.61 1.739-13.777-1.761-15.5-10.5-1.914-10.035.919-18.369 8.5-25zM337.5 438.5c2.222-.322 4.056.345 5.5 2l1 19a6.802 6.802 0 0 0 1.5 3c2.253-.753 4.087-2.086 5.5-4a44.26 44.26 0 0 0 3-15c2.333-2.667 4.667-2.667 7 0a90.354 90.354 0 0 0 2 15 45.223 45.223 0 0 1 4.5 7c-1.476 4.207-4.142 5.04-8 2.5a6.978 6.978 0 0 1-2.5-3.5c-5.638 6.547-11.972 7.547-19 3l-2-4a132.434 132.434 0 0 1 0-23c.717-.544 1.217-1.211 1.5-2zM401.5 439.5a60.931 60.931 0 0 1 11 .5c1.554 1.748 3.22 1.915 5 .5 1.529.029 2.696.696 3.5 2a265.61 265.61 0 0 0 4 20 47.235 47.235 0 0 0 6 4c.825 2.201.325 4.034-1.5 5.5-3 .667-6 .667-9 0a181.851 181.851 0 0 1-5-7.5c-17.593 6.92-25.093.92-22.5-18 1.851-3.657 4.684-5.99 8.5-7zm3 8c4.804-.617 7.471 1.55 8 6.5-.845 3.343-3.011 4.843-6.5 4.5-5.09-.349-6.757-3.015-5-8 .985-1.314 2.152-2.314 3.5-3zM54.5 444.5c12.68-.253 16.846 5.747 12.5 18-2.295 2.565-5.128 4.231-8.5 5a89.784 89.784 0 0 0 5 7.5c2.333.667 4.667.667 7 0 1.04-4.394 3.707-6.394 8-6 2.394 4.877 1.394 9.21-3 13-4.882 1.555-9.882 1.888-15 1-10.32-8.08-13.82-18.58-10.5-31.5 1.012-2.702 2.512-5.035 4.5-7zm4 8c2.688 2.233 2.521 4.233-.5 6-.49-2.045-.324-4.045.5-6zM256.5 445.5c5.344.316 10.678.816 16 1.5l1.5 1.5a205.932 205.932 0 0 0 3 15c1.974.126 4.141.292 6.5.5 2.765 2.966 2.432 5.633-1 8-4.53 1.227-8.53.394-12-2.5-7.426 4.627-14.259 3.96-20.5-2-3.734-9.298-1.567-16.632 6.5-22zm3 8c5.878.736 7.544 3.903 5 9.5-8.059.386-9.725-2.781-5-9.5zM90.5 446.5c5.383-.895 10.049.438 14 4 2.585-3.364 5.418-3.697 8.5-1a72.465 72.465 0 0 0 4 18c5.175-2.15 7.508-.483 7 5-2.44 2.122-5.107 3.789-8 5-3.401-.198-5.734-1.865-7-5-4.875 6.219-11.042 7.719-18.5 4.5-6.42-6.945-8.588-15.111-6.5-24.5a53.871 53.871 0 0 1 6.5-6zm3 8c6.808 1.594 9.641 5.927 8.5 13a6.547 6.547 0 0 1-3 3 53.04 53.04 0 0 0-6-5c-1.976-3.901-1.81-7.568.5-11z"/></svg>