<svg xmlns="http://www.w3.org/2000/svg" width="512" height="512" style="shape-rendering:geometricPrecision;text-rendering:geometricPrecision;image-rendering:optimizeQuality;fill-rule:evenodd;clip-rule:evenodd"><path style="opacity:1" fill="#fefffe" d="M265.5 59.5a1475.51 1475.51 0 0 1 91 1.5 22.956 22.956 0 0 1 5 2c9.805 6.474 18.305 14.307 25.5 23.5a57.554 57.554 0 0 1 3 8 399.357 399.357 0 0 1 7 76 364.716 364.716 0 0 0 3.5 28.5 61.54 61.54 0 0 1-4.5 17.5c-.46 20.438-4.46 40.105-12 59-10.245 12.041-23.078 19.874-38.5 23.5a275.597 275.597 0 0 1-18 5 1521.195 1521.195 0 0 0-70.5 10.5 25.745 25.745 0 0 1-8.5-1.5c-16.612-9.775-31.279-21.942-44-36.5-9.723 8.863-20.723 15.696-33 20.5a306.347 306.347 0 0 1-35 0c-13.884-2.885-23.051-11.051-27.5-24.5-3.405-32.122 6.095-59.622 28.5-82.5-7.348-6.007-13.181-13.173-17.5-21.5-6.183-5.84-11.183-12.507-15-20a64.866 64.866 0 0 1-1-15l4-14c2.413-2.562 4.08-5.562 5-9a57.217 57.217 0 0 1 9.5-8.5 117.374 117.374 0 0 0 22-14c38.873-16.304 79.207-25.804 121-28.5zm-113 149a38.47 38.47 0 0 1 5.5 5l32.5 43c-6.779 7.227-14.779 12.727-24 16.5-8.723.17-17.39.17-26 0-3.52-.504-6.02-2.337-7.5-5.5-1.892-17.338 1.775-33.338 11-48a130.837 130.837 0 0 0 8.5-11z"/><path style="opacity:1" fill="#c98d31" d="M269.5 83.5c24.669-.167 49.336 0 74 .5 10.559.555 15.392 6.055 14.5 16.5-4.313 8.123-10.146 14.956-17.5 20.5a156.407 156.407 0 0 1-29 12 5571.196 5571.196 0 0 1-83 10 343.345 343.345 0 0 1-68-3 81.92 81.92 0 0 1-19.5-11.5c-.962-4.733.538-8.566 4.5-11.5a255.007 255.007 0 0 1 33-15 345.32 345.32 0 0 0 40-12c17.125-2.4 34.125-4.566 51-6.5zM331.5 173.5c4.257-.903 6.757.764 7.5 5 1.322 5.562-.511 9.562-5.5 12 2.725 3.507 6.058 4.007 10 1.5a23.162 23.162 0 0 1 4.5-6.5c2.243 4.104 1.41 7.604-2.5 10.5-11.77 3.915-17.77-.419-18-13-.161-3.84 1.172-7.006 4-9.5zM278.5 175.5c8.833.845 13.166 5.845 13 15-1.322.17-2.489-.163-3.5-1-.938-4.228-3.104-7.561-6.5-10-1.246 5.695-.246 11.028 3 16 1.843.255 3.843.422 6 .5.837 1.011 1.17 2.178 1 3.5-2.165-.384-3.832.283-5 2a27.443 27.443 0 0 1 2 11c-1.929.269-3.595-.231-5-1.5a3.647 3.647 0 0 0 1-1.5l-2.5-8c-1.635 1.349-3.135 1.182-4.5-.5a14.972 14.972 0 0 0 3-3.5 72.374 72.374 0 0 1-5-16c.484-2.301 1.484-4.301 3-6zM306.5 177.5c5.923-.906 8.923 1.594 9 7.5.419 6.579-2.581 10.579-9 12 1.084 5.023 4.084 6.69 9 5a19.381 19.381 0 0 1 5.5-7.5c1.713 4.476.547 8.309-3.5 11.5-10.596 1.912-15.929-2.588-16-13.5.302-5.575 1.968-10.575 5-15z"/><path style="opacity:1" fill="#fefffe" d="M333.5 177.5c3.188 3.756 2.522 6.423-2 8-.217-2.921.449-5.587 2-8z"/><path style="opacity:1" fill="#c98d31" d="M263.5 178.5c8.54 1.229 12.206 6.229 11 15-1.644.214-3.144-.12-4.5-1 1.184-6.304-1.316-9.304-7.5-9a145.985 145.985 0 0 0 2 15 6.846 6.846 0 0 0 4-1c1.22.387 1.887 1.22 2 2.5a279.003 279.003 0 0 1-3 4.5 40.43 40.43 0 0 1 3 14c-1.322.17-2.489-.163-3.5-1a82.192 82.192 0 0 0-4-12c-3.611-1.035-4.111-2.702-1.5-5-2.2-5.828-3.033-11.828-2.5-18 1.397-1.57 2.897-2.904 4.5-4z"/><path style="opacity:1" fill="#fefffe" d="M308.5 181.5c2.39.185 3.39 1.518 3 4-.048 3.098-1.381 5.432-4 7-1.265-3.813-.931-7.48 1-11z"/><path style="opacity:1" fill="#c98d31" d="M204.5 189.5c2.914.419 5.914 1.586 9 3.5 1.655 1.444 2.322 3.278 2 5.5a56.59 56.59 0 0 0-11.5-4c-2.575-.41-4.242.59-5 3a52.946 52.946 0 0 0-1.5 7c.884 6.348 2.717 12.348 5.5 18 2.653 2.694 5.82 3.527 9.5 2.5 2.043-3.253 4.21-6.42 6.5-9.5 1.893 2.595 1.893 5.261 0 8-4.077 6.727-9.577 8.227-16.5 4.5-5.876-6.78-8.876-14.78-9-24-.695-8.536 2.971-13.37 11-14.5zM240.5 191.5c8.525 3.028 11.692 9.028 9.5 18-3.723 6.249-9.223 8.415-16.5 6.5-11.092-12.214-8.758-20.38 7-24.5z"/><path style="opacity:1" fill="#fefffe" d="M238.5 196.5c5.276-.202 7.943 2.465 8 8-2.329 8.707-6.829 10.04-13.5 4-3.221-6.511-1.388-10.511 5.5-12zM460.5 338.5c15.149.354 20.649 8.021 16.5 23-4.408 5.642-10.241 8.309-17.5 8a83.985 83.985 0 0 0 4.5 12c1.413 1.914 3.247 3.247 5.5 4a35.145 35.145 0 0 0 10-5 134.126 134.126 0 0 0 7-8.5c2.201-.825 4.034-.325 5.5 1.5.552 2.919-.115 5.586-2 8-4.186 5.174-9.353 9.008-15.5 11.5-4.125.854-8.125.52-12-1-5.934-4.367-9.434-10.2-10.5-17.5a121.19 121.19 0 0 1 0-22c1.091-5.87 3.924-10.537 8.5-14zm3 8c5.487 1.638 7.32 5.305 5.5 11-2.642 2.529-5.808 3.529-9.5 3 .405-4.956 1.738-9.623 4-14zM420.5 341.5c9.837-.989 14.67 3.344 14.5 13-1.466 1.825-3.299 2.325-5.5 1.5a32.79 32.79 0 0 1-3.5-5.5c-1.913 4.79-1.58 9.456 1 14 3.733-1.895 6.233-.895 7.5 3-.769 2.604-2.436 4.438-5 5.5 2.642 6.253 3.809 12.753 3.5 19.5-2.333 2.667-4.667 2.667-7 0a145.928 145.928 0 0 0-4.5-16c-7.937-1.585-8.937-5.085-3-10.5-3.109-8.524-2.442-16.69 2-24.5zM21.5 349.5a48.797 48.797 0 0 1 8.5 2 50.141 50.141 0 0 1 15.5-.5c2.667 2.333 2.667 4.667 0 7a117.284 117.284 0 0 1-18 1.5 3404.44 3404.44 0 0 0-1.5 54c-2.333 2.667-4.667 2.667-7 0a521.578 521.578 0 0 1 .5-53 50.464 50.464 0 0 1-10-.5c-2.667-2.333-2.667-4.667 0-7l10-1c.88-.708 1.547-1.542 2-2.5zM224.5 349.5c12.62-.503 20.453 5.163 23.5 17-1.808 1.896-3.975 2.396-6.5 1.5-2.811-5.319-7.144-8.485-13-9.5-1.047 4.853-1.047 9.686 0 14.5l1 1.5c3.925-1.963 6.592-.963 8 3-1.245 3.143-3.579 5.143-7 6a76.616 76.616 0 0 1 .5 21c-2.667 2.667-5.333 2.667-8 0a70.895 70.895 0 0 0-.5-20 13.139 13.139 0 0 0-6 2c-4.926-2.499-5.259-5.665-1-9.5a14.72 14.72 0 0 0 5-1.5c-1.493-7.773-.993-15.44 1.5-23a10.515 10.515 0 0 0 2.5-3zM392.5 349.5c2.222-.322 4.056.345 5.5 2 1.96 9.551 5.293 18.551 10 27 1.113 2.3 2.613 2.633 4.5 1 3.475.643 4.641 2.643 3.5 6-1.907 3.51-4.74 4.676-8.5 3.5a74.335 74.335 0 0 1-8-6.5 119.606 119.606 0 0 1-9 9.5c-10.157 1.827-16.324-2.34-18.5-12.5-3.509-9.502-1.675-17.669 5.5-24.5a30.485 30.485 0 0 1 11 0l1.5 1.5c.153-2.651.987-4.984 2.5-7zm-11 13c7.487 2.626 10.654 7.959 9.5 16a16.635 16.635 0 0 1-5 6c-6.647-6.296-8.147-13.63-4.5-22zM345.5 352.5c8.734.042 14.401 4.375 17 13-.643 3.475-2.643 4.641-6 3.5a24.91 24.91 0 0 1-5-6.5c-1.151-1.231-2.317-1.231-3.5 0a72.464 72.464 0 0 0 0 17c.145 3.537.978 6.871 2.5 10a120.881 120.881 0 0 0 7-11.5c3.595-1.073 5.595.261 6 4-.875 8.638-5.375 14.138-13.5 16.5-2.923-.295-5.257-1.629-7-4a30.13 30.13 0 0 1-3-12 132.434 132.434 0 0 1 0-23 57.09 57.09 0 0 1 5.5-7zM165.5 353.5c2.222-.322 4.056.345 5.5 2a345.467 345.467 0 0 1 1.5 13c5.988.164 7.321 2.664 4 7.5a8.43 8.43 0 0 1-4 .5c.55 7.03 1.383 14.03 2.5 21 1.864 2.707 4.364 3.541 7.5 2.5 1.249-5.508 4.082-6.675 8.5-3.5.876 8.294-2.958 12.294-11.5 12-6.35.742-10.517-1.925-12.5-8a226.895 226.895 0 0 1-2.5-24c-3.987-.152-5.487-2.152-4.5-6a14.748 14.748 0 0 1 4.5-3c-1.583-4.905-1.249-9.572 1-14zM104.5 358.5c2.222-.322 4.056.345 5.5 2l1 23c8.216-2.563 14.216.104 18 8 1.536 6.249 1.87 12.583 1 19-4.801 5.811-10.968 7.644-18.5 5.5-2.834-.045-5.334-.879-7.5-2.5a599.537 599.537 0 0 1-1-53c.717-.544 1.217-1.211 1.5-2zm11 32c3.782 1.288 5.949 3.955 6.5 8a16.242 16.242 0 0 1 0 8c-8.415 3.267-11.748.267-10-9 1.907-1.956 3.074-4.29 3.5-7zM288.5 362.5a60.931 60.931 0 0 1 11 .5c2.598 2.959 5.932 4.293 10 4 2.667 2.333 2.667 4.667 0 7-5.395 3.921-9.895 3.088-13.5-2.5-.22 7.7.28 15.367 1.5 23-1.864 4.408-4.697 5.075-8.5 2a1050.312 1050.312 0 0 0-2.5-27.5c-.162-2.502.505-4.669 2-6.5zM254.5 371.5c9.262-2.061 16.762.606 22.5 8 3.263 8.203 1.43 15.036-5.5 20.5-13.957 3.403-20.957-2.264-21-17-.792-4.697.541-8.53 4-11.5zm4 8c5.814-.266 9.814 2.234 12 7.5-.49 1.982-1.49 3.649-3 5a172.372 172.372 0 0 1-7.5-2.5 24.362 24.362 0 0 1-1.5-10zM142.5 381.5c9.254-2.505 15.754.495 19.5 9 3.167 16.833-3.667 23.667-20.5 20.5a11.532 11.532 0 0 1-3.5-4.5 47.96 47.96 0 0 1-1-18 57.09 57.09 0 0 1 5.5-7zm3 8c6.588-.745 9.588 2.255 9 9 .267 3.342-1.233 5.009-4.5 5-3.872-.882-5.705-3.382-5.5-7.5.288-2.187.622-4.354 1-6.5zM45.5 389.5c18.118-1.051 26.951 7.616 26.5 26 .667 9 .667 18 0 27-2.016 10.365-8.183 14.865-18.5 13.5-9.818-4.489-14.318-11.989-13.5-22.5 2.333-2.667 4.667-2.667 7 0 .52 5.536 3.02 10.036 7.5 13.5 2.27.758 4.436.591 6.5-.5a20.507 20.507 0 0 0 3-8c.698-8.028.532-16.028-.5-24a213.716 213.716 0 0 0-14.5 4c-7.895-.899-12.062-5.399-12.5-13.5.062-6.966 3.062-12.133 9-15.5zm3 8c4.54-.543 8.373.79 11.5 4 .667 1 .667 2 0 3-4.095.162-7.262 1.995-9.5 5.5-3.415.266-5.415-1.4-6-5a26.993 26.993 0 0 1 4-7.5zM276.5 435.5c3.308-.526 5.474.807 6.5 4a6002.705 6002.705 0 0 1 3 45c-.804 1.304-1.971 1.971-3.5 2a34.028 34.028 0 0 0-6.5-3c-14.048 2.611-19.048-3.056-15-17a76.537 76.537 0 0 1 4-9c3.442-2.233 7.108-2.567 11-1a105.994 105.994 0 0 0-1.5-16c-.063-2.014.603-3.681 2-5zm-5 28c4.682 1.748 6.182 5.081 4.5 10a26.793 26.793 0 0 1-6.5 3l-1-3a43.386 43.386 0 0 1 3-10zM366.5 438.5c5.656.367 7.489 3.367 5.5 9-1.643 3.96-3.31 7.96-5 12a429.064 429.064 0 0 1-7 28c-3.521 4.237-6.355 3.903-8.5-1a1507.196 1507.196 0 0 0 7.5-30 117.996 117.996 0 0 1 7.5-18zM301.5 444.5c9.814-2.348 17.314.652 22.5 9 2.274 8.872-.892 14.706-9.5 17.5l-15 1a29.62 29.62 0 0 0 7 11c3.32-.265 5.987-1.931 8-5 4.5-.833 6.333 1 5.5 5.5-4.624 8.415-11.124 10.248-19.5 5.5-9.093-9.524-11.593-20.691-7.5-33.5a52.581 52.581 0 0 1 8.5-11zm4 8c4.303-.704 7.803.63 10.5 4 .123 3.563-1.71 5.73-5.5 6.5a23.788 23.788 0 0 1-10-.5 35.17 35.17 0 0 1 5-10zM193.5 447.5c8.935-1.53 15.769 1.47 20.5 9 .978 3.169.478 6.003-1.5 8.5-1.333.667-2.667.667-4 0l-4-7c-5.765-3.957-9.598-2.457-11.5 4.5-1.994 7.074-1.661 14.074 1 21 1.388 1.054 2.888 1.22 4.5.5a65.244 65.244 0 0 0 8-4.5c3.475.643 4.641 2.643 3.5 6-4.964 6.527-11.464 8.693-19.5 6.5-4.319-3.397-6.486-7.897-6.5-13.5-2.734-12.289.433-22.623 9.5-31zM381.5 449.5c4.715.171 9.048 1.671 13 4.5 5.851.68 11.018 2.846 15.5 6.5a12.494 12.494 0 0 1 0 7c-8.13 8.308-16.964 15.641-26.5 22-3.475-.643-4.641-2.643-3.5-6a169.607 169.607 0 0 1 20.5-18.5c-6.798-1.706-13.131-4.373-19-8-2.586-2.494-2.586-4.994 0-7.5zM229.5 451.5c19.907-1.912 27.74 7.088 23.5 27-5.753 9.281-13.587 11.448-23.5 6.5a46.447 46.447 0 0 1-6.5-9.5 72.464 72.464 0 0 1 0-17c1.694-2.858 3.861-5.191 6.5-7zm3 8c11.138-1.019 15.305 3.981 12.5 15-1 2.333-2.667 4-5 5a28.373 28.373 0 0 1-8-5c-2.148-5.134-1.981-10.134.5-15zM150.5 452.5c4.994-.171 6.828 2.162 5.5 7l-11.5 17a12.375 12.375 0 0 0 5 4.5 115.299 115.299 0 0 1 15.5 8.5c1.33 4.998-.504 7.164-5.5 6.5a80.597 80.597 0 0 1-23.5-15.5c-.79-3.134-.457-6.134 1-9 4.51-6.363 9.01-12.696 13.5-19z"/></svg>