<svg xmlns="http://www.w3.org/2000/svg" width="512" height="512" style="shape-rendering:geometricPrecision;text-rendering:geometricPrecision;image-rendering:optimizeQuality;fill-rule:evenodd;clip-rule:evenodd"><path style="opacity:1" fill="#0dbe26" d="M385.5 9.5c7.126-.702 11.126 2.465 12 9.5a185.129 185.129 0 0 1-11 30.5c68.58 37.468 101.747 95.468 99.5 174-3.4 34.962-16.4 65.629-39 92-27.433 29.2-59.767 50.866-97 65a284.392 284.392 0 0 1 14.5-42c26.347-13.166 48.347-31.499 66-55a3.647 3.647 0 0 0-1-1.5c23.331-33.979 29.165-70.812 17.5-110.5a355.62 355.62 0 0 0-15-28c-17.633-21.969-38.633-39.969-63-54a98.473 98.473 0 0 0-7 18c-3.547 5.21-8.38 7.376-14.5 6.5A2310.532 2310.532 0 0 1 265 53.5c-3.072-7.023-.905-11.523 6.5-13.5a7675.925 7675.925 0 0 0 114-30.5zM205.5 29.5a40.939 40.939 0 0 1 9 .5 248.99 248.99 0 0 0-24 35c-22.607 4.757-44.274 12.09-65 22a173.61 173.61 0 0 1-24 20C59.736 149.305 47.57 199.139 65 256.5c22.916 52.058 62.416 83.725 118.5 95a245.946 245.946 0 0 1 2.5-30c1.529-3.434 4.196-5.1 8-5 2.253.131 4.419.631 6.5 1.5a4039.404 4039.404 0 0 0 92 42c5.333 5 5.333 10 0 15a1199.888 1199.888 0 0 0-58 31 274.861 274.861 0 0 0-42 18c-5.666 2.814-10.166 1.648-13.5-3.5a340.055 340.055 0 0 0-1.5-26 840.992 840.992 0 0 1-71-28.5 51.394 51.394 0 0 0-14-10 94.084 94.084 0 0 0-13-10A254.577 254.577 0 0 1 53 316.5a167.866 167.866 0 0 0-13-27c-.553-7.139-2.553-13.806-6-20C9.245 177.04 37.079 105.54 117.5 55a788.396 788.396 0 0 1 50-18 778.16 778.16 0 0 1 38-7.5z"/><path style="opacity:1" fill="#fefffe" d="M186.5 121.5c15.67-.167 31.337 0 47 .5 2.667 2.333 2.667 4.667 0 7a840.27 840.27 0 0 1-41 .5 98.432 98.432 0 0 0 .5 14 156.643 156.643 0 0 1 29.5-1.5c2.667 2.333 2.667 4.667 0 7a3179.707 3179.707 0 0 1-30 2.5 3428.499 3428.499 0 0 0-1.5 55c-2.333 2.667-4.667 2.667-7 0-.489-27.674-.156-55.34 1-83 .717-.544 1.217-1.211 1.5-2zM260.5 132.5c2.222-.322 4.056.345 5.5 2a465.866 465.866 0 0 1-1.5 40.5c.167 8.167 1.834 16.001 5 23.5 1.623-3.558 4.29-4.724 8-3.5 1.304.804 1.971 1.971 2 3.5-1.325 5.352-4.492 9.018-9.5 11-3.19-1.175-5.857-3.175-8-6a74.293 74.293 0 0 1-5-16 389.012 389.012 0 0 1 2-53c.717-.544 1.217-1.211 1.5-2zM236.5 147.5c5.988.164 7.321 2.664 4 7.5-6.097.147-7.43-2.353-4-7.5zM294.5 150.5c8.394-.121 13.894 3.879 16.5 12 2.605 15.062-3.562 20.895-18.5 17.5 1.594 5.361 4.928 9.195 10 11.5 2.424-.923 4.424-2.423 6-4.5 4.996-.664 6.83 1.502 5.5 6.5-6.402 6.991-13.568 7.824-21.5 2.5-9.556-11.449-12.056-24.282-7.5-38.5 2.529-3.385 5.696-5.718 9.5-7zm1 8c2.222-.322 4.056.345 5.5 2 5.194 11.802 1.861 15.469-10 11a16.242 16.242 0 0 1 0-8 31.447 31.447 0 0 0 4.5-5zM235.5 161.5c2.222-.322 4.056.345 5.5 2 .667 14 .667 28 0 42-2.333 2.667-4.667 2.667-7 0-.667-14-.667-28 0-42 .717-.544 1.217-1.211 1.5-2zM397.5 212.5c3.35-.165 6.683.002 10 .5a45.574 45.574 0 0 1 8.5 7.5c4.095-2.032 6.928-1.032 8.5 3-2.818 5.069-7.152 6.902-13 5.5a67.07 67.07 0 0 1-7-8c-2.591-.36-4.924.307-7 2 4.314 9.757 6.814 19.924 7.5 30.5-2.667 2.667-5.333 2.667-8 0a273.843 273.843 0 0 0-8.5-33.5c-.061-1.711.606-3.044 2-4a53.02 53.02 0 0 0 7-3.5zM328.5 214.5c2.222-.322 4.056.345 5.5 2 .434 7.012.934 14.012 1.5 21a40.914 40.914 0 0 1 9 .5c2.667 2.333 2.667 4.667 0 7a32.462 32.462 0 0 1-8 .5c-.022 7.482 2.978 13.316 9 17.5 1.444.781 2.777.614 4-.5 1.579-5.095 4.413-6.095 8.5-3 .667 2 .667 4 0 6-3.991 6.587-9.491 8.421-16.5 5.5-8.926-5.683-13.259-13.85-13-24.5-5.988-.164-7.321-2.664-4-7.5a4.934 4.934 0 0 1 3-.5 90.706 90.706 0 0 1-.5-22c.717-.544 1.217-1.211 1.5-2zM359.5 218.5c11.312-2.516 17.312 1.984 18 13.5-1.229 7.14-5.563 10.807-13 11 1.697 4.913 4.697 8.746 9 11.5a6.846 6.846 0 0 1 4-1 358.463 358.463 0 0 0 1.5-10c5.612-3.09 8.112-1.257 7.5 5.5-.387 11.041-6.054 15.374-17 13-5.663-3.458-9.829-8.292-12.5-14.5-2.324-7.854-2.991-15.854-2-24 1.025-2.187 2.525-3.854 4.5-5zm3 7c7.497-.696 9.497 2.137 6 8.5-7.059.464-9.059-2.369-6-8.5zM122.5 221.5c10.563-1.592 15.397 2.741 14.5 13-1.466 1.825-3.299 2.325-5.5 1.5a24.108 24.108 0 0 0-4.5-6.5c-10.093 14.283-9.926 28.45.5 42.5 1.544 1.187 3.211 1.52 5 1a55.337 55.337 0 0 1 6-8c4.996-.664 6.83 1.502 5.5 6.5-3.869 9.903-10.703 12.736-20.5 8.5-11.861-11.969-15.361-26.136-10.5-42.5 1.389-6.453 4.556-11.787 9.5-16zM298.5 224.5c5.661-1.158 10.327.342 14 4.5 6.467.085 8.134 2.752 5 8-3 .667-6 .667-9 0a31.84 31.84 0 0 0-5-4.5 6.846 6.846 0 0 1-4 1 4279.872 4279.872 0 0 1 5 34.5c-.659 4.082-2.992 5.416-7 4l-1.5-1.5a404.883 404.883 0 0 0-4-30 30.485 30.485 0 0 1 0-11 63.382 63.382 0 0 0 6.5-5zM259.5 228.5c5.344-.166 10.677.001 16 .5 7.537 4.032 10.037 10.198 7.5 18.5-2.292 4.288-5.792 7.122-10.5 8.5-4.324.87-8.658 1.703-13 2.5a54.32 54.32 0 0 0 6 10.5c5.021-.671 10.021-1.837 15-3.5 4.903 2.145 5.237 4.979 1 8.5-5.368 2.866-11.035 4.199-17 4-6.763-3.997-11.263-9.83-13.5-17.5-2.988-12.423-.155-23.09 8.5-32zm4 8c4.339-.654 8.173.346 11.5 3 .667 1.667.667 3.333 0 5-4.889 3.573-10.389 5.24-16.5 5 .003-5.041 1.669-9.374 5-13zM239.5 234.5c2.222-.322 4.056.345 5.5 2-.779 12.567-3.113 24.901-7 37-1.869 5.043-4.869 6.043-9 3a363.575 363.575 0 0 0-14.5-31c.986-3.647 3.319-4.814 7-3.5a181.976 181.976 0 0 1 10.5 19.5 4229.947 4229.947 0 0 0 7.5-27zM184.5 241.5c4.141-.196 6.475 1.804 7 6 9.605-4.448 16.438-1.781 20.5 8a125.478 125.478 0 0 1 1 24c-2.333 2.667-4.667 2.667-7 0a446.12 446.12 0 0 1-2-21c-3.819-5.269-7.819-5.269-12 0a65.448 65.448 0 0 0 .5 14c.933 4.802-.734 8.135-5 10-1.883-.376-3.383-1.376-4.5-3-.667-12-.667-24 0-36 .717-.544 1.217-1.211 1.5-2zM155.5 250.5a60.931 60.931 0 0 1 11 .5 40.616 40.616 0 0 1 8.5 10.5c3.005 12.634-1.828 19.134-14.5 19.5a22.144 22.144 0 0 0-7-4 6.978 6.978 0 0 1-2.5-3.5c-1.517-5.58-1.851-11.247-1-17a46.081 46.081 0 0 0 5.5-6zm4 8c7.13 2.222 9.13 6.722 6 13.5-6.792-.704-9.292-4.537-7.5-11.5.717-.544 1.217-1.211 1.5-2zM357.5 425.5c4.994-.171 6.828 2.162 5.5 7a1453.111 1453.111 0 0 0-29.5 67.5c-3.681 1.314-6.014.147-7-3.5a670.616 670.616 0 0 1 31-71zM253.5 429.5c2.544-.396 4.711.271 6.5 2a482.334 482.334 0 0 1-3 62c-4.1 3.093-6.934 2.093-8.5-3a19.215 19.215 0 0 0-7 3.5c-7.703 2.564-12.87.064-15.5-7.5-1.298-8.968-.298-17.635 3-26l4.5-4.5c6.159-.898 12.159-.398 18 1.5.673-8.03.673-16.03 0-24 .252-1.573.918-2.906 2-4zm-17 34c13.145.14 17.812 6.474 14 19-5.06-.092-9.727 1.242-14 4a3.647 3.647 0 0 1-1.5-1c-2.065-7.465-1.565-14.799 1.5-22zM283.5 434.5a46.89 46.89 0 0 1 18 3.5 17.842 17.842 0 0 1 4.5 5.5c2.053 7.45.22 13.616-5.5 18.5-6.766 5.389-14.433 7.889-23 7.5-.65 7.817 1.684 14.484 7 20a48.262 48.262 0 0 1 12-2.5 29.665 29.665 0 0 0 5-8c3.681-1.314 6.014-.147 7 3.5-.797 5.442-3.464 9.609-8 12.5a77.247 77.247 0 0 1-20 2c-5.903-3.916-9.403-9.416-10.5-16.5-2.272-12.707-.939-25.04 4-37 2.406-3.908 5.572-6.908 9.5-9zm1 9a31.818 31.818 0 0 1 12 1.5c2.701 3.534 2.367 6.867-1 10-20.106 11.872-23.772 8.039-11-11.5zM164.5 438.5c10.117-.714 15.283 3.953 15.5 14-2.966 2.765-5.633 2.432-8-1-.329-3.54-2.162-4.706-5.5-3.5a24.648 24.648 0 0 0-4.5 11.5 135.149 135.149 0 0 0-2 27 14.444 14.444 0 0 0 2.5 5.5c3.317.498 6.65.665 10 .5.088-5.192 2.421-8.858 7-11 2.333.333 3.667 1.667 4 4-1.29 5.39-3.624 10.223-7 14.5-6 .667-12 .667-18 0-3.814-2.481-5.981-5.981-6.5-10.5a140.97 140.97 0 0 1 3-38c2.225-5.053 5.392-9.386 9.5-13zM372.5 438.5a8.43 8.43 0 0 1 4 .5 44.367 44.367 0 0 0 10 8c14.605 5.055 28.438 11.555 41.5 19.5.667 1.667.667 3.333 0 5-11.795 11.151-25.295 19.651-40.5 25.5-3.982 1.421-6.648.254-8-3.5.029-1.529.696-2.696 2-3.5 12.894-4.57 24.561-11.236 35-20l-6-4a359.589 359.589 0 0 1-34-15 55.747 55.747 0 0 0-5.5-4.5c-.891-2.998-.391-5.664 1.5-8zM196.5 443.5c12.389-1.14 19.889 4.526 22.5 17 3.375 14.023-.125 25.856-10.5 35.5-5.125 2.246-10.458 2.913-16 2a17.842 17.842 0 0 1-4.5-5.5 192.512 192.512 0 0 1 1-38c1.518-4.349 4.018-8.016 7.5-11zm4 8c1.788-.285 3.455.048 5 1 8.283 12.127 7.95 23.96-1 35.5a22.394 22.394 0 0 1-8 2.5c-1.696-12.105-1.196-24.105 1.5-36a10.515 10.515 0 0 0 2.5-3zM123.5 445.5c4.5-.336 6.333 1.664 5.5 6a139.484 139.484 0 0 1-20.5 14.5l-15 13a280.965 280.965 0 0 0 43 17c4.259 3.835 3.926 7.001-1 9.5a3233.21 3233.21 0 0 0-43-16.5l-8-5c-3.432-2.367-3.765-5.034-1-8a216.076 216.076 0 0 0 19-16c7.1-4.867 14.1-9.701 21-14.5z"/></svg>