<svg xmlns="http://www.w3.org/2000/svg" width="654" height="142" style="shape-rendering:geometricPrecision;text-rendering:geometricPrecision;image-rendering:optimizeQuality;fill-rule:evenodd;clip-rule:evenodd"><path style="opacity:1" fill="#e8bf96" d="M491.5 1.5c.996-.086 1.829.248 2.5 1a20.642 20.642 0 0 1 2 6l1 21c3.409-1.122 6.909-1.289 10.5-.5 2.348.346 4.181 1.512 5.5 3.5a271.079 271.079 0 0 1 2.5 20.5c-1.602 4.645-3.102 4.479-4.5-.5a114.983 114.983 0 0 0-2-18c-3.768-2.475-7.435-2.475-11 0-.686 6.52-.52 13.02.5 19.5.561 3.448-.606 4.615-3.5 3.5a8501.905 8501.905 0 0 1-4.5-53 10.02 10.02 0 0 1 1-3zM269.5 3.5c10.281-.406 13.281 3.927 9 13a3.646 3.646 0 0 1-1.5-1l-1-6c-1.241-1.92-2.741-2.254-4.5-1-2.633 4.603-3.633 9.603-3 15a32.438 32.438 0 0 1 8 .5c1.333 1 1.333 2 0 3a32.438 32.438 0 0 1-8 .5 267.298 267.298 0 0 1 3 19.5l-.5 6.5c-.718.95-1.551 1.117-2.5.5-.498-8.68-2.165-17.18-5-25.5-4.662 1.514-5.662.348-3-3.5a8.435 8.435 0 0 1 4-.5c-1.213-7.827.454-14.827 5-21zM364.5 6.5c.996-.086 1.829.248 2.5 1a462.27 462.27 0 0 1 0 43l-2.5 2.5a49.248 49.248 0 0 1-14 0c-2.507-3.348-3.507-7.181-3-11.5-.524-11.14 4.809-16.14 16-15-.293-6.755.04-13.422 1-20zm-10 28c6.144-1.002 8.811 1.665 8 8-.013 5.499-2.68 7.332-8 5.5-2.364-4.385-2.364-8.885 0-13.5zM49.5 11.5c.996-.086 1.83.248 2.5 1-.23 11.082 1.77 21.749 6 32 3.58 4.288 6.413 3.955 8.5-1 .895-3.71 1.895-7.377 3-11a83.685 83.685 0 0 1-1.5-17c.576-2.624 1.91-3.29 4-2 .195 6.064.861 12.064 2 18 3.136 5.957 5.47 12.29 7 19 1.845.55 3.345 1.55 4.5 3-3.046 2.766-5.88 2.433-8.5-1a109.3 109.3 0 0 0-4-14c-.472 5.08-2.639 9.246-6.5 12.5-4.244 1.013-8.077.18-11.5-2.5a314.356 314.356 0 0 1-6-19c-.788-6.082-.621-12.082.5-18zM122.5 16.5c9.159-1.1 14.826 2.732 17 11.5.112 1.662-.554 2.83-2 3.5a126.647 126.647 0 0 1-5-8.5c-1.941-1.903-4.274-2.736-7-2.5-3.524 6.388-6.19 13.222-8 20.5 1.065 4.21 3.065 7.877 6 11 3.552.85 6.885.35 10-1.5 1.677-2.04 3.344-4.04 5-6 1.22.387 1.887 1.22 2 2.5-.192 5.192-2.859 8.192-8 9a30.499 30.499 0 0 1-11 0c-8.051-7.5-9.885-16.333-5.5-26.5a59.259 59.259 0 0 1 6.5-13zM291.5 16.5c3.85.2 4.85 2.034 3 5.5-3.963.118-4.963-1.716-3-5.5zM194.5 17.5c.996-.086 1.829.248 2.5 1 .494 1.634.66 3.3.5 5 3.325-.33 6.659-.664 10-1 3.835-.11 7.335.89 10.5 3a37.233 37.233 0 0 1 2.5 10.5 308.398 308.398 0 0 0-1.5 17.5c-1 1.333-2 1.333-3 0a57.897 57.897 0 0 1 .5-17.5c.159-6.507-3.007-9.674-9.5-9.5-3.28.204-6.28 1.204-9 3l-1 19c-.098 2.12-.931 3.786-2.5 5-1.446-.67-2.112-1.838-2-3.5.633-10.887 1.299-21.72 2-32.5zM155.5 18.5c4.639-.454 8.639.88 12 4a140.953 140.953 0 0 1 8 18c1.667 3.667 4.333 6.333 8 8 1.211 1.22 1.211 2.387 0 3.5-4.059-.015-7.226-1.848-9.5-5.5a76.728 76.728 0 0 0-9-14c.416-8.61-3.251-11.277-11-8-2.77 6.853-3.103 13.853-1 21 1.82 2.703 4.32 3.536 7.5 2.5 1.299-3.756 2.966-7.256 5-10.5 2.479 5.29 1.479 10.123-3 14.5-4.652 1.193-8.819.36-12.5-2.5-3.043-9.03-3.043-18.03 0-27 1.5-1.969 3.333-3.302 5.5-4zM584.5 19.5c11.257-2.477 15.757 1.856 13.5 13-3.737 6.013-8.737 7.346-15 4-.613 8.132 3.053 12.799 11 14 4.15-2.486 6.15-6.152 6-11 1-1.333 2-1.333 3 0 1.361 6.777-1.139 11.61-7.5 14.5-9.424 1.263-14.924-2.904-16.5-12.5a49.226 49.226 0 0 1 0-14 22.146 22.146 0 0 1 5.5-8zm2 4c7.941-.62 9.941 2.547 6 9.5-10.315 2.028-12.315-1.14-6-9.5zM445.5 20.5c10.166.66 14.666 5.993 13.5 16-1.719 3.42-4.552 5.086-8.5 5a14.845 14.845 0 0 1-6.5-2c-.617-.95-.451-1.782.5-2.5 4.008 1.444 7.508.611 10.5-2.5.894-5.458-1.439-8.791-7-10a22.737 22.737 0 0 0-5 2c-4.04 7.523-4.374 15.19-1 23 2.311 2.69 5.144 3.857 8.5 3.5a23.625 23.625 0 0 0 5-10c1.612-.72 3.112-.554 4.5.5-1.008 5.17-3.508 9.67-7.5 13.5-9.901 1.114-15.401-3.386-16.5-13.5-.702-6.574.298-12.907 3-19 1.792-2.128 3.958-3.461 6.5-4zM555.5 20.5c2.538 2.019 5.538 3.186 9 3.5 2.419 1.509 3.419 3.675 3 6.5 5.838.324 6.338 1.991 1.5 5-4.094-.805-6.26-3.305-6.5-7.5-1.049-.492-2.049-.326-3 .5a597.567 597.567 0 0 1-2.5 23c-2.894 1.115-4.061-.052-3.5-3.5.595-9.227 1.262-18.394 2-27.5zM308.5 22.5c.996-.086 1.829.248 2.5 1l1 4c2.605-3.456 6.105-4.79 10.5-4 4.621-.744 8.454.59 11.5 4 2.091 8.478 2.925 16.978 2.5 25.5-2.307.271-3.474-.895-3.5-3.5a131.763 131.763 0 0 0-3-20c-1.996-1.56-4.329-2.226-7-2-2.671-.226-5.004.44-7 2-2.969 8.3-4.303 16.966-4 26-1 1.333-2 1.333-3 0a589.054 589.054 0 0 0-1.5-28 17.107 17.107 0 0 1 1-5zM530.5 22.5c10.3-2.844 14.8.822 13.5 11-3.698 4.658-7.531 4.991-11.5 1 .903-2.12 2.237-2.454 4-1 3.775-.962 4.775-3.129 3-6.5-6.047-1.954-9.547.213-10.5 6.5-.712 6.657 1.121 12.49 5.5 17.5 3.873-.538 6.206-2.871 7-7 .949-.617 1.782-.45 2.5.5.127 8.876-4.039 12.043-12.5 9.5-8.763-10.384-9.097-20.884-1-31.5zM405.5 24.5c7.146.654 10.646 4.654 10.5 12a48.567 48.567 0 0 1 3.5-10.5c7.789-2.841 11.955-.008 12.5 8.5 1.983 6.621 1.816 13.121-.5 19.5-.949.617-1.782.45-2.5-.5.661-7.393-.005-14.726-2-22-1.143-3.415-2.81-3.749-5-1a192.642 192.642 0 0 0-4 23c-1.333 1.333-2.667 1.333-4 0a397.084 397.084 0 0 0-3-21c-1.224-2.973-3.224-3.64-6-2-.29 1.544-.956 2.877-2 4l-1 20c-1 1.333-2 1.333-3 0-.667-9-.667-18 0-27 1-1.333 2-1.333 3 0a30.155 30.155 0 0 1 3.5-3zM290.5 26.5c.996-.086 1.829.248 2.5 1a189.1 189.1 0 0 1-2 25c-1.373 3.632-2.873 3.799-4.5.5a243.452 243.452 0 0 1 4-26.5zM100.5 84.5c.996-.086 1.829.248 2.5 1l1 8 1.5-1.5c4-.667 8-.667 12 0l1.5 1.5a47.96 47.96 0 0 0 2.5 12 9.108 9.108 0 0 0 5-1c2.755 2.261 2.422 4.094-1 5.5a12.494 12.494 0 0 1-7 0c-2.181-3.872-3.681-8.039-4.5-12.5-1.388-1.054-2.888-1.22-4.5-.5a45.144 45.144 0 0 0-5.5 9.5 558.372 558.372 0 0 0-2 20c-.718.951-1.551 1.117-2.5.5a30.39 30.39 0 0 1-1-7.5c.52-11.735 1.186-23.402 2-35zM303.5 85.5c.996-.086 1.829.248 2.5 1a320.5 320.5 0 0 0 2 34 3.943 3.943 0 0 0 2 1c1.885-1.492 2.885-3.492 3-6 1-1.333 2-1.333 3 0 .833 7.167-2.333 10.333-9.5 9.5-1.987-1.319-3.154-3.152-3.5-5.5a197.507 197.507 0 0 1 .5-34zM393.5 87.5a72.442 72.442 0 0 1 12 .5c7.078 4.953 7.744 10.62 2 17-3.594 1.741-7.261 1.908-11 .5-2.519-2.141-2.519-4.141 0-6 3.396 3.834 6.896 3.834 10.5 0-.018-7.746-3.684-10.08-11-7a46.431 46.431 0 0 0-3.5 12.5c5.501 17.042 12.834 17.876 22 2.5 1.763-1.454 3.097-1.12 4 1-2.558 7.733-7.725 12.399-15.5 14-5.338.083-9.172-2.25-11.5-7-4.287-9.699-3.62-19.032 2-28zM288.5 89.5c4.659-.485 5.992 1.348 4 5.5-4.772.81-6.105-1.023-4-5.5zM346.5 90.5c3.748 1.592 7.748 2.425 12 2.5 1.466.635 2.8 1.469 4 2.5 7.825-5.148 13.658-3.48 17.5 5 .301 7.743.301 15.409 0 23-2.557 1.146-3.89.146-4-3a218.89 218.89 0 0 0 0-19c-5.181-7.099-9.181-6.432-12 2a56.65 56.65 0 0 0 .5 17c.312 3.208-.855 4.208-3.5 3a194.104 194.104 0 0 1-2-25c-3.096-2.853-5.763-2.52-8 1-1.564 8.32-1.898 16.654-1 25-2.557 1.146-3.89.146-4-3a164.578 164.578 0 0 1 .5-31zM172.5 92.5c4.339-.654 8.173.346 11.5 3 4.842 16.55-.991 21.55-17.5 15-.601 8.611 3.232 14.611 11.5 18 5.792-1.123 8.625-4.623 8.5-10.5.949-.617 1.782-.451 2.5.5 1.276 8.404-2.391 13.07-11 14-10.015-2.351-15.348-8.684-16-19-1.738-9.859 1.762-16.859 10.5-21zm1 4c2.772-.28 5.272.387 7.5 2 .498 3.317.665 6.65.5 10a32.015 32.015 0 0 1-13-2c-1.333-1.667-1.333-3.333 0-5l5-5zM262.5 92.5c.996-.086 1.829.248 2.5 1 .145 8.77 2.145 17.103 6 25a7.248 7.248 0 0 0 2.5 2 431.198 431.198 0 0 1 5-8c1.381.5 2.047 1.5 2 3-1.86 9.527-6.36 11.193-13.5 5-3.419 6.751-8.585 8.584-15.5 5.5-7.801-6.4-10.634-14.567-8.5-24.5.5-1.833 1.667-3 3.5-3.5a49.977 49.977 0 0 1 15 .5c-.175-2.12.159-4.12 1-6zm-13 9c3.679-.137 7.179.529 10.5 2 2.247 5.137 2.914 10.47 2 16-4.161 5.209-8.161 4.875-12-1-2.867-4.599-4.034-9.599-3.5-15 1.679.215 2.679-.452 3-2zM62.5 94.5c22.274-5.22 32.107 3.447 29.5 26a35.984 35.984 0 0 1-5.5 8.5c-10.306 3.39-19.472 1.557-27.5-5.5-5.114-7.589-5.78-15.589-2-24a37.852 37.852 0 0 1 5.5-5zm2 4c5.011-.166 10.011 0 15 .5 1.94.304 3.607 1.137 5 2.5 5.423 8.511 5.09 16.678-1 24.5-8.205 1.898-15.372.064-21.5-5.5-4.925-8.155-4.092-15.488 2.5-22zM200.5 94.5c2.584.548 3.584 2.215 3 5a48.81 48.81 0 0 0 8.5-2c2.145-.104 3.979.563 5.5 2 7.558-4.953 13.725-3.62 18.5 4a46.787 46.787 0 0 1 1.5 13 68.98 68.98 0 0 1-1 11.5c-.949.617-1.782.451-2.5-.5l-1-20c-1.701-3.162-4.034-5.495-7-7-2.305-.016-3.972.984-5 3a145.561 145.561 0 0 0-2 21 7.248 7.248 0 0 1-2.5 2l-2-23c-3.256-2.338-6.089-1.671-8.5 2a8.905 8.905 0 0 1-3 4l-1 19c-1 1.333-2 1.333-3 0a154.602 154.602 0 0 1 1.5-34zM289.5 96.5c.996-.086 1.829.248 2.5 1 .684 8.37.351 16.703-1 25-1 1.333-2 1.333-3 0a140.45 140.45 0 0 1 1.5-26zM438.5 97.5c9.006-.166 18.006 0 27 .5a376.505 376.505 0 0 1 4 21c-1.093 3.12-2.593 3.287-4.5.5a485.959 485.959 0 0 1-2.5-18c-11.015.168-22.015.334-33 .5-1.333-1-1.333-2 0-3 3.195-.18 6.195-.68 9-1.5z"/><path style="opacity:1" fill="#e8bf96" d="M469.5 141.5h-5c-2.49-3.638-4.99-7.305-7.5-11-.667-1.667-.667-3.333 0-5 1-1.333 2-1.333 3 0a65.412 65.412 0 0 0 7 12c5.215-6.44 9.382-13.44 12.5-21 1.381.5 2.047 1.5 2 3a88.16 88.16 0 0 1-12 22z"/></svg>