<svg xmlns="http://www.w3.org/2000/svg" width="512" height="512" style="shape-rendering:geometricPrecision;text-rendering:geometricPrecision;image-rendering:optimizeQuality;fill-rule:evenodd;clip-rule:evenodd"><path style="opacity:1" fill="#7b5100" d="M281.5 106.5h-54c-.167-11.005 0-22.005.5-33l2.5-2.5c16-.667 32-.667 48 0l2.5 2.5c.5 10.995.667 21.995.5 33z"/><path style="opacity:1" fill="#5c63b3" d="M227.5 106.5c-.911 4.867.422 8.867 4 12-9.339-.166-18.673 0-28 .5-4.309 2.573-4.976 5.906-2 10a52.76 52.76 0 0 0 13 2 9.454 9.454 0 0 1 1.5 2.5 647.736 647.736 0 0 1 1 78c-1.259 6.354-4.426 11.521-9.5 15.5a183.144 183.144 0 0 1-27 16 45.538 45.538 0 0 1-10 8 116.252 116.252 0 0 0-11.5 13.5 32.5 32.5 0 0 0-3 7 162.11 162.11 0 0 1-2.5 24 1523.48 1523.48 0 0 1 1.5 53c2.503 13.496 8.836 24.829 19 34 2.785 5.119 6.618 9.286 11.5 12.5a572.558 572.558 0 0 0 16 8.5c7.881 7.615 17.214 11.282 28 11a514.367 514.367 0 0 1-3-4c18.992 2 37.992 2.167 57 .5 22.412.044 40.912-8.456 55.5-25.5a279.412 279.412 0 0 1 12-19c1.497-6.973 2.997-13.973 4.5-21a901.21 901.21 0 0 0-1.5-49 205.73 205.73 0 0 1-3-20 224.362 224.362 0 0 0-15-24 2005.894 2005.894 0 0 1-34.5-25c-3.079-3.393-4.912-7.393-5.5-12a2301.58 2301.58 0 0 1-3.5-60.5 279.93 279.93 0 0 1 2-24.5c6.121.41 12.121-.09 18-1.5 2.667-3 2.667-6 0-9a201.53 201.53 0 0 0-34-1.5c2.731-3.427 3.731-7.427 3-12 14.004-.167 28.004 0 42 .5 3.228 1.563 5.395 4.063 6.5 7.5 2.629 7.999 1.962 15.665-2 23a24.017 24.017 0 0 1-8.5 4.5 670.847 670.847 0 0 1-17.5 2.5 245.66 245.66 0 0 0 4 59c.767 4.805 2.6 9.139 5.5 13a772.848 772.848 0 0 0 27 19.5c9.328 9.141 16.828 19.641 22.5 31.5 5.88 25.654 7.88 51.654 6 78-2.884 20.094-10.884 37.761-24 53-10.031 10.369-21.865 17.869-35.5 22.5-33.766 6.292-67.433 5.959-101-1a295.373 295.373 0 0 0-21-9 171.096 171.096 0 0 0-24-20c-14.18-17.122-21.013-36.956-20.5-59.5a552.224 552.224 0 0 1 0-47c.819-13.633 5.153-25.966 13-37 4.833-3.5 9-7.667 12.5-12.5 4.715-2.027 8.715-5.027 12-9a113.312 113.312 0 0 0 23.5-12.5 205.56 205.56 0 0 0 4.5-11.5c-.416-19.11-.749-38.277-1-57.5-14.082.789-21.082-5.877-21-20-.086-4.99 1.081-9.656 3.5-14a15.83 15.83 0 0 1 5.5-3.5c11.328-.5 22.662-.667 34-.5z"/><path style="opacity:1" fill="#655e7d" d="M227.5 106.5h54c.731 4.573-.269 8.573-3 12h-47c-3.578-3.133-4.911-7.133-4-12z"/><path style="opacity:1" fill="#919ce2" d="M231.5 118.5h4c-.541 3.152.459 5.652 3 7.5 11 .667 22 .667 33 0 2.541-1.848 3.541-4.348 3-7.5h4a201.53 201.53 0 0 1 34 1.5c2.667 3 2.667 6 0 9-5.879 1.41-11.879 1.91-18 1.5a279.93 279.93 0 0 0-2 24.5 2301.58 2301.58 0 0 0 3.5 60.5c.588 4.607 2.421 8.607 5.5 12a2005.894 2005.894 0 0 0 34.5 25 224.362 224.362 0 0 1 15 24 205.73 205.73 0 0 0 3 20 901.21 901.21 0 0 1 1.5 49c-1.503 7.027-3.003 14.027-4.5 21a279.412 279.412 0 0 0-12 19c-14.588 17.044-33.088 25.544-55.5 25.5a296.047 296.047 0 0 1-57-.5c-5.333-3.333-9.667-7.667-13-13 17.884 5.601 36.217 7.434 55 5.5a328.953 328.953 0 0 0 36-4c7.084-3.196 13.417-7.363 19-12.5.667 0 1-.333 1-1 9.526-5.204 15.193-13.204 17-24a65.102 65.102 0 0 1 2.5-11c.82-6.514.653-12.847-.5-19 .167-14.004 0-28.004-.5-42-3.061-12.62-9.561-23.12-19.5-31.5a216.336 216.336 0 0 1-34.5-25.5 38.097 38.097 0 0 1-5-14 693.008 693.008 0 0 1-2.5-88h-10c-2.896-1.275-5.896-1.275-9 0a418.607 418.607 0 0 0-34 1 909.857 909.857 0 0 1 .5 88 80.745 80.745 0 0 1-9.5 16.5c-8.438 6.434-17.772 11.101-28 14a268.414 268.414 0 0 0-19.5 18.5c-3.499 5.16-5.833 10.826-7 17-.5 9.994-.666 19.994-.5 30-1.715 17.006 1.285 33.006 9 48 .427 4.117 1.927 7.784 4.5 11a39.991 39.991 0 0 1 7.5 7.5c1.969 1.926 4.302 3.092 7 3.5a79.967 79.967 0 0 0 9 18 572.558 572.558 0 0 1-16-8.5c-4.882-3.214-8.715-7.381-11.5-12.5-10.164-9.171-16.497-20.504-19-34a1523.48 1523.48 0 0 0-1.5-53 162.11 162.11 0 0 0 2.5-24 32.5 32.5 0 0 1 3-7 116.252 116.252 0 0 1 11.5-13.5 45.538 45.538 0 0 0 10-8 183.144 183.144 0 0 0 27-16c5.074-3.979 8.241-9.146 9.5-15.5a647.736 647.736 0 0 0-1-78 9.454 9.454 0 0 0-1.5-2.5 52.76 52.76 0 0 1-13-2c-2.976-4.094-2.309-7.427 2-10 9.327-.5 18.661-.666 28-.5z"/><path style="opacity:1" fill="#8a869e" d="M235.5 118.5h39c.541 3.152-.459 5.652-3 7.5-11 .667-22 .667-33 0-2.541-1.848-3.541-4.348-3-7.5z"/><path style="opacity:1" fill="#dde3fb" d="M271.5 130.5c-.844 3.021-2.677 5.355-5.5 7-3.533 7.602-5.2 15.602-5 24a127.96 127.96 0 0 1-4.5 14 439.91 439.91 0 0 1-10.5 67 41.056 41.056 0 0 0-6 9 72.173 72.173 0 0 1-1-23c.183-30.918 4.517-61.252 13-91 2.998-3.238 6.498-5.571 10.5-7 3.104-1.275 6.104-1.275 9 0z"/><path style="opacity:1" fill="#bbc5fd" d="M262.5 130.5c-4.002 1.429-7.502 3.762-10.5 7-8.483 29.748-12.817 60.082-13 91a72.173 72.173 0 0 0 1 23 41.056 41.056 0 0 1 6-9 439.91 439.91 0 0 0 10.5-67 127.96 127.96 0 0 0 4.5-14c-.2-8.398 1.467-16.398 5-24 2.823-1.645 4.656-3.979 5.5-7h10a693.008 693.008 0 0 0 2.5 88c.749 5 2.416 9.667 5 14a216.336 216.336 0 0 0 34.5 25.5c9.939 8.38 16.439 18.88 19.5 31.5.5 13.996.667 27.996.5 42-9.17 3.543-18.504 3.877-28 1a905.566 905.566 0 0 1-37 1.5c-6.792 2.814-13.792 3.314-21 1.5-6.6 2.269-13.267 2.436-20 .5l-2-2a126.127 126.127 0 0 0-29-2.5c4.15-10.308 9.816-19.641 17-28 8.148-13.832 10.314-28.499 6.5-44a76.687 76.687 0 0 1-8 12l-1 8c-2.296 2.55-3.63 5.55-4 9a17576.338 17576.338 0 0 0-15 17 330.997 330.997 0 0 0-10.5 19c-.457.798-1.124 1.131-2 1a32.462 32.462 0 0 1-8-.5c-3.172-2.006-5.838-4.506-8-7.5a18.346 18.346 0 0 0-9-2c-.166-10.006 0-20.006.5-30 1.167-6.174 3.501-11.84 7-17a268.414 268.414 0 0 1 19.5-18.5c10.228-2.899 19.562-7.566 28-14a80.745 80.745 0 0 0 9.5-16.5 909.857 909.857 0 0 0-.5-88 418.607 418.607 0 0 1 34-1z"/><path style="opacity:1" fill="#fc64c7" d="M266.5 240.5c5.45-.127 8.783 2.373 10 7.5-.608 3.568-2.775 5.401-6.5 5.5-6.574-.795-8.908-4.461-7-11a19.602 19.602 0 0 0 3.5-2z"/><path style="opacity:1" fill="#dde2fb" d="M206.5 331.5c-3.942 12.047-5.276 24.381-4 37a132.82 132.82 0 0 0 5.5 22c.967 3.121 2.8 5.454 5.5 7 3.333 5.333 7.667 9.667 13 13a514.367 514.367 0 0 0 3 4c-10.786.282-20.119-3.385-28-11a79.967 79.967 0 0 1-9-18 100.51 100.51 0 0 1-4-22c-1.529-12.759-1.196-25.426 1-38 .876.131 1.543-.202 2-1a330.997 330.997 0 0 1 10.5-19c4.971-5.641 9.971-11.308 15-17 .37-3.45 1.704-6.45 4-9l1-8a76.687 76.687 0 0 0 8-12c3.814 15.501 1.648 30.168-6.5 44-7.184 8.359-12.85 17.692-17 28z"/><path style="opacity:1" fill="#fc64c7" d="M284.5 273.5c5.527-1.304 8.193.862 8 6.5.146 2.034-.52 3.701-2 5-8.008 1.655-10.841-1.512-8.5-9.5.995-.566 1.828-1.233 2.5-2zM200.5 277.5a31.818 31.818 0 0 1 12 1.5c2.246 4.047 1.58 7.714-2 11-3.27 1.321-6.603 1.987-10 2-3.935-4.83-3.935-9.663 0-14.5zM245.5 287.5c8.304-.222 10.637 3.278 7 10.5-5.694 3.061-9.027 1.394-10-5 .624-2.085 1.624-3.918 3-5.5zM319.5 287.5c5.526-.12 7.193 2.38 5 7.5-4.433 2.73-7.099 1.563-8-3.5.287-1.943 1.287-3.277 3-4zM178.5 308.5c6.143.526 7.476 3.36 4 8.5-5.5 1.167-7.667-1-6.5-6.5.995-.566 1.828-1.233 2.5-2zM164.5 315.5a18.346 18.346 0 0 1 9 2c2.162 2.994 4.828 5.494 8 7.5 2.646.497 5.313.664 8 .5-2.196 12.574-2.529 25.241-1 38h-7c-2.481-.758-5.148-.758-8 0-7.715-14.994-10.715-30.994-9-48zM267.5 315.5c3.149-.289 6.149.211 9 1.5 2.152 4.873.485 7.54-5 8-3.793 1.052-5.793-.448-6-4.5a16.485 16.485 0 0 1 2-5zM310.5 315.5c7.861-.351 10.194 2.816 7 9.5-4.248 2.348-8.081 1.848-11.5-1.5-.467-3.715 1.033-6.381 4.5-8zM224.5 320.5c6.204-.186 7.537 2.314 4 7.5-6.097.147-7.43-2.353-4-7.5zM206.5 331.5c9.765-.286 19.432.548 29 2.5l2 2c6.733 1.936 13.4 1.769 20-.5 7.208 1.814 14.208 1.314 21-1.5a905.566 905.566 0 0 0 37-1.5c9.496 2.877 18.83 2.543 28-1 1.153 6.153 1.32 12.486.5 19a65.102 65.102 0 0 0-2.5 11c-3.48 2.27-7.147 2.937-11 2-.904-.709-1.237-1.709-1-3-2.166-.079-4.166-.746-6-2a68.825 68.825 0 0 1-11 3c-.245 5.234 2.088 8.234 7 9a16.58 16.58 0 0 1-4 2.5 197.413 197.413 0 0 0-15 2.5c-1.59-2.321-3.923-3.321-7-3v5c-2.45-.202-4.783.131-7 1-.014-7.511-3.681-10.344-11-8.5a8.905 8.905 0 0 1-4 3c-.906 1.699-1.239 3.533-1 5.5-19.525.684-38.525-1.649-57-7a133.74 133.74 0 0 1-11-3c-1.276-12.619.058-24.953 4-37z"/><path style="opacity:1" fill="#fe99e1" d="M175.5 334.5h5v4h-5v-4zM210.5 345.5c4-.667 5.667 1 5 5-4 .667-5.667-1-5-5zM289.5 345.5a8.43 8.43 0 0 1 4 .5c2.145 2.574 4.812 4.407 8 5.5.929 1.189 1.262 2.522 1 4a47.15 47.15 0 0 1-13-3v-7zM322.5 345.5c2.357-.163 4.69.003 7 .5.88 1.356 1.214 2.856 1 4.5a41.541 41.541 0 0 1-8-1v-4zM252.5 346.5c2.222-.322 4.056.345 5.5 2a8.905 8.905 0 0 0 3 4 8.43 8.43 0 0 1 .5 4c-5.766-.769-8.766-4.103-9-10zM213.5 371.5c-.293-3.937.04-7.77 1-11.5a11.532 11.532 0 0 1 5.5-1.5 59.734 59.734 0 0 0 11.5 1c-.005 3.533-1.005 6.7-3 9.5a92.856 92.856 0 0 0-15 2.5zM330.5 363.5c.239 1.967-.094 3.801-1 5.5a19.603 19.603 0 0 1-6.5 2.5c-1.385-.014-2.551-.348-3.5-1-4.912-.766-7.245-3.766-7-9a68.825 68.825 0 0 0 11-3c1.834 1.254 3.834 1.921 6 2-.237 1.291.096 2.291 1 3z"/><path style="opacity:1" fill="#e445ad" d="M341.5 361.5c-1.807 10.796-7.474 18.796-17 24v-4c-4-.667-5.667 1-5 5h4c-5.583 5.137-11.916 9.304-19 12.5a328.953 328.953 0 0 1-36 4c-18.783 1.934-37.116.101-55-5.5-2.7-1.546-4.533-3.879-5.5-7a132.82 132.82 0 0 1-5.5-22 133.74 133.74 0 0 0 11 3c18.475 5.351 37.475 7.684 57 7 .968 2.107 1.302 4.441 1 7 5.214 2.831 10.047 2.164 14.5-2a12.93 12.93 0 0 0 .5-5c2.217-.869 4.55-1.202 7-1 .904.709 1.237 1.709 1 3h6v-5a197.413 197.413 0 0 1 15-2.5 16.58 16.58 0 0 0 4-2.5c.949.652 2.115.986 3.5 1a19.603 19.603 0 0 0 6.5-2.5c.906-1.699 1.239-3.533 1-5.5 3.853.937 7.52.27 11-2zM181.5 363.5a51.569 51.569 0 0 0 1 7h5a51.569 51.569 0 0 0-1-7h2a100.51 100.51 0 0 0 4 22c-2.698-.408-5.031-1.574-7-3.5a39.991 39.991 0 0 0-7.5-7.5c-2.573-3.216-4.073-6.883-4.5-11 2.852-.758 5.519-.758 8 0z"/><path style="opacity:1" fill="#fe99e1" d="M241.5 362.5h4l1 8h-5c-1.03-2.729-1.03-5.396 0-8zM181.5 363.5h5a51.569 51.569 0 0 1 1 7h-5a51.569 51.569 0 0 1-1-7zM286.5 378.5a12.93 12.93 0 0 1-.5 5c-4.453 4.164-9.286 4.831-14.5 2 .302-2.559-.032-4.893-1-7-.239-1.967.094-3.801 1-5.5a8.905 8.905 0 0 0 4-3c7.319-1.844 10.986.989 11 8.5zM300.5 375.5v5h-6c.237-1.291-.096-2.291-1-3v-5c3.077-.321 5.41.679 7 3zM324.5 385.5c0 .667-.333 1-1 1h-4c-.667-4 1-5.667 5-5v4zM223.5 383.5h6c.343 5.826-2.324 8.326-8 7.5-1.66-3.223-.994-5.723 2-7.5zM251.5 387.5h8c.285 1.788-.048 3.455-1 5a28.819 28.819 0 0 1-10 1v-5c1.291.237 2.291-.096 3-1zM290.5 392.5h5v6c-3.985.06-5.652-1.94-5-6z"/></svg>