<svg xmlns="http://www.w3.org/2000/svg" width="512" height="512" style="shape-rendering:geometricPrecision;text-rendering:geometricPrecision;image-rendering:optimizeQuality;fill-rule:evenodd;clip-rule:evenodd"><path style="opacity:1" fill="#aeff00" d="M388.5-.5h42v38c7.567-1.925 10.901.908 10 8.5 1.049 6.945-1.951 9.445-9 7.5a443.062 443.062 0 0 0-51-.5c-.12-4.039-.287-8.206-.5-12.5 1.734-1.95 3.901-2.95 6.5-3a909.29 909.29 0 0 1 2-38z"/><path style="opacity:1" fill="#1eff09" d="M134.5 89.5c-1.333 1.333-1.333 2.667 0 4a566.576 566.576 0 0 1 2.5 31c-3.73.96-7.563 1.293-11.5 1a356.523 356.523 0 0 0-32-1h-23c-7.674.166-15.34 0-23-.5a11.339 11.339 0 0 1-3.5-1.5A490.793 490.793 0 0 1 41.5 57c30.381-.969 60.715-.635 91 1l1.5 1.5c.5 9.994.666 19.994.5 30zm-56-29c-23.658 4.27-32.492 18.27-26.5 42 2.085 7.183 5.918 13.183 11.5 18a62.792 62.792 0 0 1-15.5-1 847.47 847.47 0 0 1-3.5-59h34zm20 0c10.705-.263 21.372.07 32 1v16c-3.137-4.292-7.137-7.792-12-10.5-6.573-2.866-13.239-5.033-20-6.5zm35 57v4h-3a308.607 308.607 0 0 1 3-4z"/><path style="opacity:1" fill="#fefffe" d="M403.5 102.5c.086-.996-.248-1.829-1-2.5-4.78-.788-9.113-2.622-13-5.5-.056-10.941-4.056-20.108-12-27.5-15.064-6.688-30.731-8.355-47-5-5.348 2.175-9.681 5.675-13 10.5-15.596-.915-21.43 6.085-17.5 21a69.162 69.162 0 0 0 4.5 6.5c4.041.173 8.041.673 12 1.5a32.364 32.364 0 0 1 4 5.5 110.872 110.872 0 0 1 14 11 115.719 115.719 0 0 0 34 2 20.51 20.51 0 0 0 8-3 145.707 145.707 0 0 0 10-10.5 724.093 724.093 0 0 1 16-2c-11.291 11.27-24.958 17.437-41 18.5-8.667.667-17.333.667-26 0a35.716 35.716 0 0 1-9-3 280.178 280.178 0 0 0-24-15c-4.292-3.085-6.625-7.251-7-12.5 2.718-1.923 2.384-3.256-1-4 .026-5.973 1.859-11.306 5.5-16 27.672-19.563 56.339-21.23 86-5a169.26 169.26 0 0 1 11 22c6.023 2.708 8.189 7.041 6.5 13zM78.5 60.5h20c6.761 1.467 13.427 3.634 20 6.5 4.863 2.708 8.863 6.208 12 10.5v13c-5.49-13.965-15.824-21.799-31-23.5-11.925-1.353-23.592-.353-35 3-4.245 2.576-7.412 6.076-9.5 10.5-.667 7-.667 14 0 21a32.46 32.46 0 0 0 3 7c4.102 4.604 8.603 8.604 13.5 12h-8c-5.582-4.817-9.415-10.817-11.5-18-5.992-23.73 2.842-37.73 26.5-42z"/><path style="opacity:1" d="M403.5 102.5c.172.992-.162 1.658-1 2a724.093 724.093 0 0 0-16 2 145.707 145.707 0 0 1-10 10.5 20.51 20.51 0 0 1-8 3 115.719 115.719 0 0 1-34-2 110.872 110.872 0 0 0-14-11 32.364 32.364 0 0 0-4-5.5 74.086 74.086 0 0 0-12-1.5 69.162 69.162 0 0 1-4.5-6.5c-3.93-14.915 1.904-21.915 17.5-21 3.319-4.825 7.652-8.325 13-10.5 16.269-3.355 31.936-1.688 47 5 7.944 7.392 11.944 16.559 12 27.5 3.887 2.878 8.22 4.712 13 5.5.752.671 1.086 1.504 1 2.5z"/><path style="opacity:1" fill="#fe0010" d="M338.5 64.5h20a49.974 49.974 0 0 0-.5 15c.954 5.619 4.287 8.285 10 8a94.942 94.942 0 0 0 8.5-1.5c1.566-2.93 2.4-6.097 2.5-9.5 3.476 3.62 5.309 7.954 5.5 13-7.725-.53-15.391.302-23 2.5-2.094 1.255-3.094 3.088-3 5.5.086 5.902 2.753 10.069 8 12.5 3.935.367 7.601.533 11 .5-5.812 4.942-12.646 6.942-20.5 6a69.447 69.447 0 0 1-19.5-2.5c1.333-1 1.333-2 0-3-6.898-.91-12.231-4.243-16-10a49.727 49.727 0 0 0 15-5c4.967-5.522 5.133-11.355.5-17.5-4.349-2.968-9.182-4.802-14.5-5.5 4.109-5.198 9.442-8.032 16-8.5z"/><path style="opacity:1" d="M130.5 90.5v16a46.728 46.728 0 0 1-14 14h-45c-4.897-3.396-9.398-7.396-13.5-12a32.46 32.46 0 0 1-3-7c-.667-7-.667-14 0-21 2.088-4.424 5.255-7.924 9.5-10.5 11.408-3.353 23.075-4.353 35-3 15.176 1.701 25.51 9.535 31 23.5z"/><path style="opacity:1" fill="#fefffe" d="M362.5 66.5c5.292.149 9.626 2.149 13 6a107.17 107.17 0 0 1-2 9.5c-7.501 3.055-11.501.555-12-7.5.337-2.676.67-5.343 1-8z"/><path style="opacity:1" d="M368.5 71.5c2.45.374 3.45 1.874 3 4.5.191 1.973-.476 3.473-2 4.5-2.285-2.678-2.618-5.678-1-9z"/><path style="opacity:1" fill="#fefffe" d="M79.5 74.5c12.641-1.507 24.308.993 35 7.5 12.083 12.946 10.417 23.613-5 32-13.802 3.323-26.802 1.656-39-5-7.569-6.496-10.069-14.662-7.5-24.5 1.25-2.67 3.083-4.837 5.5-6.5 3.888-.846 7.555-2.013 11-3.5zM310.5 77.5c1.478-.262 2.811.071 4 1-1.333 5.667-1.333 11.333 0 17-2.872 1.282-5.705 1.282-8.5 0-4.086-5.153-4.419-10.486-1-16a61.284 61.284 0 0 0 5.5-2zM318.5 77.5c4.929-.246 9.595.754 14 3 5.866 5.734 5.2 10.234-2 13.5a26.524 26.524 0 0 1-12 2.5 47.522 47.522 0 0 1 0-19z"/><path style="opacity:1" d="M75.5 83.5c7.48-2.005 10.647.661 9.5 8-2.653 2.694-5.82 3.527-9.5 2.5-2.62-3.498-2.62-6.998 0-10.5zM99.5 86.5c7.802.287 9.802 3.787 6 10.5-8.03.08-10.03-3.42-6-10.5z"/><path style="opacity:1" fill="#fe0010" d="M294.5 88.5c3.384.744 3.718 2.077 1 4-21.838.007-43.671-.326-65.5-1a1685.89 1685.89 0 0 1-95.5 2c-1.333-1.333-1.333-2.667 0-4 32.02.19 64.02-.477 96-2 21.329.626 42.663.96 64 1z"/><path style="opacity:1" fill="#d4ff00" d="M371.5 93.5c3.35-.165 6.683.002 10 .5 2.71 1.747 5.71 2.747 9 3 3.949 1.687 3.949 3.187 0 4.5a281.365 281.365 0 0 0-17.5-5c-2.341.507-2.841 1.674-1.5 3.5a28.352 28.352 0 0 0 11 3l-9 3c-6.716.986-10.382-1.847-11-8.5 2.706-2.068 5.706-3.401 9-4z"/><path style="opacity:1" d="M79.5 99.5a101.646 101.646 0 0 1 12.5 4c1.775-.77 3.275-1.937 4.5-3.5 4.996-.664 6.83 1.502 5.5 6.5-.833 2.167-2.333 3.667-4.5 4.5-7.636 1.895-14.136.061-19.5-5.5-.748-2.34-.248-4.34 1.5-6z"/><path style="opacity:1" fill="#fefffe" d="M130.5 106.5a151.777 151.777 0 0 1 3 11 308.607 308.607 0 0 0-3 4 82.73 82.73 0 0 1-14-1 46.728 46.728 0 0 0 14-14zM70.5 124.5h15a567.1 567.1 0 0 1-2 17 210.158 210.158 0 0 1-21.5 26 66.88 66.88 0 0 1-15 17c-3.225 6.385-1.392 9.219 5.5 8.5A419.91 419.91 0 0 0 84 155.5c2.809 20.286-.525 39.286-10 57a6451.968 6451.968 0 0 1-24.5 71c1.864 4.408 4.697 5.075 8.5 2a9988.496 9988.496 0 0 1 27.5-76 563.949 563.949 0 0 1 25.5 74c1.869 5.043 4.869 6.043 9 3-4.388-22.458-11.388-44.125-21-65a478.922 478.922 0 0 1-8.5-25.5 760.73 760.73 0 0 0 3-44.5l15 10.5a405.706 405.706 0 0 1 28 28c7.283.427 8.783-2.407 4.5-8.5a247.587 247.587 0 0 0-47.5-40 49.878 49.878 0 0 1 0-17 356.523 356.523 0 0 1 32 1c-7.108 3.695-14.774 5.695-23 6-1.856 7.049.478 11.882 7 14.5a29.964 29.964 0 0 0 6 7 218.192 218.192 0 0 0 20 15c6.21 4.946 10.544 11.113 13 18.5-1.099 6.933-5.099 9.766-12 8.5l-10-10a414.194 414.194 0 0 1-26.5-21.5 154.401 154.401 0 0 0 3 44 384.72 384.72 0 0 1 21 70c2.066 13.95-3.1 17.783-15.5 11.5A78.532 78.532 0 0 1 98 269.5a822.434 822.434 0 0 1-13-47 162.013 162.013 0 0 0-10 34 379.721 379.721 0 0 1-11 29c-4.67 5.872-10.336 7.538-17 5-2.343-5.102-3.01-10.436-2-16a464.584 464.584 0 0 1 28-67 87.051 87.051 0 0 0 1-25 6.807 6.807 0 0 0-1.5-3 132.665 132.665 0 0 1-17 16.5c-15.124 1.258-18.624-4.575-10.5-17.5 12.439-12.092 22.939-25.592 31.5-40.5-.633-3.459-1.3-6.959-2-10.5-1.761-.535-3.094-1.535-4-3z"/><path style="opacity:1" d="M85.5 124.5h8a49.878 49.878 0 0 0 0 17 247.587 247.587 0 0 1 47.5 40c4.283 6.093 2.783 8.927-4.5 8.5a405.706 405.706 0 0 0-28-28l-15-10.5a760.73 760.73 0 0 1-3 44.5 478.922 478.922 0 0 0 8.5 25.5c9.612 20.875 16.612 42.542 21 65-4.131 3.043-7.131 2.043-9-3a563.949 563.949 0 0 0-25.5-74 9988.496 9988.496 0 0 0-27.5 76c-3.803 3.075-6.636 2.408-8.5-2a6451.968 6451.968 0 0 0 24.5-71c9.475-17.714 12.809-36.714 10-57A419.91 419.91 0 0 1 52.5 193c-6.892.719-8.725-2.115-5.5-8.5a66.88 66.88 0 0 0 15-17 210.158 210.158 0 0 0 21.5-26 567.1 567.1 0 0 0 2-17z"/><path style="opacity:1" fill="#aeff00" d="M397.5 124.5c16.337-.167 32.67 0 49 .5l1.5 1.5a53.368 53.368 0 0 1 1 11c-2.301 1.367-4.801 2.034-7.5 2a312.283 312.283 0 0 1 2.5 28 821.28 821.28 0 0 0 5 107c.667 5 .667 10 0 15a250.1 250.1 0 0 1-38.5.5 20.431 20.431 0 0 1-5.5-1.5 446.945 446.945 0 0 1 1.5-58.5 2143.3 2143.3 0 0 0-7-93.5c-2.544.396-4.711-.271-6.5-2a16.242 16.242 0 0 1 0-8 36.354 36.354 0 0 0 4.5-2z"/><path style="opacity:1" fill="#fefffe" d="M179.5 239.5c7.92-.315 15.753.018 23.5 1 .72 1.612.554 3.112-.5 4.5-6.658.5-13.325.666-20 .5v10c4.353.265 8.687.765 13 1.5 1.333 1.667 1.333 3.333 0 5-4.058.767-8.058.6-12-.5a199.486 199.486 0 0 0-.5 31c-1.667 1.333-3.333 1.333-5 0a1049.55 1049.55 0 0 1-2.5-47c-.557-3.419.776-5.419 4-6zM210.5 254.5c1.644-.214 3.144.12 4.5 1l1 31c2.401-.966 5.067-.966 8 0 .92 2.808.087 4.975-2.5 6.5-3 .667-6 .667-9 0a6.978 6.978 0 0 1-2.5-3.5 209.064 209.064 0 0 1 .5-35zM303.5 259.5c1.644-.214 3.144.12 4.5 1a190.728 190.728 0 0 0 2 11 35.157 35.157 0 0 0 5-10c1.667-1.333 3.333-1.333 5 0 5.202 9.012 7.202 18.678 6 29-2.602 3.712-6.102 4.878-10.5 3.5a28.415 28.415 0 0 1-7.5-4.5c-.934-4.583.9-6.083 5.5-4.5l5 2.5c1.446-.671 2.112-1.838 2-3.5a49.183 49.183 0 0 0-3-10.5c-3.291 5.127-7.458 6.127-12.5 3-2.488-5.538-2.988-11.205-1.5-17zM283.5 262.5c10.756-2.737 15.256 1.263 13.5 12-2.305 2.316-5.138 3.65-8.5 4a32.767 32.767 0 0 1 1.5 13c-2.267 1.435-4.267 1.102-6-1a198.933 198.933 0 0 0-4.5-21.5c-.066-3.087 1.268-5.254 4-6.5zm3 7c1.068-.934 2.401-1.268 4-1 .219 1.175-.114 2.175-1 3a185.977 185.977 0 0 0-3-2zM266.5 265.5c10.837-1.318 14.671 3.348 11.5 14-1.897 1.516-4.064 2.183-6.5 2a181.557 181.557 0 0 1 1.5 19c-2.776 1.64-4.776.973-6-2a304.514 304.514 0 0 1-3-30 10.515 10.515 0 0 0 2.5-3zm4 6c1.976.927 2.309 2.26 1 4-1.676-1.228-2.009-2.561-1-4zM231.5 272.5a84.902 84.902 0 0 1 13 .5c1.71 5.263 4.543 9.763 8.5 13.5.934 4.583-.9 6.083-5.5 4.5-1.837-3.645-3.837-3.978-6-1-11.09 2.243-15.59-2.257-13.5-13.5a19.552 19.552 0 0 0 3.5-4zm3 6c5.675.36 6.342 2.36 2 6-2.124-1.701-2.791-3.701-2-6zM210.5 306.5c12.211-3.767 18.378.567 18.5 13 8.03 6.427 10.696 14.76 8 25-2.536 3.266-5.869 4.6-10 4-4.018.215-7.685-.785-11-3-.743-1.941-.576-3.774.5-5.5 3.416.56 6.916 1.394 10.5 2.5 3.355-.352 4.855-2.186 4.5-5.5-.452-3.409-1.619-6.576-3.5-9.5a46.053 46.053 0 0 0-10-4c-.667-1.333-.667-2.667 0-4 5.662-3.035 5.329-5.369-1-7a9.839 9.839 0 0 0-4 1 638.042 638.042 0 0 1-2 34c-1.667 1.333-3.333 1.333-5 0a496.877 496.877 0 0 1 1-38c1.518-.663 2.685-1.663 3.5-3zM289.5 316.5c2.738-.535 4.572.465 5.5 3 2.174 6.529 3.174 13.195 3 20-3.26 6.146-8.093 7.646-14.5 4.5-1.122-3.409-1.289-6.909-.5-10.5 1.848-2.541 4.348-3.541 7.5-3a77.946 77.946 0 0 0-2-10.5 10.98 10.98 0 0 1 1-3.5zm-1 19c3.661-.15 4.661 1.35 3 4.5-3.793.487-4.793-1.013-3-4.5zM242.5 321.5c4.659-.485 5.992 1.348 4 5.5-4.772.81-6.105-1.023-4-5.5zM265.5 322.5c5.877-.465 9.544 2.201 11 8-.074 2.239-1.241 3.239-3.5 3-2.515-.342-4.348-1.675-5.5-4a6.201 6.201 0 0 0-2 3.5c1.397 3.408 1.897 6.908 1.5 10.5-2.776 1.64-4.776.973-6-2-3.082-5.46-3.082-10.793 0-16 1.409-1.281 2.909-2.281 4.5-3zM246.5 329.5c2.738-.535 4.572.465 5.5 3 1.416 4.194 1.583 8.361.5 12.5-1.612.72-3.112.554-4.5-.5-2.031-4.942-2.531-9.942-1.5-15zM107.5 366.5c8.636 1.235 11.803 6.235 9.5 15-5.055 1.776-6.555.109-4.5-5-.056-1.237-.556-2.237-1.5-3-2.134 5.828-1.968 11.495.5 17 2.268-1.044 4.601-1.211 7-.5 1.333 1.333 1.333 2.667 0 4l-8 2c1.719 5.359 2.219 10.859 1.5 16.5-1.333 1.333-2.667 1.333-4 0a1048.422 1048.422 0 0 0-2.5-17 18.453 18.453 0 0 1-6-.5c-1.333-1.333-1.333-2.667 0-4a12.93 12.93 0 0 1 5-.5c-.166-5.676.001-11.343.5-17 .153-2.651.987-4.984 2.5-7zM9.5 370.5c1.322-.17 2.489.163 3.5 1 .522 7.706.522 15.373 0 23 12.346-2.648 17.013 2.352 14 15-.936 3.707-2.77 6.874-5.5 9.5-4.696.335-9.196.169-13.5-.5a296.092 296.092 0 0 1 1.5-48zm7 28c4.192-.323 6.192 1.677 6 6-2.5 12.466-5.833 12.966-10 1.5-.543-3.597.79-6.097 4-7.5zM222.5 372.5c11.138-.034 15.305 5.299 12.5 16-4 2.667-8 2.667-12 0 .419 6.959.752 13.959 1 21-1.667 1.333-3.333 1.333-5 0a289.765 289.765 0 0 1-1-33c1.397-1.57 2.897-2.904 4.5-4zm2 5c4.613.748 6.613 3.248 6 7.5-2.843-.115-5.343-1.282-7.5-3.5-.3-1.566.2-2.899 1.5-4zM64.5 377.5c2.448-.415 3.781.585 4 3a45.743 45.743 0 0 0-1 12c3.35-.165 6.683.002 10 .5 1.333 1.333 1.333 2.667 0 4-3.317.498-6.65.665-10 .5-.227 5.192.607 10.192 2.5 15 2.8-1.618 4.3-.785 4.5 2.5.167 2.5-1 3.667-3.5 3.5-3.401-.198-5.734-1.865-7-5a62.267 62.267 0 0 1-1.5-16c-3.661.15-4.661-1.35-3-4.5a4.934 4.934 0 0 1 3-.5 84.94 84.94 0 0 1 .5-13c.717-.544 1.217-1.211 1.5-2zM442.5 377.5c1.322-.17 2.489.163 3.5 1 .186 2.4.686 4.734 1.5 7 2.202-1.28 4.368-1.28 6.5 0 .684 1.284.517 2.451-.5 3.5a20.093 20.093 0 0 1-6 1.5 24.362 24.362 0 0 0 1.5 10c1.242 2.041 3.075 3.207 5.5 3.5 1.772 3.111.939 4.944-2.5 5.5-5.27-1.159-8.27-4.492-9-10a40.914 40.914 0 0 1-.5-9c-4.176.669-5.509-.831-4-4.5a4.934 4.934 0 0 1 3-.5c-.221-2.779.112-5.446 1-8zM497.5 377.5c1.322-.17 2.489.163 3.5 1a31.7 31.7 0 0 1-.5 12.5 226.481 226.481 0 0 1 1.5 8.5c.872-2.113 2.372-3.446 4.5-4 1.766-.066 2.766.768 3 2.5-1.666 5.691-5.332 8.024-11 7-3.616-9.047-3.95-18.214-1-27.5zM292.5 379.5c1.322-.17 2.489.163 3.5 1 .497 2.31.663 4.643.5 7 5.087-.216 6.087 1.618 3 5.5a4.934 4.934 0 0 1-3 .5c.284 3.352 1.45 6.352 3.5 9 .271-3.63 1.938-4.63 5-3 2.06 6.938-.44 9.771-7.5 8.5l-3.5-3.5c-1.096-4.919-2.93-9.419-5.5-13.5 2.319-3.416 3.652-7.249 4-11.5zM482.5 380.5c6.52-1.315 10.02 1.352 10.5 8 .867 5.197.2 10.197-2 15-6.462 4.777-10.462 3.11-12-5-.667-5-.667-10 0-15a30.233 30.233 0 0 1 3.5-3zm2 5c4.57 4.066 5.07 8.733 1.5 14-2.674-4.405-3.174-9.072-1.5-14zM278.5 381.5c5.155 1.338 5.321 3.338.5 6-3.103-1.612-3.27-3.612-.5-6zM311.5 381.5c3.638-.763 5.138.57 4.5 4-4.585 1.913-6.085.579-4.5-4zM384.5 381.5c5.826-.343 8.326 2.324 7.5 8-2.454 1.513-4.121.846-5-2-3.92 5.723-4.753 11.723-2.5 18 2.275-3.903 4.275-3.903 6 0-1.891 5.998-5.391 7.331-10.5 4-3.949-10.204-2.449-19.537 4.5-28zM466.5 382.5c5.355-1.149 8.355 1.017 9 6.5-.234 1.732-1.234 2.566-3 2.5a20.84 20.84 0 0 0-6-3 162.597 162.597 0 0 1-.5 18c-1.333 1.333-2.667 1.333-4 0a100.2 100.2 0 0 1 0-20c1.397-1.57 2.897-2.904 4.5-4zM156.5 383.5c6.023-1.303 9.689 1.03 11 7 .066 1.766-.768 2.766-2.5 3-2.362-.863-3.862-2.53-4.5-5a12.403 12.403 0 0 0-2.5 4c-1.11 5.926-.444 11.592 2 17 1.46-1.966 3.127-3.632 5-5 1.732.234 2.566 1.234 2.5 3-4.522 8.793-9.355 9.126-14.5 1a90.455 90.455 0 0 1 0-19 31.941 31.941 0 0 0 3.5-6zM345.5 383.5c5.892-1.427 10.059.573 12.5 6 .807 5.916.641 11.75-.5 17.5-1.284.684-2.451.517-3.5-.5l-1-14c-1.01-3.434-2.843-4.267-5.5-2.5 1.137 5.082 1.304 10.249.5 15.5-1.333 1.333-2.667 1.333-4 0a68.324 68.324 0 0 0-2.5-17 10.677 10.677 0 0 1 4-5zM176.5 384.5c7.056-.111 10.723 3.389 11 10.5-.412 5.544-3.412 8.377-9 8.5-.67 3.09.497 4.757 3.5 5a18.036 18.036 0 0 0 5-3c3.292 2.45 3.125 4.95-.5 7.5-4.856 2.496-9.022 1.662-12.5-2.5a52.76 52.76 0 0 1-1-19c.653-2.639 1.82-4.973 3.5-7zm3 6c4.316 3.269 3.982 5.935-1 8-.978-2.768-.645-5.434 1-8zM423.5 385.5c9.275.8 13.275 5.966 12 15.5a34.334 34.334 0 0 1-1 8c-1.284.684-2.451.517-3.5-.5a76.404 76.404 0 0 0-2-15c-2.084-2.533-4.084-2.533-6 0l-1 15c-1.333 1.333-2.667 1.333-4 0a124.584 124.584 0 0 1-1-19c2.584-.769 4.75-2.102 6.5-4zM258.5 386.5c3.362-.43 6.195.57 8.5 3 .162 3.957-1.672 4.957-5.5 3-1.345.847-2.345 2.013-3 3.5 7.414-.336 10.581 3.164 9.5 10.5a9.454 9.454 0 0 1-1.5 2.5c-4 .667-8 .667-12 0-2.102-1.733-2.435-3.733-1-6 3.117 1.178 6.45 1.511 10 1a3.647 3.647 0 0 1-1-1.5c-2.866-.708-5.7-1.375-8.5-2-1.546-5.706-.046-10.373 4.5-14zM327.5 386.5c10.582-1.246 14.749 3.421 12.5 14-1.732 5.117-5.232 6.95-10.5 5.5-5.511-6.217-6.177-12.717-2-19.5zm2 5c4.672-.012 6.506 2.322 5.5 7a7.293 7.293 0 0 1-2 3c-2.257-2.938-3.424-6.271-3.5-10zM127.5 388.5c3.715-.304 7.215.363 10.5 2a174.909 174.909 0 0 0 5 14l5 2c.684 1.284.517 2.451-.5 3.5-4.281 1.458-7.447.292-9.5-3.5-.943 2.454-2.776 3.454-5.5 3a22.26 22.26 0 0 1-9.5-3c-2.852-7.25-1.352-13.25 4.5-18zm2 5c2.888-.28 4.388 1.053 4.5 4 1.112 6.924-.888 8.258-6 4-.891-2.998-.391-5.664 1.5-8zM35.5 389.5c1.322-.17 2.489.163 3.5 1l1 17c.29 1.544.956 2.877 2 4a22.72 22.72 0 0 0 3-7c.26-3.75.927-7.416 2-11 1.396-2.027 3.062-2.36 5-1a250.734 250.734 0 0 0 6.5 23.5c-2.102 3.23-4.268 3.063-6.5-.5a43.361 43.361 0 0 1-2-8c-1.239 8.626-5.572 10.959-13 7-2.686-8.206-3.186-16.539-1.5-25zM278.5 389.5c1.322-.17 2.489.163 3.5 1a72.464 72.464 0 0 1 0 17c-1.333 1.333-2.667 1.333-4 0-.788-6.082-.621-12.082.5-18zM397.5 389.5c9.641-.463 13.474 4.204 11.5 14-4.929 9.255-9.596 9.255-14 0-1.194-5.131-.361-9.798 2.5-14zm3 5c.996-.086 1.829.248 2.5 1 2.232 3.299 1.898 6.299-1 9-2.563-3.044-3.063-6.377-1.5-10zM239.5 390.5c4.103-.731 7.603.269 10.5 3 3.432 12.76-.902 16.76-13 12-1.277-3.597-1.61-7.264-1-11 .69-1.85 1.856-3.184 3.5-4zm3 5c.996-.086 1.829.248 2.5 1 .495 1.973.662 3.973.5 6-3.156-.029-4.822-1.696-5-5a31.147 31.147 0 0 0 2-2zM313.5 390.5c1.322-.17 2.489.163 3.5 1a65.838 65.838 0 0 1 1 14c-3.062 1.63-4.729.63-5-3-.762-4.087-.596-8.087.5-12zM334.5 447.5c3.09-.67 4.757.497 5 3.5a173.648 173.648 0 0 1-3.5 15.5 189.984 189.984 0 0 0-9 32c-5.848 2.153-7.848.153-6-6a3389.906 3389.906 0 0 0 13.5-45zM196.5 449.5a40.914 40.914 0 0 1 9 .5c3.792 2.053 4.958 5.219 3.5 9.5a4.933 4.933 0 0 1-2.5 1c-2.078-1.268-3.911-2.934-5.5-5-5.678 10.081-7.344 20.748-5 32a7.293 7.293 0 0 0 2 3 47.662 47.662 0 0 0 7.5-8.5c2.737-1.08 4.404-.246 5 2.5-2.375 8.897-8.042 12.73-17 11.5-4.262-4.456-5.929-9.789-5-16-.474-11.064 2.192-21.23 8-30.5zM268.5 449.5c3.875-.626 5.709 1.041 5.5 5 .667 12 .667 24 0 36-2.267 1.435-4.267 1.102-6-1-13.22 4.351-17.553-.316-13-14a20.924 20.924 0 0 1 4.5-8.5c2.73-.728 5.397-.562 8 .5.32-6.044.653-12.044 1-18zm-5 24c4.19 1.382 5.857 4.382 5 9-2.921-.354-5.254.646-7 3a3.647 3.647 0 0 1-1.5-1c.075-3.95 1.241-7.616 3.5-11zM169.5 451.5c4.568-.417 6.068 1.583 4.5 6a988.209 988.209 0 0 1-30.5 22 3.647 3.647 0 0 0 1 1.5 127.95 127.95 0 0 1 26.5 10.5c1.583 4.6.083 6.434-4.5 5.5a114.466 114.466 0 0 0-25-10 35.978 35.978 0 0 1-8.5-5.5c-.72-1.612-.554-3.112.5-4.5 13.013-7.198 25.013-15.698 36-25.5zM230.5 452.5c13.665-1.503 19.998 4.664 19 18.5-.268 12.1-6.268 19.6-18 22.5-3.122-.603-5.622-2.27-7.5-5-1.969-10.008-1.969-20.008 0-30 1.494-2.814 3.66-4.814 6.5-6zm3 6c2.657-.338 4.99.329 7 2 5.404 10.784 3.071 19.451-7 26a120.519 120.519 0 0 0-4.5-6 47.96 47.96 0 0 1 1-18 37.829 37.829 0 0 1 3.5-4zM291.5 452.5c12.037-.454 16.537 5.213 13.5 17-.935 2.602-2.768 4.102-5.5 4.5a84.902 84.902 0 0 1-13 .5c-.882 8.488 2.785 12.322 11 11.5a20.889 20.889 0 0 0 3.5-6.5c4.846-1.823 6.512-.156 5 5-1.135 6.133-4.801 8.8-11 8-6.582.708-11.249-1.958-14-8-1.524-9.904.143-19.237 5-28 1.5-1.969 3.333-3.302 5.5-4zm3 6c4.499 1.15 5.832 3.816 4 8-3.099 2.136-6.432 2.47-10 1 1.278-3.588 3.278-6.588 6-9zM347.5 460.5a628.234 628.234 0 0 0 34 7.5c3.375 1.029 4.542 3.196 3.5 6.5-12.924 9.879-27.424 16.046-43.5 18.5-1.333-1.667-1.333-3.333 0-5a417.765 417.765 0 0 1 19-7 46.934 46.934 0 0 0 12-7.5l-24-6.5c-2.184-1.898-2.517-4.064-1-6.5z"/></svg>