<svg xmlns="http://www.w3.org/2000/svg" width="512" height="512" style="shape-rendering:geometricPrecision;text-rendering:geometricPrecision;image-rendering:optimizeQuality;fill-rule:evenodd;clip-rule:evenodd"><path style="opacity:.904" fill="#fefffe" d="M76.5 20.5c18.905-1.265 24.905 6.901 18 24.5.115 1.895.781 3.562 2 5 5.311 2.66 10.811 3.16 16.5 1.5 10.695-.813 14.528 3.853 11.5 14a14.984 14.984 0 0 0 3 3.5 267.324 267.324 0 0 0 27 7c4.16 2.443 6.493 6.11 7 11 3.598.154 6.931 1.154 10 3a131.755 131.755 0 0 0 16 11c15.026 3.673 29.026 9.673 42 18 4.578 3.838 7.911 8.505 10 14-.32 1.653-1.32 2.653-3 3-4 .667-8 .667-12 0a133.954 133.954 0 0 0-23.5-7.5c-3.804-.1-6.471 1.566-8 5a47.022 47.022 0 0 0-1.5 12.5 2191.886 2191.886 0 0 0 6.5 84.5c3.544 42.311 17.544 80.644 42 115 21.645 31.977 49.811 56.477 84.5 73.5a374.73 374.73 0 0 0 54.5 18.5 268.614 268.614 0 0 1 24.5-24.5c5.14-2.151 10.14-1.984 15 .5 1.141 1.921 1.308 3.921.5 6a43.99 43.99 0 0 1-9 13c-1.541 1.977-2.041 3.977-1.5 6 6.296.707 12.629.873 19 .5a486.755 486.755 0 0 1 17 4.5 43.145 43.145 0 0 0 5-1.5c1.903-2.405 4.236-4.239 7-5.5 1.951 2.122 4.285 3.622 7 4.5a80.424 80.424 0 0 0 20-.5c13.324.008 17.657 6.342 13 19a42.638 42.638 0 0 1-8 3.5c-11.431.976-21.931 4.476-31.5 10.5-4.874-2.653-10.041-3.486-15.5-2.5a252.92 252.92 0 0 0-24 8c-12.952.627-25.952 2.294-39 5-49.504 4.863-98.171.53-146-13-46.396-15.606-84.896-42.439-115.5-80.5-28.273-38.54-50.273-80.54-66-126a747.778 747.778 0 0 1-18-74 153.695 153.695 0 0 0-10-27c-4.324-20.352 2.843-35.019 21.5-44-3.273-1.097-4.94-3.43-5-7 .703-4.92 3.036-8.754 7-11.5a98.982 98.982 0 0 0 15-5c5.786-6.489 6.286-13.322 1.5-20.5-.667-1.333-.667-2.667 0-4l17-17c.667-1.667.667-3.333 0-5l-9-9c-4.353-8.605-2.52-15.272 5.5-20zm-1 12c.828-6.66 4.494-9.16 11-7.5a18.373 18.373 0 0 1 4 7c-4.989.5-9.989.666-15 .5zm29 26c1.266.59 2.599 1.09 4 1.5-2.195 1.373-4.529 1.706-7 1a81.216 81.216 0 0 0 3-2.5zm1 15c5.855.96 11.189 3.126 16 6.5-1.158 1.009-1.825 2.342-2 4 2.326 4.707.993 6.707-4 6-6.759-3.34-10.092-8.84-10-16.5zm-12 11a40.936 40.936 0 0 1 9 .5l2 2a88.583 88.583 0 0 1-14-1c1.237-.232 2.237-.732 3-1.5zm44 14c-1.358-1.126-2.692-1.126-4 0 1.085 3.273 1.252 6.606.5 10-2.475 3.905-5.142 3.905-8 0-1.538-4.125-4.204-7.125-8-9a3.942 3.942 0 0 0-2 1l-1 5a14.444 14.444 0 0 0-5.5-2.5l-13-1c13.163-3 26.163-6.5 39-10.5l4 .5c-1.516 1.897-2.183 4.064-2 6.5zm0 0c1.406.473 2.073 1.473 2 3-1.406-.473-2.073-1.473-2-3zm-34 51c-6.046 5.188-13.046 8.521-21 10 .213-1.644-.12-3.144-1-4.5a127.545 127.545 0 0 0-16 .5c.312 8.566-3.355 10.399-11 5.5-2.874-2.26-4.874-5.093-6-8.5 1.245-3.143 3.579-5.143 7-6-6.959-4.841-12.459-3.507-16.5 4a54.631 54.631 0 0 0-3 16c-6.635-9.967-4.802-18.133 5.5-24.5a87.214 87.214 0 0 1 16-4.5c1.942 11.987 8.942 16.487 21 13.5 1.054-1.388 1.22-2.888.5-4.5a35.607 35.607 0 0 1-4.5-4 9.433 9.433 0 0 0 3-3 21.574 21.574 0 0 0-7-5.5l1-1a4065.322 4065.322 0 0 0 85-23.5c2.474.035 2.64.702.5 2a40.914 40.914 0 0 0-.5 9 49.369 49.369 0 0 0 11 1c1.683-7.163-.984-11.329-8-12.5a199.152 199.152 0 0 1 37-1c2.888 6.157 1.554 11.824-4 17-16.418 8.138-33.751 13.471-52 16-13.283-.913-25.616 1.921-37 8.5zm121-25c1.935-1.209 3.935-1.042 6 .5 1.711 1.133 2.211 2.633 1.5 4.5-2.128-2.307-4.628-3.974-7.5-5zm-15 196c1.294.79 2.461 1.79 3.5 3a31.294 31.294 0 0 0 3.5 9c1.631-1.559 2.464-3.559 2.5-6 1.61 3.943 4.277 6.943 8 9a192.411 192.411 0 0 0 27 41c.076 4.229 1.409 8.229 4 12 12.022 14.106 27.189 23.273 45.5 27.5-1.981.605-2.315 1.605-1 3 1.284.684 2.451.517 3.5-.5 7.714 11.938 18.548 17.605 32.5 17 1.525 3.691 4.192 6.191 8 7.5a138.174 138.174 0 0 1 20 6c-3.56 2.781-7.56 3.781-12 3a125.73 125.73 0 0 0-21-6 194.712 194.712 0 0 0-24-11c-8.715-1.731-16.715-.231-24 4.5 1.7-1.71 3.033-3.71 4-6-1.687-1.068-3.354-.901-5 .5a62.744 62.744 0 0 1-7 8c-1 .667-2 .667-3 0a90.68 90.68 0 0 1-8-10c-2.559-1.805-5.225-1.972-8-.5-2.821-.574-5.154-1.908-7-4 1.797-1.195 2.797-2.862 3-5a8.43 8.43 0 0 1-4-.5c2.04-2.185 3.374-4.685 4-7.5-10.325-.212-20.325-2.045-30-5.5-7.917-7.689-6.584-10.023 4-7-2.459 2.089-2.459 4.255 0 6.5 6.404 2.788 13.07 3.622 20 2.5a3.647 3.647 0 0 0 1-1.5 117.459 117.459 0 0 0-27-27.5 846.624 846.624 0 0 0-34-18.5c10.904 2.303 14.071-1.697 9.5-12-3.748-7.788-9.915-11.955-18.5-12.5a77.742 77.742 0 0 0-11-10c12.255-.723 15.422-6.556 9.5-17.5a119.887 119.887 0 0 1-12.5-13.5c-.832-.688-1.498-.521-2 .5a9.108 9.108 0 0 1 1 5 31.693 31.693 0 0 0-11-7c-1.758 2.292-2.924 4.959-3.5 8-.265-2.151-1.265-3.818-3-5-5.338 2.327-8.671.66-10-5l-1-12a77.145 77.145 0 0 0-12.5-13c2.308.414 4.642.747 7 1 2.193.174 4.027-.493 5.5-2-.089-6.473-2.589-11.973-7.5-16.5 1.546-1.44 2.379-3.273 2.5-5.5 1.124 6.415 3.957 11.915 8.5 16.5 2.102.283 3.769-.55 5-2.5 4.995 4.441 6.329 3.774 4-2a13.049 13.049 0 0 0 3-4c-3.83-8.496-9.497-15.496-17-21a6.802 6.802 0 0 0-1.5 3c-.712-2.347-1.879-4.347-3.5-6l-1 3.5a133.685 133.685 0 0 1 1.5 10.5c-4.047-1.969-6.047-.636-6 4a94.154 94.154 0 0 0-9 9c-.945-.405-1.612-1.072-2-2a45.98 45.98 0 0 1 .5-12l-1-5a51.064 51.064 0 0 0-5.5 4 52.3 52.3 0 0 0 .5 14 16.873 16.873 0 0 0-8 1c3.764 6.599 8.764 12.099 15 16.5-2.627 2.691-5.627 4.358-9 5a205.677 205.677 0 0 1-5.5-16.5 45.24 45.24 0 0 0-8.5-7.5c2.337-2.593 2.504-5.426.5-8.5a95.067 95.067 0 0 0-8.5-8 153.702 153.702 0 0 1 7-9.5c4.5-.352 7.166 1.814 8 6.5a23.639 23.639 0 0 0-3.5 3c-1.219 5.445-.052 10.278 3.5 14.5 1.544 1.187 3.211 1.52 5 1a72.916 72.916 0 0 0 2-11 94.549 94.549 0 0 1-1.5-12.5c3.095 3.827 6.095 3.827 9 0 .784-3.26.617-6.427-.5-9.5 2.251.207 4.585.373 7 .5a4.934 4.934 0 0 0-.5-3 63.707 63.707 0 0 1-6.5-7 117.8 117.8 0 0 1-9.5-4l-1.5 1.5c2.459 2.108 3.959 4.608 4.5 7.5-1.808-2.343-3.974-3.01-6.5-2 5.878 6.378 5.212 7.378-2 3l-2 1a19.227 19.227 0 0 1 3 5c-2.46-1.378-5.126-2.378-8-3-4.2 2.494-7.034 1.161-8.5-4a18.437 18.437 0 0 1-.5-6h5c-.625-3.47.375-6.304 3-8.5 16.906-1.651 20.406-9.484 10.5-23.5-.687-2.068-.52-4.068.5-6 8.903.988 16.736-1.678 23.5-8a8.43 8.43 0 0 0 .5-4c3.41.043 6.743-.457 10-1.5 2.231-1.277 3.898-3.111 5-5.5a49.87 49.87 0 0 0 16 4c-.643-3.488-2.643-5.988-6-7.5a76.261 76.261 0 0 1 25-6l7-3.5 2 1c4.331 8.978 5.164 18.311 2.5 28 .017-6.308-1.316-6.641-4-1-1.027-11.502-3.694-11.835-8-1-2.108 6.639-1.942 13.139.5 19.5 4.924 1.316 7.59-.517 8-5.5 1.951-.273 3.451.393 4.5 2a191.455 191.455 0 0 1 2.5 12.5 201.927 201.927 0 0 0-2 21.5h3a67.69 67.69 0 0 1-1.5 17l-1-6a3.647 3.647 0 0 0-1.5-1 10.258 10.258 0 0 0-1.5 4c-2.09-6.723-3.59-6.389-4.5 1-.312 3.208.855 4.208 3.5 3 .186 2.4.686 4.734 1.5 7 1.586-1.673 2.253-3.673 2-6 5.782-.675 7.449 1.659 5 7-2.222-.322-4.056.345-5.5 2-1.564 4.632-1.731 9.299-.5 14a4.457 4.457 0 0 0 1.5-2c1.661 4.017 2.828 3.85 3.5-.5a7.297 7.297 0 0 0-2-3.5l3-4a4.457 4.457 0 0 1 1.5 2c3.493 17.971 7.993 35.971 13.5 54a43.722 43.722 0 0 1-4.5 6 18.453 18.453 0 0 0-.5 6c3.131-.592 5.464.408 7 3zm-128-142c3.908-1.298 7.908-1.132 12 .5 1.333 1.667 1.333 3.333 0 5-3.492 3.068-6.825 3.068-10 0 2.251.207 4.585.373 7 .5-1.66-3.686-4.66-5.686-9-6zm-14 5c3.776 1.165 3.943 2.832.5 5-3.086-1.502-3.252-3.169-.5-5zm-1 24c1.59-1.121 3.256-.954 5 .5-1.553 1.303-3.22 1.136-5-.5zm-1 6c1.987.664 3.654 1.831 5 3.5-3.778 1.013-5.445-.154-5-3.5zm-13 5c-1.773-.814-2.273-2.148-1.5-4 1.188 1.063 1.688 2.397 1.5 4zm6 19c3.544 5.093 5.377 10.76 5.5 17-3.522-5.095-5.355-10.762-5.5-17zm-5 3a236.708 236.708 0 0 0 12.5 24 564.786 564.786 0 0 0 5.5 18c-1.974-1.928-3.474-4.261-4.5-7a388.173 388.173 0 0 1-13.5-35zm36 21c.543.06.876.393 1 1-.865 1.083-1.865 1.249-3 .5.916-.278 1.582-.778 2-1.5zm34 17c1.767-1.15 2.933-.483 3.5 2a356.424 356.424 0 0 0 3 15 84.733 84.733 0 0 1 8 10c.788 1.665 1.122 3.331 1 5a1303.663 1303.663 0 0 1-30.5-15c-.215-3.766-1.549-7.1-4-10 1.921-1.141 3.921-1.308 6-.5a69.27 69.27 0 0 0 12.5 5.5c2.627-.575 3.794-2.241 3.5-5-.214-2.752-1.214-5.086-3-7zm-56 8c2.43 3.611 4.097 7.611 5 12-2.43-3.611-4.097-7.611-5-12zm7 17c1.348 1.027 1.848 2.36 1.5 4-1.188-1.063-1.688-2.397-1.5-4zm92 5c1.738 1.619 2.238 3.619 1.5 6a10.098 10.098 0 0 1-1.5-6zm-87 5c1.406.473 2.073 1.473 2 3-1.406-.473-2.073-1.473-2-3zm80 3c1.349-1.297 2.682-1.13 4 .5-1.319.195-2.653.028-4-.5zm-77 2c6.87 6.396 12.036 14.063 15.5 23 5.005 2.992 8.338 7.326 10 13a279.793 279.793 0 0 1 3.5 13c-3.474-3.953-5.64-8.62-6.5-14-8.978-10.598-16.478-22.264-22.5-35zm77 41a214.655 214.655 0 0 0-24-14c2.099.731 4.099.731 6 0a54.71 54.71 0 0 0-11-10.5c1.016-.519 1.682-1.353 2-2.5a18.196 18.196 0 0 0-4-6h3c-.307-1.946-.307-3.613 0-5a43.725 43.725 0 0 1 5.5 3c.63-2.403-.203-4.237-2.5-5.5 6.123.478 12.123 1.812 18 4a28.415 28.415 0 0 0-7.5 4.5c-.379 2.07.455 3.57 2.5 4.5a8.43 8.43 0 0 1-4 .5 4.934 4.934 0 0 0 .5 3 102.18 102.18 0 0 0 7.5 6c-.826.951-.992 1.951-.5 3 5.119 4.149 7.952 9.149 8.5 15zm25 2c-5.365-1.183-10.032-3.683-14-7.5 5.344 1.173 10.01 3.673 14 7.5zm-71 9c2.576 3.123 5.91 4.957 10 5.5a64.77 64.77 0 0 1 6.5 11.5c6.836 6.259 13.336 13.092 19.5 20.5 7.803 1.062 13.136 5.228 16 12.5-9.126-.332-15.959-4.666-20.5-13a167.966 167.966 0 0 1-22-21 197.783 197.783 0 0 1-9.5-16zm38 2c9.38 1.698 18.046 5.031 26 10a4.457 4.457 0 0 1-2 1.5c-7.898 1.316-15.398.15-22.5-3.5a25.84 25.84 0 0 1-5.5-6.5c1.558-.21 2.891-.71 4-1.5zm30 5c.06-.543.393-.876 1-1a50.936 50.936 0 0 0 17 8.5c-7.044.151-13.044-2.349-18-7.5zm14-1c4.067-.294 7.4 1.04 10 4-3.827-.252-7.16-1.585-10-4zm8 31c-3.265.201-5.931-.966-8-3.5 3.214-.095 5.881 1.072 8 3.5zm13 14 3 1.5c-1.657.725-2.657.225-3-1.5zm-27 17a555.645 555.645 0 0 1 28 14.5 430.666 430.666 0 0 1 36 16c19.587 4.928 39.42 6.428 59.5 4.5a48.403 48.403 0 0 0 16.5 4 133.07 133.07 0 0 1 27-.5 162.388 162.388 0 0 1-27 3.5 533.27 533.27 0 0 1-90-13.5c-9.241-2.46-17.908-5.96-26-10.5 2.442.146 3.109-.687 2-2.5a491.607 491.607 0 0 1-26-15.5zm119 4c4.089 4.169 3.589 8.169-1.5 12a17.808 17.808 0 0 0-3.5-5c-1.416 1.639-3.083 2.473-5 2.5 1.94-4.777 5.274-7.944 10-9.5zm80 3a227.079 227.079 0 0 1 32 4.5 31.73 31.73 0 0 1-10.5 1.5c-9.83-.563-19.663-1.063-29.5-1.5 2.141-2.633 4.808-4.133 8-4.5zm-68 1c2.146.196 2.312 1.196.5 3a32.367 32.367 0 0 0-4.5 3c-1.09-.891-1.09-1.891 0-3a173.55 173.55 0 0 0 4-3zm157 2a8.43 8.43 0 0 1 4 .5c-4.882 1.555-9.882 1.888-15 1 3.856-.177 7.523-.677 11-1.5zm-146 5c-.283.789-.783 1.456-1.5 2-.528-1.316-.028-1.983 1.5-2zm-11 2c-.139 1.837-.806 2.17-2 1 .457-.798 1.124-1.131 2-1zm-74 4a95.418 95.418 0 0 1 23 5.5c-8.312.505-15.979-1.329-23-5.5z"/><path style="opacity:.589" fill="#fefffe" d="M176.5 110.5c2.842.028 4.009 1.362 3.5 4a26.813 26.813 0 0 1-7.5 3.5c1.333 2.333.667 3.333-2 3-1.246-5.273.754-8.773 6-10.5z"/><path style="opacity:.685" fill="#fefffe" d="M126.5 119.5c4.06-.015 8.06.485 12 1.5 1.291 2.09.624 3.424-2 4l-6 1.5c-5.789-1.246-11.455-.746-17 1.5-2.826 4.886-4.159 4.386-4-1.5a63.24 63.24 0 0 1 17-7z"/><path style="opacity:.746" fill="#fefffe" d="M98.5 130.5c4.795-.937 8.128.73 10 5-2.722 3.397-6.056 3.897-10 1.5-1.268-2.163-1.268-4.33 0-6.5z"/><path style="opacity:.52" fill="#fefffe" d="M90.5 131.5h3c.116 3.41-1.55 4.744-5 4 .027-1.699.694-3.033 2-4z"/><path style="opacity:.774" fill="#fefffe" d="M103.5 149.5c-4.538.628-8.205-.872-11-4.5a12.93 12.93 0 0 0-5-.5c-.257-6.53 2.743-8.697 9-6.5 5.096 2.242 7.429 6.075 7 11.5z"/><path style="opacity:.472" fill="#fefffe" d="M113.5 174.5c3.81 1.254 3.81 2.254 0 3v-3z"/><path style="opacity:.71" fill="#fefffe" d="M117.5 180.5c4.175 4.875 9.008 9.209 14.5 13 .507 1.496.007 2.663-1.5 3.5 2.107 1.264 3.107 3.097 3 5.5-5.377-.605-9.877-2.939-13.5-7-.21-1.303-.043-2.636.5-4a101.867 101.867 0 0 1-3-11z"/><path style="opacity:.63" fill="#fefffe" d="M130.5 182.5c3.816.59 5.483 2.923 5 7-5.24.104-6.906-2.229-5-7z"/><path style="opacity:.315" fill="#fefffe" d="M166.5 193.5c3.643.619 4.643 2.619 3 6-2.053-1.439-3.053-3.439-3-6z"/><path style="opacity:.732" fill="#fefffe" d="M118.5 204.5a64.77 64.77 0 0 1 14 13c-1.223 1.114-2.556 1.281-4 .5-5.672-1.498-11.005-3.664-16-6.5-1.853-2.708-2.853-5.708-3-9h5c.652-1.225 1.819-1.892 3.5-2 6.79.649 12.623 3.315 17.5 8l-3 1c-4.678-1.674-9.345-3.341-14-5z"/><path style="opacity:.399" fill="#fefffe" d="M169.5 200.5c3.662 1.993 4.996 4.993 4 9-2.865-2.243-4.198-5.243-4-9z"/><path style="opacity:.511" fill="#fefffe" d="M119.5 224.5c4.262 1.227 5.928 3.893 5 8-3.683-1.36-5.35-4.026-5-8z"/><path style="opacity:.501" fill="#fefffe" d="M115.5 225.5h3v4h-4c-.067-1.459.266-2.792 1-4z"/><path style="opacity:.517" fill="#fefffe" d="M155.5 226.5c.997-.03 1.664.47 2 1.5a19.522 19.522 0 0 1 1 7.5h-3v-9z"/><path style="opacity:.804" fill="#fefffe" d="M166.5 227.5c3.85 1.136 5.516 3.803 5 8 1.322-.17 2.489.163 3.5 1 .067 5.541.9 10.875 2.5 16a21.095 21.095 0 0 1-2 7c-1.667 1.333-3.333 1.333-5 0-6.355-9.975-7.689-20.641-4-32z"/><path style="opacity:.511" fill="#fefffe" d="M116.5 237.5c2.599 1.886 3.599 4.552 3 8-1.322.17-2.489-.163-3.5-1-.703-2.429-.537-4.762.5-7z"/><path style="opacity:.562" fill="#fefffe" d="M192.5 265.5c1.193.47 1.86 1.47 2 3-.24 3.514-1.24 3.848-3 1a6.846 6.846 0 0 0 1-4z"/><path style="opacity:.538" fill="#fefffe" d="M144.5 287.5h4c.285 1.788-.048 3.455-1 5-2.256-.921-3.256-2.588-3-5z"/><path style="opacity:.455" fill="#fefffe" d="M162.5 289.5c2.09-.05 3.423.95 4 3-2.919 1.432-4.252.432-4-3z"/><path style="opacity:.622" fill="#fefffe" d="M197.5 294.5c2.403-.107 4.236.893 5.5 3 .499 3.652.665 7.318.5 11h-3c-2.185-4.384-3.185-9.051-3-14z"/><path style="opacity:.53" fill="#fefffe" d="M209.5 320.5a16.873 16.873 0 0 1-1 8 3.647 3.647 0 0 1-1.5-1 24.935 24.935 0 0 1-.5-7h3z"/><path style="opacity:.591" fill="#fefffe" d="M219.5 340.5c4.137-.201 6.47 1.799 7 6-5.162 1.731-7.495-.269-7-6z"/><path style="opacity:.464" fill="#fefffe" d="M227.5 353.5c.709-.904 1.709-1.237 3-1 .374 8.976-.626 9.309-3 1z"/><path style="opacity:.693" fill="#fefffe" d="M232.5 359.5c7.532 3.735 10.865 9.735 10 18-6.454-4.24-9.788-10.24-10-18z"/></svg>