<svg xmlns="http://www.w3.org/2000/svg" width="512" height="512" style="shape-rendering:geometricPrecision;text-rendering:geometricPrecision;image-rendering:optimizeQuality;fill-rule:evenodd;clip-rule:evenodd"><path style="opacity:1" fill="#00014f" d="M393.5 75.5v192h-12v12h-240v-180h12v168h216v-180h12v-12h-204v-12h216v12z"/><path style="opacity:1" fill="#00014f" d="M177.5 75.5v12h-12v-12h12z"/><path style="opacity:1" fill="#0012ff" d="M177.5 75.5h192v12h-192v-12z"/><path style="opacity:1" fill="#575afb" d="M369.5 75.5h12v12h-12v-12z"/><path style="opacity:1" fill="#002" d="M393.5 75.5h12v192h-12v-192z"/><path style="opacity:1" fill="#00014f" d="M165.5 87.5v12h-12v-12h12z"/><path style="opacity:1" fill="#575afb" d="M165.5 87.5h204v12h-204v-12zM153.5 99.5h12v168h-12v-168z"/><path style="opacity:1" fill="#0012ff" d="M165.5 99.5h204v168h-204v-168z"/><path style="opacity:1" fill="#002" d="M345.5 111.5v12h-156v120h-12v-132h168z"/><path style="opacity:1" fill="#575afb" d="M345.5 111.5h12v144h-180v-12h168v-132z"/><path style="opacity:1" d="M345.5 123.5v120h-156v-120h156z"/><path style="opacity:1" fill="#fefffe" d="M265.5 124.5c2.222-.322 4.056.345 5.5 2 .499 3.652.665 7.318.5 11 3.35-.165 6.683.002 10 .5l2.5 2.5c1.977 5.844 2.644 11.844 2 18-1.667 1.333-3.333 1.333-5 0a304.77 304.77 0 0 1-2-13c-1.733-2.102-3.733-2.435-6-1l-1 14c-1.667 1.333-3.333 1.333-5 0a395.089 395.089 0 0 0-2.5-30.5 10.98 10.98 0 0 1 1-3.5zM233.5 125.5c4.659-.485 5.992 1.348 4 5.5-4.772.81-6.105-1.023-4-5.5zM320.5 127.5c1.644-.214 3.144.12 4.5 1 .499 3.652.665 7.318.5 11 11.9-1.24 16.734 4.094 14.5 16-1.589 2.883-4.089 4.383-7.5 4.5-4.317.621-8.484.121-12.5-1.5a164.578 164.578 0 0 1 .5-31zM207.5 129.5a60.931 60.931 0 0 1 11 .5c3.792 2.053 4.958 5.219 3.5 9.5a4.933 4.933 0 0 1-2.5 1 47.622 47.622 0 0 0-6.5-5c-1.261.259-2.261.926-3 2-1.697 4.628-1.864 9.295-.5 14 1.921 1.141 3.921 1.308 6 .5-3.723-1.259-4.723-3.592-3-7a42.479 42.479 0 0 1 13 0c1.85 3.466.85 5.299-3 5.5a18.453 18.453 0 0 1-.5 6 9.454 9.454 0 0 1-2.5 1.5 49.226 49.226 0 0 1-14 0l-1.5-1.5c-1.586-6.557-1.92-13.224-1-20 .904-2.733 2.404-5.067 4.5-7zM246.5 129.5c4.408-.438 6.075 1.562 5 6 3.85.201 4.85 2.034 3 5.5a4.934 4.934 0 0 1-3 .5c-.165 3.35.002 6.683.5 10a14.444 14.444 0 0 0 5.5 2.5c1.926 3.79.76 5.623-3.5 5.5-3.333 0-6-1.333-8-4a98.432 98.432 0 0 1-.5-14c-3.85-.201-4.85-2.034-3-5.5a4.934 4.934 0 0 1 3-.5c-.175-2.121.159-4.121 1-6zM292.5 130.5c1.644-.214 3.144.12 4.5 1l1 18c.81 4.546 2.143 4.88 4 1a164.64 164.64 0 0 0 2-18c1.667-1.333 3.333-1.333 5 0a69.1 69.1 0 0 1 1 20c-4.356 7.494-10.023 8.827-17 4-1.774-8.667-1.94-17.334-.5-26zM233.5 133.5c1.644-.214 3.144.12 4.5 1 .667 7.667.667 15.333 0 23-1.667 1.333-3.333 1.333-5 0a99.585 99.585 0 0 1 .5-24z"/><path style="opacity:1" d="M327.5 145.5c4.137-.201 6.47 1.799 7 6-2.777 2.386-5.777 3.052-9 2-.368-3.033.298-5.7 2-8z"/><path style="opacity:1" fill="#f49b13" d="M199.5 172.5h46v4h-46v-4z"/><path style="opacity:1" fill="#f96981" d="M251.5 172.5h31v4h-31v-4z"/><path style="opacity:1" fill="#6ec8fa" d="M288.5 172.5h31v4h-31v-4z"/><path style="opacity:1" fill="#95f06d" d="M199.5 184.5h98v4h-98v-4z"/><path style="opacity:1" fill="#6ec8fa" d="M209.5 197.5h62v4h-62v-4z"/><path style="opacity:1" fill="#f96981" d="M290.5 197.5h27v4h-27v-4zM200.5 210.5h26v4h-26v-4z"/><path style="opacity:1" fill="#f49b13" d="M240.5 210.5h69v4h-69v-4z"/><path style="opacity:1" fill="#95f06d" d="M200.5 224.5h36v4h-36v-4z"/><path style="opacity:1" fill="#6ec8fa" d="M245.5 224.5h68v4h-68v-4z"/><path style="opacity:1" fill="#00014f" d="M405.5 255.5h24v12h-12v12h-12v12h-12v12h-276v-12h264v-12h12v-12h12v-12z"/><path style="opacity:1" fill="#002" d="M393.5 267.5v12h-12v-12h12z"/><path style="opacity:1" fill="#0012ff" d="M429.5 267.5v12h-12v-12h12z"/><path style="opacity:1" fill="#002" d="M429.5 267.5h12v108h-12v-108zM141.5 279.5h240v12h-240v-12z"/><path style="opacity:1" fill="#0012ff" d="M417.5 279.5v12h-12v-12h12z"/><path style="opacity:1" fill="#00014f" d="M417.5 279.5h12v96h-12v12h-24v-84h12v-12h12v-12z"/><path style="opacity:1" fill="#0012ff" d="M405.5 291.5v12h-12v-12h12z"/><path style="opacity:1" fill="#00014f" d="M117.5 303.5v72h24v12h-12v12h-12v-12h-12v-84h12z"/><path style="opacity:1" fill="#575afb" d="M117.5 303.5h276v12h-264v60h-12v-72z"/><path style="opacity:1" fill="#0012ff" d="M393.5 315.5v60h-264v-60h264z"/><path style="opacity:1" fill="#00014f" d="M369.5 339.5h-96v-12h96v12z"/><path style="opacity:1" fill="#454700" d="M153.5 339.5h24v24h-24v-24z"/><path style="opacity:1" fill="#002" d="M273.5 339.5h96v12h-96v-12z"/><path style="opacity:1" fill="#00014f" d="M333.5 351.5h12v12h-12v-12z"/><path style="opacity:1" fill="#002" d="M141.5 375.5h12v12h-12v-12z"/><path style="opacity:1" fill="#575afb" d="M153.5 375.5h12v12h-12v-12z"/><path style="opacity:1" fill="#00014f" d="M165.5 375.5h12v12h-12v-12z"/><path style="opacity:1" fill="#002" d="M177.5 375.5h12v12h-12v-12z"/><path style="opacity:1" fill="#575afb" d="M189.5 375.5h12v12h-12v-12z"/><path style="opacity:1" fill="#00014f" d="M201.5 375.5h12v12h-12v-12z"/><path style="opacity:1" fill="#002" d="M213.5 375.5h12v12h-12v-12z"/><path style="opacity:1" fill="#575afb" d="M225.5 375.5h12v12h-12v-12z"/><path style="opacity:1" fill="#00014f" d="M237.5 375.5h12v12h-12v-12z"/><path style="opacity:1" fill="#002" d="M249.5 375.5h12v12h-12v-12z"/><path style="opacity:1" fill="#575afb" d="M261.5 375.5h12v12h-12v-12z"/><path style="opacity:1" fill="#00014f" d="M273.5 375.5h12v12h-12v-12z"/><path style="opacity:1" fill="#002" d="M285.5 375.5h12v12h-12v-12z"/><path style="opacity:1" fill="#575afb" d="M297.5 375.5h12v12h-12v-12z"/><path style="opacity:1" fill="#00014f" d="M309.5 375.5h12v12h-12v-12z"/><path style="opacity:1" fill="#002" d="M321.5 375.5h12v12h-12v-12z"/><path style="opacity:1" fill="#575afb" d="M333.5 375.5h12v12h-12v-12z"/><path style="opacity:1" fill="#00014f" d="M345.5 375.5h12v12h-12v-12z"/><path style="opacity:1" fill="#002" d="M357.5 375.5h12v12h-12v-12z"/><path style="opacity:1" fill="#575afb" d="M369.5 375.5h24v12h-24v-12z"/><path style="opacity:1" fill="#002" d="M429.5 375.5v12h-12v-12h12z"/><path style="opacity:1" fill="#00014f" d="M105.5 387.5v12h-12v-12h12z"/><path style="opacity:1" fill="#575afb" d="M105.5 387.5h12v12h-12v-12z"/><path style="opacity:1" fill="#002" d="M141.5 387.5v12h-12v-12h12z"/><path style="opacity:1" fill="#575afb" d="M141.5 387.5h12v12h-12v-12z"/><path style="opacity:1" fill="#00014f" d="M153.5 387.5h12v12h-12v-12z"/><path style="opacity:1" fill="#002" d="M165.5 387.5h12v12h-12v-12z"/><path style="opacity:1" fill="#575afb" d="M177.5 387.5h12v12h-12v-12z"/><path style="opacity:1" fill="#00014f" d="M189.5 387.5h12v12h-12v-12z"/><path style="opacity:1" fill="#002" d="M201.5 387.5h12v12h-12v-12z"/><path style="opacity:1" fill="#575afb" d="M213.5 387.5h12v12h-12v-12z"/><path style="opacity:1" fill="#00014f" d="M225.5 387.5h12v12h-12v-12z"/><path style="opacity:1" fill="#002" d="M237.5 387.5h12v12h-12v-12z"/><path style="opacity:1" fill="#575afb" d="M249.5 387.5h12v12h-12v-12z"/><path style="opacity:1" fill="#00014f" d="M261.5 387.5h12v12h-12v-12z"/><path style="opacity:1" fill="#002" d="M273.5 387.5h12v12h-12v-12z"/><path style="opacity:1" fill="#575afb" d="M285.5 387.5h12v12h-12v-12z"/><path style="opacity:1" fill="#00014f" d="M297.5 387.5h12v12h-12v-12z"/><path style="opacity:1" fill="#002" d="M309.5 387.5h12v12h-12v-12z"/><path style="opacity:1" fill="#575afb" d="M321.5 387.5h12v12h-12v-12z"/><path style="opacity:1" fill="#00014f" d="M333.5 387.5h12v12h-12v-12z"/><path style="opacity:1" fill="#002" d="M345.5 387.5h12v12h-12v-12z"/><path style="opacity:1" fill="#575afb" d="M357.5 387.5h12v12h-12v-12z"/><path style="opacity:1" fill="#00014f" d="M369.5 387.5h24v24h-12v12h-12v-12h-24v-12h24v-12z"/><path style="opacity:1" fill="#002" d="M393.5 387.5h24v12h-12v12h-12v-24z"/><path style="opacity:1" fill="#00014f" d="M93.5 399.5v12h-12v-12h12z"/><path style="opacity:1" fill="#575afb" d="M93.5 399.5h12v12h252v12h-276v-12h12v-12z"/><path style="opacity:1" fill="#00014f" d="M105.5 399.5h12v12h-12v-12z"/><path style="opacity:1" fill="#002" d="M117.5 399.5h12v12h-12v-12z"/><path style="opacity:1" fill="#00014f" d="M129.5 399.5h24v12h-24v-12z"/><path style="opacity:1" fill="#002" d="M153.5 399.5h12v12h-12v-12z"/><path style="opacity:1" fill="#00014f" d="M165.5 399.5h24v12h-24v-12z"/><path style="opacity:1" fill="#002" d="M189.5 399.5h12v12h-12v-12z"/><path style="opacity:1" fill="#00014f" d="M201.5 399.5h24v12h-24v-12z"/><path style="opacity:1" fill="#002" d="M225.5 399.5h12v12h-12v-12z"/><path style="opacity:1" fill="#00014f" d="M237.5 399.5h24v12h-24v-12z"/><path style="opacity:1" fill="#002" d="M261.5 399.5h12v12h-12v-12z"/><path style="opacity:1" fill="#00014f" d="M273.5 399.5h24v12h-24v-12z"/><path style="opacity:1" fill="#002" d="M297.5 399.5h12v12h-12v-12z"/><path style="opacity:1" fill="#00014f" d="M309.5 399.5h24v12h-24v-12z"/><path style="opacity:1" fill="#002" d="M333.5 399.5h12v12h-12v-12z"/><path style="opacity:1" fill="#00014f" d="M81.5 411.5v24h-12v-24h12z"/><path style="opacity:1" fill="#0012ff" d="M357.5 411.5h12v12h-12v-12z"/><path style="opacity:1" fill="#002" d="M393.5 411.5v12h-12v-12h12z"/><path style="opacity:1" fill="#0012ff" d="M81.5 423.5h276v12h-276v-12z"/><path style="opacity:1" fill="#00014f" d="M357.5 423.5h12v12h-12v-12z"/><path style="opacity:1" fill="#002" d="M369.5 423.5h12v12h-12v-12zM81.5 435.5h288v12h-288v-12z"/></svg>