<svg xmlns="http://www.w3.org/2000/svg" width="438" height="430" style="shape-rendering:geometricPrecision;text-rendering:geometricPrecision;image-rendering:optimizeQuality;fill-rule:evenodd;clip-rule:evenodd"><path style="opacity:1" fill="#de7125" d="M10.5-.5h4a84.937 84.937 0 0 1-.5 13 435.207 435.207 0 0 1-3.5 13 487.428 487.428 0 0 1 30 5.5c.95.718 1.117 1.55.5 2.5-3.408 1.122-6.908 1.289-10.5.5a117.147 117.147 0 0 0-22-4.5 86.76 86.76 0 0 0-5.5 24c-1.011.837-2.178 1.17-3.5 1v-8a569.974 569.974 0 0 1 9.5-32 57.343 57.343 0 0 0 1.5-15zM51.5 5.5c1.495-.085 2.495.581 3 2-5.437 18.259-9.77 36.592-13 55a3.646 3.646 0 0 1-1.5-1 85.56 85.56 0 0 1 2-24 143.374 143.374 0 0 1 9.5-32zM196.5 18.5c8.673-.166 17.34 0 26 .5 1.333 1 1.333 2 0 3-4.655.5-9.321.666-14 .5a528.19 528.19 0 0 0-4.5 32 24.91 24.91 0 0 1-2.5 8.5l16 1c1.333 1 1.333 2 0 3-7.667.667-15.333.667-23 0a3.647 3.647 0 0 1-1-1.5 64.489 64.489 0 0 0 4.5-4 1326.5 1326.5 0 0 1 6.5-39 32.438 32.438 0 0 1-8-.5c-1.184-1.145-1.184-2.312 0-3.5zM325.5 18.5c3.757-.43 7.257.238 10.5 2 1.926 6.622.426 7.455-4.5 2.5-1.333-.667-2.667-.667-4 0-4.297 5.67-5.464 11.836-3.5 18.5 3.405 1.027 6.571 2.36 9.5 4-2.686 1.774-5.686 3.107-9 4l-2.5 3c-2.1 6.954-1.933 13.788.5 20.5 10.429 4.404 14.929 1.238 13.5-9.5.718-.95 1.551-1.117 2.5-.5 1.804 3.296 2.304 6.796 1.5 10.5-1.109 2.315-2.943 3.815-5.5 4.5-4 .667-8 .667-12 0-3.163-1.48-4.996-3.98-5.5-7.5a55.634 55.634 0 0 1 1-19 15.875 15.875 0 0 1 3.5-5.5c-4.685-9.895-3.352-19.062 4-27.5zM86.5 28.5c1.846-.278 3.18.389 4 2-2.939 10.104-4.105 20.437-3.5 31 1.05 1.017 2.216 1.184 3.5.5.979-2.137 2.312-3.97 4-5.5 2.66 3.571 1.993 6.738-2 9.5-3.493 1.004-6.66.504-9.5-1.5-1.288-12.332-.121-24.332 3.5-36zM350.5 28.5c1.984-.016 2.984.984 3 3a188.85 188.85 0 0 0-3.5 41c1.375 3.11 3.542 4.11 6.5 3a42.758 42.758 0 0 0 1.5-9c1.587-1.227 2.921-.894 4 1 1.385 11.626-3.281 15.293-14 11-1.842-3.254-2.675-6.754-2.5-10.5.65-8.49 1.15-16.99 1.5-25.5.236-4.945 1.403-9.612 3.5-14zM101.5 29.5c.996-.086 1.829.248 2.5 1a160.062 160.062 0 0 1-1 32c3.049 2.9 5.049 2.234 6-2 .718-.95 1.551-1.117 2.5-.5 1.297 7.028-1.703 9.694-9 8L99 64.5c.833-11.644 1.666-23.31 2.5-35zM60.5 35.5c6.413-.753 9.413 2.08 9 8.5-.532 6.03-3.865 9.197-10 9.5-.273 1.951.393 3.451 2 4.5 3.213.703 6.38.536 9.5-.5 3.12 1.093 3.287 2.593.5 4.5a42.498 42.498 0 0 1-13 0c-2.394-1.952-3.894-4.452-4.5-7.5a42.498 42.498 0 0 1 0-13c1.436-2.942 3.603-4.942 6.5-6zm1 4c1.956.622 3.289 1.955 4 4a21.52 21.52 0 0 1-5 6 8.905 8.905 0 0 1-3-4 372.177 372.177 0 0 0 4-6zM124.5 40.5c12.475.417 18.808 6.917 19 19.5 1.411 5.653-.589 9.32-6 11-3 .667-6 .667-9 0-8.141-6.426-10.974-14.592-8.5-24.5a40.775 40.775 0 0 1 4.5-6zm3 4c10.757 3.399 14.424 10.565 11 21.5-4.633 2.607-8.467 1.774-11.5-2.5-3.588-4.987-4.588-10.32-3-16a30.155 30.155 0 0 1 3.5-3zM269.5 48.5c4.078-.24 6.244 1.76 6.5 6a64.218 64.218 0 0 1 0 16c-1 1.333-2 1.333-3 0a93.205 93.205 0 0 0-2-17 87.443 87.443 0 0 0-6 11 3.942 3.942 0 0 1-2 1 24.865 24.865 0 0 1-5-8 59.854 59.854 0 0 0-2 14c-.718.95-1.551 1.117-2.5.5-1.872-7.135-2.038-14.302-.5-21.5 1.049-1.017 2.216-1.184 3.5-.5a35.077 35.077 0 0 1 7.5 6.5 50.756 50.756 0 0 1 5.5-8zM369.5 49.5c1.193.47 1.86 1.47 2 3-1.481 5.885-3.481 6.219-6 1 .691-2.391 1.691-2.391 3 0 .929-1.189 1.262-2.522 1-4zM381.5 50.5c3.185-.48 6.019.186 8.5 2 .612 1.737-.054 2.737-2 3-1.44-.648-2.94-.98-4.5-1a16.597 16.597 0 0 0-.5 7c7.046 5.329 9.379 12.329 7 21-4.069 2.469-8.069 2.136-12-1-1.505-1.798-1.672-3.632-.5-5.5.667-.667 1.333-.667 2 0a17.833 17.833 0 0 0 5.5 4.5c2.038-4.1 1.705-8.1-1-12-5.167-3.266-6.833-7.933-5-14a16.578 16.578 0 0 1 2.5-4zM230.5 54.5a60.94 60.94 0 0 1 11 .5 11.532 11.532 0 0 1 3.5 4.5c.268 4.043 1.268 7.71 3 11-2.994 1.39-4.994.39-6-3-4.889 3.829-9.556 3.496-14-1-1.112-4.481-.279-8.481 2.5-12zm3 4c3.408-.672 6.075.328 8 3-1.974 3.67-4.974 4.837-9 3.5-1.409-2.464-1.076-4.63 1-6.5z"/><path style="opacity:1" fill="#de7125" d="M397.5 55.5c9.703-.12 13.203 4.547 10.5 14-2.807 3.058-6.307 4.725-10.5 5a40.935 40.935 0 0 0 5 7 26.598 26.598 0 0 0 2-3.5c.949-.617 1.782-.45 2.5.5.812 6.501-2.021 8.668-8.5 6.5-7.101-8.524-8.267-17.69-3.5-27.5.995-.566 1.828-1.233 2.5-2zm2 5c5.037.742 6.204 3.408 3.5 8-3.282 1.411-5.116.245-5.5-3.5.019-1.833.685-3.333 2-4.5z"/><path style="opacity:1" fill="#de7125" d="M413.5 56.5c.996-.086 1.829.248 2.5 1l1 16a4.458 4.458 0 0 0 1.5 2c3.665-4.482 5.165-9.482 4.5-15 1.587-1.227 2.921-.894 4 1a152.21 152.21 0 0 0 3.5 22.5c-2.016 11.974-9.016 16.307-21 13-3.789-.582-6.456-2.582-8-6 1.412-3.175 3.079-3.175 5 0 4.43 2.27 9.097 2.937 14 2 6.337-4.702 7.503-10.536 3.5-17.5-1.077 4.615-3.91 6.115-8.5 4.5l-1.5-1.5c-1.718-7.346-1.885-14.68-.5-22zM367.5 59.5c.996-.086 1.829.248 2.5 1a100.2 100.2 0 0 1 0 20c-1 1.333-2 1.333-3 0-.795-7.08-.628-14.08.5-21zM148.5 65.5c2.786.456 4.119 2.123 4 5-.006 3.357-1.506 5.69-4.5 7-1.28-.114-2.113-.78-2.5-2a19.975 19.975 0 0 0 3-4.5c-1.255-1.887-1.255-3.72 0-5.5zM261.5 97.5c.996-.086 1.829.248 2.5 1a14.72 14.72 0 0 0 1.5 5c5.356-1.747 9.856-.414 13.5 4 5.232 9.491 6.566 19.491 4 30-5.587 5.044-12.087 8.377-19.5 10-1.299-.59-2.132-1.59-2.5-3a374.473 374.473 0 0 1 .5-47zm7 9c2.868.355 5.201 1.688 7 4 5.154 8.671 5.821 17.504 2 26.5a55.75 55.75 0 0 1-13 5.5v-35c1.599.268 2.932-.066 4-1zM-.5 150.5v-5c3.89-13.984 6.724-28.317 8.5-43 1-1.333 2-1.333 3 0a200.799 200.799 0 0 1-8 48c-1.145 1.184-2.312 1.184-3.5 0zM13.5 102.5c5.7-.188 11.366.145 17 1 2.83.048 5.163 1.048 7 3-.5 1.381-1.5 2.047-3 2a149.57 149.57 0 0 0-21-2.5c-1.184-1.145-1.184-2.312 0-3.5zM353.5 112.5c2.45.374 3.45 1.874 3 4.5a99.596 99.596 0 0 0-1 26.5c2.964 1.621 4.964.788 6-2.5.667-.667 1.333-.667 2 0 1.518 2.925.851 5.258-2 7-3.704.804-7.204.304-10.5-1.5-1.174-11.539-.341-22.873 2.5-34zM127.5 113.5c.996-.086 1.829.248 2.5 1a15.967 15.967 0 0 0 .5 7c2.387.412 4.387 1.412 6 3-.848 1.491-2.181 2.158-4 2-2.012-.34-4.012-.673-6-1-.592 5.605.241 10.939 2.5 16 .804 1.304 1.971 1.971 3.5 2 5.146-4.369 6.812-3.202 5 3.5-7.117 1.858-11.951-.642-14.5-7.5a84.902 84.902 0 0 1-.5-13 24.935 24.935 0 0 1-7-.5c-1.333-1-1.333-2 0-3a34.251 34.251 0 0 0 8-1.5l4-8zM336.5 113.5c6.088.639 8.755 4.139 8 10.5-1.132 6.165-4.632 8.665-10.5 7.5.019 2.744.686 5.411 2 8 1.687-3.949 3.187-3.949 4.5 0-2.407 4.987-5.573 5.32-9.5 1-2.707-6.828-3.041-13.828-1-21 1.436-2.942 3.603-4.942 6.5-6zm2 4c1.59 3.662.923 6.995-2 10l-3-3c.953-2.93 2.62-5.263 5-7zM221.5 114.5c.996-.086 1.829.248 2.5 1 .363 7.343.863 14.677 1.5 22l-1 5c-3.653 1.264-7.32 1.264-11 0-2.738-4.684-2.405-9.184 1-13.5a18.453 18.453 0 0 1 6-.5 53.805 53.805 0 0 1 1-14zm-4 18c3.764.885 4.764 3.052 3 6.5-5.108-.053-6.108-2.219-3-6.5zM195.5 117.5c2.276.256 3.443 1.59 3.5 4 4.394-1.422 7.728-.089 10 4 1.394 5.677 1.56 11.344.5 17-.774 1.211-1.607 1.211-2.5 0a461.346 461.346 0 0 0-2-15c-.991-1.439-2.324-2.439-4-3-1.267 2.474-2.101 5.141-2.5 8a39.654 39.654 0 0 1 1 11h-4c-1.015-8.783-1.015-17.45 0-26zM304.5 117.5c1.911.074 3.078 1.074 3.5 3a110.96 110.96 0 0 1 6 17 74.054 74.054 0 0 0 8.5-18c1.342-1.505 3.008-2.172 5-2a104.495 104.495 0 0 1-11.5 26c-1.938 1.36-3.604 1.027-5-1a230.266 230.266 0 0 0-7-20c-.64-1.765-.473-3.432.5-5zM181.5 118.5c6.268-.563 9.601 2.271 10 8.5-.399 6.229-3.732 9.063-10 8.5-.214 1.644.12 3.144 1 4.5l7 1c1.333 1 1.333 2 0 3-10.353 3.147-15.353-.686-15-11.5a33.82 33.82 0 0 1 3.5-12 19.602 19.602 0 0 0 3.5-2zm2 4c5.506 3.514 5.173 6.514-1 9-2 0-3-1-3-3 .366-2.756 1.7-4.756 4-6zM96.5 119.5c2.276.256 3.443 1.59 3.5 4 4.108-4.22 7.775-3.887 11 1a40.398 40.398 0 0 1 1.5 12 57.782 57.782 0 0 1-1 10.5c-.949.617-1.782.451-2.5-.5a151.67 151.67 0 0 0-2-20c-2.234-1.205-3.901-.539-5 2a164.64 164.64 0 0 0-2 18c-1 1.333-2 1.333-3 0-1.042-9.067-1.209-18.067-.5-27zM289.5 121.5c4.633-1.042 7.799.625 9.5 5 2.654 7.696.154 12.363-7.5 14 4.037 4.226 7.371 3.726 10-1.5 1.737-.612 2.737.054 3 2-.252 2.809-1.585 4.809-4 6-3 .667-6 .667-9 0-2.315-1.109-3.815-2.943-4.5-5.5-1.219-5.907-1.219-11.907 0-18 .995-.566 1.828-1.233 2.5-2zm2 4c3.895 2.126 4.895 5.293 3 9.5a8.43 8.43 0 0 1-4 .5 34.163 34.163 0 0 1 1-10zM423.5 121.5c2.301.56 4.634 1.06 7 1.5 1.537 1.11 2.203 2.61 2 4.5 1.846-.278 3.18.389 4 2-2.205 2.553-4.538 2.553-7 0a6.802 6.802 0 0 1-1.5-3l-1 1-1 17c-.718.951-1.551 1.117-2.5.5a70.329 70.329 0 0 1 0-23.5zM11.5 122.5c6.675-.166 13.342 0 20 .5 1.333 1 1.333 2 0 3a100.2 100.2 0 0 1-20 0c-1.184-1.145-1.184-2.312 0-3.5zM40.5 122.5c2.585.572 5.251.739 8 .5a70.068 70.068 0 0 0 5 11.5c-2.902 2.762-5.069 2.095-6.5-2a12.935 12.935 0 0 1-.5-5h-3a80.886 80.886 0 0 1-1.5 20c-1 1.333-2 1.333-3 0a202.035 202.035 0 0 1 1.5-25zM71.5 123.5c6.69-1.378 10.523 1.289 11.5 8 1.588 6.662.088 12.495-4.5 17.5-4.27 1.008-8.27.508-12-1.5a50.501 50.501 0 0 1 0-20c1.554-1.593 3.22-2.926 5-4zm1 4c1.644-.214 3.144.12 4.5 1 3.484 5.455 3.318 10.788-.5 16-1.545.952-3.212 1.285-5 1a86.82 86.82 0 0 1-2-9.5c-.45-3.439.55-6.272 3-8.5zM405.5 124.5c7.299-1.129 10.465 1.871 9.5 9-2.025 3.039-4.859 4.705-8.5 5 2.459 6.418 5.126 6.585 8 .5.949-.617 1.782-.451 2.5.5 1.271 3.666.104 6.166-3.5 7.5-4.923.955-8.423-.879-10.5-5.5-1.195-6.075-.361-11.741 2.5-17zm2 4c2.987.448 3.987 1.948 3 4.5-1.444.781-2.777.614-4-.5a6.846 6.846 0 0 0 1-4zM390.5 127.5c7.695-.801 11.362 2.699 11 10.5.195 2.352-.472 4.352-2 6a34.041 34.041 0 0 0-7.5 1.5l-1 14c-1 1.333-2 1.333-3 0-.667-10-.667-20 0-30 .995-.566 1.828-1.233 2.5-2zm2 4c.996-.086 1.829.248 2.5 1 1.61 2.439 2.444 5.106 2.5 8h-6c-.236-3.109.097-6.109 1-9zM369.5 128.5c8.767-1.065 12.767 2.768 12 11.5 1.53 5.77-.636 8.603-6.5 8.5-6.847-.313-10.014-3.98-9.5-11-.515-3.96.818-6.96 4-9zm1 5c2.321-.271 4.321.396 6 2a16.873 16.873 0 0 1 1 8 9.86 9.86 0 0 1-6-1c-1.143-3.121-1.477-6.121-1-9zM155.5 131.5c2.357-.163 4.69.003 7 .5.457.414.791.914 1 1.5-1.214 1.569-2.881 2.402-5 2.5a16.242 16.242 0 0 1-8 0c-1.333-1-1.333-2 0-3 1.882-.198 3.548-.698 5-1.5zM334.5 169.5c6.352 1.52 10.185 5.52 11.5 12 1.035 6.855.368 13.522-2 20-1.389 1.727-3.056 3.061-5 4-1.28-.113-2.113-.78-2.5-2 6.58-7.832 7.746-16.499 3.5-26a21.53 21.53 0 0 0-6-5c-.47-1.077-.303-2.077.5-3zM168.5 173.5c.996-.086 1.829.248 2.5 1 .498 3.317.665 6.65.5 10 4.303-.704 7.803.63 10.5 4 .658 3.525-.509 6.359-3.5 8.5-3.591.789-7.091.622-10.5-.5-.798-7.746-.631-15.413.5-23zm3 15c2.556-.368 4.556.466 6 2.5a3.943 3.943 0 0 1-1 2 12.93 12.93 0 0 1-5 .5v-5zM221.5 174.5c.996-.086 1.829.248 2.5 1l1 6c9.524-5.145 12.024-2.645 7.5 7.5a109.816 109.816 0 0 0 5 8.5c-.535 1.601-1.535 2.101-3 1.5a109.442 109.442 0 0 0-6.5-7.5c-.429-2.169.071-4.169 1.5-6-1.561-.847-3.061-.514-4.5 1l-1 12c-1 1.333-2 1.333-3 0a99.585 99.585 0 0 1 .5-24zM306.5 174.5c.996-.086 1.829.248 2.5 1a121.19 121.19 0 0 1 0 22c-3.183 2.023-6.683 2.523-10.5 1.5-3.434-1.529-5.1-4.196-5-8-.092-2.814.908-5.147 3-7a40.914 40.914 0 0 1 9-.5c-.236-3.109.097-6.109 1-9zm-8 13c5.829-.5 8.163 2.166 7 8-6.728.85-9.061-1.816-7-8zM328.5 176.5c3.85.201 4.85 2.034 3 5.5-5.211.546-6.211-1.287-3-5.5zM25.5 177.5c.996-.086 1.83.248 2.5 1 .5 5.657.666 11.324.5 17 5.275 1.544 5.109 3.211-.5 5-1.261-.259-2.261-.926-3-2-.794-7.08-.628-14.08.5-21zM76.5 178.5c3.36.703 3.694 2.037 1 4-2.142-.937-2.476-2.27-1-4zM133.5 178.5c1.884.212 3.217 1.212 4 3 3.403-1.687 6.236-1.02 8.5 2 .799 4.587.632 9.087-.5 13.5-.949.617-1.782.451-2.5-.5l-1-11c-1.779-.979-3.445-.646-5 1l-1 11c-1 1.333-2 1.333-3 0-.79-6.415-.624-12.748.5-19zM275.5 179.5c2.276.256 3.443 1.59 3.5 4 7.166-1.685 10.666 1.315 10.5 9a17.142 17.142 0 0 1-1 5.5c-.949.617-1.782.451-2.5-.5l-1-9c-1.888-2.422-3.888-2.422-6 0l-1 9c-1 1.333-2 1.333-3 0-.788-6.082-.621-12.082.5-18zM207.5 180.5c2.292-.256 4.459.077 6.5 1 .767 3.403-.399 4.403-3.5 3-2.133 2.628-2.466 5.461-1 8.5 1.964.624 3.631.124 5-1.5 2.157 1.466 2.49 3.3 1 5.5-4.347 2.661-7.847 1.828-10.5-2.5-1.194-5.131-.361-9.798 2.5-14zM259.5 180.5c3.507-.506 6.674.16 9.5 2 1.121 4.71-.712 7.377-5.5 8 .249 4.322 1.916 5.322 5 3 2.883 3.166 2.049 5.166-2.5 6-5.817-2.069-8.317-6.236-7.5-12.5a26.045 26.045 0 0 1 1-6.5zm3 3c3.361.703 3.694 2.037 1 4-2.142-.937-2.476-2.27-1-4zM8.5 181.5c3.46.12 6.626.454 9.5 1l1 10a32.087 32.087 0 0 0 3.5 4c-2.204 2.553-4.538 2.553-7 0-9.63 4.534-13.797 1.534-12.5-9 1.36-2.523 3.193-4.523 5.5-6zm2 4c2.97 1.529 3.636 3.862 2 7-4.926 3.252-6.76 1.919-5.5-4a30.218 30.218 0 0 1 3.5-3zM121.5 182.5c.996-.086 1.829.248 2.5 1l1 9c1.324 2.041 2.324 4.041 3 6-2.776 1.64-4.776.973-6-2-2.995 2.765-6.495 3.598-10.5 2.5-2.74-3.724-3.574-7.891-2.5-12.5 3.667-2.667 7.333-2.667 11 0 .41-1.401.91-2.734 1.5-4zm-8 6c4.263.24 5.597 2.24 4 6a6.846 6.846 0 0 1-4 1c-.938-2.41-.938-4.744 0-7zM195.5 182.5c.996-.086 1.829.248 2.5 1 .113 4.723 1.113 9.056 3 13-2.044 1.272-3.878.939-5.5-1-2.708 1.936-5.708 2.436-9 1.5-2.434-3.716-2.601-7.549-.5-11.5 2.5-2.036 5.167-2.37 8-1 .717-.544 1.217-1.211 1.5-2zm-5 5c1.149.291 1.816 1.124 2 2.5-.698 4.032-2.031 4.365-4 1a11.803 11.803 0 0 1 2-3.5zM94.5 183.5c3.298-.484 5.964.516 8 3-.387 1.22-1.22 1.887-2.5 2-3.677-1.502-5.177-.168-4.5 4 .55 5.107 2.883 6.107 7 3 2.755 2.261 2.422 4.094-1 5.5-4.172 1.291-7.339.124-9.5-3.5-1.282-5.205-.449-9.872 2.5-14zM36.5 184.5c2.477-.449 4.477.217 6 2-.88 1.471-2.214 2.304-4 2.5 3.868 2.162 5.368 5.328 4.5 9.5-2.915 2.634-5.748 2.634-8.5 0 1.214-1.569 2.88-2.402 5-2.5-5.149-2.94-6.149-6.774-3-11.5zM48.5 184.5c6.206-.632 9.54 2.201 10 8.5-1.5 6.335-5 7.835-10.5 4.5-2.142-4.511-1.975-8.844.5-13zm2 4c3.905 1.465 4.572 3.798 2 7-1.671-2.01-2.338-4.343-2-7zM76.5 184.5c.996-.086 1.83.248 2.5 1 .667 5 .667 10 0 15-1 1.333-2 1.333-3 0-.781-5.417-.615-10.75.5-16zM242.5 186.5a60.931 60.931 0 0 1 11 .5c1.333 1 1.333 2 0 3a30.485 30.485 0 0 1-11 0c-1.184-1.145-1.184-2.312 0-3.5zM328.5 190.5c4.828-.115 6.161 2.052 4 6.5-4.709.082-6.042-2.085-4-6.5z"/><path style="opacity:1" fill="#d8a065" d="M218.5 239.5c1.89-.203 3.39.463 4.5 2l1 10a57.211 57.211 0 0 1 8-3c1.28.113 2.113.78 2.5 2a31.297 31.297 0 0 1-11 6 75.963 75.963 0 0 0 4 11c7.534 1.973 9.867-.527 7-7.5 1.093-3.12 2.593-3.287 4.5-.5 2.758 10.578-1.409 14.745-12.5 12.5-1.833-.5-3-1.667-3.5-3.5a82.093 82.093 0 0 1-3.5-12c-2.477.449-4.477-.217-6-2 1.523-1.783 3.523-2.449 6-2 .53-3.897-.47-7.23-3-10a185.977 185.977 0 0 0 2-3zM199.5 246.5c.996-.086 1.829.248 2.5 1a148.272 148.272 0 0 0 12 26c.783 1.819.283 3.152-1.5 4-3.39-3.905-6.223-8.238-8.5-13-1.327 2.631-2.66 5.298-4 8-2.579 1.847-5.412 2.347-8.5 1.5-6.287-7.3-9.12-15.8-8.5-25.5 1-1.333 2-1.333 3 0a207.074 207.074 0 0 0 4 16c.782 2.576 2.282 4.576 4.5 6 5.885-6.024 7.218-13.024 4-21a10.014 10.014 0 0 1 1-3zM160.5 248.5a84.902 84.902 0 0 1 13 .5 15.83 15.83 0 0 1 5.5 3.5c2.538 7.9 2.871 15.9 1 24-8.056 5.923-15.389 4.923-22-3-1.544-6.584-1.877-13.251-1-20 .257-2.407 1.424-4.073 3.5-5zm1 4c4.706-.415 9.206.252 13.5 2 2.661 6.961 2.828 13.961.5 21-10.947 1.993-15.947-2.673-15-14a81.83 81.83 0 0 1 1-9zM100.5 252.5c1.911.074 3.078 1.074 3.5 3a60.181 60.181 0 0 1 3.5 16c4.54-1.651 9.207-2.151 14-1.5 2.642 4.446 1.642 8.113-3 11 3.957 1.289 6.457 3.789 7.5 7.5a3.943 3.943 0 0 1-2 1c-3.4-2.286-6.9-4.452-10.5-6.5a14.972 14.972 0 0 1-3-3.5 46.725 46.725 0 0 1 8-5c-3.674-.669-7.007.331-10 3a60.422 60.422 0 0 1 2.5 17c-.718.951-1.551 1.117-2.5.5a861.396 861.396 0 0 0-9-40c.243-.902.577-1.735 1-2.5zM33.5 273.5c.996-.086 1.83.248 2.5 1a608.683 608.683 0 0 0 3 23c1.996-1.559 4.33-2.226 7-2a20.08 20.08 0 0 1 6 1 53.868 53.868 0 0 1 3.5 16c.312 3.208-.855 4.208-3.5 3a265.425 265.425 0 0 1-2.5-16c-3.206-.376-5.873.624-8 3a46.12 46.12 0 0 0-2.5 14c-1 1.333-2 1.333-3 0a6921.909 6921.909 0 0 0-3.5-37.5 19.797 19.797 0 0 1 1-5.5zM80.5 276.5c3.606-.289 7.106.044 10.5 1 .884 2.141.384 3.807-1.5 5-1.673-1.586-3.673-2.253-6-2a191.62 191.62 0 0 1-2 9.5 42.878 42.878 0 0 0 2 8c1.735.651 3.402.485 5-.5a89.277 89.277 0 0 0 6-8c1.38.5 2.047 1.5 2 3-2.126 9.307-7.626 12.307-16.5 9-3.405-8.416-3.239-16.75.5-25zM61.5 285.5c11.437-.631 14.603 4.369 9.5 15-2.266 1.456-4.766 2.29-7.5 2.5 2.428 2.703 5.262 3.537 8.5 2.5 1.419-6.321 2.919-6.487 4.5-.5.146 2.034-.52 3.701-2 5-13.67.651-19.17-5.849-16.5-19.5a27.251 27.251 0 0 1 3.5-5zm4 4c5.031 2.399 5.031 5.066 0 8a8.902 8.902 0 0 1-4-3c1.761-1.417 3.094-3.083 4-5zM9.5 288.5c3.757-.429 7.257.237 10.5 2 .726 5.219-.774 6.053-4.5 2.5a8.43 8.43 0 0 0-4-.5c-.179 2.106-1.179 3.772-3 5-1.333 4-1.333 8 0 12a36.168 36.168 0 0 0 7 4 8.902 8.902 0 0 0 4-3c.453-2.065 1.453-3.732 3-5 3.472 7.682.805 11.682-8 12-8.618.049-12.951-4.285-13-13-.478-7.045 2.189-12.378 8-16zM184.5 296.5c4.74-.108 8.073 2.058 10 6.5-1.675 3.209-3.342 3.043-5-.5-1.189-.929-2.522-1.262-4-1-1.299 5.342-.465 10.342 2.5 15a20.226 20.226 0 0 0 8.5-4c1 .333 1.667 1 2 2-2.29 3.145-5.29 5.312-9 6.5 2.877 4.1 5.044 8.6 6.5 13.5.963 4.726-.37 5.726-4 3a64.902 64.902 0 0 0-6-14c-1.525.388-3.192.388-5 0-.63-2.403.203-4.237 2.5-5.5-2.399-5.23-3.232-10.73-2.5-16.5a27.241 27.241 0 0 1 3.5-5zM163.5 302.5c5.729-.469 10.063 1.698 13 6.5-.113 1.28-.78 2.113-2 2.5-2.113-2.286-4.613-3.952-7.5-5a31.41 31.41 0 0 0 1 13 3.943 3.943 0 0 0 2 1l4-2c1.28.113 2.113.78 2.5 2a36.382 36.382 0 0 1-6 5.5 287.387 287.387 0 0 0 7 14.5c-.333 1-1 1.667-2 2-4.12-4.309-7.287-9.309-9.5-15-1.113-1.211-2.28-1.211-3.5 0-2.468-2.491-1.802-4.324 2-5.5-2.023-6.436-2.356-12.936-1-19.5zM136.5 312.5c2.388.719 3.888 2.385 4.5 5 .965 6.877 3.298 13.21 7 19a3.647 3.647 0 0 1 1.5-1c1.3-6.24.967-12.406-1-18.5-.062-2.965 1.105-3.798 3.5-2.5a192.131 192.131 0 0 0 10 21c.38 4.143-.953 4.81-4 2l-3-6c.631 5.364-1.703 8.364-7 9-2.151-.143-3.818-1.143-5-3-4.238-7.959-6.405-16.292-6.5-25zM97.5 313.5c2.948-.277 5.781.056 8.5 1 .617.949.451 1.782-.5 2.5l-6 1-4 4c3.353 4.521 7.687 7.854 13 10 4.652 4.536 6.152 10.036 4.5 16.5-1.26 2.928-3.427 4.761-6.5 5.5-5.926 1.11-11.592.444-17-2-3.286-3.794-3.62-7.627-1-11.5 1.71 3.571 4.044 6.737 7 9.5 12.289 2.179 16.122-2.321 11.5-13.5a44.742 44.742 0 0 0-9.5-5.5c-5.182-3.826-6.682-8.659-4.5-14.5 1.409-1.281 2.909-2.281 4.5-3z"/><path style="opacity:1" fill="#d8a065" d="M115.5 319.5c.996-.086 1.829.248 2.5 1l1.5 9c3.894-1.017 7.727-1.017 11.5 0 .617.949.451 1.782-.5 2.5a32.308 32.308 0 0 0-10 2.5c.998 4.479 3.331 7.979 7 10.5 1.612.72 3.112.554 4.5-.5l1-10c1-1.333 2-1.333 3 0 3.235 12.938-1.265 17.272-13.5 13-3.648-3.963-5.648-8.629-6-14-2.477.449-4.477-.217-6-2 1.214-1.569 2.881-2.402 5-2.5-1.292-3.165-1.292-6.332 0-9.5zM45.5 340.5c1.644-.214 3.144.12 4.5 1 .273 4.729.94 9.396 2 14 .368 1.41 1.201 2.41 2.5 3 2.121-1.521 3.621-3.521 4.5-6a108.273 108.273 0 0 1 2-9c1-1.333 2-1.333 3 0l8 30a30.499 30.499 0 0 1 0 11l-1.5 1.5c-5 .667-10 .667-15 0-4.168-2.164-6.834-5.498-8-10 .114-1.28.78-2.113 2-2.5 1.904 3.474 4.57 6.308 8 8.5 3.333.667 6.667.667 10 0a9.84 9.84 0 0 0 1-4 129.536 129.536 0 0 0-5.5-21.5c-3.64 6.492-8.307 7.492-14 3a69.222 69.222 0 0 1-3.5-14c-2.43-1.537-2.43-3.204 0-5zM23.5 343.5c2.865-.445 5.365.222 7.5 2 3.357 6.908 4.857 14.075 4.5 21.5-.95.617-1.782.451-2.5-.5a82.18 82.18 0 0 0-6.5-19 22.241 22.241 0 0 0-2.5 6 116.261 116.261 0 0 1-2 13c-2.09 1.291-3.424.624-4-2 .066-5.517-1.767-10.184-5.5-14a9.107 9.107 0 0 1-5 1 142.43 142.43 0 0 1 0 21.5c-.95.617-1.782.451-2.5-.5a1101.987 1101.987 0 0 0-2.5-19c-2.713-3.506-2.046-6.506 2-9a19.973 19.973 0 0 0 4.5 3c5.284-2.074 8.95-.408 11 5 .495-3.328 1.662-6.328 3.5-9zM107.5 377.5c2.216.703 4.049 2.036 5.5 4 5.178 11.032 11.845 21.032 20 30 1.505 1.798 1.672 3.632.5 5.5-1.496.507-2.663.007-3.5-1.5a256.564 256.564 0 0 1-23.5-36c.363-.683.696-1.35 1-2z"/><path style="opacity:1" fill="#d8a065" d="M141.5 429.5h-9c-3.91-2.237-7.243-5.237-10-9 .848-1.783 2.181-2.283 4-1.5 3.253 3.414 7.086 5.914 11.5 7.5a114.014 114.014 0 0 0 3-24c1.373-3.632 2.873-3.799 4.5-.5a140.537 140.537 0 0 1-4 27.5z"/></svg>