<svg xmlns="http://www.w3.org/2000/svg" width="512" height="512" style="shape-rendering:geometricPrecision;text-rendering:geometricPrecision;image-rendering:optimizeQuality;fill-rule:evenodd;clip-rule:evenodd"><path style="opacity:1" fill="#f6df1d" d="M441.5 15.5c5.344-.166 10.677 0 16 .5l1.5 1.5a52.762 52.762 0 0 1 2 13c3.23 5.267 5.063 10.934 5.5 17a1656.24 1656.24 0 0 0-1.5 46 59.176 59.176 0 0 1-1.5 7.5 304.858 304.858 0 0 1 1 59.5c4.452 24.227 3.286 48.227-3.5 72-2.041 31.087 2.626 61.087 14 90 1.193 19.467.193 38.8-3 58a1350.555 1350.555 0 0 1-3 90l-1.5 1.5a3726.05 3726.05 0 0 0-232 3.5c-.59 1.299-1.59 2.132-3 2.5-7.545 1.052-14.878.552-22-1.5a278.156 278.156 0 0 1-42 1.5 308.6 308.6 0 0 0-61-5 2856.139 2856.139 0 0 1-21.5-3.5 345.802 345.802 0 0 1-52.5 2.5 100.411 100.411 0 0 1-5.5-20.5A2549.853 2549.853 0 0 1 30.5 272c-1.89-62.824-3.39-125.658-4.5-188.5-1.117-1.45-1.784-3.116-2-5a184.161 184.161 0 0 1 1-52c2.41-.64 4.91-.973 7.5-1 16.146 2.212 32.48 3.212 49 3a4006.55 4006.55 0 0 1 102-3 447.786 447.786 0 0 1 44 2c45.633-3.362 91.299-6.862 137-10.5 25.837-.168 51.503-.668 77-1.5z"/><path style="opacity:1" d="M349.5 196.5c17.361-.32 34.695.18 52 1.5l1.5 1.5c.667 9.333.667 18.667 0 28l-1.5 1.5-28 1c-10.625 3.459-17.292 10.626-20 21.5a215.59 215.59 0 0 0 7.5 25 36.548 36.548 0 0 0 7.5 6.5 244.872 244.872 0 0 0 19 9c7.218 6.557 14.385 13.057 21.5 19.5 8.358 11.721 13.691 24.721 16 39a552.224 552.224 0 0 1 0 47 64.26 64.26 0 0 1-7 23L403.5 433a229.249 229.249 0 0 1-18 6 440.228 440.228 0 0 1-55 1c-7.281-3.948-12.447-9.782-15.5-17.5a289.106 289.106 0 0 1 0-34l1.5-1.5a196.152 196.152 0 0 1 28 0c1.18 5.808 3.347 11.308 6.5 16.5 1.779 2.264 4.113 3.597 7 4 11.876-1.397 21.543-6.731 29-16 6.457-10.292 7.124-20.959 2-32a185.099 185.099 0 0 1-7-14c-10.964-14.299-24.797-24.799-41.5-31.5a70.588 70.588 0 0 1-10.5-9.5 743.374 743.374 0 0 0-10-29 420.29 420.29 0 0 1 0-41c.516-10.864 4.683-20.03 12.5-27.5a39.806 39.806 0 0 0 8-7c3.542-.121 6.542-1.287 9-3.5zM260.5 204.5c9.339-.166 18.673 0 28 .5l1.5 1.5a4791.053 4791.053 0 0 1 3 211l-6 14a136.596 136.596 0 0 1-15.5 12.5 249.707 249.707 0 0 1-54 0 128.157 128.157 0 0 0-19-12c-10.502-9.504-16.002-21.337-16.5-35.5a1259.87 1259.87 0 0 1 0-71l1.5-1.5a196.152 196.152 0 0 1 28 0l1.5 1.5 1 46c.282 12.295 5.115 22.462 14.5 30.5a552.845 552.845 0 0 1 16 9.5c12.479-6.199 18.146-16.365 17-30.5a7784.033 7784.033 0 0 0-3-148l.5-26.5c.717-.544 1.217-1.211 1.5-2z"/></svg>