<svg xmlns="http://www.w3.org/2000/svg" width="404" height="252" style="shape-rendering:geometricPrecision;text-rendering:geometricPrecision;image-rendering:optimizeQuality;fill-rule:evenodd;clip-rule:evenodd"><path style="opacity:1" fill="#639bff" d="M88.5 15.5c.996-.086 1.83.248 2.5 1 1.643 3.96 3.31 7.96 5 12 .884 2.14.384 3.807-1.5 5a53.705 53.705 0 0 1-5.5-9c-1.574-2.992-1.741-5.992-.5-9zM147.5 19.5c1.517.01 2.684.677 3.5 2 .975 4.438 2.808 8.438 5.5 12-2.375 2.623-4.541 2.29-6.5-1a83.69 83.69 0 0 0-3.5-10.5c.243-.902.577-1.735 1-2.5zM193.5 20.5c.996-.086 1.829.248 2.5 1a150.926 150.926 0 0 0 8.5 12c-.535 1.601-1.535 2.101-3 1.5-4.169-3.163-7.169-7.163-9-12 .243-.902.577-1.735 1-2.5zM239.5 24.5c2.666-.434 3.833.566 3.5 3l-9.5 9.5c-2.591.3-3.425-.866-2.5-3.5a417.456 417.456 0 0 1 8.5-9zM27.5 25.5c5.704 3.372 10.038 8.039 13 14-.027 2.204-1.027 3.038-3 2.5-2.748-4.752-6.248-8.919-10.5-12.5-.58-1.428-.412-2.762.5-4zM290.5 26.5c2.666-.434 3.833.566 3.5 3a24.023 24.023 0 0 1-8.5 4.5c-.576 2.268-1.91 3.268-4 3-1.172-1.868-1.005-3.702.5-5.5 2.601-2.175 5.434-3.842 8.5-5zM335.5 30.5a8.435 8.435 0 0 1 4 .5c1.333 1 1.333 2 0 3a210.418 210.418 0 0 1-12.5 3.5c-3.12-1.093-3.287-2.593-.5-4.5a545.511 545.511 0 0 0 9-2.5z"/><path style="opacity:1" fill="#d67bb9" d="M64.5 40.5c.996-.086 1.83.248 2.5 1 .667 4 .667 8 0 12a3356.222 3356.222 0 0 0-10 78 99.5 99.5 0 0 0-4 21c-1 1.333-2 1.333-3 0-.667-3-.667-6 0-9a715.477 715.477 0 0 0 9-68 476.393 476.393 0 0 0 5.5-35zM70.5 44.5c19.208-3.943 32.374 3.057 39.5 21a77.488 77.488 0 0 1 1 23c-.606 3.048-2.106 5.548-4.5 7.5-5.246 1.506-10.579 1.84-16 1a119.169 119.169 0 0 0-20-6c-4.473-1.773-6.306-4.94-5.5-9.5.414-.457.914-.79 1.5-1a38.43 38.43 0 0 0 5 6.5 6816.47 6816.47 0 0 0 25 6.5c4.968.436 8.468-1.564 10.5-6 3.336-27.66-8.83-40.827-36.5-39.5-1.184-1.145-1.184-2.312 0-3.5z"/><path style="opacity:1" fill="#639bff" d="M373.5 58.5a18.437 18.437 0 0 1 6 .5c1.333 1 1.333 2 0 3a47.285 47.285 0 0 0-17 5.5 3.646 3.646 0 0 1-1.5-1c-.163-1.887.671-3.387 2.5-4.5 3.35-1.486 6.684-2.653 10-3.5zM9.5 84.5c6.654.218 12.654 2.218 18 6-.5 1.38-1.5 2.047-3 2a77.763 77.763 0 0 0-15-4.5c-1.184-1.145-1.184-2.312 0-3.5z"/><path style="opacity:1" fill="#d67bb9" d="M190.5 94.5c9.006-.166 18.006 0 27 .5 1.333 1 1.333 2 0 3-4.028.392-8.028.892-12 1.5 1.176 17.606-1.324 34.606-7.5 51-2.536 3.266-5.869 4.6-10 4-8.877-.584-11.877-5.251-9-14a30.985 30.985 0 0 1 5.5-9c1.381.5 2.047 1.5 2 3a44.11 44.11 0 0 0-3.5 7c-2.173 7.817.661 10.65 8.5 8.5 3.576-2.979 5.742-6.813 6.5-11.5 2.977-12.796 4.144-25.796 3.5-39a60.94 60.94 0 0 1-11-.5c-1.228-1.49-1.228-2.99 0-4.5zM295.5 101.5c.996-.086 1.829.248 2.5 1 .211 5.718.711 11.385 1.5 17a74.086 74.086 0 0 0 12 1.5c1.333 1 1.333 2 0 3a72.367 72.367 0 0 1-12 .5c-.621 9.791 1.379 18.958 6 27.5 2.707 2.581 5.374 2.748 8 .5a50.07 50.07 0 0 0 .5-15c2.09-1.291 3.424-.624 4 2 .667 5 .667 10 0 15-3.509 4.113-7.676 4.946-12.5 2.5-3.262-2.592-5.762-5.759-7.5-9.5a77.931 77.931 0 0 1-2.5-23 40.914 40.914 0 0 1-9-.5c-1.333-1-1.333-2 0-3l9-1a43.903 43.903 0 0 1 0-18.5z"/><path style="opacity:1" fill="#639bff" d="M383.5 102.5c3.194-.324 4.194.842 3 3.5-5.074 2.398-10.24 3.565-15.5 3.5-.617-.949-.451-1.782.5-2.5 4.071-1.63 8.071-3.13 12-4.5z"/><path style="opacity:1" fill="#d67bb9" d="M335.5 104.5c4.581-.577 8.748.423 12.5 3l.5 3c-1.592 5.248-3.259 5.081-5-.5-6.543-2.71-9.543-.376-9 7a27.92 27.92 0 0 0 2 8.5c6.505 4.691 11.339 10.691 14.5 18 3.306 14.368-1.861 19.201-15.5 14.5-3.559-2.545-5.892-5.879-7-10-.112-1.662.554-2.829 2-3.5 2.406 6.072 6.739 10.072 13 12a18.08 18.08 0 0 0 3.5-2c1.007-4.611.34-8.945-2-13-3.287-5.621-7.621-10.288-13-14a46.335 46.335 0 0 1-1-17c.599-2.754 2.099-4.754 4.5-6zM226.5 112.5c12.669 1.964 15.336 8.131 8 18.5-3.906 1.434-7.906 1.767-12 1-.951-.718-1.117-1.551-.5-2.5a219.592 219.592 0 0 0 10.5-2.5c2.905-3.374 2.572-6.374-1-9-5.079-1.568-8.913-.068-11.5 4.5-1.45 8.176-.117 15.843 4 23a36.104 36.104 0 0 0 8.5 5 28.57 28.57 0 0 0 8-7.5c-2.153-5.848-.153-7.848 6-6 1.321 1.545.988 2.711-1 3.5-5.102 15.146-13.602 17.48-25.5 7-5.611-9.855-6.278-19.855-2-30 2.398-2.608 5.231-4.275 8.5-5zM265.5 115.5c3.35-.165 6.683.002 10 .5 1.43 1.88 1.096 3.38-1 4.5-4.237-1.717-7.737-.717-10.5 3-2.956 8.345-2.956 16.678 0 25 2.826 1.84 5.993 2.506 9.5 2a72.872 72.872 0 0 0 8-14c2.433 7.356.1 13.189-7 17.5-12.338 2-18.004-3.333-17-16-.892-8.903 1.775-16.403 8-22.5zM104.5 116.5c11.527-1.633 16.027 3.367 13.5 15a25.513 25.513 0 0 1 4.5-4c1 .333 1.667 1 2 2-1.591 5.104-4.924 6.937-10 5.5a99.101 99.101 0 0 1-1.5-13.5c-2.967-1.311-5.8-.978-8.5 1-3.578 8.64-6.078 17.64-7.5 27-1.176 3.802-3.01 4.468-5.5 2a434.447 434.447 0 0 1 9-32 173.55 173.55 0 0 0 4-3zM132.5 120.5c7.008-.166 14.008 0 21 .5 5.706 4.701 8.039 10.701 7 18 1.697 14.651-4.636 20.317-19 17-4.5-1.833-7.667-5-9.5-9.5a116.76 116.76 0 0 1-2.5-15c.126-3.996 1.126-7.663 3-11zm3 4c13.879-4.321 20.879.512 21 14.5 1.836 10.712-2.497 15.045-13 13a56.321 56.321 0 0 0-7-5.5c-2.79-7.332-3.124-14.665-1-22z"/><path style="opacity:1" fill="#639bff" d="M27.5 136.5c4.152.131 4.819 1.631 2 4.5a82.298 82.298 0 0 1-12 3.5c-1.819.158-3.152-.509-4-2a118.667 118.667 0 0 1 14-6zM372.5 149.5c4.019 2.629 8.352 4.795 13 6.5 2.787 1.907 2.62 3.407-.5 4.5a34.218 34.218 0 0 0-10.5-4.5c-2.821-1.621-3.487-3.788-2-6.5z"/><path style="opacity:1" fill="#d85762" d="M19.5 168.5a819.126 819.126 0 0 0 40 6.5 567.972 567.972 0 0 1 62 5 1582.067 1582.067 0 0 0 107 .5c46.169.175 92.169 3.008 138 8.5a20.51 20.51 0 0 1 8 3c1.775 3.394 1.108 6.06-2 8-73.325.104-146.659.77-220 2a1735.16 1735.16 0 0 0-64 7l-1 1a793.35 793.35 0 0 0 107 10 1537.817 1537.817 0 0 1 113 14 49.887 49.887 0 0 0 9 3c1.298 2.395.465 3.562-2.5 3.5-29.3-5.463-58.8-9.963-88.5-13.5a25145.53 25145.53 0 0 1-117-9 523.228 523.228 0 0 0-24-4c-2.148-2.075-2.482-4.408-1-7a20.512 20.512 0 0 1 8-3 7893.352 7893.352 0 0 1 59-6 14118.55 14118.55 0 0 1 220-2c-1.526-1.887-3.526-2.887-6-3a1064.777 1064.777 0 0 0-83-7 13442.002 13442.002 0 0 1-162-2 544.645 544.645 0 0 0-61-5 715.061 715.061 0 0 1-29-4 86.314 86.314 0 0 1-10-3c-1.184-1.145-1.184-2.312 0-3.5z"/></svg>