<svg xmlns="http://www.w3.org/2000/svg" width="404" height="252" style="shape-rendering:geometricPrecision;text-rendering:geometricPrecision;image-rendering:optimizeQuality;fill-rule:evenodd;clip-rule:evenodd"><path style="opacity:1" fill="#639bff" d="M3.5 4.5c3.052 1.38 5.218 3.714 6.5 7a141.165 141.165 0 0 1 21 19l1-10c1-1.333 2-1.333 3 0 .807 5.916.64 11.75-.5 17.5-6.582.81-13.082.643-19.5-.5-.617-.95-.45-1.782.5-2.5l13-1A120.83 120.83 0 0 0 9 16.5l-6-8c-.58-1.428-.412-2.762.5-4z"/><path style="opacity:1" fill="#d85762" d="M379.5 10.5c1.495-.085 2.495.582 3 2a415.659 415.659 0 0 1-28 31.5 42.268 42.268 0 0 0 15-.5c3.949 1.313 3.949 2.813 0 4.5-7.333.667-14.667.667-22 0-.836-7.173-.336-14.34 1.5-21.5 1-1.333 2-1.333 3 0-.291 4.644-.291 9.31 0 14a1167.66 1167.66 0 0 0 27.5-30z"/><path style="opacity:1" fill="#639bff" d="M293.5 31.5c3.361.703 3.694 2.036 1 4-2.142-.937-2.476-2.27-1-4zM144.5 33.5c3.361.703 3.694 2.036 1 4-2.142-.937-2.476-2.27-1-4z"/><path style="opacity:1" fill="#d67bb9" d="M49.5 53.5c8.75-.41 17.416.09 26 1.5C91.05 60.598 95.883 71.098 90 86.5c-6.624 7.894-15.124 11.894-25.5 12 3.335 11.005 8.501 21.005 15.5 30a703.508 703.508 0 0 1 15.5 32c.047 1.5-.62 2.5-2 3a818.28 818.28 0 0 0-26.5-47A525.955 525.955 0 0 0 56.5 92c1.956-4.658 3.956-4.492 6 .5 10.912 1.961 19.412-1.706 25.5-11 1.604-7.522-.563-13.689-6.5-18.5-9.582-5.434-19.748-6.934-30.5-4.5a638.183 638.183 0 0 1-4 105c-1 1.333-2 1.333-3 0a408.161 408.161 0 0 1 3-45 573.54 573.54 0 0 0-.5-55.5l.5-7.5c.995-.566 1.828-1.233 2.5-2z"/><path style="opacity:1" fill="#d85762" d="M187.5 69.5c3.361.703 3.694 2.037 1 4-2.142-.937-2.476-2.27-1-4z"/><path style="opacity:1" fill="#639bff" d="M277.5 70.5c3.361.703 3.694 2.037 1 4-2.142-.937-2.476-2.27-1-4z"/><path style="opacity:1" fill="#d85762" d="M117.5 73.5c3.361.703 3.694 2.037 1 4-2.142-.937-2.476-2.27-1-4z"/><path style="opacity:1" fill="#d67bb9" d="M365.5 90.5c10.126-2.43 17.959.57 23.5 9 1.676 12.813-3.491 21.646-15.5 26.5-6.173.783-12.173.116-18-2-1.351-2.125-.685-3.292 2-3.5 11.859 4.31 20.692.977 26.5-10 2.993-10.18-.84-15.513-11.5-16-6.512-.328-11.345 2.338-14.5 8-8.423 14.753-8.423 29.42 0 44l5.5 3.5c4.667.667 9.333.667 14 0a57.51 57.51 0 0 0 9-9c2.634-.925 3.801-.091 3.5 2.5a46.578 46.578 0 0 1-10.5 10.5c-17.175 4.143-27.675-2.357-31.5-19.5-1.913-13.873 1.087-26.54 9-38 2.671-2.402 5.505-4.402 8.5-6zM185.5 97.5c5.277-.569 10.277.264 15 2.5 2.605 1.931 2.605 3.764 0 5.5-3.708-3.505-8.041-4.672-13-3.5-5.213 5.058-7.213 11.058-6 18 18.127 3.105 24.294 13.271 18.5 30.5-3.617 4.82-8.45 6.82-14.5 6-6.767 1.123-11.1-1.544-13-8-.047-1.5.619-2.5 2-3a55.05 55.05 0 0 0 6 6.5c15.906 1.366 21.073-5.467 15.5-20.5l-2.5-2.5a92.745 92.745 0 0 1-16.5-7.5c-.767-4.094-.434-8.094 1-12 1.933-4.417 4.433-8.417 7.5-12zM279.5 98.5c5.976-1.276 10.809.39 14.5 5 2.582 4.49 4.582 9.156 6 14 .541-14.323 7.708-20.156 21.5-17.5 3.866 3.252 6.033 7.419 6.5 12.5a357.032 357.032 0 0 0 4 36c-1.587 1.227-2.921.894-4-1l-2-6a328.704 328.704 0 0 0-2-28c-2.726-12.361-8.56-14.194-17.5-5.5a60.245 60.245 0 0 0-2.5 11.5l-1 25c-1.587 1.227-2.921.894-4-1a544.998 544.998 0 0 0-5-30l-4-8c-3.315-3.605-6.982-3.939-11-1-.14 2.543-.806 4.877-2 7a297.945 297.945 0 0 0 2.5 39c.423 2.682-.577 3.848-3 3.5a15.256 15.256 0 0 1-1.5-4.5 6458.29 6458.29 0 0 1-3.5-44.5c-.502-3.679.832-4.846 4-3.5a172.687 172.687 0 0 0 4-3zM123.5 99.5a61.53 61.53 0 0 1 17 1.5c9.45 6.064 11.617 14.231 6.5 24.5-8.319 9.606-18.486 13.606-30.5 12 1.126 6.584 3.626 12.584 7.5 18 1.952 2.394 4.452 3.894 7.5 4.5 9.694 2.06 17.528-.773 23.5-8.5a43.385 43.385 0 0 1 2-8c2.125-1.351 3.292-.685 3.5 2a90.158 90.158 0 0 1-2.5 10c-8.839 9.016-19.339 11.516-31.5 7.5-4.549-3.253-8.049-7.42-10.5-12.5-4.124-9.617-5.791-19.617-5-30 .649-9.328 4.815-16.328 12.5-21zm1 4c5.549-.413 10.882.42 16 2.5 5.674 5.052 6.508 10.886 2.5 17.5-7.479 7.925-16.479 11.258-27 10-2.184-9.56-.684-18.56 4.5-27a173.55 173.55 0 0 0 4-3zM216.5 100.5c.996-.086 1.829.248 2.5 1-.418 15.241 2.248 29.908 8 44 1.719 2.719 4.053 4.719 7 6 9.111-12.602 11.944-26.435 8.5-41.5.898-7.156 2.731-7.323 5.5-.5-1.172 15.529 3.161 29.196 13 41 .301 2.591-.866 3.425-3.5 2.5a66.612 66.612 0 0 1-10.5-17.5 181.183 181.183 0 0 1-10.5 19.5c-3.57.804-6.737-.03-9.5-2.5-9.838-16.024-13.338-33.357-10.5-52z"/><path style="opacity:1" fill="#d85762" d="M328.5 171.5c3.361.703 3.694 2.037 1 4-2.142-.937-2.476-2.27-1-4zM154.5 176.5c3.361.703 3.694 2.037 1 4-2.142-.937-2.476-2.27-1-4z"/><path style="opacity:1" fill="#639bff" d="M283.5 193.5c3.361.703 3.694 2.037 1 4-2.142-.937-2.476-2.27-1-4zM350.5 194.5a311.288 311.288 0 0 1 23.5 4c.348 2.423-.818 3.423-3.5 3a128.232 128.232 0 0 0-14-1.5 69.2 69.2 0 0 1 4.5 6.5 490.819 490.819 0 0 0 22 20c1.505 1.798 1.672 3.632.5 5.5-.667.667-1.333.667-2 0-3.38-5.047-7.714-9.047-13-12-6.238-5.334-11.404-11.501-15.5-18.5a65.74 65.74 0 0 1-4.5 15.5c-.949.617-1.782.451-2.5-.5a129.559 129.559 0 0 1 4.5-22zM119.5 197.5c3.361.703 3.694 2.037 1 4-2.142-.937-2.476-2.27-1-4z"/><path style="opacity:1" fill="#d85762" d="M53.5 200.5c1.984-.016 2.984.984 3 3a283.14 283.14 0 0 1-10.5 28c-1.907 2.787-3.407 2.62-4.5-.5 2.654-5.779 4.82-11.613 6.5-17.5A592.287 592.287 0 0 0 17.5 241c-1.7.345-3.034-.322-4-2l37-33-22-1c-.95-.718-1.117-1.551-.5-2.5 8.599-.654 17.099-1.32 25.5-2z"/></svg>