<svg xmlns="http://www.w3.org/2000/svg" width="512" height="512" style="shape-rendering:geometricPrecision;text-rendering:geometricPrecision;image-rendering:optimizeQuality;fill-rule:evenodd;clip-rule:evenodd"><path style="opacity:1" fill="#fbaa06" d="M230.5 20.5c11.005-.166 22.005 0 33 .5a1412.203 1412.203 0 0 1 64 11c31.067 8.262 54.234 26.429 69.5 54.5l8 8a238.782 238.782 0 0 1 13 34c6.422 8.595 10.088 18.262 11 29 8.706 51.501-2.294 98.168-33 140a262.345 262.345 0 0 1-42.5 43.5c-19.705 11.347-40.705 19.347-63 24-30.795 1.984-61.129-.683-91-8l-24-10-39-27C89.24 274.874 72.073 220.041 85 155.5a361.145 361.145 0 0 1 9-28 479.623 479.623 0 0 1 20-36 221.835 221.835 0 0 1 22-28A119.132 119.132 0 0 1 149.5 51a690.424 690.424 0 0 0 39-17c13.758-5.643 27.758-10.143 42-13.5zm1 114c-7.116-2.442-11.782-.109-14 7-5.756-6.615-10.589-13.949-14.5-22-4.632-17.183-8.466-34.35-11.5-51.5l30-12a136.336 136.336 0 0 1 21-3c-4.132 8.692-6.632 17.859-7.5 27.5a732.888 732.888 0 0 0-3.5 54zm31-5c-3.323-3.775-7.323-4.775-12-3a256.262 256.262 0 0 1 5.5-58c1.379-5.089 3.546-9.755 6.5-14a11.47 11.47 0 0 1 2.5-1c17.163 3.208 34.33 6.374 51.5 9.5l2 1a127.958 127.958 0 0 1-21 17c-11.341 10.666-21.175 22.499-29.5 35.5a55.475 55.475 0 0 0-5.5 13zm32 13c.333-8.333-3.667-12.333-12-12a32.779 32.779 0 0 1 5.5-12A282.114 282.114 0 0 1 306.5 97c10.511-6.502 19.844-14.502 28-24 1.667-.667 3.333-.667 5 0a8.908 8.908 0 0 0 4 3 278.282 278.282 0 0 1 27 35.5c-28.429 3.23-53.763 13.563-76 31zm-91 13c-6.142 1.604-8.809 5.604-8 12-12.465-5.663-23.298-13.663-32.5-24l-3-5a376.015 376.015 0 0 0-22.5-23.5A131.958 131.958 0 0 1 158 89.5c2.734-7.066 7.734-11.733 15-14a3270.968 3270.968 0 0 1 12 49 311.051 311.051 0 0 0 18.5 31zm195 22a370.828 370.828 0 0 0-24-9.5 385.543 385.543 0 0 0-58-.5c2.258-6.138.591-10.804-5-14 16.166-12.405 34.5-19.905 55-22.5 5.68-.445 11.346-.945 17-1.5a20.093 20.093 0 0 0 1.5 6c7.809 12.928 12.309 26.928 13.5 42zm-203 23c2.197-7.268-.47-11.601-8-13-8.14 1.943-10.807 6.943-8 15-24.226.814-45.559-6.519-64-22-.504-6.325-.004-12.658 1.5-19 2.043-10.539 6.043-20.206 12-29a739.743 739.743 0 0 0 38.5 40.5 387.056 387.056 0 0 0 23 13 59.27 59.27 0 0 0 14 3.5v10a41.73 41.73 0 0 0-9 1zm197 37c-6.871-4.854-12.204-3.521-16 4-11.511-7.769-21.845-16.936-31-27.5-10.451-8.058-22.118-13.725-35-17-1.601-3.596-1.268-6.929 1-10 21.729-3.465 43.395-3.131 65 1a171.4 171.4 0 0 1 21 10.5c.969 5.998.803 11.998-.5 18a167.83 167.83 0 0 1-4.5 21zm-215 8c-1.549-6.28-5.549-8.78-12-7.5-5.695 2.979-7.361 7.479-5 13.5a108.078 108.078 0 0 1-24.5 6c-3.322-.256-6.322-1.256-9-3-8.795-16.584-13.128-34.251-13-53 17.682 12.838 37.515 19.171 59.5 19a272.768 272.768 0 0 0 33.5-3c2.557.081 4.39 1.247 5.5 3.5-9.909 10.752-21.575 18.919-35 24.5zm170 57c-2.144-5.408-6.144-7.742-12-7a247.567 247.567 0 0 0-23.5-63 134.072 134.072 0 0 1-9.5-10c1.747-2.751 4.08-4.751 7-6 10.302 2.984 19.635 7.817 28 14.5 2.916 4.92 6.582 9.253 11 13a134.744 134.744 0 0 1 28 23.5c-7.834 13.169-17.5 24.835-29 35zm-68 31c3.825-7.348 1.825-12.348-6-15a214.096 214.096 0 0 0 6.5-28 313.082 313.082 0 0 0-1.5-48c.072-2.06.405-4.06 1-6a27.09 27.09 0 0 1 7.5-4c8.418 7.757 14.418 17.09 18 28a159.436 159.436 0 0 1 13 43 90.455 90.455 0 0 1 0 19 151.446 151.446 0 0 1-38.5 11zm-94-25c2.361-6.021.695-10.521-5-13.5-6.399-1.302-10.399 1.198-12 7.5-11.06-6.89-20.393-15.723-28-26.5 32.77-5.176 61.103-19.009 85-41.5 1.667.333 2.667 1.333 3 3a18.251 18.251 0 0 1 2 8.5 48.01 48.01 0 0 1-5.5 16.5l-19 30a458.823 458.823 0 0 1-20.5 16zm52 23a19.177 19.177 0 0 1 2.5-5c.833-8.5-3-12.333-11.5-11.5-5.695 2.979-7.361 7.479-5 13.5-8.505-.725-16.505-3.059-24-7a364.335 364.335 0 0 1 17.5-14 273.134 273.134 0 0 0 29-46 89.355 89.355 0 0 0 3.5-19c3.399-1.812 7.066-2.479 11-2a437.09 437.09 0 0 1 1.5 46 89.526 89.526 0 0 1-6 23c-3.534 7.73-7.034 15.396-10.5 23-2.885.306-5.552-.027-8-1z"/><path style="opacity:1" fill="#4b5353" d="M262.5 129.5c2.351 9.478-1.316 13.978-11 13.5-5.868-3.04-7.368-7.54-4.5-13.5a14.698 14.698 0 0 1 3.5-3c4.677-1.775 8.677-.775 12 3zM282.5 130.5c8.333-.333 12.333 3.667 12 12-4.711 7.035-10.211 7.701-16.5 2-2.786-6.086-1.286-10.753 4.5-14zM231.5 134.5c5.279 5.169 5.279 10.336 0 15.5-8.237 3.048-12.903.215-14-8.5 2.218-7.109 6.884-9.442 14-7zM311.5 153.5c5.591 3.196 7.258 7.862 5 14-6.3 5.811-11.8 5.144-16.5-2-.82-8.349 3.014-12.349 11.5-12zM203.5 155.5c8.715 1.097 11.548 5.763 8.5 14-6.289 5.701-11.789 5.035-16.5-2-.809-6.396 1.858-10.396 8-12zM195.5 200.5c-1.679 3.176-4.346 4.843-8 5-2.917-.464-5.584-1.464-8-3-2.807-8.057-.14-13.057 8-15 7.53 1.399 10.197 5.732 8 13zM392.5 237.5c3.5 6.168 2.167 11.001-4 14.5-7.864.972-11.864-2.528-12-10.5 3.796-7.521 9.129-8.854 16-4zM177.5 245.5c-.616 7.45-4.616 10.617-12 9.5a27.241 27.241 0 0 1-5-3.5c-2.361-6.021-.695-10.521 5-13.5 6.451-1.28 10.451 1.22 12 7.5zM185.5 308.5c-5.169 5.279-10.336 5.279-15.5 0a10.098 10.098 0 0 1-1.5-6c1.601-6.302 5.601-8.802 12-7.5 5.695 2.979 7.361 7.479 5 13.5zM335.5 295.5c5.856-.742 9.856 1.592 12 7-.52 9.36-5.187 12.527-14 9.5-5.701-6.289-5.035-11.789 2-16.5zM237.5 331.5c-5.419 1.99-10.085.99-14-3-2.361-6.021-.695-10.521 5-13.5 8.5-.833 12.333 3 11.5 11.5a19.177 19.177 0 0 0-2.5 5zM273.5 318.5c7.825 2.652 9.825 7.652 6 15-6.247 4.653-11.413 3.653-15.5-3-1.117-7.384 2.05-11.384 9.5-12z"/><path style="opacity:1" fill="#fefffe" d="M62.5 338.5c10.788-2.385 19.622.615 26.5 9 3.05 5.654 1.55 8.487-4.5 8.5-2.003-1.819-3.336-3.985-4-6.5-4.628-2.684-9.628-3.517-15-2.5-7.978 7.773-7.978 15.439 0 23a164.448 164.448 0 0 1 24 8c14.883 15.029 17.05 31.862 6.5 50.5-8.35 10.049-18.85 13.215-31.5 9.5-7.13-5.142-11.962-11.975-14.5-20.5-.995-2.626-1.328-5.293-1-8 2.966-2.765 5.633-2.432 8 1a66.144 66.144 0 0 0 8 17c8.296 5.192 15.962 4.192 23-3a78.047 78.047 0 0 0 6.5-20c-1.57-8.312-5.57-15.145-12-20.5a253.09 253.09 0 0 1-24-8c-8.105-8.193-9.938-17.693-5.5-28.5 2.406-3.908 5.572-6.908 9.5-9zM166.5 355.5c3.751-.418 5.918 1.249 6.5 5a1641.51 1641.51 0 0 0 5 57c-.455 6.133 2.211 9.8 8 11a3.943 3.943 0 0 0 2-1c.65-4.691.483-9.357-.5-14 .163-4 2.163-5.5 6-4.5 1.393 1.171 2.227 2.671 2.5 4.5.667 6 .667 12 0 18a11.532 11.532 0 0 1-3.5 4.5c-7.918 1.814-14.751-.019-20.5-5.5l-2-8a13609.136 13609.136 0 0 1-5.5-62c-.063-2.014.603-3.681 2-5zM338.5 359.5c11.991-1.686 19.658 3.147 23 14.5-.236 4.576-2.57 6.576-7 6-2.478-12.054-9.144-15.054-20-9-3.579 3.252-5.912 7.252-7 12 1.207 2.868 3.373 4.701 6.5 5.5 4.81.693 9.643 1.193 14.5 1.5 2.667 2.333 2.667 4.667 0 7a481.787 481.787 0 0 0-19 4c-6.255 6.112-7.589 13.112-4 21 5.722 4.342 12.055 5.508 19 3.5a21.631 21.631 0 0 1 4-7.5c2.201-.825 4.034-.325 5.5 1.5 1.467 6.87-1.033 11.704-7.5 14.5-13.201 3.049-23.701-.784-31.5-11.5-2.138-11.635 1.028-21.468 9.5-29.5a17.842 17.842 0 0 1-4.5-5.5c-1.721-8.964.779-16.464 7.5-22.5l11-5.5zM436.5 361.5c8.007-.166 16.007 0 24 .5 2.691 2.311 3.857 5.144 3.5 8.5-2.979 2.74-5.812 2.573-8.5-.5a64.218 64.218 0 0 0-16 0c-2.863 5.103-3.529 10.436-2 16a93.208 93.208 0 0 0 17 2c2.667 2.333 2.667 4.667 0 7-18.045 2.608-23.712 12.441-17 29.5 9.347 3.437 17.014 1.27 23-6.5 5.492-.486 7.325 2.014 5.5 7.5-1.5 2.833-3.667 5-6.5 6.5-8.566 2.88-17.232 3.214-26 1-5.303-4.553-7.636-10.386-7-17.5l1.5-15c1.876-2.203 3.71-4.37 5.5-6.5a18.061 18.061 0 0 1-4.5-5.5c-1.073-7.517-.406-14.85 2-22a37.84 37.84 0 0 1 5.5-5zM393.5 363.5c10.816.479 14.15 5.646 10 15.5-4.223.787-6.389-1.047-6.5-5.5-2.967-1.311-5.8-.978-8.5 1-4.324 5.918-6.657 12.585-7 20a173.582 173.582 0 0 0 3.5 25c3.681 2.86 7.848 3.693 12.5 2.5 1.723-.523 3.056-1.523 4-3a33.79 33.79 0 0 0 1-10.5c-7.497.696-9.497-2.137-6-8.5 7-.667 14-.667 21 0 2.667 2.333 2.667 4.667 0 7-2.31.497-4.643.663-7 .5 2.943 16.885-4.057 24.718-21 23.5-5.542-.349-9.709-2.849-12.5-7.5-3.519-14.563-4.186-29.23-2-44a74.57 74.57 0 0 1 7.5-12.5 150.71 150.71 0 0 1 11-3.5zM120.5 372.5c16.292-2.193 27.792 4.14 34.5 19a205.541 205.541 0 0 0 2.5 22.5c-1.469 19.13-11.802 27.797-31 26-7.921-3.586-13.421-9.42-16.5-17.5a116.66 116.66 0 0 1-4.5-26.5c-.338-11.452 4.662-19.286 15-23.5zm3 8c17.184.033 25.351 8.7 24.5 26 .667 5 .667 10 0 15a51.24 51.24 0 0 1-8.5 8.5c-7.647 2.119-13.98.286-19-5.5a16.086 16.086 0 0 0-2.5-5 4105.94 4105.94 0 0 0-3.5-28.5c1.371-5.085 4.371-8.585 9-10.5zM253.5 379.5c14.42-2.369 25.253 2.631 32.5 15 2.126 8.585-1.041 14.085-9.5 16.5a64.218 64.218 0 0 1-16 0c-3.432-2.367-3.765-5.034-1-8a31.291 31.291 0 0 1 8 .5 54.722 54.722 0 0 1 9-2c-.239-1.967.094-3.801 1-5.5-6.626-7.489-14.626-9.656-24-6.5-6.577 8.929-6.577 17.929 0 27 6.473 3.803 13.473 4.97 21 3.5 1.504-1.491 2.337-3.324 2.5-5.5 4.46-3.167 7.293-2 8.5 3.5-1.154 4.493-3.821 7.826-8 10-26.265 5.333-38.432-5.167-36.5-31.5.593-8.41 4.759-14.076 12.5-17zM198.5 381.5c4.535-.154 7.869 1.846 10 6a134.532 134.532 0 0 1 12.5 28c2.458-9.287 4.791-18.62 7-28 1.845-4.295 4.512-4.962 8-2a183.089 183.089 0 0 1-10 45c-2.992 6.096-6.325 6.43-10 1-3.041-16.082-9.374-30.749-19-44-.748-2.34-.248-4.34 1.5-6zM320.5 449.5c3.599-.562 5.599.938 6 4.5a1783.207 1783.207 0 0 1-16.5 44.5 32.005 32.005 0 0 1-5.5 7.5c-3.357 1.141-5.357-.025-6-3.5 6.966-17.92 14.3-35.587 22-53zM253.5 458.5c3.751-.418 5.918 1.249 6.5 5 .62 10.01.953 20.01 1 30-.804 1.304-1.971 1.971-3.5 2-4.637-.72-9.303-1.22-14-1.5l-1.5-1.5c-1.544-6.584-1.877-13.251-1-20 3.426-2.315 7.259-3.315 11.5-3-1.624-3.944-1.291-7.611 1-11zm-6 19c7.198 1.199 8.865 5.032 5 11.5-2.525.896-4.692.396-6.5-1.5-.963-3.649-.463-6.982 1.5-10zM267.5 461.5a112.97 112.97 0 0 1 15 .5c8.264 2.361 10.764 7.527 7.5 15.5-4.152 4.387-9.319 6.221-15.5 5.5-2.215 1.391-2.215 3.057 0 5 3.889.815 7.222-.185 10-3 3.837-1 5.837.5 6 4.5.094 2.412-.906 4.245-3 5.5a42.087 42.087 0 0 1-16 1 25.55 25.55 0 0 1-6.5-5.5 332.32 332.32 0 0 0-2.5-18 100.318 100.318 0 0 0 1.5-8 30.233 30.233 0 0 1 3.5-3zm5 7c3.507-.506 6.674.16 9.5 2 .825 2.201.325 4.034-1.5 5.5a16.242 16.242 0 0 1-8 0c-2.586-2.494-2.586-4.994 0-7.5zM153.5 462.5c4.5-.336 6.333 1.664 5.5 6a149.492 149.492 0 0 1-21.5 19.5 134.697 134.697 0 0 0 23 13c4.237 3.521 3.903 6.355-1 8.5a539.57 539.57 0 0 1-28-13.5c-5.967.701-8.467-1.799-7.5-7.5a95.927 95.927 0 0 0 14.5-14 4018.182 4018.182 0 0 1 15-12zM340.5 464.5a208.952 208.952 0 0 1 34 8.5c3.251 5.204 2.251 9.538-3 13a282.183 282.183 0 0 0-23.5 15.5c-4.095 2.032-6.928 1.032-8.5-3 .376-1.883 1.376-3.383 3-4.5a8509.689 8509.689 0 0 1 23-15 845.03 845.03 0 0 0-25-6c-2.601-2.83-2.601-5.663 0-8.5zM190.5 465.5c3.35-.165 6.683.002 10 .5 5.322 2.922 6.322 6.922 3 12-3.848.987-5.848-.513-6-4.5a51.569 51.569 0 0 0-7 1c-.355 5.841.312 11.508 2 17h6c.839-5.168 3.339-6.168 7.5-3 1.32 6.858-1.514 10.858-8.5 12-7.433.706-12.6-2.294-15.5-9-.001-6.99.332-13.99 1-21 2.17-2.323 4.67-3.99 7.5-5z"/><path style="opacity:1" fill="#fefffe" d="M215.5 465.5a31.818 31.818 0 0 1 12 1.5c2.5 1.167 4.333 3 5.5 5.5.667 6 .667 12 0 18-1.015 2.602-2.848 4.435-5.5 5.5-11.744 4.551-18.577.717-20.5-11.5a49.226 49.226 0 0 1 0-14c2.523-2.327 5.357-3.993 8.5-5zm1 8c3.045-.158 5.879.509 8.5 2 .827 4.041.66 8.041-.5 12a27.07 27.07 0 0 1-4.5 2c-5.713-4.405-6.88-9.738-3.5-16z"/></svg>