<svg xmlns="http://www.w3.org/2000/svg" width="410" height="228" style="shape-rendering:geometricPrecision;text-rendering:geometricPrecision;image-rendering:optimizeQuality;fill-rule:evenodd;clip-rule:evenodd"><path style="opacity:1" fill="#639bff" d="M230.5 2.5c2.666-.434 3.833.566 3.5 3-3.952 2.89-8.119 5.057-12.5 6.5-1.211-1.113-1.211-2.28 0-3.5 2.868-2.374 5.868-4.374 9-6zM172.5 3.5a55.796 55.796 0 0 1 9 4.5c2.579 1.612 2.579 3.112 0 4.5-4.387-.857-7.72-3.19-10-7 .363-.683.696-1.35 1-2zM316.5 4.5c1.495-.085 2.495.581 3 2a14.984 14.984 0 0 1-3 3.5l-13 6.5c-2.579-1.388-2.579-2.888 0-4.5 4.173-2.98 8.506-5.48 13-7.5zM120.5 10.5c1.967-.24 3.801.094 5.5 1 .74 3.151 2.24 5.818 4.5 8-2.375 2.622-4.541 2.29-6.5-1-.601-2.706-2.101-4.706-4.5-6 .363-.684.696-1.35 1-2zM368.5 18.5c3.194-.324 4.194.842 3 3.5a864.174 864.174 0 0 1-13.5 4.5c-3.12-1.093-3.287-2.593-.5-4.5 3.794-1.114 7.46-2.28 11-3.5z"/><path style="opacity:1" fill="#d85762" d="M203.5 19.5a665.973 665.973 0 0 1 98 6.5c21.227 3.171 41.227 9.838 60 20 20.363 15.694 30.863 36.527 31.5 62.5 5.415 26.081-1.418 48.247-20.5 66.5-16.288 10.976-33.955 18.976-53 24a443.368 443.368 0 0 1-64 2 1566.301 1566.301 0 0 0-71-10 100.553 100.553 0 0 1-13-4 530.245 530.245 0 0 1-41-8 904.287 904.287 0 0 0-57-18c-10.393-4.285-19.56-10.451-27.5-18.5-5.227-10.498-8.06-21.665-8.5-33.5-.483-13.982 1.684-27.482 6.5-40.5A70.58 70.58 0 0 1 53.5 58a213.29 213.29 0 0 1 52-13.5c3.208-.312 4.208.855 3 3.5-19.08 2.587-37.413 7.587-55 15-4.877 5.609-8.043 12.109-9.5 19.5a2677.504 2677.504 0 0 0-2.5 26.5c.455 11.217 3.288 21.717 8.5 31.5 7.285 7.325 15.785 12.825 25.5 16.5a2147.284 2147.284 0 0 1 65 20 195.232 195.232 0 0 1 38 8 4281.223 4281.223 0 0 1 78 12 345.474 345.474 0 0 0 66-3c18.101-5.717 34.768-14.051 50-25a141.966 141.966 0 0 0 15.5-25.5c3.432-25.085.432-49.418-9-73A104.568 104.568 0 0 0 358.5 49c-20.541-10.22-42.207-16.887-65-20-74.703-9.086-148.703-5.086-222 12a281.83 281.83 0 0 0-21 8c-2.105 1.193-3.772 2.86-5 5-2.592.3-3.425-.866-2.5-3.5a11.529 11.529 0 0 1 3.5-4.5 155.08 155.08 0 0 1 35-12c40.426-8.073 81.092-12.907 122-14.5z"/><path style="opacity:1" fill="#639bff" d="M51.5 21.5c4.92.923 9.42 2.923 13.5 6 .667.667.667 1.333 0 2-1.388 1.054-2.888 1.22-4.5.5a59.006 59.006 0 0 0-9-5c-1.184-1.145-1.184-2.312 0-3.5zM132.5 34.5c3.361.703 3.694 2.036 1 4-2.142-.937-2.476-2.27-1-4zM200.5 34.5c3.361.703 3.694 2.036 1 4-2.142-.937-2.476-2.27-1-4zM269.5 37.5c3.361.703 3.694 2.036 1 4-2.142-.937-2.476-2.27-1-4zM409.5 38.5v2a32.204 32.204 0 0 0-10 4c-1-.333-1.667-1-2-2 3.025-4.342 7.025-5.675 12-4zM295.5 47.5c3.361.703 3.694 2.036 1 4-2.142-.937-2.476-2.27-1-4z"/><path style="opacity:1" fill="#d67bb9" d="M120.5 52.5c7.84-1.376 14.507.624 20 6-.671 1.446-1.838 2.112-3.5 2-3.09-2.2-6.59-3.533-10.5-4-3.035-.066-5.202 1.267-6.5 4a120.047 120.047 0 0 0-8.5 24c.71 4.303 1.21 8.637 1.5 13a846.134 846.134 0 0 0 24.5 12.5c3.592 2.921 6.425 6.421 8.5 10.5a90.455 90.455 0 0 1 0 19 95.456 95.456 0 0 1-13.5 8.5c-14.13 1.173-28.13.507-42-2-4.146-2.285-7.146-5.618-9-10 .114-1.28.78-2.113 2-2.5a73.412 73.412 0 0 0 7 7.5 135.583 135.583 0 0 0 10 3c10 .667 20 .667 30 0a61.422 61.422 0 0 0 11.5-6.5c3.225-10.999.058-19.499-9.5-25.5A318.042 318.042 0 0 1 109 99.5c-1.439-7.705-1.439-15.371 0-23 3.067-8.463 6.9-16.464 11.5-24z"/><path style="opacity:1" fill="#639bff" d="M21.5 53.5c2.872 1.026 5.372 2.692 7.5 5 .925 2.634.091 3.8-2.5 3.5L21 56.5c-.47-1.077-.303-2.077.5-3zM162.5 55.5c3.361.703 3.694 2.036 1 4-2.142-.937-2.476-2.27-1-4zM238.5 58.5c3.361.703 3.694 2.036 1 4-2.142-.937-2.476-2.27-1-4zM322.5 60.5c3.361.703 3.694 2.036 1 4-2.142-.937-2.476-2.27-1-4zM72.5 64.5c3.36.703 3.694 2.037 1 4-2.142-.937-2.476-2.27-1-4zM198.5 68.5c3.361.703 3.694 2.037 1 4-2.142-.937-2.476-2.27-1-4zM350.5 73.5c3.361.703 3.694 2.037 1 4-2.142-.937-2.476-2.27-1-4z"/><path style="opacity:1" fill="#d67bb9" d="M315.5 75.5c2.276.257 3.443 1.59 3.5 4a422.058 422.058 0 0 1 3 34c2.928-1.538 6.094-2.204 9.5-2 9.2-.655 11.7 3.012 7.5 11-1.952 2.394-4.452 3.894-7.5 4.5 4.23 3.84 7.063 8.34 8.5 13.5a3.647 3.647 0 0 1-1.5 1 138.987 138.987 0 0 1-12-15.5c1.935-2.645 4.602-4.311 8-5a13.92 13.92 0 0 0 3-4c-3.809-1.588-7.809-1.922-12-1a8.905 8.905 0 0 0-4 3c2.237 7.999 3.07 16.166 2.5 24.5-1 1.333-2 1.333-3 0a2442.62 2442.62 0 0 1-6.5-64.5 10.984 10.984 0 0 1 1-3.5zM161.5 80.5c2.45.374 3.45 1.874 3 4.5a70.608 70.608 0 0 0-2.5 16.5 1662.544 1662.544 0 0 1 19.5-3c2.096 1.12 2.43 2.62 1 4.5a338.186 338.186 0 0 0-20 2.5c-2.276 12.59-.943 24.59 4 36 6.566 8.964 13.566 9.297 21 1a239.548 239.548 0 0 0 8-12.5c1.737-.612 2.737.054 3 2-2.786 7.777-7.453 14.11-14 19-8.2 3.037-15.367 1.537-21.5-4.5-5.059-13.181-6.892-26.848-5.5-41a19.048 19.048 0 0 0-6 1c-2.685-.208-3.351-1.375-2-3.5a18.991 18.991 0 0 1 8-1.5 90.43 90.43 0 0 1 4-21z"/><path style="opacity:1" fill="#639bff" d="M268.5 81.5c3.361.703 3.694 2.037 1 4-2.142-.937-2.476-2.27-1-4z"/><path style="opacity:1" fill="#d67bb9" d="M235.5 82.5c.996-.086 1.829.248 2.5 1a2526.013 2526.013 0 0 0 8 35c2.337 7.509 6.171 14.176 11.5 20 1.574 1.131 3.241 1.298 5 .5 2.261-2.772 3.761-5.938 4.5-9.5 1-1.333 2-1.333 3 0 .716 6.073-1.451 10.906-6.5 14.5-5.326.888-9.493-.945-12.5-5.5a3599.656 3599.656 0 0 0-10-16 171.276 171.276 0 0 0-4-18c-7.728-9.523-16.894-11.357-27.5-5.5-4.381 11.153-3.381 21.82 3 32 3.883 3.109 8.216 5.442 13 7 7.055 2.132 12.055-.035 15-6.5 2.441 2.028 2.608 4.362.5 7-4.623 4.521-10.123 6.021-16.5 4.5a276.037 276.037 0 0 1-12-5.5c-9.727-11.32-12.727-24.32-9-39 2.435-4.219 6.101-6.385 11-6.5 7.165-1.352 13.832-.186 20 3.5.213-4.362.546-8.695 1-13zM285.5 88.5c7.723-2.103 12.723.564 15 8 .047 1.5-.619 2.5-2 3a19.896 19.896 0 0 1-5-6.5c-2-.667-4-.667-6 0-2.647 4.407-4.147 9.24-4.5 14.5a100.2 100.2 0 0 0 0 20c1.941 5.775 5.774 9.775 11.5 12 3.902-4.766 5.735-10.1 5.5-16 1.587-1.227 2.921-.894 4 1 .249 7.004-1.917 13.171-6.5 18.5-8.725-.011-14.891-4.178-18.5-12.5a210.395 210.395 0 0 1 0-29c.943-5.028 3.11-9.361 6.5-13z"/><path style="opacity:1" fill="#639bff" d="M332.5 89.5c3.361.703 3.694 2.037 1 4-2.142-.937-2.476-2.27-1-4zM409.5 94.5v4c-3.773.678-6.606-.656-8.5-4-1.88 1.43-3.38 1.096-4.5-1 .77-1.772 2.103-2.772 4-3a45 45 0 0 1 9 4zM88.5 92.5c3.36.703 3.694 2.037 1 4-2.142-.937-2.476-2.27-1-4zM5.5 98.5c6.342-.166 12.675 0 19 .5 1.333 1 1.333 2 0 3a90.455 90.455 0 0 1-19 0c-1.184-1.145-1.184-2.312 0-3.5zM57.5 103.5c3.36.703 3.694 2.037 1 4-2.142-.937-2.476-2.27-1-4zM365.5 107.5c3.361.703 3.694 2.037 1 4-2.142-.937-2.476-2.27-1-4zM74.5 148.5c3.36.703 3.694 2.037 1 4-2.142-.937-2.476-2.27-1-4zM31.5 154.5c4.152.131 4.819 1.631 2 4.5a57.532 57.532 0 0 0-12.5 2.5c-3.299-1.627-3.132-3.127.5-4.5a838.469 838.469 0 0 1 10-2.5zM147.5 154.5c3.361.703 3.694 2.037 1 4-2.142-.937-2.476-2.27-1-4zM350.5 155.5c3.361.703 3.694 2.037 1 4-2.142-.937-2.476-2.27-1-4zM264.5 160.5c3.361.703 3.694 2.037 1 4-2.142-.937-2.476-2.27-1-4zM310.5 160.5c3.361.703 3.694 2.037 1 4-2.142-.937-2.476-2.27-1-4zM219.5 164.5c3.361.703 3.694 2.037 1 4-2.142-.937-2.476-2.27-1-4zM388.5 169.5c.996-.086 1.829.248 2.5 1 1.027 5.054 3.36 9.388 7 13 .783 1.819.283 3.152-1.5 4-7.091-4.171-9.757-10.171-8-18zM184.5 173.5c3.361.703 3.694 2.037 1 4-2.142-.937-2.476-2.27-1-4zM81.5 182.5c2.576.222 3.41 1.555 2.5 4-3.74 3.787-7.906 6.62-12.5 8.5-.95-.718-1.117-1.551-.5-2.5a146.264 146.264 0 0 1 10.5-10zM268.5 187.5c3.361.703 3.694 2.037 1 4-2.142-.937-2.476-2.27-1-4zM160.5 204.5c2.576.222 3.41 1.555 2.5 4a28.54 28.54 0 0 0-8.5 7c-3.101 1.403-4.267.403-3.5-3a216.717 216.717 0 0 1 9.5-8zM308.5 213.5c2.252.416 3.752 1.749 4.5 4a38.852 38.852 0 0 0 1.5 7c-1.12 2.096-2.62 2.43-4.5 1-.101-3.421-.934-6.588-2.5-9.5.243-.902.577-1.735 1-2.5zM237.5 227.5h-3a11.803 11.803 0 0 1-2-3.5c1.027-3.423 2.361-6.59 4-9.5 1.491.848 2.158 2.181 2 4a41.535 41.535 0 0 0-1 9z"/></svg>