<svg xmlns="http://www.w3.org/2000/svg" width="512" height="512" style="shape-rendering:geometricPrecision;text-rendering:geometricPrecision;image-rendering:optimizeQuality;fill-rule:evenodd;clip-rule:evenodd"><path style="opacity:1" fill="#fefffe" d="M219.5 50.5c24.254-1.957 47.921.876 71 8.5 16.991 7.327 26.824 20.16 29.5 38.5.667 15 .667 30 0 45a313.452 313.452 0 0 0-6 19 1448.688 1448.688 0 0 1-40 80c-13.28 32.061-21.614 65.394-25 100-3.914 7.305-9.748 9.472-17.5 6.5-2.635-1.961-4.469-4.461-5.5-7.5 2.052-47.981 15.052-92.648 39-134a859.727 859.727 0 0 0 21-42 647.404 647.404 0 0 1 10-27c.667-12 .667-24 0-36l-5-13a25.564 25.564 0 0 0-8.5-6.5c-25.315-8.308-50.981-9.641-77-4-16.011 5.713-29.511 14.88-40.5 27.5-4.639 16.669-2.973 32.669 5 48 2.457 12.187-2.376 18.354-14.5 18.5-3.039-1.031-5.539-2.865-7.5-5.5a598.89 598.89 0 0 1-9-26 289.106 289.106 0 0 1 0-34 48.22 48.22 0 0 1 7-16c19.704-22.43 44.204-35.764 73.5-40zM229.5 373.5a112.97 112.97 0 0 1 15 .5c8.036 3.57 11.203 9.737 9.5 18.5-1.031 3.039-2.865 5.539-5.5 7.5-13.026 4.891-22.192 1.058-27.5-11.5-1.154-7.329 1.679-12.329 8.5-15zM348.5 427.5a40.914 40.914 0 0 1 9 .5c2.667 2.333 2.667 4.667 0 7a2780.849 2780.849 0 0 1-33 4l-4 2c-1.135 4.748-1.302 9.581-.5 14.5 12.152 1.388 24.319 1.055 36.5-1 5.99.179 7.323 2.679 4 7.5a211.162 211.162 0 0 1-42 2.5 1443.811 1443.811 0 0 0-3.5 36c-2.333 2.667-4.667 2.667-7 0a3172.562 3172.562 0 0 1 4-65 175.346 175.346 0 0 1 9.5-4.5 873.415 873.415 0 0 0 27-3.5zM259.5 432.5c6.342-.166 12.675 0 19 .5 2.667 2.333 2.667 4.667 0 7a675.403 675.403 0 0 1-29 1.5 571.7 571.7 0 0 1 1.5 54c-1.029 3.375-3.196 4.542-6.5 3.5-1.394-.956-2.061-2.289-2-4 1.015-17.233.348-34.4-2-51.5a289.832 289.832 0 0 0-24-1.5c-4.237-3.521-3.903-6.355 1-8.5 14.164 1.055 28.164.722 42-1zM96.5 433.5c2.222-.322 4.056.345 5.5 2a483.453 483.453 0 0 1 17 38 115.777 115.777 0 0 0 13 21c3.048-3.069 5.381-6.735 7-11a182.596 182.596 0 0 0 9-29c3.805-3.039 6.805-2.372 9 2a518.006 518.006 0 0 1 12 37 89.054 89.054 0 0 0 8-24 539.36 539.36 0 0 1 4-31c3.84-4.328 6.674-3.828 8.5 1.5a415.99 415.99 0 0 0-4.5 32.5c-2.089 10.935-5.755 21.268-11 31-3.333 2.667-6.667 2.667-10 0a196.32 196.32 0 0 1-11-32 153.866 153.866 0 0 1-14 30c-2.311 2.691-5.144 3.857-8.5 3.5-8.453-8.128-14.953-17.628-19.5-28.5A2038.473 2038.473 0 0 0 94.5 438c.019-1.833.685-3.333 2-4.5z"/></svg>